<svg xmlns="http://www.w3.org/2000/svg" xmlns:xlink="http://www.w3.org/1999/xlink" width="333.901" height="504.949" viewBox="0 0 333.901 504.949">
  <defs>
    <linearGradient id="linear-gradient" x1="11.877" y1="4.781" x2="11.877" y2="3.534" gradientUnits="objectBoundingBox">
      <stop offset="0" stop-color="#4e254f"/>
      <stop offset="0.264" stop-color="#461741"/>
      <stop offset="0.637" stop-color="#400b36"/>
      <stop offset="1" stop-color="#3e0732"/>
    </linearGradient>
    <linearGradient id="linear-gradient-2" x1="22.543" y1="17.784" x2="22.543" y2="16.869" gradientUnits="objectBoundingBox">
      <stop offset="0" stop-color="#fe875e"/>
      <stop offset="1" stop-color="#ffa774"/>
    </linearGradient>
    <linearGradient id="linear-gradient-3" x1="8.59" y1="2.415" x2="8.59" y2="1.417" gradientUnits="objectBoundingBox">
      <stop offset="0" stop-color="#3a1b43"/>
      <stop offset="0.33" stop-color="#261039"/>
      <stop offset="0.67" stop-color="#1a0933"/>
      <stop offset="1" stop-color="#160732"/>
    </linearGradient>
    <linearGradient id="linear-gradient-4" x1="4.374" y1="2.596" x2="4.374" y2="1.471" gradientUnits="objectBoundingBox">
      <stop offset="0" stop-color="#401441"/>
      <stop offset="0.398" stop-color="#3c1445"/>
      <stop offset="0.808" stop-color="#331551"/>
      <stop offset="1" stop-color="#2d165a"/>
    </linearGradient>
    <linearGradient id="linear-gradient-5" x1="21.44" y1="9.554" x2="22.683" y2="9.554" gradientUnits="objectBoundingBox">
      <stop offset="0" stop-color="#401441"/>
      <stop offset="0.485" stop-color="#431844"/>
      <stop offset="0.984" stop-color="#4d244e"/>
      <stop offset="1" stop-color="#4e254f"/>
    </linearGradient>
    <linearGradient id="linear-gradient-6" x1="18.26" y1="6.469" x2="18.26" y2="5.432" gradientUnits="objectBoundingBox">
      <stop offset="0" stop-color="#ffa774"/>
      <stop offset="1" stop-color="#fe875e"/>
    </linearGradient>
    <radialGradient id="radial-gradient" cx="0.733" cy="0.735" r="0.423" gradientTransform="matrix(-1.151, -0.449, -0.578, 0.894, 43.785, 9.047)" gradientUnits="objectBoundingBox">
      <stop offset="0" stop-color="#fff"/>
      <stop offset="1" stop-color="#d32f31"/>
    </radialGradient>
    <linearGradient id="linear-gradient-7" x1="201.244" y1="30.952" x2="201.244" y2="30.187" gradientUnits="objectBoundingBox">
      <stop offset="0" stop-color="#a52731"/>
      <stop offset="1" stop-color="#7c2c5b"/>
    </linearGradient>
    <linearGradient id="linear-gradient-8" x1="55.052" y1="28.491" x2="56.278" y2="28.491" xlink:href="#linear-gradient-7"/>
    <linearGradient id="linear-gradient-9" x1="16.858" y1="15.15" x2="16.858" y2="13.979" xlink:href="#linear-gradient-2"/>
    <linearGradient id="linear-gradient-10" x1="800.451" y1="187.715" x2="800.451" y2="187.079" xlink:href="#linear-gradient-5"/>
    <linearGradient id="linear-gradient-11" x1="9.808" y1="10.581" x2="9.808" y2="8.968" xlink:href="#linear-gradient-5"/>
    <linearGradient id="linear-gradient-12" x1="18.346" y1="7.284" x2="18.346" y2="6.581" gradientUnits="objectBoundingBox">
      <stop offset="0" stop-color="#ff9d1f"/>
      <stop offset="1" stop-color="#ff9d3b"/>
    </linearGradient>
    <linearGradient id="linear-gradient-13" x1="8.122" y1="2.779" x2="8.122" y2="2.148" xlink:href="#linear-gradient-12"/>
    <linearGradient id="linear-gradient-14" x1="13.382" y1="3.67" x2="13.382" y2="3.014" gradientUnits="objectBoundingBox">
      <stop offset="0" stop-color="#3a1b43"/>
      <stop offset="0.095" stop-color="#3a1740"/>
      <stop offset="0.554" stop-color="#3d0b35"/>
      <stop offset="1" stop-color="#3e0732"/>
    </linearGradient>
    <linearGradient id="linear-gradient-15" x1="9.282" y1="9.026" x2="9.282" y2="7.389" xlink:href="#linear-gradient-12"/>
    <linearGradient id="linear-gradient-16" x1="13.655" y1="4.181" x2="13.655" y2="3.207" gradientUnits="objectBoundingBox">
      <stop offset="0" stop-color="#4e254f"/>
      <stop offset="0.016" stop-color="#4d244e"/>
      <stop offset="0.515" stop-color="#431844"/>
      <stop offset="1" stop-color="#401441"/>
    </linearGradient>
    <linearGradient id="linear-gradient-17" x1="20.157" y1="21.854" x2="20.157" y2="19.834" xlink:href="#linear-gradient-12"/>
    <linearGradient id="linear-gradient-18" x1="25.08" y1="4.905" x2="25.08" y2="3.914" xlink:href="#linear-gradient-12"/>
    <radialGradient id="radial-gradient-2" cx="0.511" cy="0.505" r="0.572" gradientTransform="matrix(-0.693, -0.344, -0.254, 0.939, 160.405, 32.984)" gradientUnits="objectBoundingBox">
      <stop offset="0" stop-color="#fff"/>
      <stop offset="1" stop-color="#bf4042"/>
    </radialGradient>
    <radialGradient id="radial-gradient-3" cx="0.5" cy="0.5" r="0.652" gradientTransform="matrix(-0.761, -0.155, -0.091, 0.751, 106.68, 13.723)" gradientUnits="objectBoundingBox">
      <stop offset="0" stop-color="#ff5e42"/>
      <stop offset="1" stop-color="#fff"/>
    </radialGradient>
    <linearGradient id="linear-gradient-19" x1="45.087" y1="19.512" x2="45.087" y2="18.791" xlink:href="#linear-gradient-5"/>
    <linearGradient id="linear-gradient-20" x1="53.173" y1="49.888" x2="54.241" y2="49.888" gradientTransform="matrix(1, 0, 0, 1, 0, 0)" xlink:href="#radial-gradient-2"/>
    <linearGradient id="linear-gradient-21" x1="14.405" y1="7.989" x2="14.956" y2="7.989" gradientUnits="objectBoundingBox">
      <stop offset="0" stop-color="#bf4042"/>
      <stop offset="1" stop-color="#fff"/>
    </linearGradient>
    <linearGradient id="linear-gradient-22" x1="176.028" y1="15.275" x2="177.917" y2="15.275" xlink:href="#linear-gradient-21"/>
    <linearGradient id="linear-gradient-23" x1="30.465" y1="33.37" x2="31.178" y2="33.37" gradientTransform="matrix(1, 0, 0, 1, 0, 0)" xlink:href="#radial-gradient-2"/>
    <linearGradient id="linear-gradient-24" x1="13.123" y1="4.093" x2="13.123" y2="2.956" xlink:href="#linear-gradient-21"/>
    <linearGradient id="linear-gradient-25" x1="19.05" y1="3.892" x2="19.05" y2="2.886" xlink:href="#linear-gradient-21"/>
    <linearGradient id="linear-gradient-26" x1="50.162" y1="26.237" x2="50.162" y2="25.133" xlink:href="#linear-gradient-21"/>
    <linearGradient id="linear-gradient-27" x1="28.892" y1="25.329" x2="28.892" y2="24.048" xlink:href="#linear-gradient-21"/>
    <linearGradient id="linear-gradient-28" x1="42.884" y1="25.842" x2="42.884" y2="25.248" xlink:href="#linear-gradient-21"/>
    <linearGradient id="linear-gradient-29" x1="13.528" y1="4.714" x2="13.528" y2="4.129" xlink:href="#linear-gradient-21"/>
    <linearGradient id="linear-gradient-30" x1="149.488" y1="24.249" x2="149.488" y2="23.522" xlink:href="#linear-gradient-21"/>
    <linearGradient id="linear-gradient-31" x1="84.067" y1="61.38" x2="84.067" y2="60.512" xlink:href="#linear-gradient-21"/>
    <linearGradient id="linear-gradient-32" x1="33.137" y1="24.934" x2="33.137" y2="24.166" xlink:href="#linear-gradient-21"/>
    <linearGradient id="linear-gradient-33" x1="162.321" y1="863.358" x2="162.321" y2="856.319" gradientTransform="matrix(1, 0, 0, 1, 0, 0)" xlink:href="#radial-gradient-2"/>
    <linearGradient id="linear-gradient-34" x1="29.175" y1="44.287" x2="29.175" y2="42.304" xlink:href="#linear-gradient-21"/>
    <linearGradient id="linear-gradient-35" x1="30.142" y1="28.771" x2="30.142" y2="27.347" xlink:href="#linear-gradient-21"/>
    <linearGradient id="linear-gradient-36" x1="65.47" y1="52.258" x2="65.47" y2="50.628" xlink:href="#linear-gradient-21"/>
    <linearGradient id="linear-gradient-37" x1="18.96" y1="7.861" x2="19.968" y2="7.861" gradientUnits="objectBoundingBox">
      <stop offset="0" stop-color="#5e132c"/>
      <stop offset="1" stop-color="#77183d"/>
    </linearGradient>
    <linearGradient id="linear-gradient-38" x1="41.332" y1="9.929" x2="41.332" y2="8.939" gradientUnits="objectBoundingBox">
      <stop offset="0" stop-color="#a52731"/>
      <stop offset="1" stop-color="#b5485b"/>
    </linearGradient>
    <linearGradient id="linear-gradient-39" x1="8.867" y1="3.367" x2="8.867" y2="2.441" xlink:href="#linear-gradient-7"/>
    <linearGradient id="linear-gradient-40" x1="19.074" y1="7.863" x2="19.074" y2="6.752" xlink:href="#linear-gradient-7"/>
    <linearGradient id="linear-gradient-41" x1="13.223" y1="9.068" x2="14.17" y2="9.068" gradientUnits="objectBoundingBox">
      <stop offset="0" stop-color="#fff"/>
      <stop offset="1" stop-color="#8b5c9a"/>
    </linearGradient>
    <linearGradient id="linear-gradient-42" x1="16.774" y1="14.523" x2="17.807" y2="14.523" xlink:href="#linear-gradient-41"/>
    <linearGradient id="linear-gradient-43" x1="24.112" y1="13.119" x2="25.312" y2="13.119" xlink:href="#linear-gradient-41"/>
    <linearGradient id="linear-gradient-44" x1="31.816" y1="7.815" x2="32.436" y2="7.815" xlink:href="#linear-gradient-41"/>
    <linearGradient id="linear-gradient-45" x1="10.535" y1="9.36" x2="11.319" y2="9.36" xlink:href="#linear-gradient-41"/>
    <linearGradient id="linear-gradient-46" x1="141.897" y1="15.08" x2="144.162" y2="15.08" gradientUnits="objectBoundingBox">
      <stop offset="0" stop-color="#8b5c9a"/>
      <stop offset="1" stop-color="#fff"/>
    </linearGradient>
    <linearGradient id="linear-gradient-47" x1="18.442" y1="10.811" x2="19.212" y2="10.811" xlink:href="#linear-gradient-41"/>
    <linearGradient id="linear-gradient-48" x1="49.879" y1="24.302" x2="51.017" y2="24.302" xlink:href="#linear-gradient-46"/>
    <linearGradient id="linear-gradient-49" x1="69.884" y1="8.074" x2="72.299" y2="8.074" xlink:href="#linear-gradient-41"/>
    <linearGradient id="linear-gradient-50" x1="10.079" y1="8.685" x2="10.019" y2="6.802" xlink:href="#linear-gradient-38"/>
    <linearGradient id="linear-gradient-51" x1="9.945" y1="8.522" x2="9.89" y2="6.799" xlink:href="#linear-gradient-38"/>
    <linearGradient id="linear-gradient-52" x1="14.608" y1="8.009" x2="14.57" y2="7.193" xlink:href="#linear-gradient-38"/>
    <linearGradient id="linear-gradient-53" x1="14.551" y1="8.795" x2="14.516" y2="7.968" xlink:href="#linear-gradient-38"/>
    <linearGradient id="linear-gradient-54" x1="13.642" y1="4.312" x2="13.524" y2="3.075" xlink:href="#linear-gradient-38"/>
    <linearGradient id="linear-gradient-55" x1="12.214" y1="4.507" x2="12.117" y2="3.252" xlink:href="#linear-gradient-38"/>
    <linearGradient id="linear-gradient-56" x1="45.113" y1="6.821" x2="44.937" y2="5.819" xlink:href="#linear-gradient-38"/>
    <linearGradient id="linear-gradient-57" x1="19.734" y1="8.906" x2="19.704" y2="8.371" xlink:href="#linear-gradient-38"/>
    <linearGradient id="linear-gradient-58" x1="26.494" y1="9.612" x2="26.46" y2="9.123" xlink:href="#linear-gradient-38"/>
    <linearGradient id="linear-gradient-59" x1="80.195" y1="88.288" x2="81.146" y2="88.288" xlink:href="#linear-gradient-5"/>
    <linearGradient id="linear-gradient-60" x1="45.64" y1="13.686" x2="45.64" y2="12.595" xlink:href="#linear-gradient-6"/>
    <linearGradient id="linear-gradient-61" x1="63.872" y1="26.987" x2="63.872" y2="25.713" gradientTransform="matrix(1, 0, 0, 1, 0, 0)" xlink:href="#radial-gradient-2"/>
    <linearGradient id="linear-gradient-62" x1="103.741" y1="28.411" x2="103.741" y2="27.309" gradientTransform="matrix(1, 0, 0, 1, 0, 0)" xlink:href="#radial-gradient-2"/>
    <linearGradient id="linear-gradient-63" x1="25.46" y1="14.236" x2="26.549" y2="14.236" gradientUnits="objectBoundingBox">
      <stop offset="0"/>
      <stop offset="1" stop-color="#fff"/>
    </linearGradient>
    <linearGradient id="linear-gradient-64" x1="22.31" y1="8.664" x2="23.594" y2="8.664" gradientUnits="objectBoundingBox">
      <stop offset="0" stop-color="#fff"/>
      <stop offset="1"/>
    </linearGradient>
    <linearGradient id="linear-gradient-65" x1="3.528" y1="0.024" x2="3.528" y2="-0.179" gradientUnits="objectBoundingBox">
      <stop offset="0" stop-color="#fff"/>
      <stop offset="0.106" stop-color="#f9f5fd"/>
      <stop offset="0.285" stop-color="#ebdafa"/>
      <stop offset="0.516" stop-color="#d4aff6"/>
      <stop offset="0.786" stop-color="#b573ef"/>
      <stop offset="1" stop-color="#9a40ea"/>
    </linearGradient>
    <linearGradient id="linear-gradient-66" x1="3.528" y1="0.024" x2="3.528" y2="-0.179" gradientUnits="objectBoundingBox">
      <stop offset="0"/>
      <stop offset="0.091" stop-color="#020209"/>
      <stop offset="0.245" stop-color="#070a24"/>
      <stop offset="0.443" stop-color="#11174f"/>
      <stop offset="0.677" stop-color="#1e298b"/>
      <stop offset="0.94" stop-color="#2e3fd7"/>
      <stop offset="1" stop-color="#3345ea"/>
    </linearGradient>
  </defs>
  <g id="aquawomen" transform="translate(-389.236 -12.618)">
    <g id="Сгруппировать_2183" data-name="Сгруппировать 2183" transform="translate(389.236 12.618)">
      <path id="Контур_2821" data-name="Контур 2821" d="M419.519,302.8s-6.98-3.832-12.65-6.351-13.024,2.593-13.024,2.593Z" transform="translate(-386.412 160.847)" fill="#f46352" fill-rule="evenodd"/>
      <path id="Контур_2822" data-name="Контур 2822" d="M487.354,316.364a33.444,33.444,0,0,1-11.039-4.025c-5.527-3.253-8.362-4.443-7.1-.866C469.213,311.473,480.534,316.492,487.354,316.364Z" transform="translate(-340.417 169.144)" fill="#f46352" fill-rule="evenodd"/>
      <path id="Контур_2823" data-name="Контур 2823" d="M419.569,341.779s1.753,5.651,3.2,6.955c0,0,35.648-11.937,52.88-28.73,0,0,2.64-3.959,6.518-9.842.079-.127.176-.26.26-.4,3.624-5.5,8.273-12.582,12.855-19.657.789-1.208,1.535-2.363,2.227-3.44.5-.779,1-1.542,1.493-2.309.031-.061.066-.1.1-.163.935-1.44,1.838-2.848,2.719-4.24,11.094-17.389,11.727-36.958,2.169-36.592-5.2,1.571-14.466,20.3-24.985,37.843-5.1,8.5-10.494,16.706-15.861,22.568C446.673,321.706,419.569,341.779,419.569,341.779Z" transform="translate(-370.652 128.749)" fill-rule="evenodd" fill="url(#linear-gradient)"/>
      <path id="Контур_2824" data-name="Контур 2824" d="M389.236,300.382c.366,2.411,1.545,2.927,1.545,2.927l1.942.687a3.263,3.263,0,0,0,.481,2.211s12.421.208,18.465,1.321c5.265.977,11.692,5.551,13.258,6.717.229.176.35.266.35.266s-1.909,1.722-3.767,1.411A21.562,21.562,0,0,1,418,314.552c-2.056-.881-4.53-1.835-6.557-1.627-3.482.358-5.454,3.714-5.454,3.714l.577,1.622a65.089,65.089,0,0,1,11.471.019c.781.074,1.572.185,2.39.308a90.41,90.41,0,0,1,11.055,2.627l9.874-5.188a55.1,55.1,0,0,1-3.2-6.955c-4.349-1.048-22.734-10.582-27.811-12.056a16.675,16.675,0,0,0-5.969-.027A112.73,112.73,0,0,0,389.236,300.382Z" transform="translate(-389.236 161.456)" fill-rule="evenodd" fill="url(#linear-gradient-2)"/>
      <path id="Контур_2825" data-name="Контур 2825" d="M446.8,311.658s11.345-20.944,8.72-32.173l-15.536,15.562s4.395,7.409-4.9,22.626C435.084,317.673,443.688,313.454,446.8,311.658Z" transform="translate(-361.146 150.884)" fill="#ff834f" fill-rule="evenodd"/>
      <path id="Контур_2826" data-name="Контур 2826" d="M456.424,281.2s9.713,12.147,3.129,29a.14.14,0,0,1,.037-.042c.036-.073.132-.206.26-.4,1.434-2.188,7.854-11.96,12.855-19.657.789-1.208,1.535-2.363,2.227-3.44.5-.779,1-1.542,1.493-2.309.031-.061.066-.1.1-.163,5.225-8.236,11.329-27.177,11.329-27.177s-2.74-11.887-6.441-13.654C476.213,244.931,466.944,263.66,456.424,281.2Z" transform="translate(-348.072 128.751)" fill="#a4006d" fill-rule="evenodd" opacity="0.6" style="mix-blend-mode: multiply;isolation: isolate"/>
      <path id="Контур_2827" data-name="Контур 2827" d="M542.914,273.753c-21.357,18.159-18.963,13.454-21.965,16.325l28.4,24.587s9.876,8.109,12.277-1.014c0,0,2.179-3.374,5.644-8.889l.006-.011c.011-.024.036-.042.066-.1a1.366,1.366,0,0,1,.127-.194c4.97-7.939,12.485-20.16,19.952-33.161.165-.3.34-.585.5-.882,8.365-14.58,16.6-30.013,21.068-41.384,0,0,12.372-57.55,9.508-81.524-2.787-23.224-9.928-56.844-10.371-58.914.3,1.967,4.728,31.575,2.54,43.653-2.248,12.5-9.371,14.953-12.522,14.082L609.432,155a229.276,229.276,0,0,1-11.593,33.647c-.827,1.887-1.739,3.641-2.667,5.311C587.7,207.307,578.3,214.2,584.661,231,584.661,231,564.286,255.587,542.914,273.753Z" transform="translate(-308.539 33.926)" fill-rule="evenodd" fill="url(#linear-gradient-3)"/>
      <path id="Контур_2828" data-name="Контур 2828" d="M476.483,317.986c-1.9,5.783-11.324,14.259-11.911,24.293l.013.037.108.3c.434,1.035,2.226,4.374,8.028,6.485,6.951,2.535,8.752-.3,15.707,3.585,6.356,3.54,10.953,8.2,16.454,9.368a.662.662,0,0,0,.132.037,11.6,11.6,0,0,0,1.2.177c.086.013.158.018.244.031a7.515,7.515,0,0,0,.974.019.762.762,0,0,1,.156-.011.014.014,0,0,1,.019-.006c3.141-.194,6.4-2.4,10.4-6.149,3.45-3.222,7.47-7.578,12.484-12.769,11.576-11.984,21.057-16.6,22.977-17.164s15.08,5.86,32.176,4.116a74.377,74.377,0,0,0,12.309-2.375c.013.006.018-.006.031,0,12.034-3.364,22.036-9.108,25.414-12.819,4.209-4.612,40.083-42.576,51.591-89.442.774-3.171,1.451-6.389,1.988-9.634,0,0-10.126-25.167-48.141-58.614A123.637,123.637,0,0,1,614.12,138.47a191.58,191.58,0,0,1,9.815,19.392c3.895,9.407.821,15.527-2.4,18.5l9.563-3.422a93.454,93.454,0,0,1,11.576,27.227c3.412,14.92,5.393,21.655,10.052,22.268,0,0-36.087,46.353-60.57,59.308L587.8,279.75a32.449,32.449,0,0,0-5.561-11.789c-4.2-5.351-19.175-11.732-26.746-8.446-7.578,3.267-7.77,27.661-11.445,35.371-3.693,7.718-33.342,8.612-45.921,1.78l1.38,3.042s-1.869,10.208-11.593,8.521l-2.064-3.369s-5.928,1.006-9.429,2.763A15.816,15.816,0,0,1,476.483,317.986Z" transform="translate(-343.08 64.488)" fill-rule="evenodd" fill="url(#linear-gradient-4)"/>
      <path id="Контур_2829" data-name="Контур 2829" d="M488.628,246.423s9.776,7.739,18.76,13.961,10.465,12.521,10.465,12.521,8.828-5.109,23.276-12.453,26.277-12.04,26.277-12.04-6.385-13.711-23.389-21.341S488.628,246.423,488.628,246.423Z" transform="translate(-328.341 117.939)" fill="#a4006d" fill-rule="evenodd" opacity="0.6" style="mix-blend-mode: multiply;isolation: isolate"/>
      <path id="Контур_2830" data-name="Контур 2830" d="M488.06,233.716a35.524,35.524,0,0,0,4.285,6.147s1.914,14.125-11.5,10.01a57.013,57.013,0,0,0-4.733-7.009A111.375,111.375,0,0,0,488.06,233.716Z" transform="translate(-336.009 122.843)" fill="#f46352" fill-rule="evenodd"/>
      <g id="Сгруппировать_2177" data-name="Сгруппировать 2177" transform="translate(159.074 332.132)">
        <path id="Контур_2831" data-name="Контур 2831" d="M497.207,250.3s21.994,12.94,31.7,10.9a19.572,19.572,0,0,0-3.619-19.228c-7.762-9.128-28.944-16.644-34.282-14.6s-2.235,16.936-2.235,16.936Z" transform="translate(-487.876 -213.378)" fill-rule="evenodd" fill="url(#linear-gradient-5)"/>
        <path id="Контур_2832" data-name="Контур 2832" d="M527.719,266.4s24.258-6.149,41.694-17.83c0,0-.934-13.326-11.658-19.76s-26.567-10.239-26.567-10.239l-41.37,14s15.8,1.079,32.9,14.632C531.007,253.772,527.719,266.4,527.719,266.4Z" transform="translate(-486.686 -218.569)" fill="#361430" fill-rule="evenodd"/>
        <path id="Контур_2833" data-name="Контур 2833" d="M560.513,230.777l-35.956,18.847s-14.691-15-34.739-17.051l41.37-14S550.65,223.072,560.513,230.777Z" transform="translate(-486.686 -218.569)" fill="#61396c" fill-rule="evenodd"/>
        <path id="Контур_2834" data-name="Контур 2834" d="M506.779,248.318s2.227-6.583.74-9.4l-3.179-.2a22.384,22.384,0,0,1-1.09,9.071Z" transform="translate(-478.457 -206.222)" fill="#361430" fill-rule="evenodd"/>
        <path id="Контур_2835" data-name="Контур 2835" d="M512.967,244.6a51.75,51.75,0,0,0-23.7-13.553l1.972-.461s11.839,1.619,24.855,13.319Z" transform="translate(-487.027 -211.206)" fill="#61396c" fill-rule="evenodd"/>
        <path id="Контур_2836" data-name="Контур 2836" d="M548.323,253.721s.41-12.027-7.333-19.173-28.477-14.214-28.477-14.214l-5.941,2.011s21.56,4.69,30.626,13.8,8.2,19,8.2,19Z" transform="translate(-476.421 -217.488)" fill="#ff834f" fill-rule="evenodd"/>
        <path id="Контур_2837" data-name="Контур 2837" d="M536.554,259.172s1.406-10.234-5.9-17.822-30.86-16.744-30.86-16.744l-5.688,1.926s27.186,7.341,33.75,16.285,5.852,17.312,5.852,17.312Z" transform="translate(-484.058 -214.87)" fill="#ff834f" fill-rule="evenodd"/>
      </g>
      <path id="Контур_2838" data-name="Контур 2838" d="M467.993,212.231l-.006.013c-.189.435-.358.834-.516,1.21-2.724,6.659-4.54,17.606-5.262,19.257-.731,1.634-5.727,3.29-7.725,7.27-1.913,3.809.564,13.625,2.527,19.246a19.844,19.844,0,0,0,1.732,3.974c1.322,1.679,1.888,3.206,13.816,4.606,10.573,1.235,22.423-4.266,29.294-12.553a29.958,29.958,0,0,0,2.385-3.3,46.159,46.159,0,0,0,6.072-25.3,34.227,34.227,0,0,0-1.211-7.272,28.672,28.672,0,0,0-11.086-15.8c-5.538-3.993-10.2-5.411-14.108-5.236C475.127,198.746,470.223,207.187,467.993,212.231Z" transform="translate(-349.682 101.158)" fill-rule="evenodd" fill="url(#linear-gradient-6)"/>
      <path id="Контур_2839" data-name="Контур 2839" d="M466.771,212.226c.2-.4,3.9-7.16,14.587-3.05,11,4.219,22.263,13.875,22.263,25.369s-8.984,18.041-12.29,18.562-19.213-6.1-19.213-6.1,10.336,8.976,19.831,9.489c0,0-4.006,6.985-8.162,8.563,0,0-6.028-10.463-9.8-13.085l-18.2,7.251a19.845,19.845,0,0,0,1.732,3.974c1.322,1.679,1.888,3.206,13.816,4.606,10.573,1.235,22.423-4.266,29.294-12.553a14.5,14.5,0,0,0,.753-1.348,42.851,42.851,0,0,1,3.667-10.592c1.846-3.89,3.24-11.429,4.036-16.664.5-3.25.772-5.609.772-5.609l-1.984-1.663-25.193-21.041C473.906,198.741,469,207.181,466.771,212.226Z" transform="translate(-348.461 101.163)" fill-rule="evenodd" opacity="0.5" fill="url(#radial-gradient)" style="mix-blend-mode: multiply;isolation: isolate"/>
      <path id="Контур_2840" data-name="Контур 2840" d="M462.847,207.7s3.759,4.232,3.667,12.795a13.949,13.949,0,0,0-5.175-8.441S461.765,208.977,462.847,207.7Z" transform="translate(-345.06 106.904)" fill-rule="evenodd" fill="url(#linear-gradient-7)"/>
      <path id="Контур_2841" data-name="Контур 2841" d="M469.973,212.509l.629,4.274s5.872.5,9.731,2.908a54.011,54.011,0,0,1,7.725,6.2s-2.174-6.341-5.022-7.955C479.773,216.084,475.134,213.406,469.973,212.509Z" transform="translate(-339.771 109.85)" fill-rule="evenodd" fill="url(#linear-gradient-8)"/>
      <path id="Контур_2842" data-name="Контур 2842" d="M457.648,314.921a2.293,2.293,0,0,0,1.3,2.169,58.676,58.676,0,0,0,6.575-1.03c1.95-.566,7.06-1.211,7.06-1.211s-5.572,1.9-7.2,2.6-9.376,6.938-9.376,6.938a2.57,2.57,0,0,0,.694,2.271l.956,0a2.95,2.95,0,0,0,2.679,1.511c2.034.052,11.052-3.158,15.859-3.379,4.516-.187,11.081,1.339,11.89,1.534l.079.024a1.176,1.176,0,0,1-.152,0,1.214,1.214,0,0,1-.193-.008,27.56,27.56,0,0,0-5.733.41c-.1.023-.218.042-.3.06-.14.035-.285.084-.413.126a3.53,3.53,0,0,0-.431.163c-2.084.953-9.126,6.412-9.126,6.412.423,1.061,2.424,1.959,2.424,1.959a56.277,56.277,0,0,1,11.8-3.417s7.478,2.271,14.32.921a15.1,15.1,0,0,0,3.519-1.187l.018-.006a29.677,29.677,0,0,0,8.958-6.983,15.343,15.343,0,0,0-6.2-6.535c-8.7-.614-29.859-7.95-35.777-8.378l-.024-.011a4.489,4.489,0,0,0-.884.01C465.232,310.43,457.648,314.921,457.648,314.921Z" transform="translate(-348.362 169.487)" fill-rule="evenodd" fill="url(#linear-gradient-9)"/>
      <path id="Контур_2843" data-name="Контур 2843" d="M556.608,137.256c.321.6.658,1.195,1.008,1.764C557.164,138.2,556.815,137.6,556.608,137.256Z" transform="translate(-286.692 63.744)" fill-rule="evenodd" fill="url(#linear-gradient-10)"/>
      <path id="Контур_2844" data-name="Контур 2844" d="M593.06,142.314s-24.985-35.395-45.365,24.05c0,0-28.894-12.1-50.885-8.96,0,0,14.072-17.327,40.731-28.906a196.758,196.758,0,0,0,30.613,1.309C583.982,129.338,589,135.779,593.06,142.314Z" transform="translate(-323.328 58.379)" fill-rule="evenodd" fill="url(#linear-gradient-11)"/>
      <path id="Контур_2845" data-name="Контур 2845" d="M536.211,139.87a26.846,26.846,0,0,1,7.11,4.448l.011.006c7.658,6.526,11.48,15.836,16.46,17.049a18.059,18.059,0,0,1,7.6,3.379c2.219,1.826,3.927,4.577,5.22,9,2.5,8.526,5.03,7.691,5.03,7.691,6.946-5.267,5.433-16.552-1.942-29.857a73.182,73.182,0,0,0-9.805-14.042s-.092-.121-.279-.323c-.81-.86-1.5-1.527-2.055-2.03-.126-.11-.242-.213-.368-.321-.7-.606-1.089-.881-1.089-.881-14.472-10.811-25.153,4.757-25.856,5.828C536.24,139.839,536.222,139.845,536.211,139.87Z" transform="translate(-299.188 59.412)" fill-rule="evenodd" fill="url(#linear-gradient-12)"/>
      <path id="Контур_2846" data-name="Контур 2846" d="M504.25,12.618c1.124,1.05,20.083,18.551,40.685,38.332l0,.018a.308.308,0,0,1,.1.079c19.659,18.881,40.767,39.794,49.307,50.414,10.021,12.468,11.921,27.325,11.756,38.451l-.007.011c-.118,8.62-1.484,14.991-1.263,16.3.5,2.979,6.975,9.818,7.836,12.113s-3.23,10.145-4.391,16.167.1,8.365.1,8.365,5.238,2.448,7.833-.46c1.667-1.843,6.631-9.1,7.086-24.066,0,0,0-.048,0-.139.25-8.462-.931-19.384-4.956-33.173-11.169-38.324-58.317-94.424-58.317-94.424C544.975,45.138,505.871,13.916,504.25,12.618Z" transform="translate(-318.77 -12.618)" fill-rule="evenodd" fill="url(#linear-gradient-13)"/>
      <path id="Контур_2847" data-name="Контур 2847" d="M540,29.971l-3.079.445s52.334,50.88,66.4,119.451C603.325,149.867,605.718,102.859,540,29.971Z" transform="translate(-298.752 -1.986)" fill-rule="evenodd" fill="url(#linear-gradient-14)"/>
      <path id="Контур_2848" data-name="Контур 2848" d="M490.251,293.779a.66.66,0,0,0,.132.037c.485.092.95.158,1.442.208,3.522.315,7.067-1.95,11.553-6.147,3.45-3.222,7.47-7.578,12.484-12.769,11.576-11.984,21.057-16.6,22.977-17.164s15.08,5.86,32.176,4.116a74.38,74.38,0,0,0,12.309-2.375c-28.483,2.554-37.738-14.242-50.556-8.623S479.495,290.044,490.251,293.779Z" transform="translate(-328.449 132.76)" fill-rule="evenodd" fill="url(#linear-gradient-15)"/>
      <path id="Контур_2849" data-name="Контур 2849" d="M512.957,251.615s4.583,2.684,10.378,12.1,28.814,51.964,28.814,51.964a138.008,138.008,0,0,1-30.021,28.546C503.3,357.34,493.6,360.466,493.6,360.466s-3.459-.979-6.2-6.541c0,0,17.21-13.956,25.14-24.035A109.64,109.64,0,0,0,524.9,310.126s-7.649-19.915-19.115-33.847C492.3,259.894,512.957,251.615,512.957,251.615Z" transform="translate(-329.096 133.809)" fill-rule="evenodd" fill="url(#linear-gradient-16)"/>
      <path id="Контур_2850" data-name="Контур 2850" d="M537.45,298.689s-17.812-2.9-32.145,5.735l-10.353,10.355s6.343-5.81,24.4-.427C519.351,314.352,530.031,306.9,537.45,298.689Z" transform="translate(-324.467 162.363)" fill-rule="evenodd" fill="url(#linear-gradient-17)"/>
      <path id="Контур_2851" data-name="Контур 2851" d="M566.867,274.134s13.809-36.4-1.677-57.073l18.593-20.955s13.672,11.95,8.734,42.886C592.517,238.992,580.67,259.512,566.867,274.134Z" transform="translate(-281.434 99.8)" fill-rule="evenodd" fill="url(#linear-gradient-18)"/>
      <path id="Контур_2852" data-name="Контур 2852" d="M574.028,216.358s-16.452-13.727-36.134-7.443l21.076-20.842s17.4-5.731,27.359,6.415Z" transform="translate(-298.157 94.051)" fill="#ff834f" fill-rule="evenodd"/>
      <path id="Контур_2853" data-name="Контур 2853" d="M484.38,229.866s-4.2,4.89-7.952,4.782-6.291-3.7-6.833-6.107a17.587,17.587,0,0,1,.313-7.244l2.2-2.042S479.969,222.846,484.38,229.866Z" transform="translate(-340.166 113.983)" fill="#ffd7d0" fill-rule="evenodd"/>
      <path id="Контур_2854" data-name="Контур 2854" d="M484.9,230.369a25.113,25.113,0,0,0-12.716-9.781l-1.756,1.211-1.947-3.364,2.222,1.721,1.637-1.688S479.059,220.478,484.9,230.369Z" transform="translate(-340.685 113.481)" fill="#6d2542" fill-rule="evenodd"/>
      <path id="Контур_2855" data-name="Контур 2855" d="M465.984,223.337a6.222,6.222,0,0,1-2.937,1.9,20.618,20.618,0,0,1-2.945.624,16.687,16.687,0,0,1,.66-10.553S464.983,216.615,465.984,223.337Z" transform="translate(-346.167 111.562)" fill="#ffd7d0" fill-rule="evenodd"/>
      <path id="Контур_2856" data-name="Контур 2856" d="M466.751,223.957s-1.159-5.549-4.935-7.889l-.642,1.279-2.893-3.054,2.819,1.416.821-1.206S465.686,216.788,466.751,223.957Z" transform="translate(-346.934 110.942)" fill="#6d2542" fill-rule="evenodd"/>
      <path id="Контур_2857" data-name="Контур 2857" d="M469.364,228.486a4.422,4.422,0,0,1-.15,3.272,39.687,39.687,0,0,0-5.4-1.716,10.949,10.949,0,0,1-3.67-1.345l-1.232-1.237-1.2-.739a4.228,4.228,0,0,1,.124-2.879,3.73,3.73,0,0,0,.945,3.046,9.3,9.3,0,0,1,.353-4.051,6.387,6.387,0,0,0,2.809,5.565c3.083,1.942,4.782,1.695,6.272,2.156S469.364,228.486,469.364,228.486Z" transform="translate(-347.398 116.178)" fill-rule="evenodd" opacity="0.5" fill="url(#radial-gradient-2)" style="mix-blend-mode: multiply;isolation: isolate"/>
      <path id="Контур_2858" data-name="Контур 2858" d="M456.471,226.563c-.547,3.482,2.727,6.888,7.31,7.607s8.742-1.524,9.289-5.006-2.729-6.888-7.312-7.607S457.016,223.079,456.471,226.563Z" transform="translate(-348.08 115.311)" fill-rule="evenodd" opacity="0.3" fill="url(#radial-gradient-3)" style="mix-blend-mode: multiply;isolation: isolate"/>
      <path id="Контур_2859" data-name="Контур 2859" d="M469.279,231.376s-7.989-6.51-11.373-7.915c0,0-1.722,3.916,1.3,6.825S469.279,231.376,469.279,231.376Z" transform="translate(-347.463 116.56)" fill="#a4006d" fill-rule="evenodd" opacity="0.47" style="mix-blend-mode: multiply;isolation: isolate"/>
      <path id="Контур_2860" data-name="Контур 2860" d="M463.7,227.525s.889-2.5-1.442-1.443Z" transform="translate(-344.497 118.006)" fill="#ffd7d0" fill-rule="evenodd"/>
      <path id="Контур_2861" data-name="Контур 2861" d="M476.468,232.885s1.05-9.445-6.983-10.752C469.485,222.133,467.315,232.254,476.468,232.885Z" transform="translate(-340.207 115.746)" fill="#6d2542" fill-rule="evenodd"/>
      <path id="Контур_2862" data-name="Контур 2862" d="M463.715,223.7s-.856-4.785-3.958-6.189a13.949,13.949,0,0,0,.381,7A6.181,6.181,0,0,0,463.715,223.7Z" transform="translate(-346.203 112.912)" fill="#6d2542" fill-rule="evenodd"/>
      <path id="Контур_2863" data-name="Контур 2863" d="M475.529,224.908a2.775,2.775,0,0,1-2.987,1.471A5.573,5.573,0,0,1,475.529,224.908Z" transform="translate(-338.197 117.446)" fill="#fff" fill-rule="evenodd"/>
      <path id="Контур_2864" data-name="Контур 2864" d="M463.022,219.91a2.146,2.146,0,0,1-2.18.914A3.049,3.049,0,0,1,463.022,219.91Z" transform="translate(-345.365 114.384)" fill="#fff" fill-rule="evenodd"/>
      <g id="Сгруппировать_2178" data-name="Сгруппировать 2178" transform="translate(99.531 343.715)">
        <path id="Контур_2865" data-name="Контур 2865" d="M474.136,234.623s1.4,5.478-4.2,11.823c0,0-12.745-2.7-18.628-6.8a33,33,0,0,1,.908-13.892Z" transform="translate(-450.954 -225.752)" fill-rule="evenodd" fill="url(#linear-gradient-19)"/>
        <path id="Контур_2866" data-name="Контур 2866" d="M466.923,231.253l2.817.545s1.745,2.983-1.588,9.092l-5.425,2.185S466.938,236.381,466.923,231.253Z" transform="translate(-443.741 -222.381)" fill="#361430" fill-rule="evenodd"/>
        <path id="Контур_2867" data-name="Контур 2867" d="M476.473,235.169l-20.728-8.5-4.006-.914,21.663,9.377Z" transform="translate(-450.473 -225.752)" fill="#61396c" fill-rule="evenodd"/>
        <path id="Контур_2868" data-name="Контур 2868" d="M461.56,231.713s1.218,2.622-1.342,7.434l-1.845.179s2.206-4.519,1.7-7.712Z" transform="translate(-446.409 -222.159)" fill="#361430" fill-rule="evenodd"/>
        <path id="Контур_2869" data-name="Контур 2869" d="M463.134,233.176l-9.751-4.107,1.017.116,10.215,4.089Z" transform="translate(-449.465 -223.719)" fill="#61396c" fill-rule="evenodd"/>
      </g>
      <g id="Сгруппировать_2179" data-name="Сгруппировать 2179" transform="translate(65.932 335.287)">
        <path id="Контур_2870" data-name="Контур 2870" d="M441.917,279.211c-3.94-2.34-5.854-4.836-5.857-7.63,0-2.543,1.661-5.014,4.212-7.394-7.147-11.086-13.622-24.113-8.047-32.842,13.008-20.366,36.917-5.757,37.161-5.607l-.8,1.268c-.927-.576-22.881-13.992-35.1,5.146-5.044,7.9,1.222,20.529,7.926,31.023a98.117,98.117,0,0,1,12.459-8.3c5.5-3.285,11.187-6.685,11.787-9.045,2.124-8.357,7.262-7.415,7.481-7.372l-.29,1.469c-.161-.031-3.985-.642-5.74,6.272-.753,2.959-6.185,6.2-12.472,9.961a96.981,96.981,0,0,0-12.416,8.267c1.864,2.858,3.727,5.528,5.359,7.87,5.114,7.331,6.82,9.932,5.622,11.223-.516.555-1.38.682-3.451-.147A62.9,62.9,0,0,1,441.917,279.211Zm4.436-6.06c-1.651-2.367-3.466-4.97-5.267-7.71-2.155,2.045-3.533,4.109-3.532,6.138,0,2.192,1.729,4.327,5.125,6.346,6.947,4.127,8.863,4.6,9.389,4.549C452.062,281.335,449.035,277,446.353,273.151Z" transform="translate(-430.12 -220.526)" fill="#361430"/>
      </g>
      <path id="Контур_2871" data-name="Контур 2871" d="M470.053,251.368s1.482.292,3.072,8.263,16.533,14.216,28.1,9.174,1.69-25.343-4.107-29.383l-2.356-1.111-2.993-4.6s-5.58,6.781-11.948,9.149l2.664,3.641a41.247,41.247,0,0,0-9.429,2.763A11.364,11.364,0,0,0,470.053,251.368Z" transform="translate(-339.722 122.843)" fill="#a4006d" fill-rule="evenodd" opacity="0.6" style="mix-blend-mode: multiply;isolation: isolate"/>
      <path id="Контур_2872" data-name="Контур 2872" d="M498.424,279.725s1.547-11.045-1.884-16.517l7.438,10.976Z" transform="translate(-323.494 140.912)" fill="#a4006d" fill-rule="evenodd" opacity="0.47" style="mix-blend-mode: multiply;isolation: isolate"/>
      <path id="Контур_2873" data-name="Контур 2873" d="M491.4,277.278c-.218.013-.442.036-.666.06a1.567,1.567,0,0,0,.822-.071A.76.76,0,0,0,491.4,277.278Z" transform="translate(-327.05 149.525)" fill="#a4006d" fill-rule="evenodd"/>
      <path id="Контур_2874" data-name="Контур 2874" d="M464.58,264.873l.108.3c.434,1.035,2.226,4.374,8.028,6.485,6.951,2.535,8.752-.3,15.707,3.585,6.356,3.54,10.953,8.2,16.454,9.368a.662.662,0,0,0,.132.037,11.6,11.6,0,0,0,1.2.177c-1.676-.373-5.207-1.934-12.166-7.412-11.31-8.905-20.684-6.372-24.211-7.644A10.538,10.538,0,0,1,464.58,264.873Z" transform="translate(-343.075 141.932)" fill="#a4006d" fill-rule="evenodd" opacity="0.47" style="mix-blend-mode: multiply;isolation: isolate"/>
      <path id="Контур_2875" data-name="Контур 2875" d="M491.916,262.423a25.3,25.3,0,0,1-17.249,6.347S485.693,266.243,491.916,262.423Z" transform="translate(-336.895 140.431)" fill="#a4006d" fill-rule="evenodd" opacity="0.47" style="mix-blend-mode: multiply;isolation: isolate"/>
      <path id="Контур_2876" data-name="Контур 2876" d="M511.421,290.024s5.512-4.119,13.551,1.208c0,0-7.362-9.541-15.578-6.033Z" transform="translate(-315.618 153.911)" fill-rule="evenodd" opacity="0.8" fill="url(#linear-gradient-20)" style="mix-blend-mode: multiply;isolation: isolate"/>
      <path id="Контур_2877" data-name="Контур 2877" d="M491.241,336.128s37.367-19.937,58.551-44.789C549.792,291.339,529.436,320.638,491.241,336.128Z" transform="translate(-326.74 158.147)" fill-rule="evenodd" opacity="0.8" fill="url(#linear-gradient-21)" style="mix-blend-mode: multiply;isolation: isolate"/>
      <path id="Контур_2878" data-name="Контур 2878" d="M567.015,243.354s-19.958-11.108-30.968-13l9.481.169a27.785,27.785,0,0,0-16.077-16.573s24.19,5.094,32.6,14.009l-5.427,6.18Z" transform="translate(-303.33 110.731)" fill="#a4006d" fill-rule="evenodd" opacity="0.6" style="mix-blend-mode: multiply;isolation: isolate"/>
      <path id="Контур_2879" data-name="Контур 2879" d="M556.094,257.157s7.849-12.808,1.924-21.113C558.018,236.044,559.8,247.581,556.094,257.157Z" transform="translate(-287.007 124.269)" fill-rule="evenodd" opacity="0.8" fill="url(#linear-gradient-22)" style="mix-blend-mode: multiply;isolation: isolate"/>
      <path id="Контур_2880" data-name="Контур 2880" d="M583.521,191.162s3.745,2.076,16.52-1.648c0,0-11.366,10.145-22.511,9.057Z" transform="translate(-273.873 95.761)" fill-rule="evenodd" opacity="0.8" fill="url(#linear-gradient-23)" style="mix-blend-mode: multiply;isolation: isolate"/>
      <path id="Контур_2881" data-name="Контур 2881" d="M616.64,186.583s-4.324,21.955-27.277,54.324-26.3,44.752-26.3,44.752S608.142,239.709,616.64,186.583Z" transform="translate(-282.739 93.966)" fill-rule="evenodd" opacity="0.8" fill="url(#linear-gradient-24)" style="mix-blend-mode: multiply;isolation: isolate"/>
      <path id="Контур_2882" data-name="Контур 2882" d="M567.062,190.966s5.549.282,6.7,8.763c1.147,8.392-23.589,64-24.085,64.988.011-.024.035-.042.066-.1a1.367,1.367,0,0,1,.127-.194c1.4-2.158,9.953-15.419,19.952-33.161.164-.3.34-.585.5-.882,6.7-11.931,14.008-25.817,20.212-39.68,0,0-5.9-30-12.964-36.769C570.1,167.274,560.7,174.17,567.062,190.966Z" transform="translate(-290.94 73.959)" fill-rule="evenodd" opacity="0.8" fill="url(#linear-gradient-25)" style="mix-blend-mode: multiply;isolation: isolate"/>
      <path id="Контур_2883" data-name="Контур 2883" d="M550.834,152.985a18.059,18.059,0,0,1,7.6,3.379c.321.085,6,1.5,7.931-.743,1.988-2.3-1.676-11.745-1.676-11.745S558.649,152.472,550.834,152.985Z" transform="translate(-290.229 67.8)" fill-rule="evenodd" opacity="0.8" fill="url(#linear-gradient-26)" style="mix-blend-mode: multiply;isolation: isolate"/>
      <path id="Контур_2884" data-name="Контур 2884" d="M543.333,144.282s8.844-16.336,22.573-6.785c0,0-14.15-17.757-29.7,2.327Z" transform="translate(-299.189 59.453)" fill-rule="evenodd" opacity="0.8" fill="url(#linear-gradient-27)" style="mix-blend-mode: multiply;isolation: isolate"/>
      <path id="Контур_2885" data-name="Контур 2885" d="M566.619,101.665c.5,2.979,6.975,9.818,7.836,12.113,4.2,2.017,10.629.006,10.629.006s0-.048,0-.139c-.071-.824-.748-4.844-7.307-6.381A24.484,24.484,0,0,1,566.619,101.665Z" transform="translate(-280.558 41.939)" fill-rule="evenodd" opacity="0.8" fill="url(#linear-gradient-28)" style="mix-blend-mode: multiply;isolation: isolate"/>
      <path id="Контур_2886" data-name="Контур 2886" d="M577.466,80.563C564.781,68.909,531.6,38.345,529.541,36.447c19.659,18.881,40.767,39.794,49.307,50.414,10.021,12.468,11.921,27.325,11.756,38.451.339-.345,8.641-8.944,6.122-15.328C594.171,103.46,590.569,92.6,577.466,80.563Z" transform="translate(-303.275 1.981)" fill-rule="evenodd" opacity="0.8" fill="url(#linear-gradient-29)" style="mix-blend-mode: multiply;isolation: isolate"/>
      <path id="Контур_2887" data-name="Контур 2887" d="M567.984,161.83l-.393-5.225s4.74,8.918,5.049,13.553Z" transform="translate(-279.963 75.599)" fill-rule="evenodd" opacity="0.8" fill="url(#linear-gradient-30)" style="mix-blend-mode: multiply;isolation: isolate"/>
      <path id="Контур_2888" data-name="Контур 2888" d="M407.072,307.8a6.645,6.645,0,0,1,2.427,4.036,90.41,90.41,0,0,1,11.055,2.627l-6.206-6.705s-1.909,1.722-3.767,1.411A21.562,21.562,0,0,1,407.072,307.8Z" transform="translate(-378.308 168.207)" fill-rule="evenodd" opacity="0.5" fill="url(#linear-gradient-31)" style="mix-blend-mode: multiply;isolation: isolate"/>
      <path id="Контур_2889" data-name="Контур 2889" d="M389.236,300.287c.366,2.411,1.545,2.927,1.545,2.927l1.942.687a3.263,3.263,0,0,0,.481,2.211s12.421.208,18.465,1.321c5.265.977,11.692,5.551,13.258,6.717-1.693-1.335-9.134-7.086-12.039-8.21a20.027,20.027,0,0,1-6.215-4.362l2.872-.951-2.832-.939a4.7,4.7,0,0,1-2.338-2.793A112.732,112.732,0,0,0,389.236,300.287Z" transform="translate(-389.236 161.55)" fill-rule="evenodd" opacity="0.5" fill="url(#linear-gradient-32)" style="mix-blend-mode: multiply;isolation: isolate"/>
      <path id="Контур_2890" data-name="Контур 2890" d="M477.894,320.073a27.56,27.56,0,0,0-5.733.41A41.485,41.485,0,0,1,477.894,320.073Z" transform="translate(-338.43 175.747)" fill-rule="evenodd" opacity="0.5" fill="url(#linear-gradient-33)" style="mix-blend-mode: multiply;isolation: isolate"/>
      <path id="Контур_2891" data-name="Контур 2891" d="M474.918,320.54c-2.084.953-9.126,6.412-9.126,6.412.423,1.061,2.424,1.959,2.424,1.959a56.277,56.277,0,0,1,11.8-3.417s7.478,2.271,14.32.921a15.1,15.1,0,0,0,3.519-1.187c-5.086,1.263-17.451-.508-17.451-.508S473.6,321.288,474.918,320.54Z" transform="translate(-342.332 176.038)" fill-rule="evenodd" opacity="0.5" fill="url(#linear-gradient-34)" style="mix-blend-mode: multiply;isolation: isolate"/>
      <path id="Контур_2892" data-name="Контур 2892" d="M475.945,313.257l-3.359-.308s-5.572,1.9-7.2,2.6-9.376,6.938-9.376,6.938a2.57,2.57,0,0,0,.694,2.271l.956,0a2.95,2.95,0,0,0,2.679,1.511c2.034.052,11.052-3.158,15.859-3.379,4.516-.187,11.081,1.339,11.89,1.534l-8.178-2.775s-5.041-4.106-6.014-5.457a4.7,4.7,0,0,1-.971-2.5Z" transform="translate(-348.362 171.387)" fill-rule="evenodd" opacity="0.5" fill="url(#linear-gradient-35)" style="mix-blend-mode: multiply;isolation: isolate"/>
      <path id="Контур_2893" data-name="Контур 2893" d="M457,314.921a2.293,2.293,0,0,0,1.3,2.169,58.676,58.676,0,0,0,6.575-1.03c1.95-.566,7.06-1.211,7.06-1.211-1.74-1.813-1.7-4.972-1.7-4.972l-.024-.011a4.489,4.489,0,0,0-.884.01C464.587,310.43,457,314.921,457,314.921Z" transform="translate(-347.717 169.487)" fill-rule="evenodd" opacity="0.5" fill="url(#linear-gradient-36)" style="mix-blend-mode: multiply;isolation: isolate"/>
      <path id="Контур_2894" data-name="Контур 2894" d="M457.013,323.465s9.1-5.928,10.977-6.664a69.986,69.986,0,0,1,8.27-1.755s-6.8.727-8.844,1.468S457.013,323.465,457.013,323.465Z" transform="translate(-347.711 172.672)" fill="#a4006d" fill-rule="evenodd" opacity="0.47" style="mix-blend-mode: multiply;isolation: isolate"/>
      <path id="Контур_2895" data-name="Контур 2895" d="M458.455,322s2.729-1.416,2.54-2.28-3.982,1.019-3.982,1.019A2.639,2.639,0,0,0,458.455,322Z" transform="translate(-347.711 175.397)" fill="#f1d9e0" fill-rule="evenodd" style="mix-blend-mode: soft-light;isolation: isolate"/>
      <path id="Контур_2896" data-name="Контур 2896" d="M456.972,321.57s3.27-2.525,2.577-3.77c-.345-.618-3.338,1.643-3.338,1.643S455.985,321.025,456.972,321.57Z" transform="translate(-348.216 174.293)" fill="#f1d9e0" fill-rule="evenodd" style="mix-blend-mode: soft-light;isolation: isolate"/>
      <path id="Контур_2897" data-name="Контур 2897" d="M458.466,314.8s1.961-.892,1.709-1.977-3.172.5-3.172.5S457.463,314.655,458.466,314.8Z" transform="translate(-347.717 171.078)" fill="#f1d9e0" fill-rule="evenodd" style="mix-blend-mode: soft-light;isolation: isolate"/>
      <path id="Контур_2898" data-name="Контур 2898" d="M465.792,325.124s3.132-2.084,3.661-1.5-1.48,2.95-1.48,2.95A3.059,3.059,0,0,1,465.792,325.124Z" transform="translate(-342.332 177.865)" fill="#f1d9e0" fill-rule="evenodd" style="mix-blend-mode: soft-light;isolation: isolate"/>
      <path id="Контур_2899" data-name="Контур 2899" d="M391.4,302.346s9.528-2.387,13.714-2.724a17.9,17.9,0,0,1,5.928.2S402.554,297.974,391.4,302.346Z" transform="translate(-387.911 163.106)" fill="#a4006d" fill-rule="evenodd" opacity="0.47" style="mix-blend-mode: multiply;isolation: isolate"/>
      <path id="Контур_2900" data-name="Контур 2900" d="M391.482,302.847s4.127-.593,5.178-1.682-5.262.368-5.262.368Z" transform="translate(-387.911 163.919)" fill="#f1d9e0" fill-rule="evenodd" style="mix-blend-mode: soft-light;isolation: isolate"/>
      <path id="Контур_2901" data-name="Контур 2901" d="M389.809,301.253s4.569-1.695,4.475-2.651-5.048.813-5.048.813Z" transform="translate(-389.236 162.423)" fill="#f1d9e0" fill-rule="evenodd" style="mix-blend-mode: soft-light;isolation: isolate"/>
      <path id="Контур_2902" data-name="Контур 2902" d="M400.2,310.861s4.622-.161,4.012-1.424-4.59-.2-4.59-.2Z" transform="translate(-382.872 168.856)" fill="#f1d9e0" fill-rule="evenodd" style="mix-blend-mode: soft-light;isolation: isolate"/>
      <path id="Контур_2903" data-name="Контур 2903" d="M574.928,130.274s-11.893-.8-22.765,19.141c0,0-33.29,7.147-53.2,4.228A129.283,129.283,0,0,1,536.226,128.5S547.313,130.027,574.928,130.274Z" transform="translate(-322.011 58.379)" fill="#fff" fill-rule="evenodd" opacity="0.63" style="mix-blend-mode: soft-light;isolation: isolate"/>
      <path id="Контур_2904" data-name="Контур 2904" d="M514.2,258.757s-4.833,8.529-11.924,7.475-11.036-17.109-7.56-19.866S509.791,251.855,514.2,258.757Z" transform="translate(-325.395 130.258)" fill="#fff" fill-rule="evenodd" opacity="0.3" style="mix-blend-mode: soft-light;isolation: isolate"/>
      <path id="Контур_2905" data-name="Контур 2905" d="M564.471,241.439c1.879,6.572-9.1,6.694-15.69,3.816s-14.021-17.514-12.527-18.773S561.763,231.972,564.471,241.439Z" transform="translate(-299.281 118.318)" fill="#fff" fill-rule="evenodd" opacity="0.3" style="mix-blend-mode: soft-light;isolation: isolate"/>
      <g id="Сгруппировать_2180" data-name="Сгруппировать 2180" transform="translate(88.645 192.467)">
        <path id="Контур_2906" data-name="Контур 2906" d="M501.863,186.022s6.252-17.246-8.149-26.062-16.89-4.846-16.89-4.846,2.908-24.08,26.525-19.109,25.49,16.1,25.816,27.169S504.853,184.78,501.863,186.022Z" transform="translate(-424.218 -129.903)" fill-rule="evenodd" fill="url(#linear-gradient-37)"/>
        <path id="Контур_2907" data-name="Контур 2907" d="M482.512,140.708s-1.255-1.767-.437,20.873-18.059,17.954-18.059,17.954,22.8,12.572,25.395-3.988C491.362,163.087,481.507,158.14,482.512,140.708Z" transform="translate(-432.066 -126.627)" fill-rule="evenodd" fill="url(#linear-gradient-38)"/>
        <path id="Контур_2908" data-name="Контур 2908" d="M466.185,249.632s-.39-2.924-4.838-17.5-4.43-25.087,34.51-37.866,43.025-22.89,41.022-36.738c-3.058-21.153-40.922-21.752-46.224-6.623s8.884,27.265-1.292,36.483-28.48-6.909-28.48-6.909,20.425,15.616,28.3,5.078-6.61-24.842-3.833-39.517,44.853-26.978,54.812,12.313c0,0,35.709,36.3,34.516,63.82s-17.2,34.263-17.2,34.263-5.3,15.13-15.695,23.255-22.86,5.659-22.86,5.659-7.154-7.912-16.069-1.387c0,0,3.119-10.582.227-19.113a21.088,21.088,0,0,0-10.444-11.843l1.226-1.106-9.947-2.413,0-.955-1.109.685a21.247,21.247,0,0,1-9.508-6.591S468.326,245.16,466.185,249.632Z" transform="translate(-434.902 -131.965)" fill-rule="evenodd" fill="url(#linear-gradient-39)"/>
        <path id="Контур_2909" data-name="Контур 2909" d="M474.451,227.575s-.156-5.673-12.013-13.493-22.166-15.291-16.756-27.209,37.2-10.8,55.979-15.543l-10.355,7.317s-8.457,1.637-25.485.4-25.482,13.892-18.5,21.416,26.719,10.091,28.164,25.048Z" transform="translate(-444.204 -107.846)" fill-rule="evenodd" fill="url(#linear-gradient-40)"/>
        <path id="Контур_2910" data-name="Контур 2910" d="M476.235,215.913a37.384,37.384,0,0,1,13.788-21.086c11.542-8.7,23.531-11.429,31.934,4.412s14.061,26.861,25.192,22.981c0,0-10.587,9.941-19.06,7.67s-13.553-16.441-26.567-18.815-17.986,6.609-17.986,6.609Z" transform="translate(-424.579 -97.743)" fill-rule="evenodd" opacity="0.5" fill="url(#linear-gradient-41)" style="mix-blend-mode: multiply;isolation: isolate"/>
        <path id="Контур_2911" data-name="Контур 2911" d="M480.976,208.7s7.076-8.667,25.251,3.425,17.47,25.458,30.217,13.9c0,0-5.338,6.552-9.637,4.969s-11.476-12.435-22.763-18.389a30.982,30.982,0,0,0-21.453-2.995Z" transform="translate(-421.675 -86.793)" fill-rule="evenodd" opacity="0.5" fill="url(#linear-gradient-42)" style="mix-blend-mode: multiply;isolation: isolate"/>
        <path id="Контур_2912" data-name="Контур 2912" d="M483.144,209.227s7.728,1.8,11.455,10.95,14.522,20.392,27.259,15.448c0,0-6.085,3.811-17.5,2.393a144.377,144.377,0,0,0-16.069-1.387S493.226,219.321,483.144,209.227Z" transform="translate(-420.346 -84.628)" fill-rule="evenodd" opacity="0.5" fill="url(#linear-gradient-43)" style="mix-blend-mode: multiply;isolation: isolate"/>
        <path id="Контур_2913" data-name="Контур 2913" d="M471.889,218.961a34.413,34.413,0,0,1-8.949-21.042c-1.01-13.421,19.5-21.394,31.51-27.319,0,0-20.724,8.126-29.343,17.575s1.729,28.56,1.776,34.61Z" transform="translate(-433.496 -108.294)" fill-rule="evenodd" opacity="0.5" fill="url(#linear-gradient-44)" style="mix-blend-mode: multiply;isolation: isolate"/>
        <path id="Контур_2914" data-name="Контур 2914" d="M563.792,181.035s-.548,34.614-15.806,37.438-17.441-22.1-36.353-29.014S474.6,219.694,474.6,219.694s16.923-37.609,38.417-31.265,22.26,27.678,37.119,23.518,13.077-32.9,13.077-32.9Z" transform="translate(-425.584 -103.121)" fill-rule="evenodd" opacity="0.5" fill="url(#linear-gradient-45)" style="mix-blend-mode: multiply;isolation: isolate"/>
        <path id="Контур_2915" data-name="Контур 2915" d="M476.158,214.439s-6.973-10.111-5.09-26.148C471.069,188.291,463.859,202.066,476.158,214.439Z" transform="translate(-429.031 -97.455)" fill-rule="evenodd" opacity="0.5" fill="url(#linear-gradient-46)" style="mix-blend-mode: multiply;isolation: isolate"/>
        <path id="Контур_2916" data-name="Контур 2916" d="M526.3,148.331s3.053,10.944-2.692,21.241S492.941,180.364,482,184.244a180.022,180.022,0,0,1,35.292-3.227C535.182,181.391,541.012,163.3,526.3,148.331Z" transform="translate(-421.047 -121.937)" fill-rule="evenodd" opacity="0.5" fill="url(#linear-gradient-47)" style="mix-blend-mode: multiply;isolation: isolate"/>
        <path id="Контур_2917" data-name="Контур 2917" d="M526.945,212.814s-10.274,3.7-17.733-9.641c0,0,1.277,13.287,7.521,14.558S526.945,212.814,526.945,212.814Z" transform="translate(-404.375 -88.337)" fill-rule="evenodd" opacity="0.5" fill="url(#linear-gradient-48)" style="mix-blend-mode: multiply;isolation: isolate"/>
        <path id="Контур_2918" data-name="Контур 2918" d="M524.649,167.686s12.731,19.858,6.3,39.681c0,0,5.856-15.717-10.648-45.86Z" transform="translate(-397.58 -113.864)" fill-rule="evenodd" opacity="0.5" fill="url(#linear-gradient-49)" style="mix-blend-mode: multiply;isolation: isolate"/>
        <path id="Контур_2919" data-name="Контур 2919" d="M474.4,218.818a86.143,86.143,0,0,1,6.975-16.565A50.079,50.079,0,0,1,492.4,188.17a26.135,26.135,0,0,1,7.639-4.583,21.156,21.156,0,0,1,8.775-1.306,26.013,26.013,0,0,1,8.657,2.164,79.466,79.466,0,0,1,7.941,4.264c5.223,3.009,10.4,6.106,15.564,9.212,5.191,3.058,10.289,6.323,15.83,8.758,2.754,1.151,5.809,2.09,8.831,1.479a12.151,12.151,0,0,0,4.193-1.685,7.048,7.048,0,0,0,1.716-1.484,6.245,6.245,0,0,0,1.045-2.013,8.687,8.687,0,0,0-.063-4.49,19.134,19.134,0,0,0-1.64-4.211,39.056,39.056,0,0,0-5.119-7.436,39.021,39.021,0,0,1,5.075,7.457,19.2,19.2,0,0,1,1.614,4.206,8.607,8.607,0,0,1,.039,4.446,6.093,6.093,0,0,1-1.035,1.971,6.888,6.888,0,0,1-1.695,1.451,12.088,12.088,0,0,1-4.156,1.647c-2.98.587-5.994-.353-8.731-1.514-5.5-2.451-10.582-5.744-15.756-8.828-5.152-3.133-10.31-6.259-15.52-9.3a79.469,79.469,0,0,0-7.963-4.328,26.454,26.454,0,0,0-8.8-2.243,21.621,21.621,0,0,0-8.986,1.292,26.689,26.689,0,0,0-7.821,4.636,50.61,50.61,0,0,0-11.227,14.2,86.783,86.783,0,0,0-7.122,16.681Z" transform="translate(-426.142 -101.458)" fill="url(#linear-gradient-50)"/>
        <path id="Контур_2920" data-name="Контур 2920" d="M473.574,218.413a93.382,93.382,0,0,1,7.468-16.586,56.363,56.363,0,0,1,11.179-14.243,29.076,29.076,0,0,1,7.554-4.9,18.839,18.839,0,0,1,4.272-1.34,17.162,17.162,0,0,1,4.474-.069,29.8,29.8,0,0,1,8.67,2.506,66.463,66.463,0,0,1,8.031,4.316c5.185,3.209,10.087,6.865,15,10.5a146.173,146.173,0,0,0,15.164,10.323,31.76,31.76,0,0,0,4.164,1.95,14.039,14.039,0,0,0,4.483,1.013,14.287,14.287,0,0,0,4.561-.547,6.468,6.468,0,0,0,3.712-2.608,6.991,6.991,0,0,0,.877-4.453,14.952,14.952,0,0,0-1.218-4.414,20.411,20.411,0,0,0-5.327-7.375,20.381,20.381,0,0,1,5.262,7.4,14.813,14.813,0,0,1,1.177,4.4,6.883,6.883,0,0,1-.89,4.369,6.32,6.32,0,0,1-3.646,2.514,14.073,14.073,0,0,1-4.5.5c-3.046-.16-5.862-1.571-8.521-3a146.053,146.053,0,0,1-15.048-10.415c-4.885-3.67-9.765-7.37-14.954-10.637a67.082,67.082,0,0,0-8.071-4.417,30.441,30.441,0,0,0-8.85-2.625,17.851,17.851,0,0,0-4.664.039,19.522,19.522,0,0,0-4.462,1.359,29.87,29.87,0,0,0-7.8,4.977,57.209,57.209,0,0,0-11.476,14.385,94.427,94.427,0,0,0-7.689,16.74Z" transform="translate(-426.865 -102.266)" fill="url(#linear-gradient-51)"/>
        <path id="Контур_2921" data-name="Контур 2921" d="M481.381,213.038a53.337,53.337,0,0,1,9.571-9.347,35.088,35.088,0,0,1,11.842-6.081,23.58,23.58,0,0,1,13.156.108,15.754,15.754,0,0,1,5.773,3.18,15.944,15.944,0,0,1,3.916,5.33c1.927,4.054,2.633,8.57,3.556,12.987A40.763,40.763,0,0,0,531,225.778a11.548,11.548,0,0,0,4.014,5.451,9.488,9.488,0,0,0,3.117,1.395,9.162,9.162,0,0,0,3.393.348,5.667,5.667,0,0,0,3.138-1.284,7.282,7.282,0,0,0,1.963-2.771,18.813,18.813,0,0,0,1.226-6.654,37.965,37.965,0,0,0-.437-6.764,37.95,37.95,0,0,1,.366,6.762,18.662,18.662,0,0,1-1.284,6.6,7.135,7.135,0,0,1-1.947,2.693,5.491,5.491,0,0,1-3.046,1.208,8.973,8.973,0,0,1-3.309-.374,9.235,9.235,0,0,1-3.021-1.39,11.231,11.231,0,0,1-3.846-5.349,40.25,40.25,0,0,1-1.722-6.517c-.879-4.415-1.532-8.965-3.461-13.145a15.976,15.976,0,0,0-9.981-8.937,24.338,24.338,0,0,0-13.592-.252,35.977,35.977,0,0,0-12.21,6.106,54.221,54.221,0,0,0-9.881,9.46Z" transform="translate(-421.976 -92.761)" fill="url(#linear-gradient-52)"/>
        <path id="Контур_2922" data-name="Контур 2922" d="M481.528,212.605a49.159,49.159,0,0,1,10.123-7.56,32.578,32.578,0,0,1,11.874-4.108,20.726,20.726,0,0,1,12.216,2.132,26.824,26.824,0,0,1,5.206,3.582,50.7,50.7,0,0,1,4.593,4.411,45.51,45.51,0,0,1,7.146,10.516c.966,1.9,1.8,3.866,2.716,5.8.929,1.888,1.892,3.985,3.832,5.13a5.627,5.627,0,0,0,3.166.656,6.748,6.748,0,0,0,3.117-.845,5.116,5.116,0,0,0,2.068-2.454,9.054,9.054,0,0,0,.637-3.153,23.08,23.08,0,0,0-.814-6.354,42.529,42.529,0,0,0-2.051-6.072,42.4,42.4,0,0,1,1.984,6.089,22.958,22.958,0,0,1,.742,6.33c-.082,2.08-.795,4.359-2.672,5.431a6.514,6.514,0,0,1-3.021.782,5.364,5.364,0,0,1-3.016-.655c-1.814-1.09-2.753-3.143-3.653-5.035-.889-1.937-1.7-3.919-2.656-5.841a46.027,46.027,0,0,0-7.105-10.7,51.275,51.275,0,0,0-4.6-4.514,27.574,27.574,0,0,0-5.291-3.725A21.5,21.5,0,0,0,503.43,200.1a33.435,33.435,0,0,0-12.253,4.083,50.079,50.079,0,0,0-10.448,7.634Z" transform="translate(-421.827 -90.306)" fill="url(#linear-gradient-53)"/>
        <path id="Контур_2923" data-name="Контур 2923" d="M470.8,234.183a34.528,34.528,0,0,1-2.645-16.362,26.271,26.271,0,0,1,6.378-15.143,23.794,23.794,0,0,1,6.791-4.812,59.211,59.211,0,0,1,7.828-3.177c5.364-1.79,10.884-3.119,16.383-4.5s11.024-2.735,16.422-4.53c5.351-1.829,10.755-4,15.1-7.757a20.93,20.93,0,0,0,1.534-1.493c.482-.526.887-1.118,1.334-1.672a20.215,20.215,0,0,0,2.277-3.608,16.342,16.342,0,0,0,1.514-8.308,18.861,18.861,0,0,0-2.771-8,28.075,28.075,0,0,0-5.459-6.493,28.071,28.071,0,0,1,5.4,6.528,18.767,18.767,0,0,1,2.69,7.973,16.151,16.151,0,0,1-1.564,8.2,19.941,19.941,0,0,1-2.282,3.551c-.447.545-.851,1.127-1.332,1.642a20.06,20.06,0,0,1-1.526,1.461c-4.319,3.672-9.7,5.793-15.046,7.568-5.388,1.743-10.91,3.054-16.422,4.385s-11.052,2.622-16.47,4.38a60.086,60.086,0,0,0-7.955,3.153,24.612,24.612,0,0,0-7.057,4.925,27.179,27.179,0,0,0-6.743,15.627,35.512,35.512,0,0,0,2.606,16.93Z" transform="translate(-430.227 -121.937)" fill="url(#linear-gradient-54)"/>
        <path id="Контур_2924" data-name="Контур 2924" d="M477.027,231.963a15.567,15.567,0,0,0-2.064-4.4,39.495,39.495,0,0,0-2.8-3.807,65.413,65.413,0,0,0-6.535-6.731c-1.135-1.074-2.353-2.053-3.529-3.077l-3.625-2.929a20.23,20.23,0,0,1-3.222-3.211,7.732,7.732,0,0,1-1.795-3.966,5.427,5.427,0,0,1,1.348-4,13.5,13.5,0,0,1,3.479-2.866,42.2,42.2,0,0,1,8.428-3.72,138.3,138.3,0,0,1,18.047-4.415q4.574-.854,9.179-1.551c3.069-.476,6.151-.995,9.165-1.772a73.763,73.763,0,0,0,17.41-6.635,53.37,53.37,0,0,0,14.706-11.353,30.713,30.713,0,0,0,5.133-7.751c1.25-2.808,1.992-6.051,1.085-9.066.884,3.021.118,6.248-1.148,9.037a30.683,30.683,0,0,1-5.175,7.688,53.162,53.162,0,0,1-14.733,11.2,73.412,73.412,0,0,1-17.377,6.473c-3.009.753-6.067,1.243-9.139,1.7s-6.148.937-9.208,1.485a138.823,138.823,0,0,0-18.165,4.3,42.945,42.945,0,0,0-8.612,3.729,14.305,14.305,0,0,0-3.7,3.011,6.265,6.265,0,0,0-1.563,4.586,8.585,8.585,0,0,0,1.938,4.424,21.111,21.111,0,0,0,3.333,3.379l3.6,2.953c1.156,1.026,2.356,2,3.47,3.074a64.639,64.639,0,0,1,6.386,6.676,38.788,38.788,0,0,1,2.692,3.717,15.091,15.091,0,0,1,1.876,4Z" transform="translate(-439.063 -120.477)" fill="url(#linear-gradient-55)"/>
        <path id="Контур_2925" data-name="Контур 2925" d="M483.114,137.178a13.063,13.063,0,0,0-3.822,8.062,21.468,21.468,0,0,0,1.035,9.029,37.11,37.11,0,0,0,3.8,8.262c.789,1.3,1.577,2.595,2.367,3.838a35.118,35.118,0,0,1,2.04,3.935,15.509,15.509,0,0,1,1.618,8.433,7.539,7.539,0,0,1-1.735,3.791,9.081,9.081,0,0,1-3.493,2.411,19.068,19.068,0,0,1-8.7,1.014,39.217,39.217,0,0,1-8.776-1.8,35.935,35.935,0,0,0,8.721,2.35,19.684,19.684,0,0,0,9.071-.756,9.331,9.331,0,0,0,3.906-2.575,8.52,8.52,0,0,0,2.016-4.266,16.478,16.478,0,0,0-1.6-9.052,35.782,35.782,0,0,0-2.15-4.037c-.835-1.285-1.626-2.548-2.408-3.807a41.006,41.006,0,0,1-3.861-8,20.9,20.9,0,0,1-1.306-8.712A13.188,13.188,0,0,1,483.114,137.178Z" transform="translate(-429.963 -128.77)" fill="url(#linear-gradient-56)"/>
        <path id="Контур_2926" data-name="Контур 2926" d="M482.458,209.812a14.12,14.12,0,0,1,7.583-2.7,12.132,12.132,0,0,1,7.644,2.461,22.854,22.854,0,0,1,5.517,6.2c1.514,2.382,2.916,4.843,4.311,7.312s2.779,4.951,4.307,7.354A26.581,26.581,0,0,0,517.274,237a7.93,7.93,0,0,0,3.9,1.748,7.279,7.279,0,0,0,4.174-.813,21.457,21.457,0,0,0,6.365-5.588,21.353,21.353,0,0,1-6.438,5.441,7.072,7.072,0,0,1-4.069.718,7.659,7.659,0,0,1-3.732-1.761,26.218,26.218,0,0,1-5.243-6.57c-1.472-2.413-2.8-4.915-4.153-7.409s-2.706-4.994-4.188-7.428a23.689,23.689,0,0,0-5.664-6.5,13.108,13.108,0,0,0-8.22-2.742,15.132,15.132,0,0,0-8.249,2.843Z" transform="translate(-421.194 -86.553)" fill="url(#linear-gradient-57)"/>
        <path id="Контур_2927" data-name="Контур 2927" d="M483.316,209.649a1.831,1.831,0,0,1,1.019-.469,3.44,3.44,0,0,1,1.342.123,8.284,8.284,0,0,1,2.624,1.324,27.01,27.01,0,0,1,4.477,4.216,97.71,97.71,0,0,1,7.365,10.094c2.325,3.466,4.7,7,7.876,9.789a14.649,14.649,0,0,0,11.7,3.574,16.335,16.335,0,0,1-6.186-.637,16.089,16.089,0,0,1-5.328-3.148c-3.075-2.822-5.348-6.37-7.592-9.884a98.354,98.354,0,0,0-7.194-10.336,27.833,27.833,0,0,0-4.546-4.464,9.223,9.223,0,0,0-2.917-1.542,3.39,3.39,0,0,0-3.519.666Z" transform="translate(-420.781 -85.33)" fill="url(#linear-gradient-58)"/>
      </g>
      <g id="Сгруппировать_2181" data-name="Сгруппировать 2181" transform="translate(100.726 319.403)">
        <path id="Контур_2928" data-name="Контур 2928" d="M464.523,211.3S462.7,224,461.4,225.82a6.969,6.969,0,0,1-3.98,2.3l-5.224-1.466s-.635-8.6,1.821-15.037Z" transform="translate(-451.435 -210.294)" fill="#ff6832" fill-rule="evenodd"/>
        <path id="Контур_2929" data-name="Контур 2929" d="M454.357,210.676c-2.8,6.26-2.661,16.562-2.661,16.562l8.776,3.325c3.745-.751,6.033-1.934,7.1-1.648,5.931,1.584,7.057,10.523,7.057,10.523,12.674,6.789,20.4,6.7,20.4,6.7,5.669-6.765,7.28-16.156,7.28-16.156s-19.918-7.4-28.333-10.6S454.357,210.676,454.357,210.676Zm.468,1.967s29.241,14.453,44.913,18.17c0,0-.54,6.054-5.575,13.153,0,0-7.513.739-18.3-5.219,0,0-2.745-9.682-8.565-11.36a29.046,29.046,0,0,0-6.431,2.327l-7.883-2.99A28.7,28.7,0,0,1,454.825,212.643Z" transform="translate(-451.695 -210.676)" fill="#ffd64d" fill-rule="evenodd"/>
        <path id="Контур_2930" data-name="Контур 2930" d="M463.772,211.678l-10.426-1s27.582,13.532,47.956,19.3l4.98.326S475.274,217.776,463.772,211.678Z" transform="translate(-450.684 -210.674)" fill="#fff663" fill-rule="evenodd"/>
        <path id="Контур_2931" data-name="Контур 2931" d="M478.568,238.806s6.265-1.427,9.426-4.794,2.835-11.04,2.835-11.04l-4.98-.326S485.1,230.013,478.568,238.806Z" transform="translate(-435.231 -203.343)" fill="#ff6832" fill-rule="evenodd"/>
        <path id="Контур_2932" data-name="Контур 2932" d="M493.494,243.326s-7.512.729-18.294-5.219c0,0-4.943-9.252-8.568-11.361a28.673,28.673,0,0,0-6.433,2.327l-6.964-2.882a26.318,26.318,0,0,1,1.524-14.038s27.831,13.492,44.311,18.012C499.071,230.165,498.529,236.229,493.494,243.326Z" transform="translate(-450.967 -209.771)" fill="#8edeff" fill-rule="evenodd" opacity="0.69"/>
        <path id="Контур_2933" data-name="Контур 2933" d="M491.826,226.708s-4.256-.129-9.286-.177l.876-3.811A13.09,13.09,0,0,1,494.509,226Z" transform="translate(-432.798 -203.418)" fill-rule="evenodd" fill="url(#linear-gradient-59)"/>
      </g>
      <g id="Сгруппировать_2182" data-name="Сгруппировать 2182" transform="translate(152.689 341.047)">
        <path id="Контур_2934" data-name="Контур 2934" d="M490.34,225.509s9.94-4.838,13.548,3.4c2.6,5.944-6.12,16.259-13.335,14.914a7.581,7.581,0,0,1-6.625-8.018S487.178,227.087,490.34,225.509Z" transform="translate(-483.917 -224.098)" fill-rule="evenodd" fill="url(#linear-gradient-60)"/>
        <path id="Контур_2935" data-name="Контур 2935" d="M486.572,228.681s7.371-2.425,11.472-.711,2.506,6.283.656,8.684c0,0,.385-5.114-2.775-7.492,0,0-.326,4.583-2.1,6.617s-6.038,1.25-6.938.4a3.8,3.8,0,0,1-.824-2.55s3.2-.7,4.116-2.653S487.692,228.171,486.572,228.681Z" transform="translate(-482.6 -222.101)" fill-rule="evenodd" opacity="0.5" fill="url(#linear-gradient-61)" style="mix-blend-mode: multiply;isolation: isolate"/>
        <path id="Контур_2936" data-name="Контур 2936" d="M486.572,228.662s3.512-.529,3.782,1.635-4.286,3.311-4.286,3.311.368,3.217,4.24,2.967,6.918-6.1,2.732-9.187C493.039,227.388,488.354,227.854,486.572,228.662Z" transform="translate(-482.599 -222.082)" fill-rule="evenodd" opacity="0.5" fill="url(#linear-gradient-62)" style="mix-blend-mode: multiply;isolation: isolate"/>
      </g>
      <path id="Контур_2937" data-name="Контур 2937" d="M469.058,176.759s-1.5,2.577,2.484,4.164,7.21-.911,14.774,5.248,4.441,7.394,6.9,10,11.239.866,11.239.866-7.094,3.488-10.65,7.446c0,0,3.67-4.775,1.84-5.675s-2.859.174-7.9-7.486-10.782-7.826-16.885-8.094-6.291-3.5-6.291-3.5Z" transform="translate(-343.081 87.947)" fill-rule="evenodd" opacity="0.3" fill="url(#linear-gradient-63)" style="mix-blend-mode: screen;isolation: isolate"/>
      <path id="Контур_2938" data-name="Контур 2938" d="M545.2,196.677a19.039,19.039,0,0,0-8.141-14.2c-8.015-5.643-6.875-1.627-15.525-6.4s-5.6-7.522-6.768-12.571-9.831-1.659-9.831-1.659,3.7-3.825,4.069-8.336c0,0-.139,2.788,0,4.653s3.506.593,5.789,3.472-1.5,8.009,6.626,12.663,11.953,1.414,16.4,5.8C537.827,180.1,544.377,187.332,545.2,196.677Z" transform="translate(-318.349 73.703)" fill-rule="evenodd" opacity="0.3" fill="url(#linear-gradient-64)" style="mix-blend-mode: screen;isolation: isolate"/>
    </g>
    <path id="Контур_2939" data-name="Контур 2939" d="M389.8,476.273l.006.021,0,0a2.49,2.49,0,0,0,.969,1.09l1.942.687a3.263,3.263,0,0,0,.481,2.211s12.421.208,18.465,1.321c5.265.976,11.692,5.551,13.258,6.717.229.176.35.266.35.266s-1.909,1.722-3.767,1.411A21.562,21.562,0,0,1,418,488.626c-2.056-.881-4.53-1.835-6.557-1.627-3.482.358-5.454,3.714-5.454,3.714l.577,1.622s.566-.021,1.274-.1a64.883,64.883,0,0,1,10.2.119c.781.074,1.572.185,2.39.308a90.41,90.41,0,0,1,11.055,2.627l9.874-5.188s35.648-11.937,52.88-28.73c0,0,2.64-3.959,6.518-9.842.079-.127.176-.26.261-.4,3.622-5.5,8.271-12.582,12.853-19.657.789-1.208,1.535-2.363,2.227-3.44.5-.781,1-1.542,1.493-2.309a.4.4,0,0,1,.031-.052c.408.181.8.366,1.258.532,6.951,2.535,8.752-.3,15.707,3.585,6.356,3.54,10.953,8.2,16.454,9.368a.662.662,0,0,0,.132.037,11.6,11.6,0,0,0,1.2.177c.086.013.158.018.244.031a7.515,7.515,0,0,0,.974.019c-.218.013-.442.035-.666.06a1.567,1.567,0,0,0,.822-.071.014.014,0,0,1,.019-.006l.024,0c.24-.016.484-.061.727-.1.189-.031.379-.056.569-.1.208-.05.418-.118.626-.182.227-.071.455-.144.685-.234.2-.076.4-.164.6-.255q.368-.167.743-.363c.193-.1.39-.211.587-.326.263-.153.527-.319.795-.493.194-.126.385-.25.582-.387.285-.2.577-.416.869-.639.185-.14.369-.274.556-.423.332-.263.672-.55,1.014-.84.158-.134.313-.258.472-.4.508-.442,1.024-.908,1.556-1.4,1.692-1.58,3.524-3.437,5.54-5.527l.015-.015a146.6,146.6,0,0,1,13.295,24.021l2.024,4.819a109.64,109.64,0,0,1-12.363,19.763c-.785,1-1.664,2.035-2.606,3.093l-10.35,10.35.01-.008c-6.407,5.907-12.193,10.6-12.193,10.6l0,.01,0,0a73.36,73.36,0,0,1-11.369-2.234h0c-1.787-.456-3.632-.95-5.477-1.453a32.575,32.575,0,0,1-5.557-2.572c-5.523-3.253-8.36-4.443-7.1-.866h0a42.977,42.977,0,0,0-6.272-1.253l-.024-.011a4.615,4.615,0,0,0-.884.01c-4.748.555-12.332,5.046-12.332,5.046a2.293,2.293,0,0,0,1.3,2.169,58.676,58.676,0,0,0,6.575-1.03c1.95-.566,7.06-1.211,7.06-1.211s-5.572,1.9-7.2,2.6-9.376,6.938-9.376,6.938a2.57,2.57,0,0,0,.694,2.271l.956,0a2.385,2.385,0,0,0,.2.323c.018.024.039.05.058.077s.034.043.055.069a2.166,2.166,0,0,0,1.124.792l0,0a3.6,3.6,0,0,0,1.234.252c2.034.052,11.052-3.158,15.859-3.379,4.516-.187,11.081,1.339,11.89,1.534l.079.024a1.176,1.176,0,0,1-.152,0,1.4,1.4,0,0,1-.193-.006,27.43,27.43,0,0,0-5.733.408c-.1.023-.218.042-.3.06-.14.035-.285.084-.413.126a3.408,3.408,0,0,0-.429.163c-2.085.953-9.128,6.412-9.128,6.412.423,1.061,2.424,1.959,2.424,1.959a56.277,56.277,0,0,1,11.8-3.417s7.478,2.271,14.32.919a15.021,15.021,0,0,0,3.519-1.185l.018-.006a29.677,29.677,0,0,0,8.958-6.983l0,0a54.764,54.764,0,0,0,6.38-2.795c34.073-15.959,52.172-41.994,52.172-41.994S592.5,425.53,585,412.706c7.563-6.289,13.193-8.963,14.624-9.384,1.908-.573,15.08,5.86,32.176,4.116a74.378,74.378,0,0,0,12.31-2.375c.013.006.018-.006.031,0,12.034-3.364,22.036-9.108,25.414-12.819,0,0,2.387-2.434,6.159-6.82,10.416-11.334,19.554-25.683,23.068-31.445,10.545-17,20.745-38.257,24.353-60.811,0,0-6.6-16.39-29.12-40.289,3.25-18.81,6.872-44.674,5.18-58.832-1.25-10.421-3.377-22.927-5.382-33.745.077-3.3-.029-49.49-63.33-119.7l-3.079.445,0,0c-16.693.318-51.177-27.215-52.7-28.433C575.84,13.668,594.8,31.169,615.4,50.95l0,.018a.308.308,0,0,1,.1.079c19.659,18.881,40.767,39.794,49.307,50.414,10.021,12.468,11.921,27.325,11.756,38.451l-.007.011c-.118,8.62-1.484,14.991-1.263,16.3.5,2.979,6.975,9.818,7.836,12.113s-3.23,10.145-4.391,16.167.1,8.365.1,8.365l11.285,8.681a229.273,229.273,0,0,1-11.593,33.647c-.268.611-.556,1.187-.839,1.772-.889-.8-1.78-1.6-2.7-2.414a134.079,134.079,0,0,1-9.274-10.994,81.63,81.63,0,0,0-7.181-10.926c-3.192-5.027-7.16-9.853-16.414-11.363h.027l-.032,0a42.38,42.38,0,0,0-8.057-.464c-3.651.11-7.073.115-10.236.06-14.311-.534-20.378-1.369-20.378-1.369q-1.076.467-2.129.951a124.427,124.427,0,0,0-25.438,15.559c-15.548-19.676-45.237-9.087-47.556,3.161,0,0-.123-.173-.266.281a12.329,12.329,0,0,1,2.971-5.954,13.055,13.055,0,0,0-3.822,8.062,19.849,19.849,0,0,0,.406,6.673c.013,2.914.092,6.749.274,11.811.684,18.933-12.4,18.755-16.7,18.189a60.077,60.077,0,0,1-7.326-4.624s13.585,11.961,23.856,9.376a16.773,16.773,0,0,0,5.441-.922,9.331,9.331,0,0,0,3.906-2.575,8.52,8.52,0,0,0,2.016-4.266,16.478,16.478,0,0,0-1.6-9.052,35.78,35.78,0,0,0-2.15-4.037c-.664-1.021-1.287-2.022-1.913-3.025a31.028,31.028,0,0,1-.93-9.665c2.169-.227,6.512.573,14.891,5.7,14.272,8.739,8.262,25.743,8.154,26.05-4.691,2.013-10.2,4.07-16.7,6.2q-1.8.593-3.5,1.179l0,0c-18.776,4.746-50.569,3.625-55.979,15.543s4.9,19.391,16.756,27.209c11.269,7.431,11.968,12.914,12.01,13.442-.208.431-.4.852-.579,1.245l-.006.013c-.189.434-.358.832-.514,1.206l0,0c-1.082,1.276-1.508,4.354-1.508,4.354l0,0c-.234.777-.46,1.571-.674,2.367-.635-.319-1.243-.631-1.793-.922l-10.411-1-.015-.006c-2.8,6.26-2.661,16.562-2.661,16.562l6.257,2.371a10.614,10.614,0,0,0-1.813,2.148c-.648-.4-24.24-14.566-37.135,5.623-5.575,8.729.9,21.757,8.047,32.842-2.551,2.38-4.216,4.851-4.212,7.394,0,2.793,1.917,5.29,5.857,7.63a62.906,62.906,0,0,0,7.834,4.161c2.071.829,2.935.7,3.451.147,1.2-1.29-.508-3.891-5.622-11.223-1.632-2.342-3.495-5.012-5.359-7.87a96.981,96.981,0,0,1,12.416-8.267c6.288-3.758,11.719-7,12.472-9.961.131-.516.277-.979.429-1.414,1.368.643,2.838,1.234,4.322,1.766a15.708,15.708,0,0,0,1.387,3.046c1.322,1.679,1.888,3.206,13.816,4.606a31.857,31.857,0,0,0,17.3-3.3l-.073.047,2.609,3.567.05.074a49.276,49.276,0,0,0-5.593,1.316,24.231,24.231,0,0,0-3.832,1.447,5.277,5.277,0,0,0-1.714,1,6.668,6.668,0,0,0-1.292,1.1.413.413,0,0,1,.081.037c-5.4,5.651-13.292,21.086-22.06,35.706a162.892,162.892,0,0,1-13.98,20.416v0l-15.536,15.561,0,0c-14.6,13.25-29.92,24.595-29.92,24.595-2.448-.59-9.345-3.869-15.811-6.886,0,0-6.981-3.833-12.65-6.351S396.679,472.5,396.67,472.5c-1.377.321-2.656.643-3.762.935a26.694,26.694,0,0,0-3.672,1.019A5.649,5.649,0,0,0,389.8,476.273ZM667.7,253.466c-4.093,6.823-6.356,13.48-2.34,24.077,0,0-6.189,7.467-15.316,17.206l-21.07,20.836.008,0c-1.776,1.6-3.569,3.183-5.37,4.714-14.832,12.611-18.207,14.195-19.891,14.946.011-.218.031-.437.039-.655a37.965,37.965,0,0,0-.437-6.764,37.95,37.95,0,0,1,.366,6.762c-.01.229-.034.461-.048.692l-.134.06c-.016-.065-.029-.132-.045-.2a42.529,42.529,0,0,0-2.051-6.072c2.269-1.284,8.092-5.323,12.134-14.543a10.02,10.02,0,0,0,1.506.169,14.287,14.287,0,0,0,4.561-.547,6.469,6.469,0,0,0,3.712-2.608,6.991,6.991,0,0,0,.877-4.453c0-.044-.015-.085-.019-.129.044-.121.11-.231.145-.355a8.687,8.687,0,0,0-.063-4.49,19.134,19.134,0,0,0-1.64-4.211,39.056,39.056,0,0,0-5.119-7.436,39.021,39.021,0,0,1,5.075,7.457,19.2,19.2,0,0,1,1.614,4.206,8.607,8.607,0,0,1,.039,4.446c-.019.068-.056.127-.079.194a15.277,15.277,0,0,0-1.171-4.1,20.411,20.411,0,0,0-5.327-7.375,20.38,20.38,0,0,1,5.262,7.4,15,15,0,0,1,1.158,4.256,6.513,6.513,0,0,1-.879,1.59A6.888,6.888,0,0,1,621.5,310a12.088,12.088,0,0,1-4.156,1.647,10.17,10.17,0,0,1-2.714.135,55.817,55.817,0,0,0,3.024-16.482,40.441,40.441,0,0,0-1.568-12.248l0-.052-.166-.566q-.14-.5-.292-1l-.126-.431,0,.045a70.773,70.773,0,0,0-2.809-7.48,19.478,19.478,0,0,1,2.879,6.246,32.7,32.7,0,0,0-5.446-11.6c-1.045-2.019-2.166-4.008-3.327-5.957-1.076-2.132-1.855-3.35-1.855-3.35l-4-5.688c-.085-.124-.173-.247-.26-.369l-.084-.121,0,.006a195.111,195.111,0,0,0-13.637-17.115,27.507,27.507,0,0,0-3.832-4.141,27.3,27.3,0,0,1,3.429,3.69c-2.111-2.348-3.429-3.69-3.429-3.69-.234-.924-.492-1.811-.761-2.679a145.626,145.626,0,0,1,31.226,8.56c4.111-11.993,8.41-20.121,12.653-25.464l0,0v0l.011,0,7.088,4.435.011.008.011.006c7.659,6.526,11.481,15.836,16.461,17.049a18.059,18.059,0,0,1,7.6,3.379c2.219,1.826,3.927,4.577,5.22,9,2.5,8.526,5.03,7.691,5.03,7.691Zm-43.6,53.7a6.839,6.839,0,0,1-.892,4.3,6.319,6.319,0,0,1-3.646,2.514,14.073,14.073,0,0,1-4.5.5,11.556,11.556,0,0,1-1.421-.173q.489-1.137.94-2.375a10.309,10.309,0,0,0,2.793-.15,12.151,12.151,0,0,0,4.193-1.685,7.048,7.048,0,0,0,1.716-1.484A6.714,6.714,0,0,0,624.1,307.161Zm-31.418,37.332c.052.089.106.176.161.263l-.027-.006-.626.211c.126-.171.248-.342.373-.514C592.6,344.464,592.638,344.477,592.678,344.493Zm.492.194c.287.1.576.189.869.261a9.751,9.751,0,0,0,2.159.361c-.031.1-.06.2-.089.294-1.306-.36-2.292-.61-2.83-.74C593.241,344.8,593.207,344.745,593.17,344.687ZM502.2,338.312l1.39.639-.008.031q-.714-.324-1.389-.632Zm99.205-9.244a42.4,42.4,0,0,1,1.984,6.089c.016.069.029.142.045.211a5.516,5.516,0,0,0-1.792,1.253c-2.435,1.05-4.1,4.285-5.375,8.442a9.606,9.606,0,0,1-2.169-.352,10.221,10.221,0,0,1-1.166-.414c-.04-.071-.082-.139-.123-.21a66.739,66.739,0,0,0,7.638-14.527A10.206,10.206,0,0,0,601.409,329.068Zm-98.386-28.706c-.7-.6-1.406-1.2-2.1-1.806l-3.625-2.929a20.23,20.23,0,0,1-3.222-3.211,7.732,7.732,0,0,1-1.795-3.966,5.42,5.42,0,0,1,1.348-4,13.5,13.5,0,0,1,3.479-2.866,42.2,42.2,0,0,1,8.428-3.72c1.24-.413,2.493-.782,3.749-1.142,2.719.042,5.088.008,7.1-.069-.408.227-.787.455-1.174.682l.008-.015-.131.085a46.344,46.344,0,0,0-4.3,2.842l-.06.04v0C502.278,286.677,501.446,293.049,503.023,300.362Zm123.258-88.5.039-.047-.011.016ZM541.239,369.22c.053-.066.115-.126.168-.192.29-.348.558-.711.831-1.071.558,2.032,2.1,4.643,6.325,5.431.084.014.171.01.256.021.2,1.38.389,2.28.389,2.28l.311.221c-1.039-.321-2.027-.676-2.956-1.063l-2.264-1.066-.081-.1-2.93-4.5Zm-75.1,23.6c1.8,2.74,3.616,5.343,5.267,7.71,2.682,3.845,5.709,8.184,5.715,9.323-.526.05-2.442-.422-9.389-4.549-3.4-2.019-5.122-4.154-5.125-6.346C462.6,396.929,463.98,394.865,466.135,392.82ZM494.069,353.7c-.01.019-.023.037-.032.058a8.276,8.276,0,0,0-.669,3.338l-3.335-.761a33,33,0,0,0-.908,13.892,20.873,20.873,0,0,0,2.114,1.266c-.19.527-.372,1.089-.532,1.717-.6,2.361-6.288,5.76-11.787,9.045a98.115,98.115,0,0,0-12.459,8.3c-6.7-10.494-12.971-23.124-7.926-31.023,12.224-19.138,34.177-5.722,35.1-5.146Zm15.066-30.888.029-.058a12.068,12.068,0,0,1,1.16-1.909C509.893,321.5,509.495,322.164,509.135,322.811ZM499.5,276.288c2.763.2,5.277.319,7.588.387-.59.177-1.187.335-1.774.526a42.945,42.945,0,0,0-8.612,3.729,14.305,14.305,0,0,0-3.7,3.011,6.265,6.265,0,0,0-1.563,4.586,8.585,8.585,0,0,0,1.937,4.422,21.131,21.131,0,0,0,3.335,3.38l3.6,2.953c1.032.914,2.092,1.8,3.1,2.74.269,1.058.576,2.134.911,3.235,1.977,6.475,3.15,10.64,3.845,13.282-4.364-11.314-20.9-14.08-27.17-20.834C474.018,290.18,482.473,275.056,499.5,276.288Zm33.345-15.035a14.187,14.187,0,0,1-2.566.734,10.885,10.885,0,0,0,2.063-1.474c5.652-5.12,3.788-11.142,1.922-18.075.052.079.1.166.152.245a35.117,35.117,0,0,1,2.04,3.935,15.509,15.509,0,0,1,1.618,8.433,7.539,7.539,0,0,1-1.735,3.791A9.081,9.081,0,0,1,532.845,261.254ZM527.787,221.3c-.013.155-.024.321-.036.5,0-.065,0-.129,0-.194C527.763,221.508,527.778,221.406,527.787,221.3Zm171.1,78.237-5.981,7.4c-.421.51-.868,1.045-1.326,1.595L673,329.466c-8.41,8.866-17.812,17.864-26.512,24.179.461-.731.952-1.508,1.474-2.34l0-.011a.859.859,0,0,0,.068-.1,1.241,1.241,0,0,1,.127-.194c1.4-2.158,9.953-15.419,19.952-33.161.164-.3.34-.585.5-.882,2.977-5.188,5.933-10.482,8.713-15.665l.074-.131,0,0c4.561-8.512,8.633-16.711,11.485-23.618C692.267,292.267,694.252,298.932,698.884,299.542Z" transform="translate(0)" opacity="0.8" fill="url(#linear-gradient-65)" style="mix-blend-mode: multiply;isolation: isolate"/>
    <path id="Контур_2940" data-name="Контур 2940" d="M389.8,476.273l.006.021,0,0a2.49,2.49,0,0,0,.969,1.09l1.942.687a3.263,3.263,0,0,0,.481,2.211s12.421.208,18.465,1.321c5.265.976,11.692,5.551,13.258,6.717.229.176.35.266.35.266s-1.909,1.722-3.767,1.411A21.562,21.562,0,0,1,418,488.626c-2.056-.881-4.53-1.835-6.557-1.627-3.482.358-5.454,3.714-5.454,3.714l.577,1.622s.566-.021,1.274-.1a64.883,64.883,0,0,1,10.2.119c.781.074,1.572.185,2.39.308a90.41,90.41,0,0,1,11.055,2.627l9.874-5.188s35.648-11.937,52.88-28.73c0,0,2.64-3.959,6.518-9.842.079-.127.176-.26.261-.4,3.622-5.5,8.271-12.582,12.853-19.657.789-1.208,1.535-2.363,2.227-3.44.5-.781,1-1.542,1.493-2.309a.4.4,0,0,1,.031-.052c.408.181.8.366,1.258.532,6.951,2.535,8.752-.3,15.707,3.585,6.356,3.54,10.953,8.2,16.454,9.368a.662.662,0,0,0,.132.037,11.6,11.6,0,0,0,1.2.177c.086.013.158.018.244.031a7.515,7.515,0,0,0,.974.019c-.218.013-.442.035-.666.06a1.567,1.567,0,0,0,.822-.071.014.014,0,0,1,.019-.006l.024,0c.24-.016.484-.061.727-.1.189-.031.379-.056.569-.1.208-.05.418-.118.626-.182.227-.071.455-.144.685-.234.2-.076.4-.164.6-.255q.368-.167.743-.363c.193-.1.39-.211.587-.326.263-.153.527-.319.795-.493.194-.126.385-.25.582-.387.285-.2.577-.416.869-.639.185-.14.369-.274.556-.423.332-.263.672-.55,1.014-.84.158-.134.313-.258.472-.4.508-.442,1.024-.908,1.556-1.4,1.692-1.58,3.524-3.437,5.54-5.527l.015-.015a146.6,146.6,0,0,1,13.295,24.021l2.024,4.819a109.64,109.64,0,0,1-12.363,19.763c-.785,1-1.664,2.035-2.606,3.093l-10.35,10.35.01-.008c-6.407,5.907-12.193,10.6-12.193,10.6l0,.01,0,0a73.36,73.36,0,0,1-11.369-2.234h0c-1.787-.456-3.632-.95-5.477-1.453a32.575,32.575,0,0,1-5.557-2.572c-5.523-3.253-8.36-4.443-7.1-.866h0a42.977,42.977,0,0,0-6.272-1.253l-.024-.011a4.615,4.615,0,0,0-.884.01c-4.748.555-12.332,5.046-12.332,5.046a2.293,2.293,0,0,0,1.3,2.169,58.676,58.676,0,0,0,6.575-1.03c1.95-.566,7.06-1.211,7.06-1.211s-5.572,1.9-7.2,2.6-9.376,6.938-9.376,6.938a2.57,2.57,0,0,0,.694,2.271l.956,0a2.385,2.385,0,0,0,.2.323c.018.024.039.05.058.077s.034.043.055.069a2.166,2.166,0,0,0,1.124.792l0,0a3.6,3.6,0,0,0,1.234.252c2.034.052,11.052-3.158,15.859-3.379,4.516-.187,11.081,1.339,11.89,1.534l.079.024a1.176,1.176,0,0,1-.152,0,1.4,1.4,0,0,1-.193-.006,27.43,27.43,0,0,0-5.733.408c-.1.023-.218.042-.3.06-.14.035-.285.084-.413.126a3.408,3.408,0,0,0-.429.163c-2.085.953-9.128,6.412-9.128,6.412.423,1.061,2.424,1.959,2.424,1.959a56.277,56.277,0,0,1,11.8-3.417s7.478,2.271,14.32.919a15.021,15.021,0,0,0,3.519-1.185l.018-.006a29.677,29.677,0,0,0,8.958-6.983l0,0a54.764,54.764,0,0,0,6.38-2.795c34.073-15.959,52.172-41.994,52.172-41.994S592.5,425.53,585,412.706c7.563-6.289,13.193-8.963,14.624-9.384,1.908-.573,15.08,5.86,32.176,4.116a74.378,74.378,0,0,0,12.31-2.375c.013.006.018-.006.031,0,12.034-3.364,22.036-9.108,25.414-12.819,0,0,2.387-2.434,6.159-6.82,10.416-11.334,19.554-25.683,23.068-31.445,10.545-17,20.745-38.257,24.353-60.811,0,0-6.6-16.39-29.12-40.289,3.25-18.81,6.872-44.674,5.18-58.832-1.25-10.421-3.377-22.927-5.382-33.745.077-3.3-.029-49.49-63.33-119.7l-3.079.445,0,0c-16.693.318-51.177-27.215-52.7-28.433C575.84,13.668,594.8,31.169,615.4,50.95l0,.018a.308.308,0,0,1,.1.079c19.659,18.881,40.767,39.794,49.307,50.414,10.021,12.468,11.921,27.325,11.756,38.451l-.007.011c-.118,8.62-1.484,14.991-1.263,16.3.5,2.979,6.975,9.818,7.836,12.113s-3.23,10.145-4.391,16.167.1,8.365.1,8.365l11.285,8.681a229.273,229.273,0,0,1-11.593,33.647c-.268.611-.556,1.187-.839,1.772-.889-.8-1.78-1.6-2.7-2.414a134.079,134.079,0,0,1-9.274-10.994,81.63,81.63,0,0,0-7.181-10.926c-3.192-5.027-7.16-9.853-16.414-11.363h.027l-.032,0a42.38,42.38,0,0,0-8.057-.464c-3.651.11-7.073.115-10.236.06-14.311-.534-20.378-1.369-20.378-1.369q-1.076.467-2.129.951a124.427,124.427,0,0,0-25.438,15.559c-15.548-19.676-45.237-9.087-47.556,3.161,0,0-.123-.173-.266.281a12.329,12.329,0,0,1,2.971-5.954,13.055,13.055,0,0,0-3.822,8.062,19.849,19.849,0,0,0,.406,6.673c.013,2.914.092,6.749.274,11.811.684,18.933-12.4,18.755-16.7,18.189a60.077,60.077,0,0,1-7.326-4.624s13.585,11.961,23.856,9.376a16.773,16.773,0,0,0,5.441-.922,9.331,9.331,0,0,0,3.906-2.575,8.52,8.52,0,0,0,2.016-4.266,16.478,16.478,0,0,0-1.6-9.052,35.78,35.78,0,0,0-2.15-4.037c-.664-1.021-1.287-2.022-1.913-3.025a31.028,31.028,0,0,1-.93-9.665c2.169-.227,6.512.573,14.891,5.7,14.272,8.739,8.262,25.743,8.154,26.05-4.691,2.013-10.2,4.07-16.7,6.2q-1.8.593-3.5,1.179l0,0c-18.776,4.746-50.569,3.625-55.979,15.543s4.9,19.391,16.756,27.209c11.269,7.431,11.968,12.914,12.01,13.442-.208.431-.4.852-.579,1.245l-.006.013c-.189.434-.358.832-.514,1.206l0,0c-1.082,1.276-1.508,4.354-1.508,4.354l0,0c-.234.777-.46,1.571-.674,2.367-.635-.319-1.243-.631-1.793-.922l-10.411-1-.015-.006c-2.8,6.26-2.661,16.562-2.661,16.562l6.257,2.371a10.614,10.614,0,0,0-1.813,2.148c-.648-.4-24.24-14.566-37.135,5.623-5.575,8.729.9,21.757,8.047,32.842-2.551,2.38-4.216,4.851-4.212,7.394,0,2.793,1.917,5.29,5.857,7.63a62.906,62.906,0,0,0,7.834,4.161c2.071.829,2.935.7,3.451.147,1.2-1.29-.508-3.891-5.622-11.223-1.632-2.342-3.495-5.012-5.359-7.87a96.981,96.981,0,0,1,12.416-8.267c6.288-3.758,11.719-7,12.472-9.961.131-.516.277-.979.429-1.414,1.368.643,2.838,1.234,4.322,1.766a15.708,15.708,0,0,0,1.387,3.046c1.322,1.679,1.888,3.206,13.816,4.606a31.857,31.857,0,0,0,17.3-3.3l-.073.047,2.609,3.567.05.074a49.276,49.276,0,0,0-5.593,1.316,24.231,24.231,0,0,0-3.832,1.447,5.277,5.277,0,0,0-1.714,1,6.668,6.668,0,0,0-1.292,1.1.413.413,0,0,1,.081.037c-5.4,5.651-13.292,21.086-22.06,35.706a162.892,162.892,0,0,1-13.98,20.416v0l-15.536,15.561,0,0c-14.6,13.25-29.92,24.595-29.92,24.595-2.448-.59-9.345-3.869-15.811-6.886,0,0-6.981-3.833-12.65-6.351S396.679,472.5,396.67,472.5c-1.377.321-2.656.643-3.762.935a26.694,26.694,0,0,0-3.672,1.019A5.649,5.649,0,0,0,389.8,476.273ZM667.7,253.466c-4.093,6.823-6.356,13.48-2.34,24.077,0,0-6.189,7.467-15.316,17.206l-21.07,20.836.008,0c-1.776,1.6-3.569,3.183-5.37,4.714-14.832,12.611-18.207,14.195-19.891,14.946.011-.218.031-.437.039-.655a37.965,37.965,0,0,0-.437-6.764,37.95,37.95,0,0,1,.366,6.762c-.01.229-.034.461-.048.692l-.134.06c-.016-.065-.029-.132-.045-.2a42.529,42.529,0,0,0-2.051-6.072c2.269-1.284,8.092-5.323,12.134-14.543a10.02,10.02,0,0,0,1.506.169,14.287,14.287,0,0,0,4.561-.547,6.469,6.469,0,0,0,3.712-2.608,6.991,6.991,0,0,0,.877-4.453c0-.044-.015-.085-.019-.129.044-.121.11-.231.145-.355a8.687,8.687,0,0,0-.063-4.49,19.134,19.134,0,0,0-1.64-4.211,39.056,39.056,0,0,0-5.119-7.436,39.021,39.021,0,0,1,5.075,7.457,19.2,19.2,0,0,1,1.614,4.206,8.607,8.607,0,0,1,.039,4.446c-.019.068-.056.127-.079.194a15.277,15.277,0,0,0-1.171-4.1,20.411,20.411,0,0,0-5.327-7.375,20.38,20.38,0,0,1,5.262,7.4,15,15,0,0,1,1.158,4.256,6.513,6.513,0,0,1-.879,1.59A6.888,6.888,0,0,1,621.5,310a12.088,12.088,0,0,1-4.156,1.647,10.17,10.17,0,0,1-2.714.135,55.817,55.817,0,0,0,3.024-16.482,40.441,40.441,0,0,0-1.568-12.248l0-.052-.166-.566q-.14-.5-.292-1l-.126-.431,0,.045a70.773,70.773,0,0,0-2.809-7.48,19.478,19.478,0,0,1,2.879,6.246,32.7,32.7,0,0,0-5.446-11.6c-1.045-2.019-2.166-4.008-3.327-5.957-1.076-2.132-1.855-3.35-1.855-3.35l-4-5.688c-.085-.124-.173-.247-.26-.369l-.084-.121,0,.006a195.111,195.111,0,0,0-13.637-17.115,27.507,27.507,0,0,0-3.832-4.141,27.3,27.3,0,0,1,3.429,3.69c-2.111-2.348-3.429-3.69-3.429-3.69-.234-.924-.492-1.811-.761-2.679a145.626,145.626,0,0,1,31.226,8.56c4.111-11.993,8.41-20.121,12.653-25.464l0,0v0l.011,0,7.088,4.435.011.008.011.006c7.659,6.526,11.481,15.836,16.461,17.049a18.059,18.059,0,0,1,7.6,3.379c2.219,1.826,3.927,4.577,5.22,9,2.5,8.526,5.03,7.691,5.03,7.691Zm-43.6,53.7a6.839,6.839,0,0,1-.892,4.3,6.319,6.319,0,0,1-3.646,2.514,14.073,14.073,0,0,1-4.5.5,11.556,11.556,0,0,1-1.421-.173q.489-1.137.94-2.375a10.309,10.309,0,0,0,2.793-.15,12.151,12.151,0,0,0,4.193-1.685,7.048,7.048,0,0,0,1.716-1.484A6.714,6.714,0,0,0,624.1,307.161Zm-31.418,37.332c.052.089.106.176.161.263l-.027-.006-.626.211c.126-.171.248-.342.373-.514C592.6,344.464,592.638,344.477,592.678,344.493Zm.492.194c.287.1.576.189.869.261a9.751,9.751,0,0,0,2.159.361c-.031.1-.06.2-.089.294-1.306-.36-2.292-.61-2.83-.74C593.241,344.8,593.207,344.745,593.17,344.687ZM502.2,338.312l1.39.639-.008.031q-.714-.324-1.389-.632Zm99.205-9.244a42.4,42.4,0,0,1,1.984,6.089c.016.069.029.142.045.211a5.516,5.516,0,0,0-1.792,1.253c-2.435,1.05-4.1,4.285-5.375,8.442a9.606,9.606,0,0,1-2.169-.352,10.221,10.221,0,0,1-1.166-.414c-.04-.071-.082-.139-.123-.21a66.739,66.739,0,0,0,7.638-14.527A10.206,10.206,0,0,0,601.409,329.068Zm-98.386-28.706c-.7-.6-1.406-1.2-2.1-1.806l-3.625-2.929a20.23,20.23,0,0,1-3.222-3.211,7.732,7.732,0,0,1-1.795-3.966,5.42,5.42,0,0,1,1.348-4,13.5,13.5,0,0,1,3.479-2.866,42.2,42.2,0,0,1,8.428-3.72c1.24-.413,2.493-.782,3.749-1.142,2.719.042,5.088.008,7.1-.069-.408.227-.787.455-1.174.682l.008-.015-.131.085a46.344,46.344,0,0,0-4.3,2.842l-.06.04v0C502.278,286.677,501.446,293.049,503.023,300.362Zm123.258-88.5.039-.047-.011.016ZM541.239,369.22c.053-.066.115-.126.168-.192.29-.348.558-.711.831-1.071.558,2.032,2.1,4.643,6.325,5.431.084.014.171.01.256.021.2,1.38.389,2.28.389,2.28l.311.221c-1.039-.321-2.027-.676-2.956-1.063l-2.264-1.066-.081-.1-2.93-4.5Zm-75.1,23.6c1.8,2.74,3.616,5.343,5.267,7.71,2.682,3.845,5.709,8.184,5.715,9.323-.526.05-2.442-.422-9.389-4.549-3.4-2.019-5.122-4.154-5.125-6.346C462.6,396.929,463.98,394.865,466.135,392.82ZM494.069,353.7c-.01.019-.023.037-.032.058a8.276,8.276,0,0,0-.669,3.338l-3.335-.761a33,33,0,0,0-.908,13.892,20.873,20.873,0,0,0,2.114,1.266c-.19.527-.372,1.089-.532,1.717-.6,2.361-6.288,5.76-11.787,9.045a98.115,98.115,0,0,0-12.459,8.3c-6.7-10.494-12.971-23.124-7.926-31.023,12.224-19.138,34.177-5.722,35.1-5.146Zm15.066-30.888.029-.058a12.068,12.068,0,0,1,1.16-1.909C509.893,321.5,509.495,322.164,509.135,322.811ZM499.5,276.288c2.763.2,5.277.319,7.588.387-.59.177-1.187.335-1.774.526a42.945,42.945,0,0,0-8.612,3.729,14.305,14.305,0,0,0-3.7,3.011,6.265,6.265,0,0,0-1.563,4.586,8.585,8.585,0,0,0,1.937,4.422,21.131,21.131,0,0,0,3.335,3.38l3.6,2.953c1.032.914,2.092,1.8,3.1,2.74.269,1.058.576,2.134.911,3.235,1.977,6.475,3.15,10.64,3.845,13.282-4.364-11.314-20.9-14.08-27.17-20.834C474.018,290.18,482.473,275.056,499.5,276.288Zm33.345-15.035a14.187,14.187,0,0,1-2.566.734,10.885,10.885,0,0,0,2.063-1.474c5.652-5.12,3.788-11.142,1.922-18.075.052.079.1.166.152.245a35.117,35.117,0,0,1,2.04,3.935,15.509,15.509,0,0,1,1.618,8.433,7.539,7.539,0,0,1-1.735,3.791A9.081,9.081,0,0,1,532.845,261.254ZM527.787,221.3c-.013.155-.024.321-.036.5,0-.065,0-.129,0-.194C527.763,221.508,527.778,221.406,527.787,221.3Zm171.1,78.237-5.981,7.4c-.421.51-.868,1.045-1.326,1.595L673,329.466c-8.41,8.866-17.812,17.864-26.512,24.179.461-.731.952-1.508,1.474-2.34l0-.011a.859.859,0,0,0,.068-.1,1.241,1.241,0,0,1,.127-.194c1.4-2.158,9.953-15.419,19.952-33.161.164-.3.34-.585.5-.882,2.977-5.188,5.933-10.482,8.713-15.665l.074-.131,0,0c4.561-8.512,8.633-16.711,11.485-23.618C692.267,292.267,694.252,298.932,698.884,299.542Z" transform="translate(0)" opacity="0.33" fill="url(#linear-gradient-66)" style="mix-blend-mode: screen;isolation: isolate"/>
    <g id="Сгруппировать_2184" data-name="Сгруппировать 2184" transform="translate(531.934 199.462)" style="mix-blend-mode: soft-light;isolation: isolate">
      <path id="Контур_2941" data-name="Контур 2941" d="M528.457,179.694a5.955,5.955,0,0,1,.91.929,8.063,8.063,0,0,1,.615,1.38,6.864,6.864,0,0,1,.453,3.5c-.127.855-.4,1.811-1.309,2.1a2.822,2.822,0,0,1-2.01-.342,9.854,9.854,0,0,1-3.291-2.08,6.434,6.434,0,0,1-1.516-1.869,12.93,12.93,0,0,1-.558-1.742,4.187,4.187,0,0,1,.485-3.027,2.58,2.58,0,0,1,.856-.684c.342-.213.489-.513.792-.76a1.7,1.7,0,0,1,2.15-.276,5.009,5.009,0,0,1,1.189,1.371A15.716,15.716,0,0,0,528.457,179.694Z" transform="translate(-450.806 -99.031)" fill="#95bbf9"/>
      <path id="Контур_2942" data-name="Контур 2942" d="M521.748,181.9c-.118-.547-.092-1.076-.553-1.4a6.616,6.616,0,0,0-1.06-.629c-.358-.164-1.016-.277-1.29.1a3.009,3.009,0,0,0-.4,1.1,4.447,4.447,0,0,0,.6,2.158,1.5,1.5,0,0,0,1.214,1.056,1.31,1.31,0,0,0,1.285-.324,3.756,3.756,0,0,0,.406-1.339,5.063,5.063,0,0,1,.189-.524c.158-.5-.152-.879-.418-1.28Z" transform="translate(-452.781 -97.082)" fill="#95bbf9"/>
      <path id="Контур_2943" data-name="Контур 2943" d="M526.534,174.356a7.458,7.458,0,0,1,.813.993,13.665,13.665,0,0,1,.658,1.4,6.776,6.776,0,0,1,.713,4.366c-.413,1.472-2.109,1.309-3.216.779a4.773,4.773,0,0,1-.721-.568,2.951,2.951,0,0,1-.751-.64c-.337-.471-.65-.947-1-1.4a3.917,3.917,0,0,1-.7-1.653c-.126-.59-.434-.776-.86-1.169-.543-.5-1.059-1.047-1.595-1.561-.279-.268-.552-.527-.855-.766-.269-.213-.458-.477-.719-.7a4.7,4.7,0,0,0-1.287-.6,12.207,12.207,0,0,0-1.569-.513,14.517,14.517,0,0,1-3.025-.869c-1.2-.614-2.663-2.179-1.871-3.612a1.411,1.411,0,0,1,1.459-.564,7.277,7.277,0,0,1,2.663.879,27.868,27.868,0,0,0,3.279,1.711c1.3.519,2.7.776,4.011,1.282a9.87,9.87,0,0,1,2.806,1.348A18.961,18.961,0,0,1,526.534,174.356Z" transform="translate(-457.751 -104.72)" fill="#95bbf9"/>
      <path id="Контур_2944" data-name="Контур 2944" d="M517.784,175.263c-.363-.656-.751-1.551-1.593-1.7a1.8,1.8,0,0,0-1.371.4c-.155.243.031.434.174.643a6.343,6.343,0,0,1,.524.976,2.715,2.715,0,0,0,2.595,1.535c.416-.011.787-.047.685-.524a3.172,3.172,0,0,0-.653-1.035c-.126-.189-.148-.522-.389-.61Z" transform="translate(-455.028 -100.864)" fill="#95bbf9"/>
      <path id="Контур_2945" data-name="Контур 2945" d="M531.96,193.736a11.5,11.5,0,0,1,.708,1.324,9.45,9.45,0,0,1,.506,1.759c.163.877.242,1.687-.585,2.24a3.433,3.433,0,0,1-2.246.91,7.953,7.953,0,0,1-2.643-.6c-1.59-.69-2.738-2.229-4.536-2.4a9.21,9.21,0,0,1-3.327-1.085,17.35,17.35,0,0,1-4.438-3.425,6.166,6.166,0,0,1-1.909-4.114,1.7,1.7,0,0,1,.581-1.343,3.181,3.181,0,0,1,1.058-.427,4.127,4.127,0,0,1,1.313.04,4.06,4.06,0,0,1,1.434.256c.639.24,1.292.39,1.929.622a32.1,32.1,0,0,0,3.474.81,14.486,14.486,0,0,1,3.543,1.509,14.689,14.689,0,0,0,1.426.6,8,8,0,0,1,1.482.9,5.507,5.507,0,0,1,1.264,1.143C531.36,192.958,531.56,193.561,531.96,193.736Z" transform="translate(-455.808 -92.914)" fill="#95bbf9"/>
      <path id="Контур_2946" data-name="Контур 2946" d="M491.833,182.064c-1.676-1.756-3.788-3.509-6.3-3.67a6.326,6.326,0,0,0-3.3.713,10.639,10.639,0,0,1-2.575,1.143c-.466.106-1.293.231-1.574.684-.237.384.068,1.092.2,1.459a7.233,7.233,0,0,0,2.788,3.461,9.489,9.489,0,0,0,2.477,1.442,14.8,14.8,0,0,0,3.066.747,14.369,14.369,0,0,0,3.393.174,2.415,2.415,0,0,0,1.6-.84,11.8,11.8,0,0,0,.764-1.279,3.483,3.483,0,0,0,.564-1.151,2.587,2.587,0,0,0-.068-1.4C492.575,182.842,491.8,182.343,491.833,182.064Z" transform="translate(-477.553 -97.903)" fill="#95bbf9"/>
      <path id="Контур_2947" data-name="Контур 2947" d="M481.975,177.549c.19.161,1.195.871,1.119,1.366-.056.366-.789.308-1.055.352a15.669,15.669,0,0,1-1.621.377,2.909,2.909,0,0,1-1.693-.373c-.8-.484-1.411-1.318-.668-2.187a3.034,3.034,0,0,1,1.709-.843,5.416,5.416,0,0,1,2.787.624Z" transform="translate(-477.721 -99.231)" fill="#95bbf9"/>
      <path id="Контур_2948" data-name="Контур 2948" d="M497.457,132.734a8.8,8.8,0,0,1,4.356,1.008c1.382.652,3.674,1.464,4.078,3.122.332,1.356-1.163,1.964-2.227,2.176a26.03,26.03,0,0,1-5.614.2c-1.369-.023-2.742-.044-4.111-.087a21.188,21.188,0,0,0-4.978.285,13.312,13.312,0,0,0-3.479,1.522,6.513,6.513,0,0,1-2.538.64,2.3,2.3,0,0,1-1.319-.061c-.632-.321-.7-1.176-.627-1.8a3.545,3.545,0,0,1,1.5-2.148,17.809,17.809,0,0,1,5.417-3.135,49.53,49.53,0,0,1,6.841-2.2,6.312,6.312,0,0,1,2.346-.245,1.758,1.758,0,0,1,.54.177C497.823,132.3,497.92,132.511,497.457,132.734Z" transform="translate(-475.729 -126.339)" fill="#95bbf9"/>
      <path id="Контур_2949" data-name="Контур 2949" d="M587.314,172.087a84.9,84.9,0,0,1,6.39,8.279c1.875,2.577,3.348,5.312,4.986,8.023.626,1.039,1.235,2.046,1.774,3.127.135.271.569.885.3,1.237-.184.234-.848.147-1.145.1-1.8-.289-3.317.374-5.061.821a6.3,6.3,0,0,1-3.146.274,8.326,8.326,0,0,1-4.4-2.445c-1.84-1.811-2-4.524-1.621-6.973a8.92,8.92,0,0,1,.4-1.758c.213-.587.2-1.1.355-1.689a24.7,24.7,0,0,0,1.055-3.174,5.559,5.559,0,0,0-1.29-4.553c-.347-.4-.837-.513-1.206-.84a7.442,7.442,0,0,1-.945-1.471,11.547,11.547,0,0,1-.9-2.5,25.17,25.17,0,0,0-1.056-2.324c-.182-.381-.337-.792-.535-1.137-.1-.182-.392-.7-.568-.776-.058.226,1.6,1.935,1.824,2.211a23,23,0,0,1,2.006,2.616c.49.84,1.1,1.559,1.664,2.356C586.65,172.132,587.339,172.727,587.314,172.087Z" transform="translate(-414.632 -106.528)" fill="#95bbf9"/>
      <path id="Контур_2950" data-name="Контур 2950" d="M583.66,173.276c-.342-1.914-.7-3.84-2.238-5.183-.811-.706-1.5-1.119-2.469-.6-1.161.622-1.021,1.221-.976,2.438.023.619.064,1.226.027,1.845-.04.658-.243,1.319-.276,1.958a8.3,8.3,0,0,0,.277,1.637,1.805,1.805,0,0,0,.863,1.259,3.259,3.259,0,0,0,3.267.779,5.063,5.063,0,0,0,2.25-2.079c.9-1.614-.661-3.68-1.358-5.054Z" transform="translate(-416.451 -104.717)" fill="#95bbf9"/>
      <path id="Контур_2951" data-name="Контур 2951" d="M553.922,129.873c-1.529.922-2.882,2.034-4.345,3.058-1.008.706-1.926,1.44-2.882,2.213A13.153,13.153,0,0,0,544.271,138a15.98,15.98,0,0,0-2.155,3.037,9.676,9.676,0,0,1-1.542,2.817,7.436,7.436,0,0,1-4.87,2.563c-1.6.132-2.982-.587-4.423-1.172-1.35-.548-2.748-.785-4.1-1.335a35.462,35.462,0,0,1-5.852-3.012c-1.924-1.234-2.108-2.9-2.19-5.02a6.778,6.778,0,0,1,2.119-4.495,8.864,8.864,0,0,1,4.727-2.848c1.911-.277,3.6.634,5.538.856a50.354,50.354,0,0,1,8.45,1.251c2.867.832,6.02,1.137,8.789-.081a7.224,7.224,0,0,1,2.738-.742A17.385,17.385,0,0,0,553.922,129.873Z" transform="translate(-452.346 -128.478)" fill="#95bbf9"/>
      <path id="Контур_2952" data-name="Контур 2952" d="M527.2,141.071c-.969-.8-2.771-2.414-4.119-1.037a1.308,1.308,0,0,0,.061,2.011,2.63,2.63,0,0,0,2.018.287c.5-.056,2.121-.334,2.4-.727a5.462,5.462,0,0,1-.364-.534Z" transform="translate(-450.203 -121.727)" fill="#95bbf9"/>
      <path id="Контур_2953" data-name="Контур 2953" d="M518.626,138.805a4.656,4.656,0,0,1-2.055,1.145c-.4-.324-1.392-.8-1.493-1.321-.111-.569.543-1.377.9-1.685a4.814,4.814,0,0,1,1.158-.858c1.05-.269,1.429,1.982,1.6,2.454Z" transform="translate(-454.842 -123.83)" fill="#95bbf9"/>
      <path id="Контур_2954" data-name="Контур 2954" d="M528.386,149.823c-.7-.535-2.164-2.053-3.356-1.585a.931.931,0,0,0-.289,1.511c.234.281.481.232.769.434.25.174.211.427.526.555.427.174,1.571-.034,1.613-.6Z" transform="translate(-449.075 -116.426)" fill="#95bbf9"/>
      <path id="Контур_2955" data-name="Контур 2955" d="M518.614,163.5a4.586,4.586,0,0,1-1.968,1.121c.234-.868-1.6-1.258-.884-2.421s1.932.184,2.43.827Z" transform="translate(-454.516 -108.098)" fill="#95bbf9"/>
      <path id="Контур_2956" data-name="Контур 2956" d="M523.925,204.425c-1.751-.7-3.272-1.49-4.736.168-.829.939-1.339,2.2-.466,3.261,1.055,1.282,2.724.874,3.895.024a4.538,4.538,0,0,0,1.374-1.295c.461-.789.06-1.13-.54-1.735Z" transform="translate(-452.88 -82.446)" fill="#95bbf9"/>
      <path id="Контур_2957" data-name="Контур 2957" d="M577.833,160.964a6.152,6.152,0,0,0-2.382-1.493,4.209,4.209,0,0,1-.992-.171,8.46,8.46,0,0,0-1.38-.253,3,3,0,0,1-1.361-.9,9.44,9.44,0,0,1-2.424-3.325,7.751,7.751,0,0,1-.394-1.343c-.039-.243-.34-.651.115-.876s1.13.624,1.4.889c1.1,1.079,2.267,2.066,3.385,3.117,1.24,1.166,2.184,2.758,3.651,3.656C577.438,160.337,577.425,160.413,577.833,160.964Z" transform="translate(-421.94 -113.722)" fill="#95bbf9"/>
      <path id="Контур_2958" data-name="Контур 2958" d="M545.1,206.078c.819,2.071,1.645,4.495.3,6.541a7.485,7.485,0,0,1-6.786,3.2,31.11,31.11,0,0,1-5.54-.866c-1.322-.458-1.877-2.337-1.627-3.582.743-3.722,4.67-4.877,7.309-6.943,1.076-.843,2.472-1.966,3.867-1.877C544.761,202.689,546.057,204.871,545.1,206.078Z" transform="translate(-444.843 -83.096)" fill="#95bbf9"/>
      <path id="Контур_2959" data-name="Контур 2959" d="M530.309,215.737c-1.072-.887-1.972-1.922-3.345-1.045a1.71,1.71,0,0,0-.593,2.479,4.941,4.941,0,0,0,2.342,1.584,15.215,15.215,0,0,1,2.622,1.668c.932.655,4.556,2.827,4.836.414.223-1.9-1.751-3.354-3.046-4.3a8.946,8.946,0,0,0-3.1-1.539c-.476-.1-1.027,0-1.455-.263Z" transform="translate(-448.105 -75.861)" fill="#95bbf9"/>
    </g>
    <path id="Контур_2960" data-name="Контур 2960" d="M627.5,221.53s-6.5-14.714-23.963-32-30.317-32.02-38.9-45.592-19.318-14.319-19.318-14.319,8.852-1.7,17.591,10.819,20.029,25.954,36.566,41.976S622.552,210.675,627.5,221.53Z" transform="translate(95.632 71.637)" fill="#95bbf9"/>
    <path id="Контур_2961" data-name="Контур 2961" d="M607.572,207.575s3.419-40.6-12.708-88.218c-13.8-40.757-56.032-89.386-56.032-89.386S615.869,94.494,607.572,207.575Z" transform="translate(91.653 10.632)" fill="#95bbf9"/>
    <path id="Контур_2962" data-name="Контур 2962" d="M528.729,168.125a24.846,24.846,0,0,0-.458-8.258s8.034,8.12,11.787,12.79c0,0-8.852-11.834-12.459-15.47,0,0-.327-8.783-10.677-18.586s-27.585-9.133-37.7-.514c0,0,16.106-12.79,34.634-.54C530.405,148.486,528.729,168.125,528.729,168.125Z" transform="translate(55.132 72.796)" fill="#95bbf9"/>
    <path id="Контур_2963" data-name="Контур 2963" d="M561.889,130.132s-11.637,1.506-20.926.722-11.924-2.014-11.924-2.014a82.92,82.92,0,0,0-18.347,9.879A70.773,70.773,0,0,1,529.4,127.94,135.58,135.58,0,0,0,561.889,130.132Z" transform="translate(74.412 70.655)" fill="#95bbf9"/>
    <path id="Контур_2964" data-name="Контур 2964" d="M460.848,222.476s-18.709-7.143-29.255,8.6C431.592,231.078,439.62,214.473,460.848,222.476Z" transform="translate(25.95 127.239)" fill="#95bbf9" fill-rule="evenodd"/>
    <path id="Контур_2965" data-name="Контур 2965" d="M479.869,173.461s-30.373,2.962-34.748,12.106C445.121,185.567,446.16,176.077,479.869,173.461Z" transform="translate(34.239 98.544)" fill="#95bbf9" fill-rule="evenodd"/>
    <path id="Контур_2966" data-name="Контур 2966" d="M477,218.193l-5.357.824,11.445,4.205,4.576-.565Z" transform="translate(50.489 125.951)" fill="#e0006d" fill-rule="evenodd" opacity="0.2" style="mix-blend-mode: multiply;isolation: isolate"/>
    <path id="Контур_2967" data-name="Контур 2967" d="M464.688,212.627l-4.314,1.716L456.94,212.8l5.462-1.084Z" transform="translate(41.48 121.98)" fill="#e0006d" fill-rule="evenodd" opacity="0.2" style="mix-blend-mode: multiply;isolation: isolate"/>
    <path id="Контур_3521" data-name="Контур 3521" d="M.53,5.337c-2.258,5.7,3.061,12.427,9.146,11.208a9.106,9.106,0,0,0,6.615-6,7.792,7.792,0,0,0-2.166-8.093A8.3,8.3,0,0,0,5.16.62c-.815.349-.234,1.69.6,1.427C9.993.718,15.521,4.321,14.636,9.064A7.181,7.181,0,0,1,10,14.371a5.872,5.872,0,0,1-6.194-1.616,6.94,6.94,0,0,1-1.749-7C2.4,4.781.9,4.407.53,5.337" transform="translate(484.054 320.762) rotate(137)" fill="#a6e5f2"/>
    <path id="Контур_3524" data-name="Контур 3524" d="M.282,2.843c-1.2,3.038,1.631,6.62,4.872,5.97A4.851,4.851,0,0,0,8.678,5.619,4.151,4.151,0,0,0,7.524,1.308,4.422,4.422,0,0,0,2.749.33c-.434.186-.125.9.321.76C5.323.383,8.268,2.3,7.8,4.828A3.825,3.825,0,0,1,5.328,7.655a3.128,3.128,0,0,1-3.3-.861A3.7,3.7,0,0,1,1.1,3.067c.181-.521-.618-.72-.814-.224" transform="translate(457.523 308.245) rotate(-88)" fill="#a6e5f2"/>
    <path id="Контур_3522" data-name="Контур 3522" d="M.066,3.982A4.862,4.862,0,0,0,2.52,8.946,4.463,4.463,0,0,0,7.857,8.4,5.359,5.359,0,0,0,9.4,3.507,4.47,4.47,0,0,0,5.8.084,4.757,4.757,0,0,0,.68,2.313a.774.774,0,0,0,.2.988.757.757,0,0,0,1.005-.06,4.364,4.364,0,0,1,.7-.708c-.107.087.03-.021.059-.041.057-.038.114-.077.172-.112s.143-.084.216-.123c.029-.016.328-.146.165-.085a5.263,5.263,0,0,1,.887-.235c.029-.005.3-.038.083-.016.084-.008.167-.016.251-.021a4.3,4.3,0,0,1,.505,0c.084.005.168.015.251.024-.233-.024.043.007.077.013a4.2,4.2,0,0,1,.488.112,3.764,3.764,0,0,1,.392.136c-.205-.085.045.028.071.041.1.05.193.1.287.164.07.044.137.091.2.139-.032-.024-.131-.118,0,0s.238.23.355.351c.181.188-.086-.148.058.071.046.071.094.139.137.212.028.048.056.1.082.146s.05.1.074.149c-.041-.1-.041-.1,0,0a4.359,4.359,0,0,1,.142.474c.018.081.033.162.047.243-.033-.194-.006-.052,0-.008.009.167.02.331.015.5,0,.084-.011.167-.015.25q-.019.169,0-.005c-.008.056-.017.111-.028.166a4.374,4.374,0,0,1-.262.887c.083-.2-.031.056-.042.079q-.056.113-.119.222a4.934,4.934,0,0,1-.273.421c.122-.169-.041.048-.058.068-.054.063-.111.124-.168.184-.1.1-.2.19-.3.28.159-.135-.049.034-.072.05q-.1.07-.209.132c-.072.042-.146.077-.219.117-.1.045-.1.047,0,.005-.052.021-.1.04-.157.058-.141.048-.285.08-.43.114-.274.065.154.006-.125.017-.095,0-.188.01-.283.01a2.4,2.4,0,0,1-.951-.172,3.414,3.414,0,0,1-2.3-3.364C1.651,3.331.214,3.124.066,3.982" transform="translate(484.22 337.665) rotate(137)" fill="#a6e5f2"/>
    <path id="Контур_3525" data-name="Контур 3525" d="M.035,2.121A2.59,2.59,0,0,0,1.343,4.765a2.377,2.377,0,0,0,2.843-.29,2.855,2.855,0,0,0,.822-2.608A2.381,2.381,0,0,0,3.089.045,2.534,2.534,0,0,0,.362,1.232a.412.412,0,0,0,.105.526A.4.4,0,0,0,1,1.727a2.325,2.325,0,0,1,.371-.377c-.057.046.016-.011.031-.022.03-.02.06-.041.092-.06s.076-.045.115-.065c.016-.008.174-.078.088-.045a2.8,2.8,0,0,1,.472-.125c.015,0,.161-.02.044-.009.045,0,.089-.009.134-.011a2.292,2.292,0,0,1,.269,0c.045,0,.089.008.134.013-.124-.013.023,0,.041.007a2.239,2.239,0,0,1,.26.06,2.005,2.005,0,0,1,.209.073c-.109-.045.024.015.038.022.052.027.1.056.153.087s.073.048.109.074c-.017-.013-.07-.063,0,0s.127.123.189.187c.1.1-.046-.079.031.038.024.038.05.074.073.113s.03.051.043.078.027.053.039.08c-.022-.055-.022-.055,0,0a2.322,2.322,0,0,1,.076.253c.01.043.017.086.025.13-.017-.1,0-.028,0,0,0,.089.011.176.008.265,0,.045-.006.089-.008.133q-.01.09,0,0c0,.03-.009.059-.015.088a2.33,2.33,0,0,1-.139.472c.044-.106-.017.03-.023.042q-.03.06-.063.118a2.628,2.628,0,0,1-.146.224c.065-.09-.022.026-.031.036-.029.034-.059.066-.09.1-.052.053-.106.1-.162.149.084-.072-.026.018-.038.026q-.054.037-.112.071c-.038.022-.078.041-.116.062s-.053.025,0,0c-.028.011-.055.022-.084.031-.075.026-.152.043-.229.061-.146.034.082,0-.067.009-.05,0-.1.006-.151.005a1.281,1.281,0,0,1-.506-.092A1.819,1.819,0,0,1,.841,2.231c.038-.456-.728-.566-.807-.109" transform="translate(451.094 301.941) rotate(-88)" fill="#a6e5f2"/>
    <path id="Контур_3523" data-name="Контур 3523" d="M0,4.87A5.091,5.091,0,0,0,2.815,9.2a4.627,4.627,0,0,0,5.064-.505A5.3,5.3,0,0,0,9.736,4.2,4.625,4.625,0,0,0,6.755.352a4.78,4.78,0,0,0-5.149.979.746.746,0,0,0-.058.975.734.734,0,0,0,.958.191,3.228,3.228,0,0,1,1.576-.7c.168-.027-.2.016.089-.009l.182-.014c.153-.01.305-.015.458-.011.092,0,.184.008.276.016.021,0,.175.02.038,0a4.452,4.452,0,0,1,.538.12c.148.04.294.085.439.138.019.007.161.065.037.012.07.03.139.064.206.1a4.027,4.027,0,0,1,.356.2c.076.049.152.1.225.155-.117-.089.084.076.1.087a2.536,2.536,0,0,1,.81,1.3,3.471,3.471,0,0,1-.789,3.034,2.7,2.7,0,0,1-2.97.825A3.358,3.358,0,0,1,1.68,4.87.84.84,0,0,0,0,4.87" transform="translate(459.478 320.671) rotate(137)" fill="#a6e5f2"/>
    <path id="Контур_3526" data-name="Контур 3526" d="M0,2.594A2.712,2.712,0,0,0,1.5,4.9,2.465,2.465,0,0,0,4.2,4.63a2.822,2.822,0,0,0,.989-2.391A2.463,2.463,0,0,0,3.6.188,2.546,2.546,0,0,0,.856.709a.4.4,0,0,0-.031.519.391.391,0,0,0,.51.1A1.72,1.72,0,0,1,2.174.957c.09-.014-.106.008.047,0l.1-.008C2.4.939,2.481.937,2.563.939c.049,0,.1,0,.147.009.011,0,.093.011.02,0a2.372,2.372,0,0,1,.286.064c.079.021.157.045.234.073.01,0,.086.034.02.006.037.016.074.034.11.053a2.145,2.145,0,0,1,.19.108c.041.026.081.053.12.082-.062-.047.045.04.051.046a1.351,1.351,0,0,1,.432.695,1.849,1.849,0,0,1-.42,1.616,1.437,1.437,0,0,1-1.582.44A1.789,1.789,0,0,1,.895,2.594a.448.448,0,0,0-.895,0" transform="translate(466.814 299.023) rotate(-88)" fill="#a6e5f2"/>
  </g>
</svg>
