<svg id="Copyright" xmlns="http://www.w3.org/2000/svg" width="15.939" height="15.939" viewBox="0 0 15.939 15.939">
  <path id="Icon_material-copyright" data-name="Icon material-copyright" d="M9.44,10.061a2.038,2.038,0,0,1,.239-.693,1.394,1.394,0,0,1,.47-.494,1.414,1.414,0,0,1,.725-.183,1.445,1.445,0,0,1,.5.1,1.285,1.285,0,0,1,.414.287,1.535,1.535,0,0,1,.271.422,1.4,1.4,0,0,1,.112.51H13.6a2.853,2.853,0,0,0-.223-1.028,2.392,2.392,0,0,0-.558-.8,2.6,2.6,0,0,0-.861-.526,3.079,3.079,0,0,0-1.108-.183A3.115,3.115,0,0,0,9.5,7.742a2.741,2.741,0,0,0-.956.733,3,3,0,0,0-.566,1.084,4.667,4.667,0,0,0-.191,1.307v.215a4.666,4.666,0,0,0,.183,1.307,2.9,2.9,0,0,0,.566,1.076,2.721,2.721,0,0,0,.956.725,3.234,3.234,0,0,0,1.355.271,3.04,3.04,0,0,0,1.052-.183,2.718,2.718,0,0,0,.861-.5,2.433,2.433,0,0,0,.59-.749,2.145,2.145,0,0,0,.239-.917H12.157a1.135,1.135,0,0,1-.12.462,1.173,1.173,0,0,1-.287.367,1.255,1.255,0,0,1-.414.239,1.582,1.582,0,0,1-.478.08,1.354,1.354,0,0,1-.709-.183,1.394,1.394,0,0,1-.47-.494,2.082,2.082,0,0,1-.239-.7,5.372,5.372,0,0,1-.064-.8v-.215a5.31,5.31,0,0,1,.064-.8ZM10.97,3a7.97,7.97,0,1,0,7.97,7.97A7.973,7.973,0,0,0,10.97,3Zm0,14.346a6.376,6.376,0,1,1,6.376-6.376A6.384,6.384,0,0,1,10.97,17.346Z" transform="translate(-3 -3)" fill="#2a2c36"/>
</svg>
