<svg xmlns="http://www.w3.org/2000/svg" xmlns:xlink="http://www.w3.org/1999/xlink" width="1159.392" height="110.651" viewBox="0 0 1159.392 110.651">
  <defs>
    <clipPath id="clip-path">
      <rect id="Прямоугольник_83" data-name="Прямоугольник 83" width="145.544" height="77.45" fill="none"/>
    </clipPath>
    <clipPath id="clip-path-2">
      <rect id="Прямоугольник_84" data-name="Прямоугольник 84" width="111.311" height="66.123" fill="none"/>
    </clipPath>
  </defs>
  <g id="fishes" transform="translate(-100 -1467.613)">
    <g id="Сгруппировать_193" data-name="Сгруппировать 193" transform="translate(100 1495.011)" opacity="0.5" style="mix-blend-mode: multiply;isolation: isolate">
      <g id="Сгруппировать_117" data-name="Сгруппировать 117" transform="translate(0)">
        <g id="Сгруппировать_116" data-name="Сгруппировать 116" clip-path="url(#clip-path)">
          <path id="Контур_729" data-name="Контур 729" d="M1034.953,44.946a59.315,59.315,0,0,0-2.489,31.741,1.359,1.359,0,0,1-1.964,1.526c-3.128-1.654-25.9-15.64-21.14-19,6.619-6.886,14.984-11.963,23.635-15.79.947-.42,2.4.289,1.958,1.521" transform="translate(-889.492 -0.933)" fill="#43c8e3"/>
          <path id="Контур_730" data-name="Контур 730" d="M1103.571,61.581c-9.861,8.924-25.923,11.176-38.684,10.206-12.986-.987-25.188-6.606-33.663-16.742a1.356,1.356,0,0,1-.138-.247,1.091,1.091,0,0,1-.1-1.329c9.363-12.245,30.2-15.782,43.832-10.2,9.5,3.894,19.735,9.248,27.543,16.041,1.079.939,1.723,1.8,1.206,2.267" transform="translate(-980.681 -0.877)" fill="#43c8e3"/>
          <path id="Контур_731" data-name="Контур 731" d="M1102.739,57.409a39.236,39.236,0,0,0-4.076-15.077c-7.123,1.952-13.626,5.686-17.822,11.173a1.091,1.091,0,0,0,.1,1.329,1.364,1.364,0,0,0,.139.247,46.39,46.39,0,0,0,20.95,14.169,37.22,37.22,0,0,0,.714-11.84" transform="translate(-1030.531 -0.912)" fill="#43c8e3"/>
          <path id="Контур_732" data-name="Контур 732" d="M1103.3,3.053a42.593,42.593,0,0,0-1.787,22.789.975.975,0,0,1-1.41,1.1c-2.245-1.187-18.594-11.229-15.179-13.641A53.158,53.158,0,0,1,1101.9,1.96c.68-.3,1.726.207,1.406,1.093" transform="translate(-1034.856 -0.04)" fill="#43c8e3"/>
          <path id="Контур_733" data-name="Контур 733" d="M1152.568,15c-7.08,6.408-18.613,8.024-27.774,7.329A34.535,34.535,0,0,1,1100.625,10.3a.914.914,0,0,1-.1-.177.782.782,0,0,1-.069-.954c6.722-8.791,21.685-11.331,31.469-7.321,6.823,2.8,14.17,6.64,19.777,11.517.774.674,1.237,1.291.865,1.627" transform="translate(-1100.328 0)" fill="#43c8e3"/>
          <path id="Контур_734" data-name="Контур 734" d="M1151.97,12a28.185,28.185,0,0,0-2.927-10.826c-5.115,1.4-9.783,4.082-12.8,8.022a.782.782,0,0,0,.068.954,1.014,1.014,0,0,0,.1.177A33.314,33.314,0,0,0,1151.457,20.5a26.7,26.7,0,0,0,.513-8.5" transform="translate(-1136.118 -0.025)" fill="#43c8e3"/>
        </g>
      </g>
    </g>
    <g id="Сгруппировать_209" data-name="Сгруппировать 209" transform="translate(1148.081 1467.613)" opacity="0.5" style="mix-blend-mode: multiply;isolation: isolate">
      <g id="Сгруппировать_120" data-name="Сгруппировать 120">
        <g id="Сгруппировать_119" data-name="Сгруппировать 119" clip-path="url(#clip-path-2)">
          <path id="Контур_735" data-name="Контур 735" d="M126.872,853.288a29.2,29.2,0,0,0-1.252,15.787.681.681,0,0,1-.987.759c-1.573-.822-13.024-7.778-10.632-9.449a37.27,37.27,0,0,1,11.886-7.854c.476-.208,1.209.144.984.757" transform="translate(-60.136 -851.203)" fill="#43c8e3"/>
          <path id="Контур_736" data-name="Контур 736" d="M179.114,859.621c-4.959,4.439-13.036,5.559-19.453,5.076a24.283,24.283,0,0,1-16.929-8.327.64.64,0,0,1-.069-.123.537.537,0,0,1-.048-.661c4.708-6.09,15.188-7.849,22.042-5.071a51.2,51.2,0,0,1,13.851,7.978c.543.467.866.894.606,1.128" transform="translate(-123.729 -849.234)" fill="#43c8e3"/>
          <path id="Контур_737" data-name="Контур 737" d="M218.706,858.765a19.344,19.344,0,0,0-2.05-7.5,16.745,16.745,0,0,0-8.962,5.557.537.537,0,0,0,.048.661.67.67,0,0,0,.07.123,23.341,23.341,0,0,0,10.535,7.047,18.3,18.3,0,0,0,.359-5.889" transform="translate(-188.808 -850.47)" fill="#43c8e3"/>
          <path id="Контур_738" data-name="Контур 738" d="M67.758,916.037a21.344,21.344,0,0,0-.915,11.542.5.5,0,0,1-.722.555c-1.15-.6-9.521-5.687-7.772-6.908a27.247,27.247,0,0,1,8.69-5.742c.348-.152.884.1.72.553" transform="translate(20.758 -889.503)" fill="#43c8e3"/>
          <path id="Контур_739" data-name="Контур 739" d="M105.951,920.666c-3.625,3.245-9.531,4.064-14.222,3.711a17.755,17.755,0,0,1-12.376-6.088.463.463,0,0,1-.051-.09.393.393,0,0,1-.035-.483c3.442-4.452,11.1-5.738,16.115-3.708a37.414,37.414,0,0,1,10.126,5.833c.4.341.633.654.443.824" transform="translate(-25.733 -888.063)" fill="#43c8e3"/>
          <path id="Контур_740" data-name="Контур 740" d="M134.9,920.04a14.147,14.147,0,0,0-1.5-5.482,12.242,12.242,0,0,0-6.552,4.063.392.392,0,0,0,.035.483.459.459,0,0,0,.051.09,17.066,17.066,0,0,0,7.7,5.152,13.385,13.385,0,0,0,.262-4.305" transform="translate(-73.311 -888.967)" fill="#43c8e3"/>
          <path id="Контур_741" data-name="Контур 741" d="M204.235,902.281a21.342,21.342,0,0,0-.915,11.541.5.5,0,0,1-.722.555c-1.15-.6-9.521-5.687-7.772-6.908a27.24,27.24,0,0,1,8.69-5.741c.348-.153.884.1.72.553" transform="translate(-169.185 -881.136)" fill="#43c8e3"/>
          <path id="Контур_742" data-name="Контур 742" d="M242.428,906.91c-3.625,3.245-9.531,4.064-14.222,3.711a17.753,17.753,0,0,1-12.376-6.088.475.475,0,0,1-.051-.089.393.393,0,0,1-.035-.483c3.442-4.452,11.1-5.739,16.114-3.708a37.413,37.413,0,0,1,10.126,5.833c.4.342.633.654.443.824" transform="translate(-215.676 -879.696)" fill="#43c8e3"/>
          <path id="Контур_743" data-name="Контур 743" d="M271.372,906.284a14.148,14.148,0,0,0-1.5-5.482,12.241,12.241,0,0,0-6.552,4.062.393.393,0,0,0,.035.483.477.477,0,0,0,.051.09,17.065,17.065,0,0,0,7.7,5.152,13.384,13.384,0,0,0,.263-4.3" transform="translate(-263.253 -880.6)" fill="#43c8e3"/>
          <path id="Контур_744" data-name="Контур 744" d="M98.6,987.423a20.434,20.434,0,0,0-.876,11.048.476.476,0,0,1-.691.531c-1.1-.575-9.114-5.444-7.44-6.612a26.078,26.078,0,0,1,8.318-5.5c.333-.146.846.1.689.53" transform="translate(-22.324 -932.939)" fill="#43c8e3"/>
          <path id="Контур_745" data-name="Контур 745" d="M135.159,991.855c-3.471,3.107-9.124,3.89-13.614,3.552A16.994,16.994,0,0,1,109.7,989.58a.5.5,0,0,1-.049-.086.377.377,0,0,1-.034-.463c3.3-4.262,10.629-5.493,15.426-3.549a35.822,35.822,0,0,1,9.693,5.583c.38.327.606.626.425.789" transform="translate(-66.828 -931.561)" fill="#43c8e3"/>
          <path id="Контур_746" data-name="Контур 746" d="M162.866,991.256a13.541,13.541,0,0,0-1.435-5.248,11.718,11.718,0,0,0-6.272,3.889.376.376,0,0,0,.034.462.428.428,0,0,0,.049.086,16.331,16.331,0,0,0,7.373,4.932,12.8,12.8,0,0,0,.251-4.121" transform="translate(-112.372 -932.426)" fill="#43c8e3"/>
          <path id="Контур_747" data-name="Контур 747" d="M165.2,951.247a14.667,14.667,0,0,0-.629,7.932.342.342,0,0,1-.5.382c-.79-.413-6.544-3.909-5.342-4.748a18.735,18.735,0,0,1,5.972-3.946c.239-.1.608.072.495.38" transform="translate(-116.03 -911.033)" fill="#43c8e3"/>
          <path id="Контур_748" data-name="Контур 748" d="M191.45,954.428c-2.492,2.231-6.551,2.793-9.775,2.551a12.2,12.2,0,0,1-8.506-4.184.358.358,0,0,1-.034-.062.27.27,0,0,1-.024-.332c2.365-3.06,7.631-3.944,11.075-2.548a25.718,25.718,0,0,1,6.96,4.009c.273.235.435.449.3.566" transform="translate(-147.984 -910.043)" fill="#43c8e3"/>
          <path id="Контур_749" data-name="Контур 749" d="M211.343,954a9.724,9.724,0,0,0-1.03-3.768,8.416,8.416,0,0,0-4.5,2.792.27.27,0,0,0,.024.332.336.336,0,0,0,.035.061,11.726,11.726,0,0,0,5.294,3.541,9.2,9.2,0,0,0,.18-2.959" transform="translate(-180.684 -910.664)" fill="#43c8e3"/>
          <path id="Контур_750" data-name="Контур 750" d="M6.631,875.026A14.677,14.677,0,0,0,6,882.958a.342.342,0,0,1-.5.381c-.791-.413-6.544-3.908-5.342-4.748a18.726,18.726,0,0,1,5.972-3.946c.24-.1.608.072.495.38" transform="translate(104.659 -864.672)" fill="#43c8e3"/>
          <path id="Контур_751" data-name="Контур 751" d="M32.881,878.208c-2.492,2.231-6.551,2.793-9.775,2.551a12.2,12.2,0,0,1-8.506-4.184.309.309,0,0,1-.034-.062.27.27,0,0,1-.025-.332c2.366-3.06,7.632-3.944,11.076-2.548a25.732,25.732,0,0,1,6.96,4.008c.273.235.435.449.3.567" transform="translate(72.705 -863.683)" fill="#43c8e3"/>
          <path id="Контур_752" data-name="Контур 752" d="M52.774,877.777a9.726,9.726,0,0,0-1.03-3.768,8.414,8.414,0,0,0-4.5,2.792.27.27,0,0,0,.024.332.305.305,0,0,0,.034.062,11.731,11.731,0,0,0,5.294,3.541,9.188,9.188,0,0,0,.181-2.959" transform="translate(40.006 -864.303)" fill="#43c8e3"/>
        </g>
      </g>
    </g>
    <path id="XMLID_205_" d="M389.079,278.309c5.652-7.418,14.012-12.6,23.433-12.6,1.766-1.06,2-3.65,3.768-4.828,2.826-2,7.065-2,10.362-1.766-2.237,2-6.005,4.475-5.652,8.125,2.826-3.3,18.723,6.241,19.782,8.6.471,1.177-.942,3.062-1.413,4.121.353,0,1.413.236,1.531.236,2.12-4.71,7.3-8.949,12.6-9.656-1.3,2.473-3.65,4.71-4.946,7.3-.942,1.766-1.06,3.65-2.12,5.3.471,3.179,3.533,6.83,5.652,9.3-2.591-.589-4.592-2.12-6.712-3.533-1.3-.942-2.708-2.591-4-3.062-4.946,8.243-13.777,12.482-23.079,13.659a9.7,9.7,0,0,0,3.415,2,11.279,11.279,0,0,0,4.357.706c-4.946,1.766-12.835,2.473-16.367-2.473h0c-6.476-.471-13.07-2.473-16.367-8.36-.942-1.648-1.178-3.65-2-5.3-.589-1.178-1.649-1.884-2.355-2.944C387.548,281.253,387.784,279.958,389.079,278.309Z" transform="translate(261.256 1274.726)" fill="#0692af"/>
  </g>
</svg>
