<svg xmlns="http://www.w3.org/2000/svg" xmlns:xlink="http://www.w3.org/1999/xlink" width="1389.342" height="173.203" viewBox="0 0 1389.342 173.203">
  <defs>
    <clipPath id="clip-path">
      <rect id="Прямоугольник_113" data-name="Прямоугольник 113" width="378.044" height="118.743" fill="none"/>
    </clipPath>
  </defs>
  <g id="fishermen-ilend" transform="translate(-50.657 -832.682)">
    <g id="Сгруппировать_2377" data-name="Сгруппировать 2377" transform="translate(5789.52 5209.621)">
      <path id="Контур_973" data-name="Контур 973" d="M1547.89,563.095,960.993,592,158.548,607.5,1547.89,639.93Z" transform="translate(-5897.41 -4843.666)" fill="#baaf2a"/>
      <path id="Контур_974" data-name="Контур 974" d="M1380.73,584.841l-844.3,25.825,844.3,19.727Z" transform="translate(-5730.25 -4834.129)" fill="#a49c3d"/>
    </g>
    <path id="Контур_1042" data-name="Контур 1042" d="M600.024,571.563c.577,2.282,1.559,13.786,1.559,13.786-.017-1.355,1.316-8.417,1.316-8.417.321,3.015,2.753,7.832,2.753,7.832-.221-3.658,3.868-15.854,3.868-15.854-.691,2.976-.016,11.858-.016,11.858.512-1.585,7.5-10.173,7.5-10.173-2,2.732-4.8,13.449-4.8,13.449,1.731-3.44,7.692-8.978,7.692-8.978-1.922,2.368-4.67,9.719-4.67,9.719,1.741-2.7,6.484-6.263,6.484-6.263-3.681,3.345-4.613,9.66-4.613,9.66l-20.435,3.253c.025-5.517,3.362-19.869,3.362-19.869" transform="translate(84.942 368.505)" fill="#b6ad4c"/>
    <path id="Контур_1043" data-name="Контур 1043" d="M579.6,590.953a38.934,38.934,0,0,0-4.976-4.277,38.583,38.583,0,0,1,6.478,3.562s-4.179-4.986-5.961-6.108c0,0,5.989,3.45,6.662,4.176a36.473,36.473,0,0,0-2.909-5.871s5.259,5.57,6.032,7.407a13.162,13.162,0,0,0-.383-4.195s2.469,3.343,2.791,4.016c0,0-2.267-5.81-2.5-7.007,0,0,2,2.5,3.865,5.074a13.01,13.01,0,0,0-2.516-3.794,23.394,23.394,0,0,1,4.714,4.8s-2.74-6.686-4.219-8.615c0,0,4.3,4.2,5.839,7.229,0,0-3.3-10.01-4.885-12.281,0,0,5.372,6.994,5.917,8.454,0,0-1.018-8.942-1.886-11.74,0,0,4.278,11.195,4.73,14.865a51.6,51.6,0,0,0,.342-8.351s1.883,6.705,2.089,8.05c0,0,.1-12.761.45-14,0,0,.791,6.124,1.677,11.47a15.678,15.678,0,0,1,2.414,3.569s-1.283-5.656-2.2-7.225a30.844,30.844,0,0,1,3.887,6.274s-1.374-6.852-2.2-8.312a62.965,62.965,0,0,1,3.3,5.82,48.467,48.467,0,0,0-.472-5.818,61.375,61.375,0,0,1,2.3,8.352,28.123,28.123,0,0,0,.21-4.595s1.119,3.829,1.283,4.708c0,0-.9-5.982-.932-6.835,0,0,1.605,5.606,2.568,9.474-8.839,2.326-19.9,3.215-31.725,3.615a13.494,13.494,0,0,0-4.931-4.254,28.059,28.059,0,0,1,5.141,2.356" transform="translate(75.179 369.766)" fill="#b6ad4c"/>
    <g id="Сгруппировать_177" data-name="Сгруппировать 177" transform="translate(1059 832.682)">
      <g id="Сгруппировать_176" data-name="Сгруппировать 176" transform="translate(0 0)" clip-path="url(#clip-path)">
        <path id="Контур_1540" data-name="Контур 1540" d="M207.278,45.13a.809.809,0,0,0,.76-.561l5.282-6.369a.85.85,0,0,0-.492-1.073.8.8,0,0,0-1.028.513l-5.284,6.369a.853.853,0,0,0,.492,1.074.81.81,0,0,0,.269.047" transform="translate(-92.25 9.062)" fill="#5e3024"/>
        <path id="Контур_1541" data-name="Контур 1541" d="M43.8,32.792l.412-1.5,2.744,2.4a87.266,87.266,0,0,1,9.949-3.041c5.832-1.431,9.262,1.5,9.262,1.5s0,1.5-2.949,3.291L46,35.081a50.239,50.239,0,0,1-6.243-2.361Z" transform="translate(262.407 7.393)" fill="#7a9196"/>
        <path id="Контур_1542" data-name="Контур 1542" d="M48.2,34.061A12.357,12.357,0,0,1,42.9,32.95c1.762-.6,4.543-1.482,7.9-2.306a12.316,12.316,0,0,1,5.353-.178c-.791,2.056-4.044,3.595-7.943,3.595" transform="translate(268.521 7.393)" fill="#97adaf"/>
        <path id="Контур_1543" data-name="Контур 1543" d="M44.03,32.232a2.352,2.352,0,0,1,1.463-1.879c.3-.037.6-.065.886-.08-1.127.519-1.835,1.251-1.835,2.066,0,1.125,1.345,2.094,3.29,2.556-2.22-.4-3.8-1.441-3.8-2.663" transform="translate(275.42 7.398)" fill="#7a9196"/>
        <path id="Контур_1544" data-name="Контур 1544" d="M59.765,31.085l2.6,2.273c-.1.409-.618.693-1.589.783a9.429,9.429,0,0,1-1.522,0c-2.01-.737-3.952-1.62-3.952-1.62l4.048.072Z" transform="translate(246.856 7.597)" fill="#97adaf"/>
        <path id="Контур_1545" data-name="Контур 1545" d="M43.945,30.948c-.007-.133.309-.261.706-.285s.725.063.733.2-.309.26-.706.285-.725-.063-.733-.2" transform="translate(277.977 7.493)" fill="#7a9196"/>
        <rect id="Прямоугольник_111" data-name="Прямоугольник 111" width="7.342" height="2.433" transform="translate(327.341 43.99)" fill="#5b413b"/>
        <rect id="Прямоугольник_112" data-name="Прямоугольник 112" width="7.342" height="2.433" transform="translate(295.918 43.99)" fill="#5b413b"/>
        <path id="Контур_1546" data-name="Контур 1546" d="M55.193,19.692c-2.719-1.375-2.633-5.984-1.03-6.73,2.927-1.36,1.018-4.775,1.018-4.775a4.364,4.364,0,0,1,2.251,3.183c.373,2.316-.553,4.388-1.593,5.036-1.284.8-.646,3.285-.646,3.285" transform="translate(254.531 2.001)" fill="#efd9d5"/>
        <path id="Контур_1547" data-name="Контур 1547" d="M48.605,36.142c6.175-1.717,5.866-3.971,2.058-7.3s-1.558-5.856,2.867-8.539c5.927-3.594,3.926-7.668-.706-13.678S53.854.4,54.471.4c-2.779-.752-4.425-.645-4.63,2.038s6.483,12.129.823,15.134S38.006,25.087,44.8,29.059s3.808,7.083,3.808,7.083" transform="translate(268.582 0.001)" fill="#efd9d5"/>
        <path id="Контур_1548" data-name="Контур 1548" d="M63.8,38.093a2.632,2.632,0,1,1,2.629,2.743A2.688,2.688,0,0,1,63.8,38.093" transform="translate(229.595 8.639)" fill="#5b413b"/>
        <path id="Контур_1549" data-name="Контур 1549" d="M33.1,38.093a2.632,2.632,0,1,1,2.629,2.743A2.688,2.688,0,0,1,33.1,38.093" transform="translate(298.508 8.639)" fill="#5b413b"/>
        <path id="Контур_1550" data-name="Контур 1550" d="M64.775,37.844a1.418,1.418,0,1,1,1.417,1.477,1.448,1.448,0,0,1-1.417-1.477" transform="translate(229.832 8.888)" fill="#a5543c"/>
        <path id="Контур_1551" data-name="Контур 1551" d="M34.069,37.844a1.418,1.418,0,1,1,1.416,1.477,1.448,1.448,0,0,1-1.416-1.477" transform="translate(298.747 8.888)" fill="#a5543c"/>
        <path id="Контур_1552" data-name="Контур 1552" d="M69.257,34.247c-.6,7.761-7.423,13.883-15.766,13.883S38.329,42.008,37.725,34.247Z" transform="translate(261.843 8.369)" fill="#5b413b"/>
        <path id="Контур_1553" data-name="Контур 1553" d="M66.9,38.445,61.879,85.295l-2,1.233,5.735-47.672Z" transform="translate(236.636 9.395)" fill="#5b413b"/>
        <path id="Контур_1554" data-name="Контур 1554" d="M41.209,38.445l.617,48.941-1.852,1.288v-49.8Z" transform="translate(286.475 9.395)" fill="#5b413b"/>
        <path id="Контур_1555" data-name="Контур 1555" d="M71.091,70.791s-15.635-9.42-16.261-9.231c-3.023.921-6.585,7.3-6.585,7.3l9.467,8.8Z" transform="translate(246.92 15.043)" fill="#a5543c"/>
        <path id="Контур_1556" data-name="Контур 1556" d="M64.067,73.14l-1.081-3.062a5.933,5.933,0,0,0-6.884-3.93L42.455,69.276l9.057,6.654Z" transform="translate(261.147 16.129)" fill="#6d3526"/>
        <path id="Контур_1557" data-name="Контур 1557" d="M43.786,68.708c-.068-.438.259-.917.883-1.391l5.1-1.17A5.868,5.868,0,0,1,56.094,68.9a26.649,26.649,0,0,1-3.524.845c-4.637.793-8.569.33-8.784-1.035" transform="translate(267.475 16.13)" fill="#82422e"/>
        <path id="Контур_1558" data-name="Контур 1558" d="M62.4,81.689c1.441-3.005,1.029-9.229,1.029-9.229l-4.116-2.791L37.284,72.244Z" transform="translate(268.17 17.025)" fill="#a5543c"/>
        <path id="Контур_1559" data-name="Контур 1559" d="M37.875,79.8c-.124-.429-.236-.871-.325-1.33-.786-4.09.228-7.81,2.28-8.787l4.094,2.775s.412,6.224-1.029,9.229Z" transform="translate(287.67 17.029)" fill="#c15a42"/>
        <path id="Контур_1560" data-name="Контур 1560" d="M123.761,22.609c.437-.976,2.749-3.619,2.8-4.73s-1.868-7.243-6.447-9.167-9.7,5.625-9.7,5.625Z" transform="translate(114.086 2.053)" fill="#18ccf5"/>
        <path id="Контур_1561" data-name="Контур 1561" d="M115.48,14.905a11.584,11.584,0,0,0,6.778-3.373,12.838,12.838,0,0,1,2.292,5.581c-.05,1.111-2.361,3.754-2.8,4.73l-11.335-7.027a13.281,13.281,0,0,0,5.063.09" transform="translate(116.095 2.819)" fill="#1288a3"/>
        <path id="Контур_1562" data-name="Контур 1562" d="M113.259,7.733c1.186-.118,11.131,1.247,23.541,14.106l-11.874-3.512C116.169,15.555,110.584,8,113.259,7.733" transform="translate(101.145 1.889)" fill="#efbb60"/>
        <path id="Контур_1563" data-name="Контур 1563" d="M113.515,9.075a.664.664,0,0,0-.627.424c-.483-1-.4-1.689.37-1.766,1.186-.118,11.132,1.247,23.541,14.106l-1.543-.457C123.7,10.2,114.642,8.963,113.515,9.075" transform="translate(101.146 1.889)" fill="#ffdaa4"/>
        <path id="Контур_1564" data-name="Контур 1564" d="M117.545,14.6l-1.191-1.086s6.728-2.14,13.03,5.23l-10.894-.326c-.477-.434-3.571-.518-3.571-.518.487-1.806,1.3-3.02,2.627-3.3" transform="translate(105.66 3.232)" fill="#603222"/>
        <path id="Контур_1565" data-name="Контур 1565" d="M128.845,28.809c-3.928,3.107-16.009,15.789-17.5,16.969s-4.384,2.775-5.238,3.956.76,7.635,5.878,9.889,15.353-4.507,19.191-6.333,8.163-5.881,6.457-13.179-7.293-12.484-8.786-11.3" transform="translate(108.265 7)" fill="#efcc9a"/>
        <path id="Контур_1566" data-name="Контур 1566" d="M130.57,57.6c-6.2,1.1-9.553-2.634-10.224-6.258s1.532-17.455,3.227-19.65,5.437-3.162,6.513-2.5,3.56,13.479,4.4,18.108c.4,2.208-.7,9.733-3.917,10.3" transform="translate(93.877 7.084)" fill="#ea875c"/>
        <path id="Контур_1567" data-name="Контур 1567" d="M133.11,41.74c0,5.947-2.8,11.31-4.991,12.831a7.993,7.993,0,0,1-1.816-3.764c-.668-3.606,1.513-17.338,3.205-19.619,1.443,2.3,3.6,5.961,3.6,10.552" transform="translate(87.919 7.622)" fill="#ffa77b"/>
        <path id="Контур_1568" data-name="Контур 1568" d="M143.4,53.854c-7.92,10.7-17.568,34.92-17.568,34.92l.81.245s20.648-18.978,22.982-22.872S148.4,55.314,148.4,55.314Z" transform="translate(71.05 13.161)" fill="#ffa77b"/>
        <path id="Контур_1569" data-name="Контур 1569" d="M142.972,59.9,141.6,55.319c.347-.509.693-1,1.035-1.466l5,1.461s3.559,6.939,1.226,10.832-22.982,22.872-22.982,22.872L125.83,89c6.768-9.849,12.943-19.615,17.142-29.1" transform="translate(71.814 13.161)" fill="#ea875c"/>
        <path id="Контур_1570" data-name="Контур 1570" d="M141.658,63.314h0a13.152,13.152,0,0,1-7.7,10.3,60.777,60.777,0,0,1-6.7,2.581c-3.293.859-25.729-1.5-25.729-1.5L92.739,53.8l2.47-2.147a9.922,9.922,0,0,1,6.038.286L116.958,57.3l6.331.516Z" transform="translate(120.985 12.539)" fill="#6d672d"/>
        <path id="Контур_1571" data-name="Контур 1571" d="M119.027,51.7a18.692,18.692,0,0,1,4.116-.608c.362.077.724.152,1.09.245,8.026,2.036,12.5,7.608,11.453,12.1-.895,3.834-6.386,5.836-12.964,5.078l-6.166-14.669Z" transform="translate(97.167 12.486)" fill="#7c7735"/>
        <path id="Контур_1572" data-name="Контур 1572" d="M155.949,85.852c-.279-.057-8.917,1.1-8.917,1.1l-3.091-.421a2.481,2.481,0,0,1,2.646-1.957,11.908,11.908,0,0,0,3.809-.194s4.761-4.352,5.97-4.1-.148,3.671-.148,3.671Z" transform="translate(42.061 19.615)" fill="#f9deb2"/>
        <path id="Контур_1573" data-name="Контур 1573" d="M137.25,54.488C129.7,64.219,120.783,86.15,120.783,86.15l.824.286s20.171-16.207,22.366-19.784-1.646-10.447-1.646-10.447Z" transform="translate(83.094 13.316)" fill="#ffa77b"/>
        <path id="Контур_1574" data-name="Контур 1574" d="M137.887,65.006l-2.5-9.656c.217-.3.433-.585.647-.862l5.077,1.718s3.843,6.869,1.648,10.445c-2.017,3.288-19.192,17.222-21.976,19.468,4.106-4.668,17.556-20.423,17.1-21.113" transform="translate(84.31 13.316)" fill="#ea875c"/>
        <path id="Контур_1575" data-name="Контур 1575" d="M155.251,91.33l18.783-60.464c16.179,12.17,36.349,6.977,38.544,6.36C225.955,47.3,243,45.087,245.128,44.761c11.576,13.045,36.835,11,39.286,10.76,1.827,1.824,21.332,20.744,38.555,14.845l-.25-.8c-17.536,6-37.673-14.574-37.875-14.782l-.137-.142-.19.021c-.269.031-27.177,2.884-38.939-10.638l-.149-.172-.218.041c-.183.032-18.353,3.172-32.316-7.469l-.161-.123-.192.058c-.215.067-21.691,6.508-38.478-6.517l-.447-.347L154.486,91.33Z" transform="translate(-130.871 7.209)" fill="#3a201b"/>
        <path id="Контур_1576" data-name="Контур 1576" d="M307.311,95.095a13.691,13.691,0,0,0,1.176-1.366.989.989,0,0,0-.4-1.163c-20.864-12.826-43.784-23.11-66.722-31.438-65.392-23.739-130.114-31.33-131.1-31.44-.733-.082-.623.775.108.857.983.11,65.131,7.7,130.4,31.888,22.508,8.34,45.187,20.108,65.785,32.661a.679.679,0,0,0,.749,0" transform="translate(-67.098 7.254)" fill="#5e3024"/>
        <path id="Контур_1577" data-name="Контур 1577" d="M147.287,41.006A581.775,581.775,0,0,1,204.721,58.36c7.868,2.856,15.733,5.949,23.514,9.289q-1.465.392-3.023.757c-7-3.194-14.046-6.136-21.08-8.742A573.5,573.5,0,0,0,144.864,41.5q1.189-.254,2.423-.493" transform="translate(-30.454 10.021)" fill="#a35a4b"/>
        <path id="Контур_1578" data-name="Контур 1578" d="M142.775,63.153a5.253,5.253,0,1,1,5.249,5.474,5.365,5.365,0,0,1-5.249-5.474" transform="translate(47.107 14.096)" fill="#a35a4b"/>
        <path id="Контур_1579" data-name="Контур 1579" d="M143.52,62.963a4.326,4.326,0,1,1,4.323,4.507,4.417,4.417,0,0,1-4.323-4.507" transform="translate(47.288 14.285)" fill="#5e3024"/>
        <path id="Контур_1580" data-name="Контур 1580" d="M144.981,62.591a2.507,2.507,0,1,1,2.5,2.612,2.56,2.56,0,0,1-2.5-2.612" transform="translate(47.645 14.658)" fill="#3a201b"/>
        <path id="Контур_1581" data-name="Контур 1581" d="M148.011,58.641a1.751,1.751,0,1,1-1.75-1.824,1.788,1.788,0,0,1,1.75,1.824" transform="translate(50.207 13.885)" fill="#3a201b"/>
        <path id="Контур_1582" data-name="Контур 1582" d="M180.188,63.092s8.968,12.557,4.476,34.443h-5.179c4.765-7,.7-34.443.7-34.443" transform="translate(-31.225 15.418)" fill="#9b9245"/>
        <path id="Контур_1583" data-name="Контур 1583" d="M174.388,66.058s-13.03,11.8-15.119,30.751h8.29c-4.66-6.059,6.829-30.751,6.829-30.751" transform="translate(5.467 16.143)" fill="#9b9245"/>
        <path id="Контур_1584" data-name="Контур 1584" d="M182.614,55.533s12.5,15.986,12.757,43.849h-5.542c3.482-8.907-7.215-43.849-7.215-43.849" transform="translate(-44.566 13.571)" fill="#877d39"/>
        <path id="Контур_1585" data-name="Контур 1585" d="M164.109,94.8c-.185-5.536,2.614-12.686,6.644-20.5-6.723,6.8-11.859,13.626-13.954,20.5Z" transform="translate(12.177 18.156)" fill="#877d39"/>
        <path id="Контур_1586" data-name="Контур 1586" d="M185.207,71.245S199.9,80.1,200.7,95.543h-6.384c3.846-4.935-9.109-24.3-9.109-24.3" transform="translate(-53.121 17.411)" fill="#9b9245"/>
        <path id="Контур_1587" data-name="Контур 1587" d="M174.89,94.958h6.864c-.8-5.586.157-12.51,1.375-21.322a65.1,65.1,0,0,0-8.239,21.322" transform="translate(-22.713 17.995)" fill="#877d39"/>
        <path id="Контур_1588" data-name="Контур 1588" d="M173.679,93.527h6.864c-1.339-3.677-1.058-8.234-.693-14.035-2.99,4.13-5.474,8.559-6.171,14.035" transform="translate(-18.62 19.426)" fill="#9b9245"/>
        <path id="Контур_1589" data-name="Контур 1589" d="M136.862,63.745h0a13.155,13.155,0,0,1-7.7,10.3,60.777,60.777,0,0,1-6.7,2.581c-3.293.859-27.066-5.474-27.066-5.474L87.942,54.228l2.47-2.145a9.945,9.945,0,0,1,6.039.285l15.711,5.367,2.4-2.5Z" transform="translate(131.75 12.645)" fill="#7c7735"/>
        <path id="Контур_1590" data-name="Контур 1590" d="M102.709,54.16l2.461-2.139q1.221.312,2.468.678c11.668,3.442,26.547,13.483,25.568,17.1-.86,3.169-10.463,2.969-24.9-2.908Z" transform="translate(116.984 12.713)" fill="#938f41"/>
        <path id="Контур_1591" data-name="Контур 1591" d="M123.934,73.324c-10.943,2.4-27.627-9.781-27.627-9.781L93.574,55.15S86.165,41.126,85.89,38.264s3.156-10.16,6.45-10.733,8.782,3.721,16.192,10.733,15.2,25.4,15.4,35.06" transform="translate(147.249 6.716)" fill="#f9deb2"/>
        <path id="Контур_1592" data-name="Контур 1592" d="M91.65,58.025,85.879,40.164l3.132-12.49a2.928,2.928,0,0,1,.47-.139c3.293-.572,8.953,2.183,16.363,9.195,7.385,6.99,14.971,26.816,15.226,36.5-14.2-21.689-29.421-15.2-29.421-15.2" transform="translate(150.108 6.711)" fill="#edcc9d"/>
        <path id="Контур_1593" data-name="Контур 1593" d="M123.157,29.478a55.531,55.531,0,0,1-5.831,10.709L111.1,29.109l6.911-7.741Z" transform="translate(116.638 5.222)" fill="#dd704a"/>
        <path id="Контур_1594" data-name="Контур 1594" d="M110.649,41.816c5.249-5.152,8.439-14.221,8.439-14.221l-1.648-.966s-3.215,10.185-7.126,13.137Z" transform="translate(121.685 6.508)" fill="#c42749"/>
        <path id="Контур_1595" data-name="Контур 1595" d="M127.757,19.76c-.067,1.492-1.741,12.337-2.27,12.992s-9.533,4.76-10.03,3.644c-2.306-5.174,1.442-20.859,2.159-21.793s10.14,5.157,10.14,5.157" transform="translate(107.537 3.545)" fill="#ffa77b"/>
        <path id="Контур_1596" data-name="Контур 1596" d="M116.372,18.472c-.553-.228-1.1-.434-1.655-.626a15.837,15.837,0,0,1,1-3.242c.718-.932,10.142,5.157,10.142,5.157-.025.551-.269,2.379-.594,4.5a27.686,27.686,0,0,0-8.9-5.786" transform="translate(109.431 3.546)" fill="#ea875c"/>
        <path id="Контур_1597" data-name="Контур 1597" d="M124.587,19.875c.879-1.333.994-3.434,0-3.22s-1.091,1.231-1.234,1.753c-.207.752.857,2.04,1.234,1.467" transform="translate(99.291 4.067)" fill="#824b33"/>
        <path id="Контур_1598" data-name="Контур 1598" d="M126.846,16.676c-.962,2-1.1,8.184-3.176,9.373-1.676.958-4.478.307-5.5.02a1.273,1.273,0,0,0-.941.087c-.81.419-2.24,1.672-2.433,5.322a57.688,57.688,0,0,1-1.121,6.805s6.257.891,8.163-.246,2.01-2.189,2.01-2.189l.177,1.064s4.831-2.4,5.518-5.183a13.518,13.518,0,0,0-.026-5.688l2.3-6.221c-1.185-2.31-3.253-2.862-4.975-3.145" transform="translate(104.767 4.076)" fill="#824b33"/>
        <path id="Контур_1599" data-name="Контур 1599" d="M117.673,30.37a14.2,14.2,0,0,0-4-9.2,25,25,0,0,1,1.068-4.491c1.722.281,3.79.834,4.974,3.145l-2.3,6.219a14.272,14.272,0,0,1,.256,4.33" transform="translate(116.87 4.076)" fill="#603222"/>
        <path id="Контур_1600" data-name="Контур 1600" d="M151,83.96c-.309,0-9.57,2.9-9.57,2.9l-3.4.214a2.948,2.948,0,0,1,2.677-2.468,14.929,14.929,0,0,0,4.116-.967s4.734-5.259,6.071-5.259.207,3.65.207,3.65Z" transform="translate(54.73 19.154)" fill="#fce7ca"/>
        <path id="Контур_1601" data-name="Контур 1601" d="M17.423,98.134H231.21S173.3,62.644,162.326,60.641l-50.77,19.748L67.371,90.979s-18.937-.859-23.876-.286-26.072,7.441-26.072,7.441" transform="translate(125.153 14.819)" fill="#a49c3d"/>
        <path id="Контур_1602" data-name="Контур 1602" d="M17.423,60.689c11.631,2.517,68.6,37.432,68.6,37.432H55.37C51.311,85.278,37.521,71.979,17.423,60.689" transform="translate(270.338 14.831)" fill="#baaf2a"/>
        <path id="Контур_1603" data-name="Контур 1603" d="M64.821,89.353l37.4-8.964L152.994,60.64c1.979.361,5.488,1.814,9.9,3.948-9.845,7.006-28.145,14.43-49.724,19.522C94.2,88.586,76.762,90.3,64.821,89.353" transform="translate(134.484 14.819)" fill="#baaf2a"/>
        <path id="Контур_1604" data-name="Контур 1604" d="M213.22,104.527c.674-10.4,2.588-50.978,1.707-59.21l-4.376-9.649a.969.969,0,0,1,.567-1.156.8.8,0,0,1,.989.663l4.391,9.711.021.127c.925,8.378-.986,48.858-1.681,59.513Z" transform="translate(-100.692 8.426)" fill="#5e3024"/>
        <path id="Контур_1605" data-name="Контур 1605" d="M59.66,58.224s6.477,14.766,1.919,40.5H57.5c4.078-8.227,2.159-40.5,2.159-40.5" transform="translate(243.288 14.229)" fill="#9b9245"/>
        <path id="Контур_1606" data-name="Контур 1606" d="M68.238,58.224s6.477,14.766,1.919,40.5H66.079c4.078-8.227,2.159-40.5,2.159-40.5" transform="translate(224.035 14.229)" fill="#9b9245"/>
        <path id="Контур_1607" data-name="Контур 1607" d="M60.831,51.613s9.538,17.765,10.315,48.727H67.068c2.373-9.9-6.237-48.727-6.237-48.727" transform="translate(231.202 12.613)" fill="#9b9245"/>
        <path id="Контур_1608" data-name="Контур 1608" d="M72.4,69.073a40.354,40.354,0,0,1,12.714,27H80.085c2.924-5.485-7.688-27-7.688-27" transform="translate(202.845 16.88)" fill="#9b9245"/>
        <path id="Контур_1609" data-name="Контур 1609" d="M62.446,63.309S52.435,76.42,51.192,97.481H57.72c-3.8-6.732,4.726-34.172,4.726-34.172" transform="translate(251.896 15.471)" fill="#9b9245"/>
        <path id="Контур_1610" data-name="Контур 1610" d="M69.313,51.613s9.538,17.765,10.315,48.727H75.55c2.373-9.9-6.237-48.727-6.237-48.727" transform="translate(212.165 12.613)" fill="#9b9245"/>
        <path id="Контур_1611" data-name="Контур 1611" d="M66.589,94.83c-.912-5.83.559-13.011,2.878-20.672A75.7,75.7,0,0,0,60.831,94.83Z" transform="translate(232.881 18.123)" fill="#877d39"/>
        <path id="Контур_1612" data-name="Контур 1612" d="M54.83,95.245c-.264-6.152,1.789-14.1,4.8-22.781C54.478,80.02,50.578,87.6,49.072,95.245Z" transform="translate(257.354 17.709)" fill="#877d39"/>
        <path id="Контур_1613" data-name="Контур 1613" d="M118.364,29.951C114.435,33.058,105.889,44.118,104.4,45.3s-4.385,2.775-5.239,3.956.76,7.635,5.878,9.889,15.353-4.507,19.192-6.333,8.162-5.881,6.456-13.179-10.827-10.862-12.321-9.681" transform="translate(123.856 7.265)" fill="#fce7ca"/>
        <path id="Контур_1614" data-name="Контур 1614" d="M110.262,43.014a47.317,47.317,0,0,0,3.518-3.94,23.352,23.352,0,0,1,3.166.611c6.859,1.823,11.89,6.412,12.689,11.067-4.14,2.093-13.806,8.276-18.733,6.106-5.118-2.254-6.731-8.708-5.877-9.889s3.744-2.775,5.238-3.956" transform="translate(117.99 9.549)" fill="#f9deb2"/>
        <path id="Контур_1615" data-name="Контур 1615" d="M99.158,48.4c.8-1.111,3.411-2.588,4.959-3.742a5.978,5.978,0,0,0,1.458,4.054c3.136,3.371,10.282,1.443,15.962-4.3,3.5-3.54,5.618-7.7,6-11.165a11.873,11.873,0,0,1,3.145,5.532c1.706,7.3-2.618,11.355-6.457,13.18s-14.074,8.586-19.192,6.331-6.73-8.708-5.877-9.889" transform="translate(123.856 8.123)" fill="#f9deb2"/>
        <path id="Контур_1616" data-name="Контур 1616" d="M113.44,56.242c5.353,1.319,8.234-2.545,8.646-6.695s-2.607-8.514-2.607-8.514Z" transform="translate(114.758 10.028)" fill="#dd704a"/>
        <path id="Контур_1617" data-name="Контур 1617" d="M123.791,58.67c-6.325,1.088-9.252-2.608-9.508-6.2s3.527-17.282,5.473-19.457,5.8-3.13,6.8-2.478,2.018,13.345,2.331,17.929c.149,2.186-1.814,9.638-5.094,10.2" transform="translate(106.956 7.414)" fill="#ffa77b"/>
        <path id="Контур_1618" data-name="Контур 1618" d="M115.108,57.56c3.619,0,5.335-19.479,2.968-24.148.32.019,5.633-3.024,5.807-2.912,1,.653,2.018,13.346,2.331,17.93.149,2.185-1.814,9.636-5.094,10.2-3.047.523-5.3-.07-6.849-1.218a2.7,2.7,0,0,0,.837.147" transform="translate(109.627 7.453)" fill="#ea875c"/>
        <path id="Контур_1619" data-name="Контур 1619" d="M119.1,26.865c-1.56-.31-4.116,2.791-4.116,2.791l-3.443-12.745s3.311-.27,5.062.813a7.965,7.965,0,0,1,2.534,2.41l-.9.014a17.256,17.256,0,0,1,.84,2.562l-1.346-.065c.47,1.452,1.73,3.031,1.37,4.22" transform="translate(120.073 4.126)" fill="#603222"/>
        <path id="Контур_1620" data-name="Контур 1620" d="M114.931,21.357c.368-1.324,1.442-2.4,2.4-2.4s1.435,1.066,1.066,2.389-1.442,2.4-2.4,2.4-1.435-1.065-1.066-2.389" transform="translate(116.66 4.632)" fill="#ea875c"/>
        <path id="Контур_1621" data-name="Контур 1621" d="M116.064,21.353a1.232,1.232,0,0,0-.663.256,2.81,2.81,0,0,1,.078-.29c.314-.928,1.059-1.72,1.664-1.767s.844.667.531,1.6a3.208,3.208,0,0,1-1.032,1.487c.235-.725-.02-1.3-.579-1.282" transform="translate(116.632 4.778)" fill="#cc4f46"/>
        <path id="Контур_1622" data-name="Контур 1622" d="M121.827,33.98c2.212-1.878,3.1-6.08,2.331-6.723s-5.041-.592-6.738.642-.121,1.717-1.921,3.545c-.625.636-2.161,1.893-1.75,3.5.251.987,6.362.492,8.078-.966" transform="translate(112.154 6.562)" fill="#ffa77b"/>
        <path id="Контур_1623" data-name="Контур 1623" d="M116,30.587c-.078-.678-.178-1.9-.4-3.026,1.939-.9,5.449-.882,6.142-.3.772.643-.118,4.846-2.332,6.723-1.05.892-3.742,1.421-5.734,1.473A5.15,5.15,0,0,0,116,30.587" transform="translate(114.566 6.562)" fill="#ea875c"/>
        <path id="Контур_1624" data-name="Контур 1624" d="M115.344,30.569c.62-3.568.78-8.188.05-8.258s-1.167.031-1.455.506a41.027,41.027,0,0,0-.564,5.372Z" transform="translate(121.084 5.448)" fill="#ea875c"/>
        <path id="Контур_1625" data-name="Контур 1625" d="M117.61,31.128c.506-3.566.54-8.121-.17-8.121s-1.134.141-1.4.635a41.615,41.615,0,0,0-.4,5.332Z" transform="translate(116.167 5.623)" fill="#ea875c"/>
        <path id="Контур_1626" data-name="Контур 1626" d="M119.981,33.058c1.025-4.528.576-8.785-.189-8.788s-1.214.142-1.477.651-.147,5.891-.147,5.891Z" transform="translate(110.452 5.931)" fill="#ffa77b"/>
        <path id="Контур_1627" data-name="Контур 1627" d="M123.477,21.253c-1.551,3.016-1.834.172-1.853-.673a3.252,3.252,0,0,0,1.853.673" transform="translate(103.222 5.03)" fill="#4f372f"/>
        <path id="Контур_1628" data-name="Контур 1628" d="M125.46,27.8a.284.284,0,0,0,.228-.088.189.189,0,0,0-.068-.295l-.1-.058c-.819-.468-1.666-.949-2.536-.556a.187.187,0,0,0-.095.287.279.279,0,0,0,.361.082c.689-.487,1.3-.055,1.971.53l.1.058a.31.31,0,0,0,.139.04" transform="matrix(-0.966, 0.259, -0.259, -0.966, 350.837, 27.881)" fill="#4f372f"/>
        <path id="Контур_1629" data-name="Контур 1629" d="M99.565,36.463c2.265-2.6,4.16-6.306,5.705-7.528,1.4-1.109,9.9,3.219,12.3,9.644-8.671-4.207-15.322-2.955-18-2.115" transform="translate(136.582 7.029)" fill="#edcc9d"/>
        <path id="Контур_1630" data-name="Контур 1630" d="M128.582,18.288A47.425,47.425,0,0,0,123.3,25.12c-.128.371,3.891.641,4.325.625s.961-7.456.961-7.456" transform="translate(96.04 4.47)" fill="#dd704a"/>
        <path id="Контур_1631" data-name="Контур 1631" d="M128.034,17.921a41.554,41.554,0,0,0-5.089,7.114c-.128.37,2.091.3,2.525.285.131,0,.586-.478.92-1.415.066-.185.83.168.9-.035a23.8,23.8,0,0,0,.747-5.949" transform="translate(97.029 4.38)" fill="#ffa77b"/>
        <path id="Контур_1632" data-name="Контур 1632" d="M123.861,21.189a5.228,5.228,0,0,1-4.327-1.911c-.118-.5.051-2.4.752-2.367s1.132,1.081,1.132,1.081a.968.968,0,0,1,1,.254,1.256,1.256,0,0,1,.467.872c1.065-.264,1.368.455.976,2.071" transform="translate(105.317 4.133)" fill="#824b33"/>
        <path id="Контур_1633" data-name="Контур 1633" d="M52.023,42.333a21.73,21.73,0,0,1-6.654-1.028,14.419,14.419,0,0,1-2.526-7.059H68.007c-2.767,4.77-8.881,8.087-15.984,8.087" transform="translate(256.725 8.369)" fill="#775651"/>
        <path id="Контур_1634" data-name="Контур 1634" d="M62.045,35.181c.672,3.463.739,5.78.039,5.78s-1.991-2.317-3.346-5.78Z" transform="translate(242.374 8.598)" fill="#ad807b"/>
        <path id="Контур_1635" data-name="Контур 1635" d="M57.481,35.181c.327,1.685.36,2.812.019,2.812s-.969-1.127-1.629-2.812Z" transform="translate(250.779 8.598)" fill="#ad807b"/>
        <path id="Контур_1636" data-name="Контур 1636" d="M37.087,33.788H70.079a.588.588,0,0,1,.589.587v.113a.588.588,0,0,1-.589.587H37.087a.587.587,0,0,1-.587-.587v-.113a.587.587,0,0,1,.587-.587" transform="translate(261.957 8.257)" fill="#5b413b"/>
      </g>
    </g>
  </g>
</svg>
