<svg xmlns="http://www.w3.org/2000/svg" width="135.852" height="45.211" viewBox="0 0 135.852 45.211">
  <path id="XMLID_233_" d="M601.253,287.692c-7.023,2.414-14.924,12.51-18.655,18.655-6.8-1.317-13.388-4.609-19.972-7.023a83.68,83.68,0,0,0-16.68-3.731c-3.292-3.073-8.559-4.609-12.51-5.267-4.828-.878-18.216.219-18.874-5.926-3.95.878-8.559,4.609-11.851,8.779-13.388,1.975-25.678,7.242-37.31,14.046,1.756,2.195,6.365,2.634,7.9,3.731-2.195,0-4.17,1.317-6.365,1.756,9,8.559,25.459,10.1,37.31,10.754a17.232,17.232,0,0,0,12.51,6.145,36.519,36.519,0,0,1-2.853-5.926,172.66,172.66,0,0,0,25.9-2.634c4.389,3.95,10.315,5.487,16.46,6.584a26.654,26.654,0,0,1-6.365-8.779c5.487-1.317,10.754-2.853,16.021-4.609,5.048-1.756,11.193-4.17,16.46-3.95,1.317,6.584,8.34,14.924,13.827,18.436-4.17-4.389-4.17-12.29-4.609-18.216C590.937,303.275,597.083,293.179,601.253,287.692Z" transform="translate(-465.4 -284.4)" fill="#18ccf5" opacity="0.273"/>
</svg>
