<svg xmlns="http://www.w3.org/2000/svg" width="1440" height="268.487" viewBox="0 0 1440 268.487">
  <g id="grass" transform="translate(0 -753.513)">
    <rect id="Прямоугольник_107" data-name="Прямоугольник 107" width="1440" height="160" transform="translate(0 862)" fill="#514b30"/>
    <g id="Сгруппировать_185" data-name="Сгруппировать 185" transform="translate(5789.52 4901.621)">
      <path id="Контур_1074" data-name="Контур 1074" d="M940.274,742.975s-9.9-9.489-14.934-12.32c0,0,14.4,6.3,19.826,10.644,0,0-12.272-14.1-17.7-17.411,0,0,18.3,10.26,20.3,12.326,0,0-4.829-12.34-8.083-16.273,0,0,15.583,15.847,17.671,20.917,0,0,1.07-7.144-.4-11.352,0,0,7.174,9.4,8.064,11.265,0,0-6.061-16.005-6.58-19.262,0,0,5.845,7.059,11.264,14.283a34.257,34.257,0,0,0-7.237-10.619s9.929,7.269,14,13.686c0,0-7.393-18.437-11.7-23.869,0,0,12.807,11.993,17.094,20.4,0,0-8.531-27.471-13.105-33.841,0,0,15.663,19.7,17.109,23.712,0,0-1.5-24.224-3.711-31.894,0,0,11.393,30.818,12.117,40.767,0,0,3.028-14.145,2.691-22.411,0,0,4.671,18.349,5.061,22,0,0,2.775-34.321,4.121-37.587,0,0,1.325,16.6,3.1,31.135,2.506,2.821,5.551,6.653,6.958,10,0,0-2.976-15.429-5.569-19.8,0,0,8.669,10.563,11.1,17.516,0,0-3.031-18.662-5.36-22.724,0,0,8.626,13.524,9.339,16.2,0,0,.43-12.347-.373-15.731,0,0,5.328,16.359,5.677,22.852,0,0,1.785-8.219,1.549-12.33,0,0,2.8,10.487,3.155,12.877,0,0-1.69-16.239-1.636-18.54,0,0,5.026,19.888,7.332,30.454H939.244s-5.953-8.464-14.794-12.251c0,0,10.884,3.853,15.824,7.18" transform="translate(-5560.078 -4786.532)" fill="#514b30"/>
      <path id="Контур_1075" data-name="Контур 1075" d="M1011.584,753.908s-13.039-18.435-20.5-23.933c0,0,22.07,12.239,29.574,20.676,0,0-15.208-27.392-23.145-33.823,0,0,27.123,19.933,29.683,23.945,0,0-3.184-23.971-7.135-31.614,0,0,20.159,30.787,21.646,40.635,0,0,4.782-13.878,3.992-22.052,0,0,8.413,18.265,9.169,21.883,0,0-3.781-31.093-3.327-37.421,0,0,7.1,13.715,13.4,27.75-1.518-7.534-3.989-15.283-8.017-20.629,0,0,14.012,14.12,18.346,26.588,0,0-5.061-35.816-10.2-46.371,0,0,16.992,23.3,20.869,39.638,0,0-3.284-53.368-8.493-65.742,0,0,18.708,38.261,19.53,46.066,0,0,7.416-47.061,6.8-61.962,0,0,6.807,59.872,3.943,79.2,0,0,11.027-27.482,13.855-43.541,0,0,.435,35.646-.4,42.741,0,0,18.913-66.676,22.565-73.02,0,0-4.58,32.257-7.53,60.484,3.13,5.481,6.767,12.925,7.8,19.422,0,0,1.269-29.974-1.373-38.461,0,0,10.494,20.52,11.791,34.028,0,0,2.506-36.256.19-44.145,0,0,9.2,26.274,9.319,31.467,0,0,5.833-23.987,5.849-30.556,0,0,2.384,31.779.3,44.391,0,0,6.449-15.967,7.742-23.953,0,0,.479,20.374.092,25.018,0,0,3.8-31.548,4.847-36.02,0,0,.407,38.637,0,59.165H1007.73s-6.705-16.443-20.294-23.8c0,0,17.057,7.483,24.148,13.947" transform="translate(-5532.455 -4802.245)" fill="#514b30"/>
      <path id="Контур_1076" data-name="Контур 1076" d="M156.726,676.527c6.193,5.651,40.094,69.662,40.094,69.662-1.729-7.091-2.975-43.81-2.975-43.81,5.4,15.826,24.548,41.443,24.548,41.443-5.638-19.176,2-82.293,2-82.293-.18,15.453,14.253,62.039,14.253,62.039.888-8.21,28.748-51.949,28.748-51.949-7.662,13.947-10.012,69.546-10.012,69.546,5.315-17.7,31.243-45.663,31.243-45.663-7.653,12.061-13.8,50.052-13.8,50.052,6.258-13.835,27.915-31.661,27.915-31.661-16.112,16.873-14.273,48.118-14.273,48.118H177.277c4.724-12.229-20.551-85.485-20.551-85.485" transform="translate(-5898.209 -4800.496)" fill="#514b30"/>
      <path id="Контур_1077" data-name="Контур 1077" d="M907.023,676.323c.715,9.981-5.248,59.017-5.248,59.017,1.194-5.708,14.462-34.512,14.462-34.512-1.246,12.891,6.3,34.777,6.3,34.777,2.345-15.532,34.137-64.085,34.137-64.085-6.23,12.052-11.252,49.856-11.252,49.856,4.039-6.327,46.814-37.762,46.814-37.762-12.517,10.143-36.5,53.343-36.5,53.343,11.835-13.308,46.641-32.608,46.641-32.608-11.769,8.67-32.332,37.744-32.332,37.744,11.182-10.194,38.083-22,38.083-22-21.43,11.6-32.005,37.532-32.005,37.532h-104.5c5.314-23.185,35.407-81.306,35.407-81.306" transform="translate(-5583.498 -4796.115)" fill="#514b30"/>
      <path id="Контур_1078" data-name="Контур 1078" d="M842.95,746.94s9.273-12.734,15.329-16.532c0,0-18.505,8.454-24.163,14.282,0,0,9.945-18.92,16.3-23.362,0,0-22.017,13.767-23.781,16.539,0,0-.619-16.558,1.887-21.836,0,0-14,21.265-13.91,28.068,0,0-6.456-9.587-6.94-15.231,0,0-5.041,12.615-5.2,15.115,0,0-1.124-21.478-2.479-25.848,0,0-4.505,9.474-8.23,19.167.281-5.2,1.41-10.556,4.326-14.249,0,0-10.808,9.752-12.951,18.365,0,0-.646-24.739,2.525-32.03,0,0-12.193,16.093-13.343,27.379,0,0-4.878-36.862-1.916-45.41,0,0-11.556,26.428-11.156,31.819,0,0-13.8-32.507-15.432-42.8,0,0,2.6,41.354,8.1,54.706,0,0-14.22-18.983-19.2-30.075,0,0,4.878,24.621,6.7,29.521,0,0-27.282-46.054-31.585-50.436,0,0,8.993,22.28,15.887,41.779-2.07,3.785-4.316,8.926-4.3,13.413,0,0-5.606-20.7-4.432-26.564,0,0-6.622,14.173-5.816,23.5,0,0-7.675-25.042-6.711-30.492,0,0-4.579,18.147-3.92,21.735,0,0-8.921-16.568-9.909-21.107,0,0,2.512,21.951,6.3,30.663,0,0-8.3-11.029-10.674-16.546,0,0,2.575,14.073,3.619,17.28,0,0-8.172-21.79-9.8-24.88,0,0,5.347,26.688,8.761,40.868H847.957s3.739-11.358,15.16-16.438c0,0-14.6,5.169-20.166,9.634" transform="translate(-5668.651 -4792.23)" fill="#514b30"/>
      <path id="Контур_1079" data-name="Контур 1079" d="M735.836,749.668s15.607-14.965,23.551-19.429c0,0-22.709,9.936-31.266,16.785,0,0,19.354-22.237,27.918-27.458,0,0-28.865,16.181-32.007,19.438,0,0,7.616-19.459,12.747-25.664,0,0-24.575,24.994-27.869,32.989,0,0-1.689-11.267.636-17.9,0,0-11.314,14.827-12.72,17.765,0,0,9.559-25.241,10.378-30.378,0,0-9.217,11.135-17.763,22.528,2.87-6.117,6.659-12.408,11.413-16.748,0,0-15.659,11.462-22.086,21.584,0,0,11.66-29.076,18.455-37.644,0,0-20.2,18.916-26.96,32.178,0,0,13.456-43.322,20.669-53.369,0,0-24.7,31.061-26.982,37.4,0,0,2.372-38.205,5.855-50.3,0,0-17.969,48.6-19.111,64.3,0,0-4.779-22.311-4.244-35.347,0,0-7.367,28.937-7.983,34.7,0,0-4.378-54.127-6.5-59.277,0,0-2.089,26.186-4.891,49.1-3.953,4.451-8.757,10.493-10.973,15.767,0,0,4.691-24.332,8.781-31.223,0,0-13.672,16.659-17.506,27.623,0,0,4.78-29.433,8.454-35.836,0,0-13.6,21.328-14.729,25.544,0,0-.682-19.472.588-24.806,0,0-8.407,25.8-8.952,36.037,0,0-2.815-12.961-2.446-19.445,0,0-4.424,16.539-4.975,20.31,0,0,2.666-25.611,2.579-29.242,0,0-7.927,31.366-11.565,48.031H737.459s9.387-13.348,23.333-19.32c0,0-17.165,6.075-24.956,11.323" transform="translate(-5713.438 -4796.151)" fill="#514b30"/>
      <path id="Контур_1080" data-name="Контур 1080" d="M785.933,749.668s-15.607-14.965-23.551-19.429c0,0,22.709,9.936,31.266,16.785,0,0-19.354-22.237-27.918-27.458,0,0,28.865,16.181,32.007,19.438,0,0-7.616-19.459-12.747-25.664,0,0,24.575,24.994,27.869,32.989,0,0,1.689-11.267-.636-17.9,0,0,11.314,14.827,12.72,17.765,0,0-9.559-25.241-10.379-30.378,0,0,9.218,11.135,17.765,22.528-2.87-6.117-6.659-12.408-11.414-16.748,0,0,15.659,11.462,22.086,21.584,0,0-11.66-29.076-18.455-37.644,0,0,20.2,18.916,26.96,32.178,0,0-13.456-43.322-20.669-53.369,0,0,24.7,31.061,26.982,37.4,0,0-2.372-38.205-5.855-50.3,0,0,17.969,48.6,19.111,64.3,0,0,4.778-22.311,4.244-35.347,0,0,7.367,28.937,7.983,34.7,0,0,4.378-54.127,6.5-59.277,0,0,2.089,26.186,4.891,49.1,3.953,4.451,8.755,10.493,10.973,15.767,0,0-4.691-24.332-8.781-31.223,0,0,13.672,16.659,17.506,27.623,0,0-4.78-29.433-8.454-35.836,0,0,13.6,21.328,14.729,25.544,0,0,.682-19.472-.588-24.806,0,0,8.407,25.8,8.952,36.037,0,0,2.815-12.961,2.446-19.445,0,0,4.424,16.539,4.974,20.31,0,0-2.666-25.611-2.579-29.242,0,0,7.927,31.366,11.565,48.031H784.31s-9.387-13.348-23.335-19.32c0,0,17.167,6.075,24.958,11.323" transform="translate(-5632.158 -4796.151)" fill="#514b30"/>
      <path id="Контур_1081" data-name="Контур 1081" d="M549.961,676.323c.715,9.981-5.248,59.017-5.248,59.017,1.194-5.708,14.463-34.512,14.463-34.512-1.247,12.891,6.294,34.777,6.294,34.777,2.346-15.532,34.137-64.085,34.137-64.085-6.23,12.052-11.252,49.856-11.252,49.856,4.039-6.327,46.814-37.762,46.814-37.762-12.517,10.143-36.5,53.343-36.5,53.343,11.833-13.308,46.64-32.608,46.64-32.608-11.769,8.67-32.332,37.744-32.332,37.744,11.182-10.194,38.083-22,38.083-22-21.43,11.6-32.005,37.532-32.005,37.532h-104.5c5.314-23.185,35.407-81.306,35.407-81.306" transform="translate(-5740.659 -4796.115)" fill="#514b30"/>
      <path id="Контур_1082" data-name="Контур 1082" d="M574.225,746.94s9.273-12.734,15.329-16.532c0,0-18.506,8.454-24.163,14.282,0,0,9.945-18.92,16.3-23.362,0,0-22.017,13.767-23.781,16.539,0,0-.619-16.558,1.887-21.836,0,0-14,21.265-13.909,28.068,0,0-6.456-9.587-6.94-15.231,0,0-5.041,12.615-5.2,15.115,0,0-1.124-21.478-2.477-25.848,0,0-4.507,9.474-8.231,19.167.282-5.2,1.41-10.556,4.326-14.249,0,0-10.808,9.752-12.951,18.365,0,0-.646-24.739,2.525-32.03,0,0-12.193,16.093-13.343,27.379,0,0-4.878-36.862-1.916-45.41,0,0-11.556,26.428-11.156,31.819,0,0-13.8-32.507-15.431-42.8,0,0,2.6,41.354,8.1,54.706,0,0-14.22-18.983-19.2-30.075,0,0,4.878,24.621,6.7,29.521,0,0-27.282-46.054-31.585-50.436,0,0,8.992,22.28,15.887,41.779-2.07,3.785-4.316,8.926-4.3,13.413,0,0-5.606-20.7-4.432-26.564,0,0-6.622,14.173-5.816,23.5,0,0-7.675-25.042-6.711-30.492,0,0-4.579,18.147-3.919,21.735,0,0-8.922-16.568-9.91-21.107,0,0,2.512,21.951,6.3,30.663,0,0-8.3-11.029-10.674-16.546,0,0,2.575,14.073,3.619,17.28,0,0-8.172-21.79-9.8-24.88,0,0,5.347,26.688,8.761,40.868H579.232s3.739-11.358,15.16-16.438c0,0-14.6,5.169-20.166,9.634" transform="translate(-5786.947 -4792.23)" fill="#514b30"/>
      <path id="Контур_1083" data-name="Контур 1083" d="M467.113,749.668s15.607-14.965,23.551-19.429c0,0-22.709,9.936-31.266,16.785,0,0,19.354-22.237,27.918-27.458,0,0-28.865,16.181-32.007,19.438,0,0,7.616-19.459,12.747-25.664,0,0-24.575,24.994-27.869,32.989,0,0-1.689-11.267.636-17.9,0,0-11.314,14.827-12.718,17.765,0,0,9.558-25.241,10.378-30.378,0,0-9.218,11.135-17.765,22.528,2.87-6.117,6.661-12.408,11.414-16.748,0,0-15.659,11.462-22.086,21.584,0,0,11.66-29.076,18.455-37.644,0,0-20.2,18.916-26.959,32.178,0,0,13.455-43.322,20.668-53.369,0,0-24.7,31.061-26.982,37.4,0,0,2.372-38.205,5.855-50.3,0,0-17.969,48.6-19.111,64.3,0,0-4.779-22.311-4.244-35.347,0,0-7.367,28.937-7.983,34.7,0,0-4.376-54.127-6.5-59.277,0,0-2.089,26.186-4.891,49.1-3.953,4.451-8.757,10.493-10.973,15.767,0,0,4.691-24.332,8.781-31.223,0,0-13.672,16.659-17.506,27.623,0,0,4.78-29.433,8.454-35.836,0,0-13.6,21.328-14.729,25.544,0,0-.682-19.472.587-24.806,0,0-8.406,25.8-8.951,36.037,0,0-2.815-12.961-2.445-19.445,0,0-4.424,16.539-4.975,20.31,0,0,2.666-25.611,2.579-29.242,0,0-7.926,31.366-11.565,48.031H468.735s9.387-13.348,23.333-19.32c0,0-17.165,6.075-24.956,11.323" transform="translate(-5831.732 -4796.151)" fill="#514b30"/>
      <path id="Контур_1084" data-name="Контур 1084" d="M281.236,676.323c.715,9.981-5.248,59.017-5.248,59.017,1.194-5.708,14.462-34.512,14.462-34.512-1.246,12.891,6.3,34.777,6.3,34.777,2.345-15.532,34.137-64.085,34.137-64.085-6.232,12.052-11.252,49.856-11.252,49.856,4.039-6.327,46.814-37.762,46.814-37.762-12.517,10.143-36.5,53.343-36.5,53.343,11.834-13.308,46.64-32.608,46.64-32.608-11.769,8.67-32.332,37.744-32.332,37.744,11.182-10.194,38.083-22,38.083-22-21.43,11.6-32.005,37.532-32.005,37.532h-104.5c5.314-23.185,35.407-81.306,35.407-81.306" transform="translate(-5859.132 -4796.115)" fill="#514b30"/>
      <path id="Контур_1085" data-name="Контур 1085" d="M123.62,671.491c1.644,7.053,7.643,56.806,7.643,56.806-.611-7.322.145-39.455.145-39.455,2.038,12.6,12.209,37.778,12.209,37.778-3.289-19.891.47-70.01.47-70.01.026,10.363,9.225,48.192,9.225,48.192.188-8.191,14.7-49.626,14.7-49.626-3.653,12.441.3,69.619.3,69.619,2.047-21.3,18.6-53.663,18.6-53.663-4.165,13.384-2.164,60.654-2.164,60.654,3.009-18.988,20.146-43.13,20.146-43.13-11.88,22.764,1.66,76.143,1.66,76.143H123.62c-.642-32.373,0-93.308,0-93.308" transform="translate(-5912.853 -4803.283)" fill="#514b30"/>
    </g>
  </g>
</svg>
