<svg id="ho" xmlns="http://www.w3.org/2000/svg" xmlns:xlink="http://www.w3.org/1999/xlink" width="24.461" height="40.748" viewBox="0 0 24.461 40.748">
  <defs>
    <clipPath id="clip-path">
      <rect id="Прямоугольник_123" data-name="Прямоугольник 123" width="24.461" height="40.748" fill="#2f2e41" stroke="#2f2e41" stroke-width="1.5"/>
    </clipPath>
  </defs>
  <g id="Сгруппировать_196" data-name="Сгруппировать 196" transform="translate(0 0)" clip-path="url(#clip-path)">
    <path id="Контур_1787" data-name="Контур 1787" d="M7.492.773A2.053,2.053,0,0,1,9.906.183a2.239,2.239,0,0,1,.9,2.5c-.2.924-.7,1.772-.893,2.7-.338,1.58.348,3.16.926,4.677,2.629,6.9,6.964,12.116,5.22,17.6-1.112,3.5-4.68,8.789-9.364,7.125-2.041-.726-3.366-2.651-4.286-4.412C1.947,29.491,0,23.806,0,23.806a18.921,18.921,0,0,0,5.734,4.614c-.771-.025-2.029-.16-2.8-.185A12.923,12.923,0,0,0,5.04,31.811a5.114,5.114,0,0,0,3.875,1.8,5.93,5.93,0,0,0,3.633-2.3,11.753,11.753,0,0,0,2.345-7.742,11.7,11.7,0,0,0-1.025-3.226l-3.6-8.41L8.712,8.291c-.428-1-.767-2.477-1.109-3.485C7.152,3.478,6.448,2.055,7.492.773" transform="translate(4 2.822)" fill="#2f2e41" stroke="#2f2e41" stroke-width="1.5"/>
  </g>
</svg>
