<svg xmlns="http://www.w3.org/2000/svg" xmlns:xlink="http://www.w3.org/1999/xlink" width="919.111" height="766.64" viewBox="0 0 919.111 766.64">
  <defs>
    <clipPath id="clip-path">
      <rect id="Прямоугольник_123" data-name="Прямоугольник 123" width="24.461" height="43.318" transform="translate(-4 -3)" fill="#2f2e41" stroke="#2f2e41" stroke-width="1.5"/>
    </clipPath>
    <clipPath id="clip-path-2">
      <rect id="Прямоугольник_123-2" data-name="Прямоугольник 123" width="24.461" height="43.318" fill="#2f2e41" stroke="#2f2e41" stroke-width="1.5"/>
    </clipPath>
  </defs>
  <g id="hooks" transform="translate(-125.29 -1242.926)">
    <g id="Сгруппировать_206" data-name="Сгруппировать 206" transform="translate(12.845 20.572)">
      <path id="Контур_1783" data-name="Контур 1783" d="M-7601.435-6019v340.22" transform="translate(7726.725 7261.925)" fill="none" stroke="#2f2e40" stroke-width="2"/>
      <g id="Сгруппировать_197" data-name="Сгруппировать 197" transform="translate(116.444 1580.757)">
        <g id="Сгруппировать_196" data-name="Сгруппировать 196" clip-path="url(#clip-path)">
          <path id="Контур_1787" data-name="Контур 1787" d="M7.492.822A1.975,1.975,0,0,1,9.906.195a2.457,2.457,0,0,1,.9,2.66c-.2.983-.7,1.884-.893,2.867-.338,1.68.348,3.359.926,4.972,2.629,7.334,6.964,12.88,5.22,18.715-1.112,3.722-4.68,9.344-9.364,7.574-2.041-.771-3.366-2.818-4.286-4.69C1.947,31.351,0,25.307,0,25.307a19.2,19.2,0,0,0,5.734,4.9c-.771-.027-2.029-.17-2.8-.2a13.954,13.954,0,0,0,2.107,3.8A5,5,0,0,0,8.915,35.73a5.9,5.9,0,0,0,3.633-2.446,13.051,13.051,0,0,0,2.345-8.231,13.006,13.006,0,0,0-1.025-3.43l-3.6-8.941L8.712,8.814C8.284,7.75,7.945,6.18,7.6,5.109,7.152,3.7,6.448,2.185,7.492.822" transform="translate(0 0)" fill="#2f2e41" stroke="#2f2e41" stroke-width="1.5"/>
        </g>
      </g>
    </g>
    <g id="Сгруппировать_215" data-name="Сгруппировать 215" transform="translate(150.421 307.372)">
      <path id="Контур_1783-2" data-name="Контур 1783" d="M-7601.435-6019v728.71" transform="translate(7726.725 6954.554)" fill="none" stroke="#2f2e40" stroke-width="2"/>
      <g id="Сгруппировать_197-2" data-name="Сгруппировать 197" transform="translate(112.444 1658.875)">
        <g id="Сгруппировать_196-2" data-name="Сгруппировать 196" clip-path="url(#clip-path-2)">
          <path id="Контур_1787-2" data-name="Контур 1787" d="M7.492.822A1.975,1.975,0,0,1,9.906.195a2.457,2.457,0,0,1,.9,2.66c-.2.983-.7,1.884-.893,2.867-.338,1.68.348,3.359.926,4.972,2.629,7.334,6.964,12.88,5.22,18.715-1.112,3.722-4.68,9.344-9.364,7.574-2.041-.771-3.366-2.818-4.286-4.69C1.947,31.351,0,25.307,0,25.307a19.2,19.2,0,0,0,5.734,4.9c-.771-.027-2.029-.17-2.8-.2a13.954,13.954,0,0,0,2.107,3.8A5,5,0,0,0,8.915,35.73a5.9,5.9,0,0,0,3.633-2.446,13.051,13.051,0,0,0,2.345-8.231,13.006,13.006,0,0,0-1.025-3.43l-3.6-8.941L8.712,8.814C8.284,7.75,7.945,6.18,7.6,5.109,7.152,3.7,6.448,2.185,7.492.822" transform="translate(4 3)" fill="#2f2e41" stroke="#2f2e41" stroke-width="1.5"/>
        </g>
      </g>
    </g>
    <g id="Сгруппировать_205" data-name="Сгруппировать 205" transform="translate(0 203.736)">
      <path id="Контур_1788" data-name="Контур 1788" d="M-7601.435-6019v263.5" transform="translate(8076.988 7120.519)" fill="none" stroke="#2f2e40" stroke-width="2"/>
      <g id="Сгруппировать_204" data-name="Сгруппировать 204" transform="translate(462.707 1359.632)">
        <g id="Сгруппировать_196-3" data-name="Сгруппировать 196" clip-path="url(#clip-path-2)">
          <path id="Контур_1787-3" data-name="Контур 1787" d="M7.492.822A1.975,1.975,0,0,1,9.906.195a2.457,2.457,0,0,1,.9,2.66c-.2.983-.7,1.884-.893,2.867-.338,1.68.348,3.359.926,4.972,2.629,7.334,6.964,12.88,5.22,18.715-1.112,3.722-4.68,9.344-9.364,7.574-2.041-.771-3.366-2.818-4.286-4.69C1.947,31.351,0,25.307,0,25.307a19.2,19.2,0,0,0,5.734,4.9c-.771-.027-2.029-.17-2.8-.2a13.954,13.954,0,0,0,2.107,3.8A5,5,0,0,0,8.915,35.73a5.9,5.9,0,0,0,3.633-2.446,13.051,13.051,0,0,0,2.345-8.231,13.006,13.006,0,0,0-1.025-3.43l-3.6-8.941L8.712,8.814C8.284,7.75,7.945,6.18,7.6,5.109,7.152,3.7,6.448,2.185,7.492.822" transform="translate(4 3)" fill="#2f2e41" stroke="#2f2e41" stroke-width="1.5"/>
        </g>
      </g>
    </g>
    <g id="Сгруппировать_208" data-name="Сгруппировать 208" transform="translate(557.232 -35.439)">
      <path id="Контур_1788-2" data-name="Контур 1788" d="M-7601.435-6019v121.023" transform="translate(8076.988 7379.122)" fill="none" stroke="#2f2e40" stroke-width="2"/>
      <g id="Сгруппировать_204-2" data-name="Сгруппировать 204" transform="translate(466.707 1478.757)">
        <g id="Сгруппировать_196-4" data-name="Сгруппировать 196" clip-path="url(#clip-path)">
          <path id="Контур_1787-4" data-name="Контур 1787" d="M7.492.822A1.975,1.975,0,0,1,9.906.195a2.457,2.457,0,0,1,.9,2.66c-.2.983-.7,1.884-.893,2.867-.338,1.68.348,3.359.926,4.972,2.629,7.334,6.964,12.88,5.22,18.715-1.112,3.722-4.68,9.344-9.364,7.574-2.041-.771-3.366-2.818-4.286-4.69C1.947,31.351,0,25.307,0,25.307a19.2,19.2,0,0,0,5.734,4.9c-.771-.027-2.029-.17-2.8-.2a13.954,13.954,0,0,0,2.107,3.8A5,5,0,0,0,8.915,35.73a5.9,5.9,0,0,0,3.633-2.446,13.051,13.051,0,0,0,2.345-8.231,13.006,13.006,0,0,0-1.025-3.43l-3.6-8.941L8.712,8.814C8.284,7.75,7.945,6.18,7.6,5.109,7.152,3.7,6.448,2.185,7.492.822" transform="translate(0 0)" fill="#2f2e41" stroke="#2f2e41" stroke-width="1.5"/>
        </g>
      </g>
    </g>
  </g>
</svg>
