<svg xmlns="http://www.w3.org/2000/svg" xmlns:xlink="http://www.w3.org/1999/xlink" width="383.484" height="214.758" viewBox="0 0 383.484 214.758">
  <defs>
    <clipPath id="clip-path">
      <rect id="Прямоугольник_101" data-name="Прямоугольник 101" width="335.906" height="169.382" fill="none"/>
    </clipPath>
  </defs>
  <g id="ilend" transform="translate(5789.52 4517.528)">
    <g id="Сгруппировать_155" data-name="Сгруппировать 155" transform="translate(-5789.52 -4517.528)">
      <g id="Сгруппировать_154" data-name="Сгруппировать 154" transform="translate(0 0)" clip-path="url(#clip-path)">
        <path id="Контур_940" data-name="Контур 940" d="M187.177,470.328c0-22.283-13.875-40.346-30.991-40.346s-30.992,18.063-30.992,40.346,13.876,40.346,30.992,40.346,30.991-18.063,30.991-40.346" transform="translate(-122.518 -384.516)" fill="#aaa341"/>
        <path id="Контур_941" data-name="Контур 941" d="M175.778,494.044c0-31.243-19.455-56.57-43.453-56.57S88.872,462.8,88.872,494.044s19.455,56.57,43.453,56.57,43.453-25.327,43.453-56.57" transform="translate(-138.448 -381.231)" fill="#bdbb48"/>
        <path id="Контур_942" data-name="Контур 942" d="M158.857,449.81c-5.159,23.742-21.889,41.159-41.779,41.159-10.231,0-19.618-4.632-27.042-12.336,5.16-23.742,21.889-41.159,41.779-41.159,10.231,0,19.618,4.634,27.042,12.336" transform="translate(-137.937 -381.231)" fill="#cdc84d"/>
        <path id="Контур_943" data-name="Контур 943" d="M232.708,490.127c0-27.983-16.923-50.666-37.8-50.666s-37.8,22.683-37.8,50.666,16.922,50.666,37.8,50.666,37.8-22.683,37.8-50.666" transform="translate(-108.52 -380.359)" fill="#bdbb48"/>
        <path id="Контур_944" data-name="Контур 944" d="M225.679,480.344a30.181,30.181,0,0,1-17.1,5.523c-18.378,0-33.677-17.585-37.079-40.882a30.172,30.172,0,0,1,17.1-5.524c18.376,0,33.677,17.586,37.079,40.884" transform="translate(-102.21 -380.36)" fill="#cdc84d"/>
        <path id="Контур_945" data-name="Контур 945" d="M254.446,543.92c.019-.862.1-1.7.1-2.572,0-48.938-30.474-88.613-68.066-88.611s-68.067,39.673-68.067,88.611c0,.869.081,1.71.1,2.572Z" transform="translate(-125.492 -374.537)" fill="#aaa341"/>
        <path id="Контур_946" data-name="Контур 946" d="M262.212,530.474a52.313,52.313,0,0,0,.465-6.725c0-22.285-13.876-40.35-30.994-40.35s-31,18.065-31,40.35a52.289,52.289,0,0,0,.465,6.725Z" transform="translate(-89.41 -361.09)" fill="#cdc84d"/>
        <path id="Контур_947" data-name="Контур 947" d="M180.505,452.736c24.31,0,45.585,16.644,57.624,41.6-13.049,10.093-37.857,12.692-65.013,5.136-16.043-4.464-30.263-11.752-41.081-20.3,12.344-16.309,29.492-26.439,48.469-26.439" transform="translate(-119.518 -374.537)" fill="#b6ac4a"/>
        <path id="Контур_948" data-name="Контур 948" d="M178.622,448.043c-5.382,5.865-12.308,9.4-19.875,9.4-10.785,0-20.275-7.18-25.825-18.061,5.38-5.865,12.307-9.4,19.874-9.4,10.786,0,20.275,7.18,25.826,18.061" transform="translate(-119.129 -384.516)" fill="#b6ac4a"/>
        <path id="Контур_949" data-name="Контур 949" d="M209.878,490.85a26.269,26.269,0,0,1,17.773-7.324c11.388,0,21.314,8.019,26.7,19.933a26.271,26.271,0,0,1-17.773,7.324c-11.388,0-21.314-8.019-26.7-19.933" transform="translate(-85.379 -361.034)" fill="#ddd456"/>
        <path id="Контур_950" data-name="Контур 950" d="M262.293,525.882a19.277,19.277,0,0,1-4.592-12.5,19.8,19.8,0,0,1,39.588,0,19.265,19.265,0,0,1-4.592,12.5Z" transform="translate(-64.406 -356.5)" fill="#aaa341"/>
        <path id="Контур_951" data-name="Контур 951" d="M239.2,532.545a40.8,40.8,0,0,1-5.531-21.029c0-18.137,10.676-32.842,23.843-32.842s23.847,14.7,23.847,32.842a40.8,40.8,0,0,1-5.531,21.029Z" transform="translate(-74.945 -363.162)" fill="#cdc84d"/>
        <path id="Контур_952" data-name="Контур 952" d="M256.7,507.888a39.831,39.831,0,0,0,18.635-21.494,42.533,42.533,0,0,1,.472,42.766H239.185a40.393,40.393,0,0,1-5.481-19.432c6.616,2.771,14.888,2.392,23-1.84" transform="translate(-74.93 -359.776)" fill="#bdbb48"/>
      </g>
    </g>
    <path id="Контур_975" data-name="Контур 975" d="M229.443,517.208c13.114-9.841,19.562-17.238,23.021-25.9l.485-.148s-3.179,12.832-23.279,27.619Z" transform="translate(-5866.318 -4875.215)" fill="#824125"/>
    <path id="Контур_976" data-name="Контур 976" d="M235.135,568.185c-5.7-20.761-4.132-93.791-4.132-93.791L230,473.384s-.817,55.211-1.582,94.437Z" transform="translate(-5866.77 -4883.01)" fill="#9e5632"/>
    <path id="Контур_978" data-name="Контур 978" d="M219.818,490.975a47.236,47.236,0,0,1,13.735,18.76l.817.211a43.25,43.25,0,0,0-14.708-19.5Z" transform="translate(-5870.607 -4875.527)" fill="#824125"/>
    <path id="Контур_979" data-name="Контур 979" d="M241.553,482.813a64.386,64.386,0,0,0-2.608,28.14l-.64.846c-2.6-15.308,3.1-29.607,3.1-29.607Z" transform="translate(-5862.729 -4879.147)" fill="#824125"/>
    <path id="Контур_980" data-name="Контур 980" d="M229.709,504.088A54.2,54.2,0,0,0,243.2,483.542l.432-.325A51.135,51.135,0,0,1,229.7,505.046Z" transform="translate(-5866.206 -4878.697)" fill="#824125"/>
    <path id="Контур_981" data-name="Контур 981" d="M223.216,510.236c-2.817-9.792-3.454-17.575-1.818-25.592l-.217-.4s-3.589,10.962,1.411,26.92Z" transform="translate(-5870.489 -4878.247)" fill="#824125"/>
    <path id="Контур_982" data-name="Контур 982" d="M205.628,493c7.273,6.383,13.361,8.99,19.252,9.743l.318.757c-11.024-.662-20.19-10.542-20.19-10.542Z" transform="translate(-5877.035 -4874.424)" fill="#824125"/>
    <path id="Контур_983" data-name="Контур 983" d="M238.554,516.043c-14.472-9.159-23.214-17.8-28.383-28.469l-.715-.256s4.972,16.01,29.125,30.525Z" transform="translate(-5875.083 -4876.899)" fill="#824125"/>
    <path id="Контур_984" data-name="Контур 984" d="M201.462,528.735s-33.691-131.423,60.6-117.259c27.156,4.08,32,49.976,18.685,112.77-20.915,11.3-72.948,8.148-79.281,4.488" transform="translate(-5881.156 -4910.628)" fill="#d1c042"/>
    <path id="Контур_985" data-name="Контур 985" d="M268.467,523.7c-30.381,0-55.009-32.467-55.009-72.518a90.568,90.568,0,0,1,7.168-35.813c-41.108,25.579-19.165,111.191-19.165,111.191,6.331,3.658,58.365,6.81,79.279-4.49.014-.065.027-.131.042-.2a42.537,42.537,0,0,1-12.316,1.826" transform="translate(-5881.156 -4908.453)" fill="#c1ac30"/>
    <path id="Контур_987" data-name="Контур 987" d="M256.158,491.979a4.861,4.861,0,0,1,.688.98l.775,1.321a.673.673,0,0,0-.289-.073l-2.287-.056a1.317,1.317,0,0,1-.686-.144,1.515,1.515,0,0,1-.48-.629,11.583,11.583,0,0,1-.669-1.628l.447-.076a2,2,0,0,1,2.5.306" transform="translate(-5855.896 -4875.124)" fill="#c1ac30"/>
    <path id="Контур_989" data-name="Контур 989" d="M248.761,410.06a4.679,4.679,0,0,1,.817-.852l1.118-.984a.868.868,0,0,0-.036.321q.1,1.245.194,2.487a1.674,1.674,0,0,1-.058.761,1.489,1.489,0,0,1-.519.59,9.837,9.837,0,0,1-1.41.9l-.117-.478a2.518,2.518,0,0,1,.01-2.748" transform="translate(-5858.027 -4911.586)" fill="#c1ac30"/>
    <path id="Контур_991" data-name="Контур 991" d="M196.088,437.972a4.149,4.149,0,0,1-1.121-.155l-1.4-.328a.686.686,0,0,0,.252-.173l1.644-1.736a1.421,1.421,0,0,1,.577-.432,1.293,1.293,0,0,1,.748.069,9.489,9.489,0,0,1,1.528.626l-.265.4a2.2,2.2,0,0,1-1.959,1.728" transform="translate(-5882.054 -4899.793)" fill="#c1ac30"/>
    <path id="Контур_993" data-name="Контур 993" d="M216.624,412.653a4.237,4.237,0,0,1,.993-.565l1.313-.6a.822.822,0,0,0-.112.3l-.406,2.45a1.6,1.6,0,0,1-.237.714,1.347,1.347,0,0,1-.643.406,9.19,9.19,0,0,1-1.574.427v-.495a2.448,2.448,0,0,1,.666-2.637" transform="translate(-5872.294 -4910.154)" fill="#d1c042"/>
    <path id="Контур_995" data-name="Контур 995" d="M213.22,414.736a5.082,5.082,0,0,1-.275-1.185q-.117-.766-.23-1.534a.711.711,0,0,0,.239.187l2.087.99a1.4,1.4,0,0,1,.581.416,1.607,1.607,0,0,1,.213.777,11.774,11.774,0,0,1,.019,1.774l-.44-.115a2.075,2.075,0,0,1-2.194-1.309" transform="translate(-5873.654 -4909.923)" fill="#d1c042"/>
    <path id="Контур_997" data-name="Контур 997" d="M220.192,470.206a4.933,4.933,0,0,1,.469,1.109q.244.732.485,1.463a.668.668,0,0,0-.266-.135l-2.221-.558a1.326,1.326,0,0,1-.64-.292,1.527,1.527,0,0,1-.34-.721,11.594,11.594,0,0,1-.318-1.741l.453.024a2.015,2.015,0,0,1,2.378.85" transform="translate(-5871.617 -4884.828)" fill="#c1ac30"/>
    <path id="Контур_999" data-name="Контур 999" d="M218.448,466.348a4.053,4.053,0,0,1,1.1-.245l1.413-.18a.747.747,0,0,0-.183.253q-.5,1.116-1,2.233a1.518,1.518,0,0,1-.406.614,1.279,1.279,0,0,1-.721.2,9,9,0,0,1-1.621-.062l.125-.475a2.332,2.332,0,0,1,1.3-2.335" transform="translate(-5871.765 -4886.281)" fill="#c1ac30"/>
    <path id="Контур_1001" data-name="Контур 1001" d="M198.426,431.8a4.437,4.437,0,0,1-.882-.752q-.522-.529-1.043-1.059a.657.657,0,0,0,.295-.013l2.205-.614a1.271,1.271,0,0,1,.692-.06,1.369,1.369,0,0,1,.6.472,10.59,10.59,0,0,1,1.01,1.39l-.411.2a1.979,1.979,0,0,1-2.47.433" transform="translate(-5880.765 -4902.355)" fill="#c1ac30"/>
    <path id="Контур_1003" data-name="Контур 1003" d="M215.675,461.4a4.472,4.472,0,0,1,.875-.764l1.185-.863a.819.819,0,0,0-.056.315q.015,1.245.032,2.49a1.647,1.647,0,0,1-.106.751,1.408,1.408,0,0,1-.561.532,9.33,9.33,0,0,1-1.472.752l-.086-.486a2.478,2.478,0,0,1,.19-2.727" transform="translate(-5872.581 -4888.979)" fill="#c1ac30"/>
    <path id="Контур_1005" data-name="Контур 1005" d="M242.575,435.165a4.933,4.933,0,0,1,.469,1.109q.244.732.485,1.463a.678.678,0,0,0-.266-.135l-2.221-.558a1.332,1.332,0,0,1-.64-.292,1.54,1.54,0,0,1-.34-.721,11.588,11.588,0,0,1-.318-1.741l.453.024a2.015,2.015,0,0,1,2.378.85" transform="translate(-5861.801 -4900.196)" fill="#e5cc51"/>
    <path id="Контур_1007" data-name="Контур 1007" d="M240.832,431.307a4.053,4.053,0,0,1,1.095-.245c.472-.06.942-.121,1.414-.18a.747.747,0,0,0-.183.253q-.5,1.116-1,2.233a1.517,1.517,0,0,1-.406.614,1.28,1.28,0,0,1-.721.2,8.993,8.993,0,0,1-1.621-.062l.125-.475a2.332,2.332,0,0,1,1.3-2.335" transform="translate(-5861.948 -4901.649)" fill="#e5cc51"/>
    <path id="Контур_1009" data-name="Контур 1009" d="M238.059,426.36a4.424,4.424,0,0,1,.875-.764l1.185-.863a.819.819,0,0,0-.056.315q.015,1.245.032,2.49a1.647,1.647,0,0,1-.106.751,1.408,1.408,0,0,1-.561.532,9.463,9.463,0,0,1-1.472.752l-.086-.486a2.478,2.478,0,0,1,.19-2.728" transform="translate(-5862.764 -4904.346)" fill="#e5cc51"/>
    <path id="Контур_1011" data-name="Контур 1011" d="M212.754,443.038a5.266,5.266,0,0,1,0,1.223c-.04.516-.078,1.033-.118,1.549a.765.765,0,0,0-.191-.245l-1.8-1.521a1.489,1.489,0,0,1-.47-.558,1.635,1.635,0,0,1-.033-.81,11.229,11.229,0,0,1,.378-1.726l.4.229a2.2,2.2,0,0,1,1.836,1.859" transform="translate(-5874.798 -4897.233)" fill="#c1ac30"/>
    <path id="Контур_1013" data-name="Контур 1013" d="M212.886,438.449a4.071,4.071,0,0,1,1.089.278l1.352.482a.7.7,0,0,0-.262.147l-1.765,1.571a1.344,1.344,0,0,1-.6.373,1.256,1.256,0,0,1-.728-.151,9.506,9.506,0,0,1-1.45-.8l.295-.374a2.117,2.117,0,0,1,2.073-1.528" transform="translate(-5874.618 -4898.333)" fill="#c1ac30"/>
    <path id="Контур_1015" data-name="Контур 1015" d="M212.331,432.645a4.046,4.046,0,0,1,1.088-.293l1.407-.245a.748.748,0,0,0-.173.262q-.462,1.137-.921,2.277a1.539,1.539,0,0,1-.385.632,1.282,1.282,0,0,1-.712.229,9.027,9.027,0,0,1-1.626.012l.109-.48a2.354,2.354,0,0,1,1.213-2.392" transform="translate(-5874.403 -4901.112)" fill="#c1ac30"/>
    <path id="Контур_1017" data-name="Контур 1017" d="M254.586,413.143a4.2,4.2,0,0,0,.9-.68l1.07-.968a.655.655,0,0,1-.293-.027q-1.09-.358-2.181-.714a1,1,0,0,0-1.3.327,10.078,10.078,0,0,0-1.046,1.289l.4.22a2.038,2.038,0,0,0,2.448.554" transform="translate(-5856.542 -4910.527)" fill="#c1ac30"/>
    <path id="Контур_1019" data-name="Контур 1019" d="M260.671,435.277a3.887,3.887,0,0,0,1.08-.191l1.347-.371a.71.71,0,0,1-.253-.164l-1.689-1.669a1.419,1.419,0,0,0-.584-.409,1.227,1.227,0,0,0-.722.094,9.01,9.01,0,0,0-1.452.672l.279.39a2.2,2.2,0,0,0,1.994,1.649" transform="translate(-5853.62 -4900.962)" fill="#d1c042"/>
    <path id="Контур_1021" data-name="Контур 1021" d="M260.671,463.22a3.887,3.887,0,0,0,1.08-.191l1.347-.373a.708.708,0,0,1-.253-.163l-1.689-1.669a1.419,1.419,0,0,0-.584-.409,1.216,1.216,0,0,0-.722.094,9,9,0,0,0-1.452.672l.279.39a2.2,2.2,0,0,0,1.994,1.649" transform="translate(-5853.62 -4888.708)" fill="#d1c042"/>
    <path id="Контур_1023" data-name="Контур 1023" d="M203.9,478.583a4.721,4.721,0,0,0-1.311-.148l-1.67-.029a.891.891,0,0,1,.246.276q.742,1.258,1.482,2.515a1.837,1.837,0,0,0,.56.676,1.486,1.486,0,0,0,.866.138,10.309,10.309,0,0,0,1.88-.283l-.213-.548a2.811,2.811,0,0,0-1.84-2.6" transform="translate(-5878.83 -4880.807)" fill="#d1c042"/>
    <path id="Контур_1025" data-name="Контур 1025" d="M206.973,477.612a5.329,5.329,0,0,0-.616-1.151q-.449-.69-.9-1.382a.949.949,0,0,1-.053.354l-.909,2.588a1.878,1.878,0,0,0-.155.827,1.668,1.668,0,0,0,.38.783,11,11,0,0,0,1.223,1.381l.259-.473a2.789,2.789,0,0,0,.768-2.926" transform="translate(-5877.329 -4882.267)" fill="#d1c042"/>
    <path id="Контур_1027" data-name="Контур 1027" d="M206.037,443.89a4.047,4.047,0,0,0-1-.489l-1.312-.5a.834.834,0,0,1,.129.289q.285,1.2.57,2.407a1.631,1.631,0,0,0,.281.692,1.29,1.29,0,0,0,.65.355,8.673,8.673,0,0,0,1.552.311l-.037-.492a2.483,2.483,0,0,0-.834-2.574" transform="translate(-5877.596 -4896.378)" fill="#d1c042"/>
    <path id="Контур_1029" data-name="Контур 1029" d="M194.123,458.045a4.66,4.66,0,0,0-.614.99q-.337.662-.676,1.325a.689.689,0,0,1,.282-.089l2.267-.2a1.33,1.33,0,0,0,.672-.183,1.447,1.447,0,0,0,.434-.637,11.007,11.007,0,0,0,.548-1.615l-.45-.046a2.028,2.028,0,0,0-2.463.452" transform="translate(-5882.374 -4890.039)" fill="#c1ac30"/>
    <path id="Контур_1031" data-name="Контур 1031" d="M194.593,452.324a3.841,3.841,0,0,0-1.086.154l-1.357.324a.739.739,0,0,1,.249.173q.818.863,1.637,1.726a1.425,1.425,0,0,0,.57.429,1.225,1.225,0,0,0,.725-.068,8.882,8.882,0,0,0,1.47-.623l-.266-.4a2.215,2.215,0,0,0-1.942-1.716" transform="translate(-5882.673 -4892.247)" fill="#c1ac30"/>
    <path id="Контур_1035" data-name="Контур 1035" d="M260.87,432.088a4.674,4.674,0,0,0,.614-.991q.337-.662.676-1.326a.676.676,0,0,1-.283.091l-2.269.2a1.338,1.338,0,0,0-.673.183,1.47,1.47,0,0,0-.433.639,11.022,11.022,0,0,0-.548,1.617l.45.045a2.032,2.032,0,0,0,2.466-.455" transform="translate(-5853.814 -4902.137)" fill="#d1c042"/>
    <path id="Контур_1038" data-name="Контур 1038" d="M201.144,427.669a3.033,3.033,0,0,1-1.076-1.828,5.289,5.289,0,0,1-.017-1.069c.045-.87.094-1.836.15-2.91a3.272,3.272,0,0,0,.695,1.906,7.871,7.871,0,0,0,1.345,1.318c.229.188.48.417.459.679a.683.683,0,0,1-.134.309,11.125,11.125,0,0,1-1.441,1.8Z" transform="translate(-5879.217 -4905.605)" fill="#c1ac30"/>
    <path id="Контур_1039" data-name="Контур 1039" d="M199.218,491.349a2.529,2.529,0,0,1-1.984-.147,4.5,4.5,0,0,1-.793-.623c-.613-.56-1.292-1.178-2.049-1.866a2.671,2.671,0,0,0,1.813.526,7.018,7.018,0,0,0,1.768-.394c.275-.088.593-.171.771,0a.678.678,0,0,1,.148.3,12.3,12.3,0,0,1,.466,2.341Z" transform="translate(-5881.69 -4876.287)" fill="#c1ac30"/>
    <path id="Контур_1040" data-name="Контур 1040" d="M201.036,493.893a2.63,2.63,0,0,1-1.821.876,4.076,4.076,0,0,1-.967-.15L195.643,494a2.657,2.657,0,0,0,1.83-.453,7.7,7.7,0,0,0,1.4-1.246c.207-.219.453-.453.686-.39a.6.6,0,0,1,.257.193,11.217,11.217,0,0,1,1.405,1.84Z" transform="translate(-5881.142 -4874.887)" fill="#c1ac30"/>
    <path id="Контур_1041" data-name="Контур 1041" d="M123.335,533.758v20l383.483-11.343Z" transform="translate(-5912.853 -4856.532)" fill="#c9ba2f"/>
  </g>
</svg>
