<svg xmlns="http://www.w3.org/2000/svg" xmlns:xlink="http://www.w3.org/1999/xlink" width="477.083" height="602.464" viewBox="0 0 477.083 602.464">
  <defs>
    <clipPath id="clip-path">
      <rect id="Прямоугольник_98" data-name="Прямоугольник 98" width="477.082" height="602.464" transform="translate(0 -79)" fill="none"/>
    </clipPath>
  </defs>
  <g id="left-hill" transform="translate(0 79)">
    <g id="Сгруппировать_148" data-name="Сгруппировать 148" transform="translate(0 0)" clip-path="url(#clip-path)">
      <path id="Контур_829" data-name="Контур 829" d="M103.879,506.673,75.353,170.933l7.383-16.5,30.8-36.578,46.437-11.431,82.084,34.013,58.118,16.781L411.16,360.026l29.012,107.93Z" transform="translate(-144.378 -159.952)" fill="#aaa09f"/>
      <path id="Контур_830" data-name="Контур 830" d="M342.419,344.173l-110.326-201.6c6.837,37.528,19.646,84.586,37.47,134.711,28.679,80.653,62.562,147.391,87.646,176.453l14.222-1.637Z" transform="translate(-75.637 -144.098)" fill="#a39593"/>
      <path id="Контур_831" data-name="Контур 831" d="M411.159,345.958,386.7,301.271c-2.036,8.692-23.564-13.971-28.9-7.823C322.531,334.06,184.266,157.2,184.266,157.2s-82.693,15.5-99.961-18.693l-1.569,1.863-7.383,16.5,28.527,335.74,336.291-38.717Z" transform="translate(-144.377 -145.883)" fill="#a39593"/>
      <path id="Контур_832" data-name="Контур 832" d="M55.359,491.939,358.17,457.075l-38.312-82.729L274.6,316.484l-88.182-140.89-22.23-18.188-77.359,4.756L35,178.089l9.746,50.331Z" transform="translate(-162.074 -137.594)" fill="#8e7f7b"/>
      <path id="Контур_833" data-name="Контур 833" d="M186.869,176.317l-.45-.722-22.233-18.189-77.359,4.757L35,178.09l.3,1.532a417.364,417.364,0,0,0,58.467,5.541c35.158.9,67.365-2.453,93.1-8.846" transform="translate(-162.074 -137.594)" fill="#938582"/>
      <path id="Контур_834" data-name="Контур 834" d="M319.613,366.768l-33.022-42.216a58.469,58.469,0,0,1-17.277,11.355c-60.781,26.17-163.147-44.523-225.541-147.054-2.877-4.727-5.59-9.451-8.21-14.167L44.5,220.842,55.113,484.361,357.924,449.5Z" transform="translate(-161.828 -130.016)" fill="#877874"/>
      <path id="Контур_835" data-name="Контур 835" d="M260.386,406.165c-41.642-48.8-128.241-93.637-214.937-108.2L50.777,430.3Z" transform="translate(-157.492 -75.952)" fill="#7f716e"/>
      <path id="Контур_836" data-name="Контур 836" d="M205.341,290.622s-23.43,50.751-23.529,120.923L271.65,401.2c2.457-69.485-66.309-110.579-66.309-110.579" transform="translate(-97.689 -79.171)" fill="#7f716e"/>
      <path id="Контур_837" data-name="Контур 837" d="M75.812,202.276s23.3,49.271,65.459,120.27l35.58-4.1C134.172,297.991,75.812,202.276,75.812,202.276" transform="translate(-144.176 -117.916)" fill="#877874"/>
      <path id="Контур_838" data-name="Контур 838" d="M147.847,361.238l-6.574-1.732L72.556,343.557l-45.05-20.54L9.285,306.026,0,321c1.259,35.75,6.157,75.857,16.771,111.975l166.657-19.187Z" transform="translate(-177.425 -72.415)" fill="#a39593"/>
      <path id="Контур_839" data-name="Контур 839" d="M102.775,344.406h0a341.94,341.94,0,0,0,4.795,39.6q1.476,8.256,3.254,16.121l27.534-3.171Z" transform="translate(-132.352 -55.584)" fill="#998e8d"/>
      <path id="Контур_840" data-name="Контур 840" d="M117.554,656.555l38.9-308.238,12.783-14.226,46.2-30.033,60-5.533L369.5,338.043l68.219,21.34,92.538,196.007,12.052,101.165Z" transform="translate(-125.869 -75.705)" fill="#aaa09f"/>
      <path id="Контур_841" data-name="Контур 841" d="M432.48,536.481,340.494,341.642c.167,34.836,5.62,78.961,16.6,126.4,17.67,76.331,44.853,140.555,69.475,169.6h17.962Z" transform="translate(-28.097 -56.795)" fill="#a39593"/>
      <path id="Контур_842" data-name="Контур 842" d="M530.253,545.014l-20.39-43.19c-4.441,7.691-26.074-15.168-34.042-10.138C423.2,524.919,291.167,349.644,291.167,349.644s-105.766,5.433-119.58-27.459l-2.354,1.531L156.45,337.942l-38.9,308.238H542.305Z" transform="translate(-125.87 -65.328)" fill="#a39593"/>
      <path id="Контур_843" data-name="Контур 843" d="M59.417,637.807H441.881L412.75,558.58l-43.227-57.344-78-137.326-23.493-18.864-96.791-3.773-67.66,9.056.939,46.781Z" transform="translate(-151.366 -56.957)" fill="#8e7f7b"/>
      <path id="Контур_844" data-name="Контур 844" d="M278.461,364.614l-.4-.7-23.493-18.862-96.791-3.773-67.658,9.054.027,1.426A669.15,669.15,0,0,0,161.28,362.91c43.314,4.5,83.914,4.822,117.181,1.7" transform="translate(-137.902 -56.957)" fill="#938582"/>
      <path id="Контур_845" data-name="Контур 845" d="M412.749,554.638,381.212,512.8a93.622,93.622,0,0,1-23.892,8.515c-81.007,17.431-192.072-57.557-246.631-157.308-2.515-4.6-4.829-9.178-7.027-13.741l.862,42.9-45.106,240.7H441.882Z" transform="translate(-151.366 -53.014)" fill="#877874"/>
      <path id="Контур_846" data-name="Контур 846" d="M324.161,584.255C283.411,535.524,186.144,485.7,82.069,463.38L59.417,584.255Z" transform="translate(-151.366 -3.406)" fill="#7f716e"/>
      <path id="Контур_847" data-name="Контур 847" d="M282.815,472.693S242.6,516.384,226.97,580.171H340.441c18.4-62.918-57.626-107.478-57.626-107.478" transform="translate(-77.884 0.679)" fill="#7f716e"/>
      <path id="Контур_848" data-name="Контур 848" d="M133.888,379.562s17.946,47.235,54.431,116.2H233.26c-48.3-23.069-99.372-116.2-99.372-116.2" transform="translate(-118.706 -40.165)" fill="#877874"/>
      <path id="Контур_849" data-name="Контур 849" d="M551.3,511.328c-58.66-25.268-120.587-45.844-185.153-62.626l-14.857-2.264c-23.715,14.312-47.583,26.379-71.93,31.441l4.5,20.622-.775,15.657L267.226,551.79l1.057,39.9H574.16Z" transform="translate(-60.229 -10.836)" fill="#84736d"/>
      <path id="Контур_850" data-name="Контур 850" d="M389.956,496.644c47.254,4.17,90.409,3.93,121.521.19A1328.668,1328.668,0,0,0,361.789,448.7l-14.857-2.264c-23.011,13.888-46.168,25.641-69.764,30.952,28.967,8.318,68.606,15.357,112.789,19.255" transform="translate(-55.87 -10.836)" fill="#8c7d79"/>
      <path id="Контур_851" data-name="Контур 851" d="M553.567,509.186c-29.282,30.661-115.873,31.95-196.833,2.3-31.8-11.648-58.106-26.386-77-42l4.123,18.908-.774,15.656-15.857,37.633,1.056,39.9H574.161Z" transform="translate(-60.229 -0.728)" fill="#7a6a64"/>
      <path id="Контур_852" data-name="Контур 852" d="M346.753,520.5c-28.666-3.137-55.7-3.739-78.547-2.2l-.98,2.325,1.057,39.9H474.868c-16.01-16.859-66.472-33.274-128.115-40.021" transform="translate(-60.229 20.326)" fill="#756661"/>
      <path id="Контур_853" data-name="Контур 853" d="M323.879,526.231l-16.555-25.386,12.4,26.012s9.092,10.693,34.816,24.84l2.818-4.809c-25.724-7.924-33.477-20.656-33.477-20.656" transform="translate(-42.644 13.025)" fill="#6d5e5b"/>
      <path id="Контур_854" data-name="Контур 854" d="M266.491,566.272l33.36-14.714,6.587-21.724s19.8-16.984,20.235-40.073c0,0,5.451,15.158-16.459,40.195l-5.665,20.092,19.734,15.469Z" transform="translate(-60.552 8.164)" fill="#6d5e5b"/>
      <path id="Контур_855" data-name="Контур 855" d="M190.95,531.333l-7.752-2.264-81.52-21.692L50.463,483.986,31.668,466.631l-14.8,12.639c-6.344,32.634-9.146,69.611-3.995,103.561h210.5Z" transform="translate(-172.953 -1.98)" fill="#a39593"/>
      <path id="Контур_856" data-name="Контур 856" d="M136.7,511.608h0a230.389,230.389,0,0,0-2.815,36.5c0,5.107.163,10.113.462,15h34.777Z" transform="translate(-118.707 17.745)" fill="#998e8d"/>
    </g>
  </g>
</svg>
