<svg xmlns="http://www.w3.org/2000/svg" xmlns:xlink="http://www.w3.org/1999/xlink" width="909.488" height="303.868" viewBox="0 0 909.488 303.868">
  <defs>
    <clipPath id="clip-path">
      <rect id="Прямоугольник_84" data-name="Прямоугольник 84" width="189.791" height="112.743" fill="none"/>
    </clipPath>
  </defs>
  <g id="loop-fish" transform="translate(20.199 -2279.256)">
    <g id="Сгруппировать_211" data-name="Сгруппировать 211" transform="translate(699.498 2279.256)" opacity="0.5" style="mix-blend-mode: multiply;isolation: isolate">
      <g id="Сгруппировать_120" data-name="Сгруппировать 120">
        <g id="Сгруппировать_119" data-name="Сгруппировать 119" clip-path="url(#clip-path)">
          <path id="Контур_735" data-name="Контур 735" d="M113.746,853.865a49.784,49.784,0,0,1,2.134,26.917,1.161,1.161,0,0,0,1.683,1.294c2.682-1.4,22.206-13.262,18.127-16.111-5.675-5.839-12.848-10.144-20.267-13.391-.812-.355-2.061.245-1.678,1.291" transform="translate(-37.744 -850.309)" fill="#43c8e3"/>
          <path id="Контур_736" data-name="Контур 736" d="M142.678,866.944c8.456,7.569,22.228,9.478,33.169,8.655,11.135-.837,21.6-5.6,28.864-14.2a1.094,1.094,0,0,0,.118-.209.917.917,0,0,0,.082-1.127c-8.028-10.384-25.9-13.383-37.583-8.647-8.147,3.3-16.922,7.843-23.617,13.6-.925.8-1.477,1.525-1.034,1.922" transform="translate(-47.322 -849.234)" fill="#43c8e3"/>
          <path id="Контур_737" data-name="Контур 737" d="M207.744,864.052a32.982,32.982,0,0,1,3.495-12.786c6.109,1.656,11.684,4.821,15.281,9.474a.916.916,0,0,1-.081,1.127,1.137,1.137,0,0,1-.119.209,39.8,39.8,0,0,1-17.963,12.016,31.2,31.2,0,0,1-.613-10.041" transform="translate(-68.931 -849.909)" fill="#43c8e3"/>
          <path id="Контур_738" data-name="Контур 738" d="M58.161,916.458a36.392,36.392,0,0,1,1.56,19.679.849.849,0,0,0,1.231.946c1.96-1.025,16.234-9.7,13.252-11.778a46.459,46.459,0,0,0-14.816-9.79c-.594-.26-1.507.179-1.227.943" transform="translate(-19.294 -871.216)" fill="#43c8e3"/>
          <path id="Контур_739" data-name="Контур 739" d="M79.313,926.02c6.181,5.533,16.251,6.929,24.249,6.328a30.273,30.273,0,0,0,21.1-10.38.786.786,0,0,0,.087-.153.67.67,0,0,0,.06-.824c-5.869-7.591-18.932-9.784-27.476-6.322-5.956,2.415-12.371,5.734-17.266,9.945-.677.582-1.079,1.115-.756,1.4" transform="translate(-26.297 -870.431)" fill="#43c8e3"/>
          <path id="Контур_740" data-name="Контур 740" d="M126.881,923.906a24.121,24.121,0,0,1,2.555-9.348,20.873,20.873,0,0,1,11.172,6.927.669.669,0,0,1-.06.824.782.782,0,0,1-.086.153,29.1,29.1,0,0,1-13.133,8.784,22.821,22.821,0,0,1-.448-7.34" transform="translate(-42.094 -870.924)" fill="#43c8e3"/>
          <path id="Контур_741" data-name="Контур 741" d="M194.638,902.7a36.39,36.39,0,0,1,1.56,19.678.849.849,0,0,0,1.231.947c1.96-1.025,16.234-9.7,13.252-11.779a46.447,46.447,0,0,0-14.816-9.789c-.594-.26-1.507.179-1.227.943" transform="translate(-64.609 -866.649)" fill="#43c8e3"/>
          <path id="Контур_742" data-name="Контур 742" d="M215.79,912.264c6.181,5.533,16.251,6.929,24.249,6.328a30.27,30.27,0,0,0,21.1-10.38.813.813,0,0,0,.087-.152.67.67,0,0,0,.059-.824c-5.869-7.591-18.932-9.784-27.475-6.322-5.956,2.414-12.371,5.734-17.266,9.945-.677.583-1.079,1.115-.756,1.405" transform="translate(-71.612 -865.863)" fill="#43c8e3"/>
          <path id="Контур_743" data-name="Контур 743" d="M263.357,910.149a24.122,24.122,0,0,1,2.555-9.347,20.872,20.872,0,0,1,11.172,6.926.669.669,0,0,1-.059.824.816.816,0,0,1-.087.153,29.1,29.1,0,0,1-13.132,8.784,22.822,22.822,0,0,1-.448-7.34" transform="translate(-87.409 -866.356)" fill="#43c8e3"/>
          <path id="Контур_744" data-name="Контур 744" d="M89.411,987.826a34.841,34.841,0,0,1,1.494,18.837.812.812,0,0,0,1.178.906c1.877-.981,15.54-9.282,12.685-11.275a44.464,44.464,0,0,0-14.182-9.372c-.568-.249-1.442.172-1.175.9" transform="translate(-29.671 -894.928)" fill="#43c8e3"/>
          <path id="Контур_745" data-name="Контур 745" d="M109.659,996.98c5.918,5.3,15.556,6.633,23.213,6.057a28.976,28.976,0,0,0,20.2-9.936.849.849,0,0,0,.083-.146.642.642,0,0,0,.057-.789c-5.618-7.267-18.123-9.366-26.3-6.051-5.7,2.311-11.843,5.489-16.527,9.52-.647.557-1.034,1.067-.724,1.345" transform="translate(-36.374 -894.175)" fill="#43c8e3"/>
          <path id="Контур_746" data-name="Контур 746" d="M155.194,994.956a23.088,23.088,0,0,1,2.446-8.948,19.981,19.981,0,0,1,10.694,6.631.641.641,0,0,1-.057.788.73.73,0,0,1-.083.146,27.846,27.846,0,0,1-12.572,8.409,21.825,21.825,0,0,1-.428-7.026" transform="translate(-51.496 -894.648)" fill="#43c8e3"/>
          <path id="Контур_747" data-name="Контур 747" d="M158.6,951.536a25.007,25.007,0,0,1,1.072,13.525.584.584,0,0,0,.846.651c1.347-.7,11.158-6.664,9.108-8.1a31.943,31.943,0,0,0-10.183-6.728c-.408-.178-1.036.124-.844.649" transform="translate(-52.65 -882.969)" fill="#43c8e3"/>
          <path id="Контур_748" data-name="Контур 748" d="M173.142,958.108c4.248,3.8,11.169,4.763,16.666,4.349a20.805,20.805,0,0,0,14.5-7.134.61.61,0,0,0,.059-.1.461.461,0,0,0,.041-.566c-4.033-5.217-13.012-6.725-18.884-4.344a43.847,43.847,0,0,0-11.866,6.835c-.465.4-.742.766-.52.966" transform="translate(-57.463 -882.429)" fill="#43c8e3"/>
          <path id="Контур_749" data-name="Контур 749" d="M205.835,956.655a16.581,16.581,0,0,1,1.756-6.425,14.349,14.349,0,0,1,7.678,4.761.461.461,0,0,1-.041.566.573.573,0,0,1-.059.1,19.993,19.993,0,0,1-9.026,6.038,15.686,15.686,0,0,1-.307-5.045" transform="translate(-68.32 -882.768)" fill="#43c8e3"/>
          <path id="Контур_750" data-name="Контур 750" d="M.036,875.315A25.026,25.026,0,0,1,1.108,888.84a.583.583,0,0,0,.846.65c1.348-.7,11.157-6.664,9.108-8.1A31.93,31.93,0,0,0,.88,874.666c-.409-.178-1.036.123-.844.649" transform="translate(0 -857.661)" fill="#43c8e3"/>
          <path id="Контур_751" data-name="Контур 751" d="M14.573,881.888c4.249,3.8,11.169,4.763,16.666,4.349a20.806,20.806,0,0,0,14.5-7.135.53.53,0,0,0,.059-.1.46.46,0,0,0,.042-.566c-4.034-5.218-13.013-6.725-18.885-4.344a43.871,43.871,0,0,0-11.866,6.835c-.465.4-.742.766-.52.966" transform="translate(-4.813 -857.121)" fill="#43c8e3"/>
          <path id="Контур_752" data-name="Контур 752" d="M47.266,880.434a16.584,16.584,0,0,1,1.756-6.425A14.346,14.346,0,0,1,56.7,878.77a.46.46,0,0,1-.041.566.528.528,0,0,1-.059.1,20,20,0,0,1-9.026,6.038,15.665,15.665,0,0,1-.308-5.045" transform="translate(-15.67 -857.46)" fill="#43c8e3"/>
        </g>
      </g>
    </g>
    <g id="XMLID_72_" transform="translate(-20.199 2378.875)">
      <g id="XMLID_678_">
        <path id="XMLID_695_" d="M217.526,259.4c4.786,2.735,10.084,6.153,12.648,11.281a92.834,92.834,0,0,1,16.921-.855,35.854,35.854,0,0,0-2.393-8.033c3.589,1.538,6.324,5.128,8.2,8.888,5.469,1.709,11.452,5.982,11.281,11.964,0,4.615-6.153,4.273-11.452,2.735-2.735,1.538-5.64,3.247-8.888,2.735.342-1.025,1.88-2.906,3.247-4.615a19.232,19.232,0,0,1-2.564-1.2c-2.906-1.709-5.64-3.76-8.375-5.64-1.538-1.026-4.1-3.931-5.811-4.273-3.418-.855-10.255,1.88-13.845,2.564C217.867,269.655,217.184,264.528,217.526,259.4Z" transform="translate(-178.898 -259.4)" fill="#0896b2"/>
        <path id="XMLID_694_" d="M250.726,290.5c4.786,2.735,10.084,6.153,12.648,11.281a92.835,92.835,0,0,1,16.921-.855,35.853,35.853,0,0,0-2.393-8.033c3.589,1.538,6.324,5.128,8.2,8.888,5.469,1.709,11.452,5.982,11.281,11.964,0,4.615-6.153,4.273-11.452,2.735-2.735,1.538-5.64,3.247-8.888,2.735.342-1.026,1.88-2.906,3.247-4.615a19.217,19.217,0,0,1-2.564-1.2c-2.906-1.709-5.64-3.76-8.375-5.64-1.538-1.026-4.1-3.931-5.811-4.273-3.418-.855-10.255,1.88-13.845,2.564C251.067,300.755,250.384,295.628,250.726,290.5Z" transform="translate(-155.352 -237.344)" fill="#0896b2"/>
        <path id="XMLID_693_" d="M238.642,318.948c3.589.855,7.52,2.051,9.572,4.615a104.766,104.766,0,0,1,11.964-3.418,14.963,14.963,0,0,0-2.051-4.444,9.475,9.475,0,0,1,6.324,4.1c3.931,0,8.546,1.709,8.546,5.3.171,2.735-4.1,3.589-8.033,3.589-1.88,1.367-3.931,2.906-6.324,3.077a21.938,21.938,0,0,1,2.051-3.418,12.76,12.76,0,0,1-1.88-.342c-2.222-.513-4.273-1.367-6.324-2.051-1.026-.342-3.077-1.709-4.444-1.709-2.393.171-7.179,2.906-9.742,3.931C239.326,325.271,238.642,322.195,238.642,318.948Z" transform="translate(-163.437 -219.472)" fill="#0896b2"/>
        <path id="XMLID_692_" d="M277.48,323.8c3.418,1.367,7.008,3.247,8.717,6.153a77.4,77.4,0,0,1,12.477-1.367,15.393,15.393,0,0,0-1.367-4.786,9.255,9.255,0,0,1,5.469,4.957c3.931.684,8.2,3.077,7.52,6.666-.342,2.735-4.615,2.906-8.546,2.222-2.051,1.026-4.273,2.222-6.666,2.051a28.151,28.151,0,0,1,2.564-2.906,11.271,11.271,0,0,1-1.88-.684,62.421,62.421,0,0,1-5.811-3.077c-1.026-.513-2.906-2.222-4.1-2.393-2.393-.342-7.691,1.538-10.255,2.222C277.138,330.124,276.967,327.048,277.48,323.8Z" transform="translate(-136.984 -213.727)" fill="#0896b2"/>
        <path id="XMLID_691_" d="M282.48,287.9c3.418,1.367,7.008,3.247,8.717,6.153a77.4,77.4,0,0,1,12.477-1.367,15.394,15.394,0,0,0-1.367-4.786,9.255,9.255,0,0,1,5.469,4.957c3.931.684,8.2,3.077,7.521,6.666-.342,2.735-4.615,2.906-8.546,2.222-2.051,1.026-4.273,2.222-6.666,2.051a28.149,28.149,0,0,1,2.564-2.906,11.283,11.283,0,0,1-1.88-.684,62.436,62.436,0,0,1-5.811-3.077c-1.026-.513-2.906-2.222-4.1-2.393-2.393-.342-7.691,1.538-10.255,2.222C282.138,294.224,281.967,290.977,282.48,287.9Z" transform="translate(-133.438 -239.188)" fill="#0896b2"/>
        <path id="XMLID_690_" d="M295.1,342.577c2.735.513,5.811,1.367,7.52,3.418a91.306,91.306,0,0,1,8.888-3.077,13.358,13.358,0,0,0-1.88-3.418c2.051.171,3.76,1.538,5.128,2.906,3.077,0,6.666,1.026,6.837,3.931.342,2.222-2.906,2.906-5.982,3.077-1.367,1.2-2.735,2.393-4.615,2.564a13.252,13.252,0,0,1,1.367-2.735c-.684,0-1.2-.171-1.538-.171-1.709-.342-3.247-.855-4.957-1.367-.855-.171-2.564-1.2-3.418-1.2-1.88.171-5.3,2.393-7.179,3.247C295.955,347.362,295.271,344.969,295.1,342.577Z" transform="translate(-123.154 -202.593)" fill="#0896b2"/>
        <path id="XMLID_689_" d="M272.4,354.977c2.735.513,5.811,1.367,7.52,3.418a91.325,91.325,0,0,1,8.888-3.077,13.357,13.357,0,0,0-1.88-3.418c2.051.171,3.76,1.538,5.128,2.906,3.077,0,6.666,1.026,6.837,3.931.342,2.222-2.906,2.906-5.982,3.077-1.367,1.2-2.735,2.393-4.615,2.564a13.249,13.249,0,0,1,1.367-2.735c-.684,0-1.2-.171-1.538-.171-1.709-.342-3.247-.855-4.957-1.367-.855-.171-2.564-1.2-3.418-1.2-1.88.171-5.3,2.393-7.179,3.247C273.255,359.933,272.571,357.54,272.4,354.977Z" transform="translate(-139.253 -193.799)" fill="#0896b2"/>
        <path id="XMLID_688_" d="M330.2,347.277c2.735.513,5.811,1.367,7.52,3.418a91.318,91.318,0,0,1,8.888-3.077,13.357,13.357,0,0,0-1.88-3.418c2.051.171,3.76,1.538,5.128,2.906,3.077,0,6.666,1.026,6.837,3.931.342,2.222-2.906,2.906-5.982,3.077-1.367,1.2-2.735,2.393-4.615,2.564a13.252,13.252,0,0,1,1.367-2.735c-.684,0-1.2-.171-1.538-.171-1.709-.342-3.247-.855-4.957-1.367-.855-.171-2.564-1.2-3.418-1.2-1.88.171-5.3,2.393-7.179,3.247C331.225,352.062,330.542,349.669,330.2,347.277Z" transform="translate(-98.261 -199.26)" fill="#0896b2"/>
        <path id="XMLID_687_" d="M319.6,370.81c2.906,0,5.982,0,8.2,1.709a55.293,55.293,0,0,1,8.033-4.786,13.613,13.613,0,0,0-2.564-2.906c2.051-.342,3.931.684,5.64,1.88,2.906-.684,6.666-.342,7.52,2.393.855,2.051-2.222,3.418-5.128,4.273a9.96,9.96,0,0,1-3.931,3.589,9.887,9.887,0,0,1,.855-2.906,5.886,5.886,0,0,1-1.538.171c-1.709,0-3.418-.171-5.128-.342-.855,0-2.735-.684-3.589-.342-1.709.513-4.615,3.589-6.324,4.786C321.48,375.425,320.284,373.2,319.6,370.81Z" transform="translate(-105.779 -184.678)" fill="#0896b2"/>
        <path id="XMLID_686_" d="M281.7,377.674c2.735-.171,5.982-.342,8.2,1.2a47.3,47.3,0,0,1,7.691-5.3,13.809,13.809,0,0,0-2.735-2.735,8.013,8.013,0,0,1,5.64,1.367c2.906-.855,6.666-.855,7.691,1.88.855,2.051-2.051,3.589-4.786,4.615-1.026,1.538-1.88,3.077-3.589,3.76a11.533,11.533,0,0,1,.513-2.906,5.5,5.5,0,0,1-1.367.171c-1.709.171-3.418,0-5.128,0-.855,0-2.735-.513-3.589-.171-1.709.684-4.444,3.76-5.982,5.128C284.093,381.947,282.726,379.9,281.7,377.674Z" transform="translate(-132.658 -180.432)" fill="#0896b2"/>
        <path id="XMLID_685_" d="M309.126,310.064c3.247.855,6.837,1.88,8.546,4.1a93.44,93.44,0,0,1,11.964-2.735,12,12,0,0,0-1.367-3.931,7.876,7.876,0,0,1,5.469,3.589c3.76.171,7.862,1.538,7.521,4.615-.171,2.393-4.444,3.077-8.2,3.077-2.051,1.2-4.1,2.564-6.324,2.564.342-.513,1.367-1.709,2.393-2.906a9.614,9.614,0,0,1-1.709-.342c-2.051-.513-3.76-1.2-5.64-1.709-1.026-.342-2.735-1.538-3.931-1.367-2.393,0-7.35,2.393-9.742,3.247C308.955,315.533,308.784,312.969,309.126,310.064Z" transform="translate(-113.935 -225.287)" fill="#0896b2"/>
        <path id="XMLID_684_" d="M344.313,324.631c2.564.342,5.469.684,7.008,2.393,2.906-1.2,5.811-2.393,8.717-3.418A11.968,11.968,0,0,0,358.5,320.7a6.618,6.618,0,0,1,4.615,2.222c2.906-.342,6.153.342,6.153,2.906.171,1.88-3.077,2.735-5.982,3.077a10.713,10.713,0,0,1-4.615,2.735,10.748,10.748,0,0,1,1.538-2.393h-1.367a43.728,43.728,0,0,1-4.615-.855c-.855-.171-2.222-.855-3.247-.684-1.709.342-5.3,2.564-7.179,3.418C344.826,328.733,344.313,326.853,344.313,324.631Z" transform="translate(-88.616 -215.926)" fill="#0896b2"/>
        <path id="XMLID_683_" d="M369.7,344.445c1.709,0,3.76,0,5.128,1.026a48.249,48.249,0,0,1,4.957-3.077,17.016,17.016,0,0,0-1.709-1.88,4.834,4.834,0,0,1,3.589,1.2c1.88-.513,4.273-.171,4.957,1.538.513,1.367-1.2,2.222-3.077,2.735-.684.855-1.2,1.88-2.222,2.222a11.162,11.162,0,0,1,.342-1.88,7.4,7.4,0,0,0-.855.171c-1.026,0-2.222-.171-3.247-.171a9.747,9.747,0,0,0-2.222-.171c-1.026.342-2.735,2.222-3.76,3.077A19.956,19.956,0,0,0,369.7,344.445Z" transform="translate(-70.248 -201.897)" fill="#0896b2"/>
        <path id="XMLID_682_" d="M369.471,321.913c1.709.684,3.418,1.367,4.444,2.906a32.638,32.638,0,0,1,5.64-1.026,7.238,7.238,0,0,0-1.026-2.393,5.692,5.692,0,0,1,2.906,2.393c1.88.171,3.931,1.367,3.931,3.077,0,1.367-1.88,1.538-3.76,1.367a4,4,0,0,1-2.906,1.2,5.937,5.937,0,0,1,1.026-1.538,1.858,1.858,0,0,0-.855-.171,22.249,22.249,0,0,1-2.906-1.367c-.513-.171-1.538-1.026-2.051-1.026-1.2,0-3.418,1.026-4.615,1.367C369.813,325.16,369.471,323.622,369.471,321.913Z" transform="translate(-70.532 -215.43)" fill="#0896b2"/>
        <path id="XMLID_681_" d="M392.671,325.313c1.709.684,3.418,1.367,4.444,2.906a32.638,32.638,0,0,1,5.64-1.026,7.238,7.238,0,0,0-1.026-2.393,5.692,5.692,0,0,1,2.906,2.393c1.88.171,3.931,1.367,3.931,3.077,0,1.367-1.88,1.538-3.76,1.367a4,4,0,0,1-2.906,1.2,5.937,5.937,0,0,1,1.026-1.538,1.858,1.858,0,0,0-.855-.171,22.257,22.257,0,0,1-2.906-1.367c-.513-.171-1.538-1.026-2.051-1.026-1.2,0-3.418,1.026-4.615,1.367A22.03,22.03,0,0,0,392.671,325.313Z" transform="translate(-54.078 -213.018)" fill="#0896b2"/>
        <path id="XMLID_680_" d="M231.1,339.638c4.957,2.051,10.426,4.444,13.845,9.23a98.769,98.769,0,0,1,15.725-3.247,50.081,50.081,0,0,0-3.589-7.52c3.589,1.026,6.837,4.1,9.23,7.52,5.469.855,11.964,4.273,12.648,10.084.684,4.444-4.957,4.957-10.426,4.273-2.393,1.88-4.786,3.931-8.033,3.931a22.384,22.384,0,0,1,2.222-4.957,10.939,10.939,0,0,1-2.564-.855c-3.077-1.2-5.982-2.906-8.888-4.273-1.538-.684-4.615-3.247-6.324-3.418-3.247-.342-9.4,3.247-12.477,4.444C233.322,349.723,231.784,344.766,231.1,339.638Z" transform="translate(-168.543 -203.586)" fill="#0896b2"/>
        <path id="XMLID_679_" d="M196.038,285.1c5.982,3.418,12.648,7.691,15.9,14.186a126.985,126.985,0,0,1,21.365-1.2,49.763,49.763,0,0,0-3.077-10.255c4.615,1.88,8.033,6.495,10.426,11.281,6.837,2.051,14.528,7.691,14.186,15.041-.171,5.811-7.691,5.3-14.528,3.589-3.589,2.051-7.179,4.1-11.281,3.418a26.476,26.476,0,0,1,4.1-5.811,30.5,30.5,0,0,1-3.247-1.538c-3.76-2.222-7.179-4.786-10.6-7.179-1.88-1.2-5.3-4.957-7.35-5.469-4.273-1.026-12.99,2.393-17.434,3.247C196.38,298.261,195.7,291.766,196.038,285.1Z" transform="translate(-194.5 -241.174)" fill="#0896b2"/>
      </g>
    </g>
  </g>
</svg>
