<svg xmlns="http://www.w3.org/2000/svg" xmlns:xlink="http://www.w3.org/1999/xlink" width="906.303" height="753.634" viewBox="0 0 906.303 753.634">
  <defs>
    <clipPath id="clip-path">
      <rect id="Прямоугольник_7" data-name="Прямоугольник 7" width="906.303" height="247.449" fill="none"/>
    </clipPath>
  </defs>
  <g id="mb-b" transform="translate(347.099 -3974.429)">
    <rect id="Прямоугольник_2307" data-name="Прямоугольник 2307" width="390" height="563.563" transform="translate(0 4164.5)" fill="#fdca90"/>
    <g id="bg-m" transform="translate(-347.099 3974.429)">
      <g id="Сгруппировать_1" data-name="Сгруппировать 1" clip-path="url(#clip-path)">
        <path id="Контур_51" data-name="Контур 51" d="M954.418,37.353c-.089-1.925-.208-3.847-.326-5.771q-1.688-1.839-3.371-3.684C899.169,32.752,848.355,43.851,797.7,54.731,739.433,67.246,680.684,79.587,621.023,81.149,560.4,82.736,501.4,70.2,443.211,53.594,386.338,37.36,330.115,18.019,271.868,7.657,217.969-1.931,161.5-4.335,108.4,11.177q-1.944,2.851-4.014,5.6a907.322,907.322,0,0,0-.336,91.387q.758,16.06,2.086,32.082c.745,8.981.569,19.186,3.4,27.791,2.2,6.7,7.645,10.478,13.476,13.482a217.508,217.508,0,0,0,24.344,10.563c68.563,25.29,143.266,18.821,214.388,13.19q123.679-9.791,247.644-14.812,123.3-4.938,246.72-5.045c20.134-.017,40.4.853,60.515.156,6.54-.226,13.542-1.233,18.65-5.886,5.476-4.989,7.171-12.781,8.725-19.854a470.842,470.842,0,0,0,10.42-122.477" transform="translate(-78.211 0)" fill="#fee2a3"/>
        <path id="Контур_52" data-name="Контур 52" d="M900.9,212.564c-4.838-.426-9.717-.553-14.573-.524a341.2,341.2,0,0,0-47.1,3.735c-32.326,4.708-63.987,13.338-95.272,22.88-63.962,19.51-127.532,42.9-194.638,46.749-72.475,4.155-144.239-11.013-214.986-25.412-66.886-13.614-134.8-26.725-203.269-23.014-32.952,1.786-66,7.525-97.111,19.214-11.985,4.5-24.162,10.866-29.912,23.424s-4.3,27.244-2.081,40.523C4.2,333.623,6.7,347.844,13.1,359.957c6.49,12.283,17.054,19.3,30.155,21.831,16.33,3.158,33.523,3.093,50.07,4.11q27.127,1.666,54.274,2.952c73.69,3.535,147.447,5.442,221.181,7.683Q479.69,399.9,590.6,403.286c73.279,2.236,146.676,4.786,219.942.712,14.055-.781,28.977-1.271,41.85-7.9s20.24-19.313,25.6-32.689c12.789-31.892,20.914-66.216,25.2-100.446q2.507-20.027,3.111-40.23a87.48,87.48,0,0,1-5.407-10.172" transform="translate(-90.065 -185.371)" fill="#fdca90"/>
      </g>
    </g>
  </g>
</svg>
