<svg xmlns="http://www.w3.org/2000/svg" width="235.381" height="134.381" viewBox="0 0 235.381 134.381">
  <g id="mobile-fish" transform="translate(1.384 -3.108) rotate(1)" opacity="0.503">
    <path id="XMLID_695_" d="M30.875,0C27.708,1.809,24.2,4.071,22.506,7.464a61.422,61.422,0,0,0-11.2-.565,23.722,23.722,0,0,1,1.583-5.315C10.519,2.6,8.71,4.976,7.466,7.464,3.847,8.595-.111,11.422,0,15.38c0,3.053,4.071,2.827,7.577,1.809,1.809,1.018,3.732,2.149,5.88,1.809a15.465,15.465,0,0,0-2.149-3.053,12.726,12.726,0,0,0,1.7-.792c1.922-1.131,3.732-2.488,5.541-3.732,1.018-.679,2.714-2.6,3.845-2.827,2.262-.565,6.785,1.244,9.16,1.7C30.649,6.785,31.1,3.393,30.875,0Z" transform="translate(178.108 0)" fill="#059fb6"/>
    <path id="XMLID_694_" d="M30.875,0C27.708,1.809,24.2,4.071,22.506,7.464a61.422,61.422,0,0,0-11.2-.565,23.721,23.721,0,0,1,1.583-5.315C10.519,2.6,8.71,4.976,7.466,7.464,3.847,8.595-.111,11.422,0,15.38c0,3.053,4.071,2.827,7.577,1.809,1.809,1.018,3.732,2.149,5.88,1.809a15.465,15.465,0,0,0-2.149-3.053,12.715,12.715,0,0,0,1.7-.792c1.922-1.131,3.732-2.488,5.541-3.732,1.018-.679,2.714-2.6,3.845-2.827,2.262-.565,6.785,1.244,9.16,1.7C30.649,6.785,31.1,3.393,30.875,0Z" transform="translate(140.563 35.17)" fill="#059fb6"/>
    <path id="XMLID_693_" d="M22.734,2.149C20.359,2.714,17.758,3.506,16.4,5.2A69.319,69.319,0,0,0,8.485,2.94,9.9,9.9,0,0,1,9.842,0,6.269,6.269,0,0,0,5.658,2.714C3.057,2.714,0,3.845,0,6.22-.11,8.029,2.717,8.595,5.318,8.595A8.55,8.55,0,0,0,9.5,10.63,14.513,14.513,0,0,0,8.145,8.368a8.445,8.445,0,0,0,1.244-.226c1.47-.339,2.827-.9,4.184-1.357.679-.226,2.036-1.131,2.94-1.131,1.583.113,4.75,1.922,6.446,2.6C22.281,6.333,22.734,4.3,22.734,2.149Z" transform="translate(162.049 63.667)" fill="#059fb6"/>
    <path id="XMLID_692_" d="M21.76,0C19.5.9,17.124,2.149,15.993,4.071a51.212,51.212,0,0,0-8.255-.9A10.185,10.185,0,0,1,8.643,0,6.124,6.124,0,0,0,5.024,3.28C2.423,3.732-.4,5.315.048,7.69.274,9.5,3.1,9.612,5.7,9.16a8.777,8.777,0,0,0,4.41,1.357,18.626,18.626,0,0,0-1.7-1.923A7.456,7.456,0,0,0,9.66,8.142a41.3,41.3,0,0,0,3.845-2.036c.679-.339,1.922-1.47,2.714-1.583C17.8,4.3,21.308,5.541,23,5.994,21.987,4.184,22.1,2.149,21.76,0Z" transform="translate(119.823 72.827)" fill="#059fb6"/>
    <path id="XMLID_691_" d="M21.761,0C19.5.9,17.124,2.149,15.993,4.071a51.208,51.208,0,0,0-8.255-.9A10.185,10.185,0,0,1,8.643,0,6.123,6.123,0,0,0,5.024,3.28C2.423,3.732-.4,5.315.048,7.69.274,9.5,3.1,9.612,5.7,9.16a8.777,8.777,0,0,0,4.41,1.357,18.627,18.627,0,0,0-1.7-1.922A7.463,7.463,0,0,0,9.66,8.142a41.306,41.306,0,0,0,3.845-2.036c.679-.339,1.922-1.47,2.714-1.583C17.8,4.3,21.308,5.541,23,5.994,21.987,4.184,22.1,2.036,21.761,0Z" transform="translate(114.169 32.229)" fill="#059fb6"/>
    <path id="XMLID_690_" d="M17.545,2.036c-1.809.339-3.845.9-4.976,2.262a60.412,60.412,0,0,0-5.88-2.036A8.838,8.838,0,0,1,7.932,0,5.73,5.73,0,0,0,4.54,1.922C2.5,1.922.13,2.6.016,4.523-.21,5.994,1.939,6.446,3.974,6.559a5.508,5.508,0,0,0,3.053,1.7,8.767,8.767,0,0,0-.9-1.809c.452,0,.792-.113,1.018-.113,1.131-.226,2.149-.565,3.279-.9a17.956,17.956,0,0,1,2.262-.792c1.244.113,3.506,1.583,4.75,2.149C16.979,5.2,17.432,3.619,17.545,2.036Z" transform="translate(103.231 90.582)" fill="#059fb6"/>
    <path id="XMLID_689_" d="M17.545,2.036c-1.809.339-3.845.9-4.976,2.262a60.419,60.419,0,0,0-5.88-2.036A8.838,8.838,0,0,1,7.932,0,5.73,5.73,0,0,0,4.54,1.922C2.5,1.922.13,2.6.016,4.523-.21,5.994,1.939,6.446,3.974,6.559a5.508,5.508,0,0,0,3.053,1.7,8.765,8.765,0,0,0-.9-1.809c.452,0,.792-.113,1.018-.113,1.131-.226,2.149-.565,3.279-.9a17.954,17.954,0,0,1,2.262-.792c1.244.113,3.506,1.583,4.75,2.149C16.979,5.315,17.432,3.732,17.545,2.036Z" transform="translate(128.901 104.604)" fill="#059fb6"/>
    <path id="XMLID_688_" d="M17.545,2.036c-1.809.339-3.845.9-4.976,2.262a60.42,60.42,0,0,0-5.88-2.036A8.838,8.838,0,0,1,7.932,0,5.73,5.73,0,0,0,4.54,1.922C2.5,1.922.13,2.6.016,4.523-.21,5.994,1.939,6.446,3.974,6.559a5.507,5.507,0,0,0,3.053,1.7,8.768,8.768,0,0,0-.9-1.809c.452,0,.792-.113,1.018-.113,1.131-.226,2.149-.565,3.279-.9a17.955,17.955,0,0,1,2.262-.792c1.244.113,3.506,1.583,4.75,2.149C16.866,5.2,17.319,3.619,17.545,2.036Z" transform="translate(63.538 95.897)" fill="#059fb6"/>
    <path id="XMLID_687_" d="M17.85,4c-1.922,0-3.958,0-5.428,1.131A36.584,36.584,0,0,0,7.107,1.967,9.007,9.007,0,0,1,8.8.044,5.166,5.166,0,0,0,5.072,1.288C3.149.836.661,1.062.1,2.871-.469,4.228,1.566,5.133,3.489,5.7a6.59,6.59,0,0,0,2.6,2.375,6.542,6.542,0,0,0-.565-1.922,3.894,3.894,0,0,0,1.018.113c1.131,0,2.262-.113,3.393-.226.565,0,1.809-.452,2.375-.226,1.131.339,3.053,2.375,4.184,3.166C16.606,7.055,17.4,5.585,17.85,4Z" transform="translate(75.219 119.148)" fill="#059fb6"/>
    <path id="XMLID_686_" d="M17.629,4.582c-1.809-.113-3.958-.226-5.428.792A31.3,31.3,0,0,0,7.112,1.868,9.137,9.137,0,0,1,8.921.059a5.3,5.3,0,0,0-3.732.9C3.267.4.779.4.1,2.207-.465,3.565,1.458,4.582,3.267,5.261A5.627,5.627,0,0,0,5.642,7.749,7.631,7.631,0,0,0,5.3,5.826a3.637,3.637,0,0,0,.9.113c1.131.113,2.262,0,3.393,0a8.384,8.384,0,0,1,2.375-.113c1.131.452,2.94,2.488,3.958,3.393C16.046,7.409,16.95,6.052,17.629,4.582Z" transform="translate(118.3 125.919)" fill="#059fb6"/>
    <path id="XMLID_685_" d="M21.273,1.7c-2.149.565-4.523,1.244-5.654,2.714A61.826,61.826,0,0,0,7.7,2.6a7.942,7.942,0,0,1,.9-2.6A5.211,5.211,0,0,0,4.989,2.375C2.5,2.488-.213,3.393.013,5.428c.113,1.583,2.94,2.036,5.428,2.036,1.357.792,2.714,1.7,4.184,1.7-.226-.339-.9-1.131-1.583-1.922a6.363,6.363,0,0,0,1.131-.226c1.357-.339,2.488-.792,3.732-1.131.679-.226,1.809-1.018,2.6-.9,1.583,0,4.863,1.583,6.446,2.149A28.513,28.513,0,0,1,21.273,1.7Z" transform="translate(84.123 54.394)" fill="#059fb6"/>
    <path id="XMLID_684_" d="M16.515,2.6c-1.7.226-3.619.452-4.637,1.583C9.956,3.393,8.033,2.6,6.111,1.922A7.919,7.919,0,0,1,7.129,0,4.379,4.379,0,0,0,4.075,1.47C2.153,1.244,0,1.7,0,3.393-.109,4.637,2.04,5.2,3.962,5.428A7.088,7.088,0,0,0,7.016,7.237,7.111,7.111,0,0,0,6,5.654h.9a28.93,28.93,0,0,0,3.053-.565A6.611,6.611,0,0,1,12.1,4.637c1.131.226,3.506,1.7,4.75,2.262C16.176,5.315,16.515,4.071,16.515,2.6Z" transform="translate(48.849 69.322)" fill="#059fb6"/>
    <path id="XMLID_683_" d="M11.256,2.623A5.753,5.753,0,0,0,7.864,3.3,31.922,31.922,0,0,0,4.584,1.266,11.256,11.256,0,0,1,5.715.022,3.2,3.2,0,0,0,3.34.813C2.1.474.513.7.061,1.831-.278,2.736.853,3.3,2.1,3.64c.452.565.792,1.244,1.47,1.47A7.386,7.386,0,0,0,3.34,3.867a4.9,4.9,0,0,1,.565.113c.679,0,1.47-.113,2.149-.113a6.45,6.45,0,0,1,1.47-.113,13.135,13.135,0,0,1,2.488,2.036A13.2,13.2,0,0,1,11.256,2.623Z" transform="translate(25.157 91.691)" fill="#059fb6"/>
    <path id="XMLID_682_" d="M10.517.339a5.841,5.841,0,0,0-2.94,1.922,21.6,21.6,0,0,0-3.732-.679A4.789,4.789,0,0,1,4.523,0,3.766,3.766,0,0,0,2.6,1.583C1.357,1.7,0,2.488,0,3.619c0,.9,1.244,1.018,2.488.9a2.649,2.649,0,0,0,1.922.792A3.927,3.927,0,0,0,3.732,4.3,1.229,1.229,0,0,1,4.3,4.184a14.719,14.719,0,0,0,1.922-.9C6.559,3.166,7.238,2.6,7.577,2.6a15.627,15.627,0,0,1,3.053.9A9.81,9.81,0,0,1,10.517.339Z" transform="translate(26.236 70.113)" fill="#059fb6"/>
    <path id="XMLID_681_" d="M10.517.339a5.841,5.841,0,0,0-2.94,1.922,21.593,21.593,0,0,0-3.732-.679A4.789,4.789,0,0,1,4.523,0,3.766,3.766,0,0,0,2.6,1.583C1.357,1.7,0,2.488,0,3.619c0,.9,1.244,1.018,2.488.9a2.649,2.649,0,0,0,1.922.792A3.929,3.929,0,0,0,3.732,4.3,1.229,1.229,0,0,1,4.3,4.184a14.726,14.726,0,0,0,1.922-.9C6.559,3.166,7.238,2.6,7.577,2.6a15.626,15.626,0,0,1,3.053.9A14.576,14.576,0,0,1,10.517.339Z" transform="translate(0 73.958)" fill="#059fb6"/>
    <path id="XMLID_680_" d="M31.7,1.018c-3.279,1.357-6.9,2.94-9.16,6.107a65.348,65.348,0,0,0-10.4-2.149A33.135,33.135,0,0,1,14.512,0C12.138.679,9.989,2.714,8.406,4.976,4.787,5.541.49,7.8.037,11.648c-.452,2.94,3.279,3.279,6.9,2.827,1.583,1.244,3.166,2.6,5.315,2.6a14.81,14.81,0,0,0-1.47-3.279,7.237,7.237,0,0,0,1.7-.565c2.036-.792,3.958-1.923,5.88-2.827,1.018-.452,3.053-2.149,4.184-2.262,2.149-.226,6.22,2.149,8.255,2.94C30.231,7.69,31.249,4.41,31.7,1.018Z" transform="translate(161.449 88.999)" fill="#059fb6"/>
    <path id="XMLID_679_" d="M38.909,0C34.951,2.262,30.54,5.089,28.392,9.386a84.016,84.016,0,0,0-14.136-.792,32.926,32.926,0,0,1,2.036-6.785c-3.053,1.244-5.315,4.3-6.9,7.464C4.87,10.63-.219,14.362.007,19.225.12,23.069,5.1,22.73,9.62,21.6c2.375,1.357,4.75,2.714,7.464,2.262a17.517,17.517,0,0,0-2.714-3.845A20.181,20.181,0,0,0,16.518,19c2.488-1.47,4.75-3.166,7.011-4.75,1.244-.792,3.506-3.279,4.863-3.619,2.827-.679,8.595,1.583,11.535,2.149C38.683,8.708,39.135,4.41,38.909,0Z" transform="translate(194.613 29.063)" fill="#059fb6"/>
  </g>
</svg>
