<svg xmlns="http://www.w3.org/2000/svg" xmlns:xlink="http://www.w3.org/1999/xlink" width="249.914" height="156.418" viewBox="0 0 249.914 156.418">
  <defs>
    <clipPath id="clip-path">
      <rect id="Прямоугольник_110" data-name="Прямоугольник 110" width="224.712" height="153.787" fill="none"/>
    </clipPath>
  </defs>
  <g id="raft" transform="translate(25.202)">
    <g id="Сгруппировать_171" data-name="Сгруппировать 171" clip-path="url(#clip-path)">
      <path id="Контур_1209" data-name="Контур 1209" d="M67.884,61.711a9.217,9.217,0,0,1-1.317-1.618c-.479-.888-.557-2.6-1.1-2.628-.834-.044-3.642,2.914-3.422,3.835a24.2,24.2,0,0,1,1.358,4.256l4.632.592s.988-3.56-.152-4.437" transform="translate(-10.991 -10.181)" fill="#ea875c"/>
      <path id="Контур_1210" data-name="Контур 1210" d="M69.234,61.027a10.873,10.873,0,0,1,.132,2.635c.037.534-.828.634-1.128.534s-1-2.828-.518-3.522c.31-.448,1.389.025,1.513.353" transform="translate(-11.97 -10.717)" fill="#ea875c"/>
      <path id="Контур_1211" data-name="Контур 1211" d="M63.956,61.37c-.416-.448-1.034-1.129-1.46-1.509-.339-.3.327-.9.638-1.019s1.63,1.032,1.628,1.749c0,.463-.606.995-.806.779" transform="translate(-11.056 -10.424)" fill="#ffa77b"/>
      <path id="Контур_1212" data-name="Контур 1212" d="M63.1,63.317c-.416-.448-1.034-1.129-1.46-1.509-.339-.3.327-.9.638-1.019s1.63,1.031,1.629,1.749c0,.463-.606.995-.807.779" transform="translate(-10.905 -10.769)" fill="#ffa77b"/>
      <path id="Контур_1213" data-name="Контур 1213" d="M93.78,61.024c3.6-3.909,6.975-4.531,7.464-5.331a2.652,2.652,0,0,0,.089-1.955s1.821-.266,1.51-1.732-.8-1.777-.8-1.777,1.377-.089.622-1.733a3.669,3.669,0,0,0-2.31-2,1.273,1.273,0,0,0-.444-2.088,3.359,3.359,0,0,0-3.244.355s.178-1.865-1.776-1.333A1.96,1.96,0,0,0,93.2,45.564S92,43.3,90.448,45.253s-.311,3.11-.311,3.11-1.6.044-1.155,1.465a4.777,4.777,0,0,0,2.088,2.31l.044,4.842Z" transform="translate(-15.752 -7.678)" fill="#914d2f"/>
      <path id="Контур_1214" data-name="Контур 1214" d="M96.534,48.62a3.363,3.363,0,0,0-1.656,1.593,1.019,1.019,0,0,1-.218.269c-1.236-1.367-.485-3.749-.485-3.749a9.807,9.807,0,0,0,2.514,1.82q-.079.037-.156.067" transform="translate(-16.646 -8.28)" fill="#7a3d25"/>
      <path id="Контур_1215" data-name="Контур 1215" d="M98.119,49.765a1.69,1.69,0,0,0-1.614-.123.519.519,0,0,1-.245.025A4.45,4.45,0,0,1,98.068,46.7a14.19,14.19,0,0,0,.157,3.135,1.172,1.172,0,0,1-.106-.069" transform="translate(-17.055 -8.274)" fill="#7a3d25"/>
      <path id="Контур_1216" data-name="Контур 1216" d="M102.043,50.529s1.377-.089.622-1.733a3.67,3.67,0,0,0-2.31-2,1.275,1.275,0,0,0,.006-1.769,1.22,1.22,0,0,1-1.678,1.3,3.359,3.359,0,0,1-.337,3.245,1.273,1.273,0,0,1-2.135-.007A3.667,3.667,0,0,1,93.768,51.4c-1.767.391-1.562-.974-1.562-.974s-.407.412-1.906.406a1.394,1.394,0,0,1-1.359-1.428,1.256,1.256,0,0,0,.041.721,4.777,4.777,0,0,0,2.088,2.31l.044,4.842,2.666,4.043c3.6-3.909,6.974-4.531,7.463-5.331a2.648,2.648,0,0,0,.089-1.955s1.822-.267,1.511-1.732-.8-1.777-.8-1.777" transform="translate(-15.752 -7.978)" fill="#7a3d25"/>
      <path id="Контур_1217" data-name="Контур 1217" d="M87.169,73.065c-2.261,5.417-14.25,14.419-19.34,11.863-1.4-.7.724-4.865,2.2-7.024a6.226,6.226,0,0,1,3.761-2.538s2.176-5.547,5.789-7.8,9.294,1.41,7.586,5.5" transform="translate(-11.937 -11.848)" fill="#ea875c"/>
      <path id="Контур_1218" data-name="Контур 1218" d="M65.47,65.144a1.322,1.322,0,0,0-1.691.957A26.1,26.1,0,0,0,66.567,84.35c.68.857,2.87-.564,3.787-1.337s1.528-5.087,1.656-7.162-4.149-8.664-4.346-9.481c-.113-.464-1.242-.92-2.194-1.226" transform="translate(-11.195 -11.531)" fill="#ffa77b"/>
      <path id="Контур_1219" data-name="Контур 1219" d="M69.554,70.48c.191.741.355,1.518.481,2.331.81,5.227-.157,9.715-2.161,10.026-1.205.187-2.51-1.188-3.535-3.445a21.18,21.18,0,0,0,2.431,5.914c.68.857,3.478-.128,4.395-.9s.92-5.523,1.049-7.6c.076-1.234-1.406-4.064-2.661-6.328" transform="translate(-11.399 -12.487)" fill="#ea875c"/>
      <path id="Контур_1220" data-name="Контур 1220" d="M75.112,90.43c.248-2.54,2.23-11.337,2.23-11.337a9.818,9.818,0,0,1-.186-1.735c.063-.372,3.036-10.408,4.646-10.841a45.3,45.3,0,0,1,9.478-.62c1.363.248,6.505,2.973,7.248,4.026s-1.8,8.549-5.2,11.585c-.77.686-3.221,12.142-3.221,12.142L76.723,92.412Z" transform="translate(-13.308 -11.663)" fill="#ffa77b"/>
      <path id="Контур_1221" data-name="Контур 1221" d="M99.387,69.457A25.915,25.915,0,0,0,92.611,65.9a45.415,45.415,0,0,0-9.478.62,1.151,1.151,0,0,0-.511.392c1.679,1.857,5.97,3.179,11,3.179a25.437,25.437,0,0,0,5.762-.631" transform="translate(-14.639 -11.663)" fill="#ea875c"/>
      <path id="Контур_1222" data-name="Контур 1222" d="M98.222,70.04c-.555-.787-3.563-2.505-5.618-3.429-.126.184-.253.368-.389.552-2.936,3.957-7.245,6.541-9.625,5.77-1.952-.631-2-3.323-.329-6.454-.313.05-.574.1-.765.153-1.61.434-5.142,9.044-5.2,9.416a9.74,9.74,0,0,0,.186,1.735s-2.85,11.027-3.1,13.567l3.035,1.177L89.8,93.767s2.451-11.457,3.221-12.142c3.407-3.035,5.947-10.531,5.2-11.585" transform="translate(-13.001 -11.779)" fill="#f2d9af"/>
      <path id="Контур_1223" data-name="Контур 1223" d="M90.082,70.182c-2.46,2.141-5.135,3.3-6.831,2.753-1.952-.632-2-3.324-.33-6.455-.312.051-.574.1-.765.154-1.423.383-4.344,7.145-5.047,8.973a3.48,3.48,0,0,0,1.783,1.377c2.04.724,9.411.768,9.411.768A34.742,34.742,0,0,1,93.6,70.459a26.778,26.778,0,0,1-3.513-.277" transform="translate(-13.662 -11.779)" fill="#ffecc5"/>
      <path id="Контур_1224" data-name="Контур 1224" d="M80.518,81.6c-2.064-.261-4.173,1.879-5.645,5.308-.7,2.9-1.377,5.932-1.493,7.117L76.416,95.2l8.14.754c.053-.327.1-.656.145-.991.881-6.978-.992-12.962-4.183-13.365" transform="translate(-13.001 -14.454)" fill="#ffecc5"/>
      <path id="Контур_1225" data-name="Контур 1225" d="M101.139,75.491c1.266-3.249.822-5.859-.993-5.831s-4.314,2.684-5.58,5.933-.822,5.859.993,5.831,4.314-2.685,5.58-5.933" transform="translate(-16.627 -12.342)" fill="#dd704a"/>
      <path id="Контур_1226" data-name="Контур 1226" d="M71.789,96.293c-5.027,13.525-7.159,53.563-7.159,53.563l.933.138s6.264-21.124,6.664-22.366l9.462-21.813.4-6.9Z" transform="translate(-11.451 -17.061)" fill="#ffa77b"/>
      <path id="Контур_1227" data-name="Контур 1227" d="M71.913,96.293a95.332,95.332,0,0,0-2.875,12.113l5.594,4.29s-4.125,11.277-4.388,11.628c-.217.29-3.6,19.127-4.917,25.616l.36.053s6.264-21.124,6.664-22.366l9.462-21.813.4-6.9Z" transform="translate(-11.574 -17.061)" fill="#ea875c"/>
      <path id="Контур_1228" data-name="Контур 1228" d="M79.914,112.247l-10.262-4.065a54.482,54.482,0,0,1,3-12.595,13.292,13.292,0,0,1,3.176-.178l8.085,3.643Z" transform="translate(-12.341 -16.898)" fill="#4c5a63"/>
      <path id="Контур_1229" data-name="Контур 1229" d="M72.65,95.587a54.482,54.482,0,0,0-3,12.595l4.888,1.935c.479-1.211,1.288-14.708,1.288-14.708a13.254,13.254,0,0,0-3.176.178" transform="translate(-12.34 -16.898)" fill="#5a6772"/>
      <path id="Контур_1230" data-name="Контур 1230" d="M90.44,98.852c.933,8.663.666,25.294.666,25.294s2.266,18.5,2.532,25.127h-.8s-8-20.433-8.929-23.056-6-20.432-6-20.432V96.12Z" transform="translate(-13.804 -17.03)" fill="#ffa77b"/>
      <path id="Контур_1231" data-name="Контур 1231" d="M87.569,113.982l1.93,13.01,3.646,22.28h.495c-.267-6.627-2.533-25.127-2.533-25.127s.267-16.631-.666-25.294L77.913,96.12v9.664s.686,2.413,1.6,5.59Z" transform="translate(-13.804 -17.03)" fill="#ea875c"/>
      <path id="Контур_1232" data-name="Контур 1232" d="M78.675,110.339l12.182,1.516-.237-13.9a59.423,59.423,0,0,0-13.712-2.541l-1.155,9.6,1.688,1.333Z" transform="translate(-13.421 -16.906)" fill="#5a6772"/>
      <path id="Контур_1233" data-name="Контур 1233" d="M85.92,98.849l-.517,12.34,4.989.62-.238-13.9c-4.893-1.962-12.132-3.509-16.887-2.364l-.137.341c3.165-.324,6.4-.074,12.789,2.957" transform="translate(-12.957 -16.86)" fill="#4c5a63"/>
      <path id="Контур_1234" data-name="Контур 1234" d="M102.72,71.008c2.792,4.728,2.858,17.1,2.177,18.408s-5.239-.687-6.056-3.022a27.968,27.968,0,0,1-1.088-3.847,10.138,10.138,0,0,1-1.7-6.457c.2-4.052,4.559-8.654,6.668-5.083" transform="translate(-17.015 -12.354)" fill="#ffa77b"/>
      <path id="Контур_1235" data-name="Контур 1235" d="M98.814,85.946a11.9,11.9,0,0,1,.164-3.982l-1.184,1.909Z" transform="translate(-17.327 -14.522)" fill="#ea875c"/>
      <path id="Контур_1236" data-name="Контур 1236" d="M104.06,75.558c.541,4.312.394,12.073-1.739,12.621-2.117.545-5.436-6.272-6.28-10.461a10,10,0,0,0,1.713,5.863,27.889,27.889,0,0,0,1.089,3.846c.816,2.335,5.375,4.327,6.055,3.022.547-1.05.611-9.258-.838-14.891" transform="translate(-17.016 -13.387)" fill="#ea875c"/>
      <path id="Контур_1237" data-name="Контур 1237" d="M67.925,70.207c-10.026-5.075-16.51-20.773-17.075-22.1C39.209,42.177,31.844,28.546,31.2,27.331,29.7,26.693,9.53,18.216.6.552c0,0,.694.212.81.432,9.317,17.647,29.869,25.819,30.075,25.9l.09.036.044.087c.073.144,7.517,14.6,19.544,20.673l.086.044.036.089C51.35,47.98,57.9,64.55,68.15,69.743Z" transform="translate(-0.106 -0.098)" fill="#7c3d31"/>
      <path id="Контур_1238" data-name="Контур 1238" d="M84.335,87.193c.245-1.259.987-1.636,1.6-1.579s1.934,1.262,2.568,1.394c.358.074-.978,1.254-.978,1.254Z" transform="translate(-14.942 -15.168)" fill="#ea875c"/>
      <path id="Контур_1239" data-name="Контур 1239" d="M81.679,92.038a9.123,9.123,0,0,0,1.147-.322.593.593,0,0,0,.167-.759A232.371,232.371,0,0,0,56.207,52.531,350.25,350.25,0,0,0,.356.061C.04-.164-.155.287.16.512A339.973,339.973,0,0,1,55.469,53.031C65,64.467,73.745,78.093,81.248,91.777a.479.479,0,0,0,.431.261" transform="translate(0 0)" fill="#5e3024"/>
      <path id="Контур_1240" data-name="Контур 1240" d="M38.709,32.6c-.068.232-.137.462-.2.7a326.624,326.624,0,0,1,23.785,25.5A212.38,212.38,0,0,1,77.777,80.165c.126-.75.236-1.516.32-2.307-4.771-6.865-9.862-13.4-15.068-19.551A334.623,334.623,0,0,0,38.709,32.6" transform="translate(-6.823 -5.777)" fill="#7c3d31"/>
      <path id="Контур_1241" data-name="Контур 1241" d="M96.828,107.2a1.352,1.352,0,0,1-1.133-.652L82.84,86.068a1.371,1.371,0,0,1,.337-1.871,1.286,1.286,0,0,1,1.794.453l12.854,20.478A1.374,1.374,0,0,1,97.488,107a1.184,1.184,0,0,1-.661.2" transform="translate(-14.637 -14.882)" fill="#c48145"/>
      <path id="Контур_1242" data-name="Контур 1242" d="M85.88,85.65l-.641,3.792L86.781,91.9l.642-3.792Z" transform="translate(-15.102 -15.175)" fill="#7c3d31"/>
      <path id="Контур_1243" data-name="Контур 1243" d="M88.449,89.743l-.641,3.792,1.542,2.458.642-3.792Z" transform="translate(-15.557 -15.9)" fill="#7c3d31"/>
      <path id="Контур_1244" data-name="Контур 1244" d="M91.018,93.837l-.641,3.792,1.542,2.458.642-3.792Z" transform="translate(-16.013 -16.626)" fill="#7c3d31"/>
      <path id="Контур_1245" data-name="Контур 1245" d="M93.588,97.93l-.641,3.792,1.542,2.458.642-3.792Z" transform="translate(-16.468 -17.351)" fill="#7c3d31"/>
      <path id="Контур_1246" data-name="Контур 1246" d="M96.157,102.024l-.641,3.792,1.543,2.458.641-3.792Z" transform="translate(-16.923 -18.076)" fill="#7c3d31"/>
      <path id="Контур_1247" data-name="Контур 1247" d="M98.727,106.117l-.641,3.792.35.558a1.353,1.353,0,0,0,1.133.652,1.176,1.176,0,0,0,.277-.04l.424-2.5Z" transform="translate(-17.378 -18.801)" fill="#7c3d31"/>
      <path id="Контур_1248" data-name="Контур 1248" d="M98.506,85.208a5.4,5.4,0,0,1,3.034,1.346l-2.9-.132Z" transform="translate(-17.453 -15.097)" fill="#ea875c"/>
      <path id="Контур_1249" data-name="Контур 1249" d="M85.363,90.494A23,23,0,0,0,102.825,92.5c.885-.412.113-2.619-.363-3.58s-2.724-2.5-5.852-2.954c-1.833-.264-7.743,1.152-8.492,1.152s-2.756,3.374-2.756,3.374" transform="translate(-15.124 -15.226)" fill="#ffa77b"/>
      <path id="Контур_1250" data-name="Контур 1250" d="M102.891,88.885c-.114-.229-.059-1.215-.461-1.481,0,.061-.6,1.148-.607,1.209-.125,2.25-4.531,4.471-10.011,4.167-2.016-.112-4.014-1.107-5.556-1.618a23.081,23.081,0,0,0,16.727,1.6c.885-.412.384-2.916-.092-3.878" transform="translate(-15.282 -15.486)" fill="#ea875c"/>
      <path id="Контур_1251" data-name="Контур 1251" d="M86.443,64.985c.533-1.066,3.085-5.775,3.085-5.775l5.571-.155-1.77,5.775a15.555,15.555,0,0,1-5.684,1.528c-.572.044-1.2-1.372-1.2-1.372" transform="translate(-15.316 -10.463)" fill="#dd704a"/>
      <path id="Контур_1252" data-name="Контур 1252" d="M85.429,60.658c2.128.844,6.252.754,7.016.151a96.084,96.084,0,0,0,6.572-7.453c.265-.555-1.977-4.988-3.46-5.4a5.133,5.133,0,0,0-4.526,1.56c-3.166,3.7-6.058,10.966-5.6,11.147" transform="translate(-15.127 -8.484)" fill="#ffa77b"/>
      <path id="Контур_1253" data-name="Контур 1253" d="M100.747,50.633a12.9,12.9,0,0,0-5.864,6.22l1.289,2.887s4.8-3.865,5.242-6.042-.666-3.065-.666-3.065" transform="translate(-16.811 -8.971)" fill="#7a3d25"/>
      <path id="Контур_1254" data-name="Контур 1254" d="M98.254,59.826c-.142-.572-1.058-.836-2.046-.591s-1.674.908-1.532,1.479,1.058.836,2.046.591,1.674-.908,1.533-1.479" transform="translate(-16.771 -10.479)" fill="#ffa77b"/>
      <path id="Контур_1255" data-name="Контур 1255" d="M125.287,152.234a3.874,3.874,0,0,0-2.811-2.244,3.331,3.331,0,0,0,1.944,5.734,3.875,3.875,0,0,0,.867-3.49" transform="translate(-21.524 -26.572)" fill="#e5952c"/>
      <path id="Контур_1256" data-name="Контур 1256" d="M122,153.159a2.962,2.962,0,1,0-2.962,2.962A2.962,2.962,0,0,0,122,153.159" transform="translate(-20.565 -26.611)" fill="#969327"/>
      <path id="Контур_1257" data-name="Контур 1257" d="M112,156.295s-1.343-8.529-.6-9,3.06,9.146,3.06,9.146c-.868,1.062-1.7,1.344-2.463-.143" transform="translate(-19.698 -26.093)" fill="#ce4d25"/>
      <path id="Контур_1258" data-name="Контур 1258" d="M113.666,155.807s.272-8.631,1.093-8.957,1.3,9.557,1.3,9.557c-1.051.882-1.924,1-2.393-.6" transform="translate(-20.139 -26.017)" fill="#ce4d25"/>
      <path id="Контур_1259" data-name="Контур 1259" d="M109.394,141.4l-1.162.726,15.6,2.478-.592,8.842h.395l1.58-9.338Z" transform="translate(-19.176 -25.052)" fill="#72443b"/>
      <path id="Контур_1260" data-name="Контур 1260" d="M126.965,147.077l-.494,7.373h.395l1.1-6.483Z" transform="translate(-22.408 -26.058)" fill="#935f52"/>
      <path id="Контур_1261" data-name="Контур 1261" d="M107.593,141.72s.9,14.579.9,14.723l.507.128.281-15.093Z" transform="translate(-19.063 -25.066)" fill="#935f52"/>
      <path id="Контур_1262" data-name="Контур 1262" d="M114.086,153l-10.707.724,1.558,8.293h19.417l.439-7.767Z" transform="translate(-18.316 -27.107)" fill="#e2d6a1"/>
      <path id="Контур_1263" data-name="Контур 1263" d="M114.677,153l-.922,7.635-7.043,1.382h18.232l.439-7.767Z" transform="translate(-18.907 -27.107)" fill="#d6b17b"/>
      <path id="Контур_1264" data-name="Контур 1264" d="M108.724,155.159c0-.355-.155-.642-.346-.642s-.346.287-.346.642.155.642.346.642.346-.287.346-.642" transform="translate(-19.141 -27.377)" fill="#935f52"/>
      <path id="Контур_1265" data-name="Контур 1265" d="M126.187,157.191l-1.015-.067-.105.892,1.045.079Z" transform="translate(-22.159 -27.839)" fill="#cca269"/>
      <path id="Контур_1266" data-name="Контур 1266" d="M118.092,158.756l-1.253-.082-.084.931,1.26.1Z" transform="translate(-20.686 -28.113)" fill="#cca269"/>
      <path id="Контур_1267" data-name="Контур 1267" d="M122.638,155.7l1.115.085.086-1.038-1.076-.1Z" transform="translate(-21.728 -27.399)" fill="#cca269"/>
      <path id="Контур_1268" data-name="Контур 1268" d="M119.963,155.484l1.113.085.089-1.08-1.073-.1Z" transform="translate(-21.255 -27.354)" fill="#cca269"/>
      <path id="Контур_1269" data-name="Контур 1269" d="M120.892,157.708l.071-.861-1.145-.076-.1.848Z" transform="translate(-21.211 -27.776)" fill="#cca269"/>
      <path id="Контур_1270" data-name="Контур 1270" d="M125.432,154.893l-.119,1.014.985.075.082-1Z" transform="translate(-22.202 -27.443)" fill="#cca269"/>
      <path id="Контур_1271" data-name="Контур 1271" d="M118.269,156.669l-1.238-.081-.075.827,1.244.095Z" transform="translate(-20.722 -27.744)" fill="#cca269"/>
      <path id="Контур_1272" data-name="Контур 1272" d="M123.371,160.1l.081-.987-1.205-.08-.114.973Z" transform="translate(-21.639 -28.176)" fill="#cca269"/>
      <path id="Контур_1273" data-name="Контур 1273" d="M127.828,156.106l.641.049.052-.969-.578-.055Z" transform="translate(-22.648 -27.485)" fill="#cca269"/>
      <path id="Контур_1274" data-name="Контур 1274" d="M122.495,156.948l-.1.87,1.174.09.073-.884Z" transform="translate(-21.685 -27.807)" fill="#cca269"/>
      <path id="Контур_1275" data-name="Контур 1275" d="M128.246,159.425l-.8-.053-.119,1.015.866.066Z" transform="translate(-22.559 -28.237)" fill="#cca269"/>
      <path id="Контур_1276" data-name="Контур 1276" d="M117.906,160.967l-1.268-.084-.086.949,1.277.07Z" transform="translate(-20.65 -28.505)" fill="#cca269"/>
      <path id="Контур_1277" data-name="Контур 1277" d="M118.375,155.353l.092-1.121-1.218-.115-.1,1.142Z" transform="translate(-20.755 -27.306)" fill="#cca269"/>
      <path id="Контур_1278" data-name="Контур 1278" d="M127.691,157.29l-.108.913.751.057.049-.924Z" transform="translate(-22.605 -27.868)" fill="#cca269"/>
      <path id="Контур_1279" data-name="Контур 1279" d="M120.775,158.933l-1.2-.079-.112.95,1.237.094Z" transform="translate(-21.165 -28.145)" fill="#cca269"/>
      <path id="Контур_1280" data-name="Контур 1280" d="M127.188,161.579l-.1.851.973.053.045-.843Z" transform="translate(-22.517 -28.628)" fill="#cca269"/>
      <path id="Контур_1281" data-name="Контур 1281" d="M120.5,162.054l.075-.91-1.269-.084-.109.923Z" transform="translate(-21.12 -28.536)" fill="#cca269"/>
      <path id="Контур_1282" data-name="Контур 1282" d="M123.259,161.32l-1.269-.084-.106.9,1.3.071Z" transform="translate(-21.595 -28.567)" fill="#cca269"/>
      <path id="Контур_1283" data-name="Контур 1283" d="M125.807,161.488l-1.139-.075-.1.874,1.171.063Z" transform="translate(-22.07 -28.598)" fill="#cca269"/>
      <path id="Контур_1284" data-name="Контур 1284" d="M124.925,159.206l-.117.995,1.108.084.083-1.008Z" transform="translate(-22.113 -28.208)" fill="#cca269"/>
      <path id="Контур_1285" data-name="Контур 1285" d="M106.929,157.438l1.029-.1.137.988-1.017.133Z" transform="translate(-18.945 -27.876)" fill="#d6b17b"/>
      <path id="Контур_1286" data-name="Контур 1286" d="M113.957,158.786l.927-.128-.081.823-.905.153Z" transform="translate(-20.18 -28.111)" fill="#d6b17b"/>
      <path id="Контур_1287" data-name="Контур 1287" d="M110.4,155.624l-1.075.1-.092-1.317,1.089-.095Z" transform="translate(-19.354 -27.34)" fill="#d6b17b"/>
      <path id="Контур_1288" data-name="Контур 1288" d="M112.859,155.4l-.985.089,0-1.318,1-.087Z" transform="translate(-19.821 -27.301)" fill="#d6b17b"/>
      <path id="Контур_1289" data-name="Контур 1289" d="M111.867,157.859l0-.909.978-.1-.01.879Z" transform="translate(-19.82 -27.791)" fill="#d6b17b"/>
      <path id="Контур_1290" data-name="Контур 1290" d="M107.569,154.55l.182,1.312-1.038.094-.192-1.315Z" transform="translate(-18.873 -27.383)" fill="#d6b17b"/>
      <path id="Контур_1291" data-name="Контур 1291" d="M114.1,156.729l.972-.1-.081.829-.95.124Z" transform="translate(-20.205 -27.752)" fill="#d6b17b"/>
      <path id="Контур_1292" data-name="Контур 1292" d="M109.65,160.324l-.066-.939,1.045-.143.054.908Z" transform="translate(-19.416 -28.214)" fill="#d6b17b"/>
      <path id="Контур_1293" data-name="Контур 1293" d="M105.091,156.108l-.733.067-.248-1.317.693-.06Z" transform="translate(-18.446 -27.427)" fill="#d6b17b"/>
      <path id="Контур_1294" data-name="Контур 1294" d="M110.5,157.085l.056.931-1.053.137-.067-.964Z" transform="translate(-19.389 -27.832)" fill="#d6b17b"/>
      <path id="Контур_1295" data-name="Контур 1295" d="M105.086,160.011l.814-.112.221,1-.839.142Z" transform="translate(-18.619 -28.33)" fill="#d6b17b"/>
      <path id="Контур_1296" data-name="Контур 1296" d="M113.825,160.71l.885-.153-.072.743-.864.153Z" transform="translate(-20.158 -28.447)" fill="#d6b17b"/>
      <path id="Контур_1297" data-name="Контур 1297" d="M114.193,155.283l.091-1.32,1.036-.091-.128,1.32Z" transform="translate(-20.232 -27.263)" fill="#d6b17b"/>
      <path id="Контур_1298" data-name="Контур 1298" d="M105.4,157.594l.23,1.045-.789.1-.2-1.073Z" transform="translate(-18.54 -27.922)" fill="#d6b17b"/>
      <path id="Контур_1299" data-name="Контур 1299" d="M111.863,159.075l.964-.132-.009.863-.957.161Z" transform="translate(-19.819 -28.161)" fill="#d6b17b"/>
      <path id="Контур_1300" data-name="Контур 1300" d="M106.355,162.008l.161.731-.882.157-.14-.74Z" transform="translate(-18.691 -28.704)" fill="#d6b17b"/>
      <path id="Контур_1301" data-name="Контур 1301" d="M111.855,161.792l0-.741.951-.165-.008.739Z" transform="translate(-19.818 -28.505)" fill="#d6b17b"/>
      <path id="Контур_1302" data-name="Контур 1302" d="M109.727,161.417l1.025-.178.044.736-1.018.181Z" transform="translate(-19.441 -28.568)" fill="#d6b17b"/>
      <path id="Контур_1303" data-name="Контур 1303" d="M107.567,161.793l.992-.172.1.734-.987.175Z" transform="translate(-19.058 -28.635)" fill="#d6b17b"/>
      <path id="Контур_1304" data-name="Контур 1304" d="M108.272,159.567l.132.955-1,.168-.144-.984Z" transform="translate(-19.004 -28.271)" fill="#d6b17b"/>
      <path id="Контур_1305" data-name="Контур 1305" d="M117.065,151.121a2.956,2.956,0,0,0,4.257-.036,2.956,2.956,0,0,0-4.257.036" transform="translate(-20.741 -26.611)" fill="#b5b530"/>
      <path id="Контур_1306" data-name="Контур 1306" d="M122.606,149.99a1.022,1.022,0,0,0-.392.447,3.9,3.9,0,0,0,2.763,2.129,1.022,1.022,0,0,0,.392-.447,3.9,3.9,0,0,0-2.763-2.129" transform="translate(-21.653 -26.572)" fill="#edc137"/>
      <path id="Контур_1307" data-name="Контур 1307" d="M115.29,147.755c-.137-.611-.29-.972-.457-.906-.337.134-.581,1.669-.752,3.43.122.279.267.443.421.443.436,0,.79-1.275.79-2.846,0-.041,0-.081,0-.121" transform="translate(-20.212 -26.017)" fill="#e86e38"/>
      <path id="Контур_1308" data-name="Контур 1308" d="M111.4,147.291c-.321.2-.253,1.914-.072,3.788.127.154.255.24.379.225.441-.057.648-1.287.46-2.747-.007-.058-.019-.112-.026-.169-.3-.755-.564-1.209-.741-1.1" transform="translate(-19.698 -26.093)" fill="#e86e38"/>
      <path id="Контур_1309" data-name="Контур 1309" d="M109.238,145.116c-.051-.063-.1-.125-.152-.188a14.5,14.5,0,0,0-1.388-1.453c.069,1.123.173,2.8.283,4.6a11.478,11.478,0,0,0,1.182,1.068Z" transform="translate(-19.081 -25.42)" fill="#aa7166"/>
      <path id="Контур_1310" data-name="Контур 1310" d="M134.163,155.479l-1.053-3.16,2.5.132s7.9-20.667,8.162-21.588,2.9-16.586,2.9-16.586l.921-.395s28.829,4.475,29.356,4.344,18.43-.132,18.43-.132l11.584,18.43,8.425,16.06,2.765.527.395,2.238L149.038,156.8Z" transform="translate(-23.584 -20.177)" fill="#292bb7"/>
      <path id="Контур_1311" data-name="Контур 1311" d="M145.98,131.081c3.269,5.961,8.78,7.641,12.579,7.153,4.62-.593,5.273-5.3,2.278-13.415a27.9,27.9,0,0,0-6.457-10.241c-2.709-.417-4.509-.7-4.509-.7l-.922.395s-2.632,15.665-2.9,16.586c-.012.039-.037.114-.073.219" transform="translate(-25.864 -20.177)" fill="#1c1dac"/>
      <path id="Контур_1312" data-name="Контур 1312" d="M138.349,162.089l-1.789-4.168-.891,2.334-2.229-.118Z" transform="translate(-23.642 -27.98)" fill="#0f105d"/>
      <path id="Контур_1313" data-name="Контур 1313" d="M152.442,142.359l-8.293,13.691a6.289,6.289,0,0,1,3.488,3.027l3.95-3.16Z" transform="translate(-25.54 -25.223)" fill="#1f208d"/>
      <path id="Контур_1314" data-name="Контур 1314" d="M146.869,158.091c4.607-8.03,6.055-19.22,6.055-19.22l-2.369-16.192s3.685,14.612,4.212,16.323,1.708,18.972,1.708,18.972Z" transform="translate(-26.022 -21.736)" fill="#0f105d"/>
      <path id="Контур_1315" data-name="Контур 1315" d="M151.012,114.063l11.585,22.1,8.425,19.261,2.764.632.042.281,47.744-.995-.395-2.237-2.765-.527-8.425-16.06L198.4,118.094s-17.9,0-18.429.132-29.356-4.345-29.356-4.345l-.425.182h.82" transform="translate(-26.61 -20.177)" fill="#1f208d"/>
      <path id="Контур_1316" data-name="Контур 1316" d="M221.847,157.042,179.026,159.7l45.448.708-.954-.182Z" transform="translate(-31.719 -27.824)" fill="#0f105d"/>
      <path id="Контур_1317" data-name="Контур 1317" d="M154.75,115.631c10.618,15.929,28.941,33.444,40.039,32.235,9.449-1.029,10.41-16.836,4.148-29.683-1.541,0-17.8.006-18.3.132-.428.107-19.549-2.83-26.7-3.933.264.416.531.832.81,1.25" transform="translate(-27.274 -20.266)" fill="#292bb7"/>
      <path id="Контур_1318" data-name="Контур 1318" d="M180.507,118.4c7.56,7.247,13.261,12.431,13.261,12.431l-5.639-11.877c-1.581.018-2.662.042-2.786.072s-2.046-.224-4.837-.627" transform="translate(-31.981 -20.977)" fill="#1f208d"/>
      <path id="Контур_1319" data-name="Контур 1319" d="M64.437,163.036h-7.6s-.165-.527.56-.889,2.764-.2,3.653-.494,2.106-1.744,2.831-1.777.263,1.152.527,1.711a2.393,2.393,0,0,1,.033,1.448" transform="translate(-10.067 -28.326)" fill="#ffa77b"/>
      <path id="Контур_1320" data-name="Контур 1320" d="M94.551,161.574h5.836a1.281,1.281,0,0,0-.573-1.117c-.645-.455-.718-.2-1.468-.62-1.646-.917-2.576-3.465-3.181-3.507s.307,2.808-.22,3.643a2.529,2.529,0,0,0-.395,1.6" transform="translate(-16.75 -27.698)" fill="#ffa77b"/>
      <path id="Контур_1321" data-name="Контур 1321" d="M80.333,163.454l-25.549-.044,8.106,6.867Z" transform="translate(-9.707 -28.952)" fill="#6d3222"/>
      <path id="Контур_1322" data-name="Контур 1322" d="M52.061,163.917l-18.035-.68,6.264,5.77Z" transform="translate(-6.029 -28.922)" fill="#6d3222"/>
      <path id="Контур_1323" data-name="Контур 1323" d="M52.539,164.347l-9.873-.044,6.264,5.77Z" transform="translate(-7.559 -29.11)" fill="#894530"/>
      <path id="Контур_1324" data-name="Контур 1324" d="M82.336,163.854l-9.873-.044,6.8,5.924Z" transform="translate(-12.839 -29.023)" fill="#894530"/>
      <path id="Контур_1325" data-name="Контур 1325" d="M200.379,127.034c-5.914-5.6-3.981-14.924,3.986-14.487,0,0,2.231-3.44,7.047-.243s4.894,12.55,3.938,14.246.739,3.683,1.718,2.375c0,0-2.986,8.334-11.4,2.18,0,0-2.753,2.471-5.865.678,0,0,2.934-2.52.579-4.749" transform="translate(-34.892 -19.656)" fill="#663125"/>
      <path id="Контур_1326" data-name="Контур 1326" d="M215.834,127.573c.713-1.266.85-6.8-1.133-10.857a11.18,11.18,0,0,1,.189,2.034c0,4.35-4.111,1.428-6.713,5.112-.875,1.239-5.055,3.29-6.769,3.29a3.949,3.949,0,0,1-1.742-.418,11.862,11.862,0,0,0,1.2,1.323c2.355,2.229-.58,4.749-.58,4.749,3.113,1.793,5.866-.678,5.866-.678,8.417,6.153,11.4-2.181,11.4-2.181-.98,1.309-2.673-.678-1.718-2.374" transform="translate(-35.376 -20.679)" fill="#51251d"/>
      <path id="Контур_1327" data-name="Контур 1327" d="M205.885,113.512a7.431,7.431,0,0,1,1.372-2.085,3.847,3.847,0,0,0-1.458,1.205c-.263-.015-.518-.016-.769-.01a5.857,5.857,0,0,1,.854.889" transform="translate(-36.327 -19.742)" fill="#51251d"/>
      <path id="Контур_1328" data-name="Контур 1328" d="M210.122,135.69a101.258,101.258,0,0,0,2.036,12.594c.7,2.639,3.932,10.289,3.932,10.289l.518-.066s-1.56-10-1.79-11.32-.866-5.432-1.434-7.943c-.79-3.492-3.444-6.056-3.262-3.555" transform="translate(-37.227 -23.864)" fill="#ea875c"/>
      <path id="Контур_1329" data-name="Контур 1329" d="M213.46,139.589c-.026-.117-.05-.234-.076-.344-.79-3.493-3.444-6.056-3.262-3.555a101.247,101.247,0,0,0,2.036,12.593c.03.116.067.244.107.378-.167-4.269.3-7.735,1.195-9.073" transform="translate(-37.227 -23.864)" fill="#ea7754"/>
      <path id="Контур_1330" data-name="Контур 1330" d="M196.122,157.35c-1.99-.045-3.284-2.226-3.284-4.239,0-4.038,2.545-6.889,3.905-9.7a42.738,42.738,0,0,0,2.878-9.234c.527-1.086,4.493-2.837,5.152-2.7s3.423,2.851,3.95,3.529-1.146,7.266-1.317,7.923c-.307,1.185-2.106,1.037-2.106,1.037s-2.633,3.123-1.448,6.245a18.1,18.1,0,0,1,.658,7.331Z" transform="translate(-34.166 -23.293)" fill="#4e3f56"/>
      <path id="Контур_1331" data-name="Контур 1331" d="M210.03,138.537c.327-1.658.55-3.217.308-3.529-.526-.679-3.29-3.394-3.949-3.53-.522-.107-3.114.969-4.433,1.961.768,1.609,3.129,3.4,6.225,4.534a18.111,18.111,0,0,0,1.848.564" transform="translate(-35.782 -23.294)" fill="#3c2f44"/>
      <path id="Контур_1332" data-name="Контур 1332" d="M208.868,135.736c-.033-.043-.076-.094-.125-.151-.476,2.374-1.512,7.2-2.2,7.986-.869.992-4.386.815-8.937-1.044-.052.128-.11.259-.164.388,1.983.809,3.572,2.388,3.767,3.889.236,1.8-1.6,3.307-4.121,2.745-.855-.19-2.205-.592-2.41-1.488a18.428,18.428,0,0,0-.839,1.734,4.357,4.357,0,0,1,2.387-.2,5.362,5.362,0,0,1,4.476,4.8c.016,2.209-1.963,3.64-4.419,3.2a5.711,5.711,0,0,1-2.621-1.242,3.152,3.152,0,0,0,2.607,1.723l8.388.192a18.1,18.1,0,0,0-.658-7.331c-1.184-3.123,1.447-6.244,1.447-6.244s1.8.148,2.106-1.037c.17-.657,1.844-7.244,1.317-7.923" transform="translate(-34.312 -24.022)" fill="#3c2f44"/>
      <path id="Контур_1333" data-name="Контур 1333" d="M210,134.357c-1.005-1.051-2.843-2.771-3.364-2.878a9.1,9.1,0,0,0-3.276,1.231c.146,3.488,1.615,6.228,3.408,6.228,1.5,0,2.769-1.916,3.232-4.581" transform="translate(-36.031 -23.293)" fill="#ffa77b"/>
      <path id="Контур_1334" data-name="Контур 1334" d="M206.637,131.478a9.108,9.108,0,0,0-3.276,1.232,12.2,12.2,0,0,0,.371,2.546,18.566,18.566,0,0,0,4.755,2.756A7.726,7.726,0,0,0,210,134.357c-1.005-1.051-2.843-2.771-3.364-2.878" transform="translate(-36.031 -23.294)" fill="#ea875c"/>
      <path id="Контур_1335" data-name="Контур 1335" d="M216.654,161.952l-52.787.922-77.085-1.316,2.051,8.03,63.845,1.317,69.373-1.4c.527-7.284-5.4-7.548-5.4-7.548" transform="translate(-15.376 -28.624)" fill="#a0583c"/>
      <path id="Контур_1336" data-name="Контур 1336" d="M116.881,169.174q2.738.633,5.4,1.1l23.386.482c4.581-.983,7.577-2.806,8.176-5.39a4.762,4.762,0,0,0-.2-2.664l-57.424-.98a85.327,85.327,0,0,0,20.667,7.456" transform="translate(-17.047 -28.653)" fill="#894530"/>
      <path id="Контур_1337" data-name="Контур 1337" d="M193.957,162.806c8.25,1.115,11.03,4.666,15.154,7.465l27.443-.555c-2.069-2.283-6.376-4.964-11.981-7.445Z" transform="translate(-34.365 -28.751)" fill="#874430"/>
      <path id="Контур_1338" data-name="Контур 1338" d="M37.322,166.469a5.1,5.1,0,0,0-2.933-3.091c-2.221-.689-4.242,1.341-4.514,4.535a8.586,8.586,0,0,0,.044,1.841h7.255a6.12,6.12,0,0,1,.148-3.286" transform="translate(-5.288 -28.923)" fill="#a0583c"/>
      <path id="Контур_1339" data-name="Контур 1339" d="M48.289,169.937q-.048-.253-.08-.5c-1.044-2.872-3.554-5.106-5.963-5.158a3.345,3.345,0,0,0-3.314,2.374,8.553,8.553,0,0,1,.625,3.286Z" transform="translate(-6.898 -29.106)" fill="#af694e"/>
      <path id="Контур_1340" data-name="Контур 1340" d="M38.719,170.449h.773a8.538,8.538,0,0,0-.625-3.286,6.128,6.128,0,0,0-.148,3.286" transform="translate(-6.833 -29.617)" fill="#af694e"/>
      <path id="Контур_1341" data-name="Контур 1341" d="M61.936,169.768c0-.1.012-.2.019-.3-1.268-3.412-4.384-6.078-7.375-6.14s-4.829,2.525-4.387,5.943c.06.165.116.332.166.5Z" transform="translate(-8.881 -28.937)" fill="#a0583c"/>
      <path id="Контур_1342" data-name="Контур 1342" d="M50.373,171.048c-.05-.17-.106-.336-.166-.5q.032.248.08.5Z" transform="translate(-8.895 -30.217)" fill="#a0583c"/>
      <path id="Контур_1343" data-name="Контур 1343" d="M77.67,169.853c-.007-.044-.019-.087-.026-.132a9.338,9.338,0,0,1-.057-2.431,8.037,8.037,0,0,0-6.44-3.486,6.291,6.291,0,0,0-6.646,5.745c.038.1.08.2.114.3Z" transform="translate(-11.428 -29.022)" fill="#af694e"/>
      <path id="Контур_1344" data-name="Контур 1344" d="M64.479,171.09h.133c-.035-.1-.077-.2-.114-.3-.007.1-.016.2-.019.3" transform="translate(-11.424 -30.259)" fill="#af694e"/>
      <path id="Контур_1345" data-name="Контур 1345" d="M85.466,161.557c-2.74,0-4.718,2.238-5.06,5.335a7.136,7.136,0,0,1,1.1,2.563H92.852c-.006-.044-.008-.087-.015-.132-.654-4.289-3.954-7.767-7.372-7.767" transform="translate(-14.246 -28.624)" fill="#c17956"/>
      <path id="Контур_1346" data-name="Контур 1346" d="M80.451,170.472c.007.044.018.087.026.132H81.5a7.138,7.138,0,0,0-1.1-2.563,9.34,9.34,0,0,0,.058,2.431" transform="translate(-14.234 -29.773)" fill="#c17956"/>
      <path id="Контур_1347" data-name="Контур 1347" d="M205.074,131.4a41.371,41.371,0,0,0,.746-4.081l3.422.176s-.553,3.381-.57,4.52c-.049,3.217-4.567,2.958-3.6-.615" transform="translate(-36.31 -22.558)" fill="#dd704a"/>
      <path id="Контур_1348" data-name="Контур 1348" d="M202.695,128.8c2.07.96,6.11-1.179,6.732-1.642.395-.294.548-1.192.063-1.427-1.971-.811-2.034-3.409-3.351-7.688-.628-.234-3.327,2.914-3.526,4.232a19.727,19.727,0,0,0,.081,6.524" transform="translate(-35.858 -20.912)" fill="#ffa77b"/>
      <path id="Контур_1349" data-name="Контур 1349" d="M216.264,180.4a3.322,3.322,0,0,0,.03,2.88c.385.5.674,1.862,1.173,2.131s.976.346.893-.091-1.676-5.519-1.676-5.519Z" transform="translate(-38.264 -31.857)" fill="#ea7754"/>
      <path id="Контур_1350" data-name="Контур 1350" d="M218.88,161.841a5.306,5.306,0,0,1-1.529-1.261l-.558-.008a10.819,10.819,0,0,1,.167,1.437c-.05.125-.344.288-.369.47s0,.778.117.675.16-.594.273-.654.511-.3.511-.3-.028.1.325.151,1.063-.508,1.063-.508" transform="translate(-38.373 -28.449)" fill="#ea875c"/>
      <path id="Контур_1351" data-name="Контур 1351" d="M217.55,162.508a7.6,7.6,0,0,1,1.069.594c.142.169.574.932.719.948s-.36-.917-.518-1.167a3.756,3.756,0,0,0-.765-.652Z" transform="translate(-38.545 -28.743)" fill="#ea875c"/>
      <path id="Контур_1352" data-name="Контур 1352" d="M217.8,162.251a6.718,6.718,0,0,1,1.1.4c.16.146.681.846.822.834s-.476-.871-.664-1.1a3.373,3.373,0,0,0-.822-.522Z" transform="translate(-38.589 -28.68)" fill="#ea875c"/>
      <path id="Контур_1353" data-name="Контур 1353" d="M217.889,162.109a5.475,5.475,0,0,1,1.089.063c.179.1.82.649.943.593s-.643-.742-.866-.913a2.747,2.747,0,0,0-.866-.273Z" transform="translate(-38.605 -28.628)" fill="#ea875c"/>
      <path id="Контур_1354" data-name="Контур 1354" d="M205.645,153.877a82.8,82.8,0,0,1,8.863,3.16c.922.57-.044,20.492-.044,20.492l-.175-.044S210.428,165,210.3,161.055l-5.156-.2c-1.47.176-3.128-4.359.5-6.977" transform="translate(-36.047 -27.263)" fill="#ea7754"/>
      <path id="Контур_1355" data-name="Контур 1355" d="M200.077,154.17a59.045,59.045,0,0,1,7.942,2.94c.922.57,4.871,20.448,4.871,20.448l-.176-.044s-8.863-12.068-9-16.016l-6.144-.207c-3.257-1.145-.755-8.266,2.5-7.122" transform="translate(-34.736 -27.293)" fill="#ffa77b"/>
      <path id="Контур_1356" data-name="Контур 1356" d="M208.025,157.111a59.046,59.046,0,0,0-7.942-2.94,2.071,2.071,0,0,0-1.238-.051c4.837,1.3,8.372,3.382,8.03,4.806-.363,1.507-4.935,1.7-10.214.433-.194-.047-.383-.1-.575-.147a2.328,2.328,0,0,0,1.494,2.081l6.144.207c.132,3.95,9,16.016,9,16.016l.175.044s-3.949-19.878-4.87-20.448" transform="translate(-34.742 -27.294)" fill="#ea875c"/>
      <path id="Контур_1357" data-name="Контур 1357" d="M199.237,160.556a14.885,14.885,0,0,1,1.777-6.022l-1.447-.482a1.891,1.891,0,0,0-1.416,1.009l-.527,5.3Z" transform="translate(-35.014 -27.294)" fill="#ea875c"/>
      <path id="Контур_1358" data-name="Контур 1358" d="M201.405,135.3c.039,2.387-1.858,12.57-1.858,12.57l-1.76,9.987-.525-.064s-.29-9.732-.175-11.012.931-5.259,1.277-7.7c.481-3.4,3-6.215,3.041-3.782" transform="translate(-34.914 -23.81)" fill="#ffa77b"/>
      <path id="Контур_1359" data-name="Контур 1359" d="M200.194,146.366c0,.155-.007.307-.012.461.48-2.659,1.7-9.6,1.666-11.522-.029-1.771-1.371-.76-2.285,1.23a51.486,51.486,0,0,1,.63,9.831" transform="translate(-35.358 -23.811)" fill="#ea875c"/>
      <path id="Контур_1360" data-name="Контур 1360" d="M212.272,128.015c.652-.624.885-1.433.521-1.808s-1.187-.174-1.838.45-.885,1.432-.521,1.807,1.187.174,1.838-.449" transform="translate(-37.253 -22.327)" fill="#ffa77b"/>
      <path id="Контур_1361" data-name="Контур 1361" d="M73.223,105.829l3.335,2.9,3.335-2.151-3.6.351Z" transform="translate(-12.973 -18.75)" fill="#4c5a63"/>
      <path id="Контур_1362" data-name="Контур 1362" d="M103.145,71c-1.16-1.965-3.255-1.576-4.71-.046a16.48,16.48,0,0,1,5.47,1.688,10.44,10.44,0,0,0-.76-1.642" transform="translate(-17.44 -12.342)" fill="#ea875c"/>
      <path id="Контур_1363" data-name="Контур 1363" d="M97.733,60.107c-.084-.338-.625-.495-1.21-.349a1.58,1.58,0,0,0-.681.346.609.609,0,0,1,.538.381.561.561,0,0,1-.225.527,1.641,1.641,0,0,0,.671-.031c.584-.145.99-.536.906-.874" transform="translate(-16.981 -10.578)" fill="#cc4f46"/>
      <path id="Контур_1364" data-name="Контур 1364" d="M75.979,99.407a.256.256,0,0,1-.238-.16,3.362,3.362,0,0,1,1.066-3.822.258.258,0,1,1,.318.406,2.8,2.8,0,0,0-.908,3.221.259.259,0,0,1-.239.355" transform="translate(-13.382 -16.897)" fill="#f2d9af"/>
      <path id="Контур_1365" data-name="Контур 1365" d="M79.047,99.951a.212.212,0,0,1-.274.023,4.523,4.523,0,0,1-1.812-4.24.227.227,0,0,1,.283-.216.336.336,0,0,1,.212.361,3.765,3.765,0,0,0,1.52,3.579.349.349,0,0,1,.126.406.273.273,0,0,1-.055.087" transform="translate(-13.629 -16.922)" fill="#f2d9af"/>
      <path id="Контур_1366" data-name="Контур 1366" d="M207.887,155.738a10.658,10.658,0,0,0,4.646.362c-1.7-.612-4.1-1.393-6.618-2.223a5.8,5.8,0,0,0-.936.839,15.648,15.648,0,0,0,2.908,1.022" transform="translate(-36.317 -27.263)" fill="#ea875c"/>
      <path id="Контур_1367" data-name="Контур 1367" d="M212.427,126.97c-.217-.223-.69-.121-1.056.229a1.355,1.355,0,0,0-.266.352.485.485,0,0,1,.553.067.532.532,0,0,1-.052.709,1.278,1.278,0,0,0,.55-.319c.366-.35.488-.815.271-1.038" transform="translate(-37.403 -22.475)" fill="#cc4f46"/>
      <path id="Контур_1368" data-name="Контур 1368" d="M215.33,180.737a3.1,3.1,0,0,0,.243,2.753c.42.474.809,1.769,1.326,2.018s1,.314.883-.1-2.077-5.249-2.077-5.249Z" transform="translate(-38.118 -31.92)" fill="#ea875c"/>
      <path id="Контур_1369" data-name="Контур 1369" d="M195.878,162.54a4.854,4.854,0,0,0,1.251-1.8l.7-.2a10.351,10.351,0,0,0,.569,1.513c.132.11.592.176.725.351s.417.79.219.724-.526-.549-.7-.57-.812-.132-.812-.132.087.087-.329.263a4.048,4.048,0,0,1-1.623-.154" transform="translate(-34.705 -28.445)" fill="#ffa77b"/>
      <path id="Контур_1370" data-name="Контур 1370" d="M198.111,162.786c-.483.483-.943.746-1.031.965s-.22,1.141-.395,1.207-.044-1.053.022-1.36a3.414,3.414,0,0,1,.614-.922Z" transform="translate(-34.832 -28.822)" fill="#ffa77b"/>
      <path id="Контур_1371" data-name="Контур 1371" d="M197.6,162.606c-.555.4-1.052.582-1.175.783s-.4,1.09-.587,1.126.129-1.047.244-1.339a3.419,3.419,0,0,1,.757-.808Z" transform="translate(-34.687 -28.768)" fill="#ffa77b"/>
      <path id="Контур_1372" data-name="Контур 1372" d="M197.334,162.482a8,8,0,0,0-1.344.433c-.173.161-.685.938-.872.922s.41-.971.6-1.22a3.4,3.4,0,0,1,.949-.571Z" transform="translate(-34.564 -28.711)" fill="#ffa77b"/>
      <path id="Контур_1373" data-name="Контур 1373" d="M135.417,169.456c.007.044.009.087.015.132h3.028c-.007-.044-.008-.087-.015-.132a9.687,9.687,0,0,0-4.766-7.1l-3.151-.053a9.626,9.626,0,0,1,4.888,7.152" transform="translate(-23.127 -28.756)" fill="#6d3222"/>
      <path id="Контур_1374" data-name="Контур 1374" d="M176.29,169.6c.007.04.009.08.015.12h3.028c-.007-.04-.008-.08-.015-.12a8.9,8.9,0,0,0-4.766-6.5l-3.151-.049a8.863,8.863,0,0,1,4.888,6.549" transform="translate(-30.368 -28.889)" fill="#6d3222"/>
      <path id="Контур_1375" data-name="Контур 1375" d="M126.351,169.456c.007.044.008.087.015.132h3.027c-.006-.044-.007-.087-.014-.132a9.687,9.687,0,0,0-4.766-7.1l-3.151-.053a9.625,9.625,0,0,1,4.888,7.152" transform="translate(-21.52 -28.756)" fill="#6d3222"/>
      <path id="Контур_1376" data-name="Контур 1376" d="M241.007,169.456c.007.044.008.087.015.132h3.028c-.007-.044-.008-.087-.015-.132a9.687,9.687,0,0,0-4.766-7.1l-3.151-.053a9.625,9.625,0,0,1,4.888,7.152" transform="translate(-41.835 -28.756)" fill="#6d3222"/>
      <path id="Контур_1377" data-name="Контур 1377" d="M231.941,169.456c.007.044.008.087.015.132h3.028c-.007-.044-.008-.087-.015-.132a9.687,9.687,0,0,0-4.766-7.1l-3.151-.053a9.626,9.626,0,0,1,4.888,7.152" transform="translate(-40.228 -28.756)" fill="#6d3222"/>
      <path id="Контур_1378" data-name="Контур 1378" d="M227.4,170.88l-212.2.086s99.833,3.557,119.782,3.55S227.4,170.88,227.4,170.88" transform="translate(-2.693 -30.276)" fill="#69cbe2"/>
      <path id="Контур_1379" data-name="Контур 1379" d="M88.252,87.15c-2.018.705-4.763-1.126-5.484-.348a1.687,1.687,0,0,0-.044,2.325s-.395,1.58.483,1.843c0,0-.044,1.141,2.062,1.448a13.868,13.868,0,0,0,4.125-.088s1.579-4.917-1.141-5.181" transform="translate(-14.576 -15.344)" fill="#ffa77b"/>
      <path id="Контур_1380" data-name="Контур 1380" d="M66.034,59.911c.7.2,1.755.5,2.413.636.525.105.395.966.22,1.228s-2.2-.123-2.742-.768c-.351-.416-.229-1.191.109-1.1" transform="translate(-11.643 -10.613)" fill="#ffa77b"/>
      <path id="Контур_1381" data-name="Контур 1381" d="M64.14,59.411c.224-.569.569-1.421.728-1.969.126-.438.949-.093,1.195.132s-.224,1.916-.871,2.226c-.42.2-1.16-.115-1.052-.389" transform="translate(-11.362 -10.14)" fill="#ffa77b"/>
      <path id="Контур_1382" data-name="Контур 1382" d="M206.879,123.817c-.3-.044-.6.3-.663.773s.129.887.432.931.6-.3.662-.773-.129-.886-.431-.93" transform="translate(-36.534 -21.937)" fill="#3f3132"/>
      <path id="Контур_1383" data-name="Контур 1383" d="M203.6,123.162c-.274-.04-.541.3-.6.765s.122.868.4.908.541-.3.6-.766-.122-.868-.4-.907" transform="translate(-35.966 -21.821)" fill="#3f3132"/>
      <path id="Контур_1384" data-name="Контур 1384" d="M208.2,122.254,207,121.7a.263.263,0,0,0-.366.141l-.107.288a.315.315,0,0,0,.169.386l1.2.551a.263.263,0,0,0,.365-.141l.107-.288a.314.314,0,0,0-.169-.386" transform="translate(-36.588 -21.558)" fill="#663125"/>
      <path id="Контур_1385" data-name="Контур 1385" d="M202.824,121.389l1.234-.176a.276.276,0,0,1,.309.248l.037.314a.293.293,0,0,1-.241.327l-1.234.176a.276.276,0,0,1-.309-.248l-.037-.314a.293.293,0,0,1,.241-.327" transform="translate(-35.892 -21.475)" fill="#663125"/>
      <path id="Контур_1386" data-name="Контур 1386" d="M204.8,125.8c-.008-.109-.018-.179-.018-.179-.248.121-1.456,1-.2,1.557a.6.6,0,0,0,.034-.064c-.7-.456-.159-1.05.184-1.313" transform="translate(-36.148 -22.256)" fill="#d27558"/>
      <path id="Контур_1387" data-name="Контур 1387" d="M205.72,128.331c-.007.045-.009.091-.018.137-.16.792-.713,1.349-1.236,1.245s-.816-.83-.657-1.622c.007-.034.018-.065.026-.1Z" transform="translate(-36.102 -22.677)" fill="#3f3132"/>
      <path id="Контур_1388" data-name="Контур 1388" d="M203.945,128.808a1.738,1.738,0,0,1,.018-.577c.006-.029.016-.054.022-.082l1.583.284c0,.039-.007.077-.016.115a1.729,1.729,0,0,1-.211.546Z" transform="translate(-36.131 -22.705)" fill="#fbf3d6"/>
      <path id="Контур_1389" data-name="Контур 1389" d="M203.793,123.4a.808.808,0,0,1,.362.168c-.09-.374-.295-.644-.562-.683-.414-.058-.817.458-.9,1.155,0,.03,0,.058,0,.086a1.144,1.144,0,0,1,1.106-.727" transform="translate(-35.911 -21.772)" fill="#3f3132"/>
      <path id="Контур_1390" data-name="Контур 1390" d="M206.5,123.76a1.087,1.087,0,0,0-.462.063.892.892,0,0,1,.827-.505c.494.058.826.669.742,1.366,0,.03-.012.057-.016.086a1.354,1.354,0,0,0-1.09-1.009" transform="translate(-36.504 -21.848)" fill="#3f3132"/>
      <path id="Контур_1391" data-name="Контур 1391" d="M96.108,51.467l1.682,1.573a.426.426,0,0,1,.028.55l-.476.648a.319.319,0,0,1-.484.072l-1.683-1.573a.427.427,0,0,1-.028-.55l.476-.648a.32.32,0,0,1,.485-.072" transform="translate(-16.842 -9.104)" fill="#914d2f"/>
      <path id="Контур_1392" data-name="Контур 1392" d="M91.78,49l1.653.8a.38.38,0,0,1,.109.483l-.3.751c-.079.2-.256.306-.395.239l-1.652-.8a.379.379,0,0,1-.109-.482l.3-.752c.079-.2.256-.306.395-.239" transform="translate(-16.132 -8.679)" fill="#914d2f"/>
      <path id="Контур_1393" data-name="Контур 1393" d="M92.158,53.751a8.23,8.23,0,0,0-2.8,2.472,3.112,3.112,0,0,0,.824.953l-.021.035-1.5-1.1a9.471,9.471,0,0,1,3.5-2.355" transform="translate(-15.709 -9.523)" fill="#d27558"/>
      <path id="Контур_1394" data-name="Контур 1394" d="M88.3,57.588l2.952,1.546s-.666,1.667-1.693,1.47-1.927-.916-1.965-1.29a6.458,6.458,0,0,1,.706-1.725" transform="translate(-15.519 -10.203)" fill="#493a3a"/>
      <path id="Контур_1395" data-name="Контур 1395" d="M88.64,57.848l2.547,1.334s-.574,1.437-1.461,1.266-1.66-.789-1.693-1.112a5.57,5.57,0,0,1,.608-1.488" transform="translate(-15.597 -10.249)" fill="#fffaee"/>
      <path id="Контур_1396" data-name="Контур 1396" d="M87.941,59.128c.031-.047.457-.373.457-.373l1.516.677-1.452-.956-.09-.564Z" transform="translate(-15.581 -10.261)" fill="#493a3a"/>
      <path id="Контур_1397" data-name="Контур 1397" d="M93.894,55.466a.876.876,0,0,0-.754-.159c.283-.346.672-.479.954-.286a.958.958,0,0,1,.244,1.04,1.322,1.322,0,0,0-.444-.595" transform="translate(-16.502 -9.733)" fill="#493a3a"/>
      <path id="Контур_1398" data-name="Контур 1398" d="M90.541,53.549a.886.886,0,0,0-.728.027c.281-.36.662-.559.931-.454s.334.448.216.843a.814.814,0,0,0-.42-.416" transform="translate(-15.913 -9.407)" fill="#493a3a"/>
    </g>
    <path id="Контур_1399" data-name="Контур 1399" d="M180.731,156.418l-11.485-13.284,12.36-.519Z" fill="#b9f3f1"/>
    <path id="Контур_1400" data-name="Контур 1400" d="M138.8,143.958l-.507-.1c.259-1.331,25.828-133.254,25.029-143.273l.515-.042c.8,10.091-23.981,137.974-25.036,143.414" transform="translate(-163.497 -0.544)" fill="#63474d"/>
  </g>
</svg>
