<svg xmlns="http://www.w3.org/2000/svg" width="1263.856" height="1123.421" viewBox="0 0 1263.856 1123.421">
  <g id="Сгруппировать_2408" data-name="Сгруппировать 2408" transform="translate(-472.286 -3083.853)">
    <path id="XMLID_43_" d="M-29.573,1055.5a61.046,61.046,0,0,1,9.4-8.2c13.161-9.742,29.056-14.186,44.439-19.143,12.819-4.273,25.125-9.742,37.773-14.528,4.786-1.709,9.572-3.077,14.186-5.128,3.76-1.538,7.008-3.077,10.939-3.931a15.656,15.656,0,0,1,10.426.855c3.247,1.367,6.153,5.128,10.255,4.273,2.735-.513,6.153-3.077,8.375-4.786a32.1,32.1,0,0,1,9.4-4.615,28.788,28.788,0,0,1,7.691-1.026c-.513-6.837-.855-13.5.171-20,1.367-8.2,7.691-17.947,12.306-24.954,6.324-10.084,5.811-12.819,9.913-23.074.513-1.026.855-2.051,1.367-3.077h0c-.855-.513-1.709-1.2-2.564-1.709a6.087,6.087,0,0,0-4.1-1.2c-2.564.171-6.495,1.88-7.52,4.273-.855,2.222.342,4.786-.171,7.179-.684,2.393-1.88,4.273-2.222,6.837-.342,2.735.342,5.64.171,8.546-.342,4.957-6.324,7.35-7.862,1.709-.684-2.735.342-5.64-.342-8.546-.513-2.735-2.222-4.615-2.393-7.521-.342-7.862,0-15.9,0-23.587,0-3.077.342-6.324-.171-9.4-.513-2.735-.684-3.931-3.077-4.444-1.2-.171-2.222.171-3.418-.171a13.477,13.477,0,0,1-3.931-1.538c-1.2-.855-2.051-3.077-3.76-2.735-.684,1.367-1.88,1.88-2.564,3.077-1.367,1.88-1.026,2.222-1.026,4.615,0,2.735.342,5.64,0,8.2-.513,3.077-2.051,5.982-4.786,3.589-2.735-2.564-1.367-5.469-2.051-8.717a31.887,31.887,0,0,0-1.709-3.418,15.517,15.517,0,0,1-.513-3.931c-.513-2.393-1.538-4.1-2.564-6.495-1.026-2.564-.684-5.128-.855-8.033a28.165,28.165,0,0,0-2.222-9.059c-1.367,2.564-.855,4.273-1.026,7.008-.171,3.077-1.88,5.469-2.393,8.546-.513,2.393.171,5.3-.171,7.691-.342,2.735-1.2,3.247-1.88,5.3-1.026,3.247.342,6.666.855,9.913.342,2.051.684,8.888-1.709,10.084-3.077,1.538-3.077-2.393-3.589-4.444-1.709-6.324-2.906-12.306-2.564-18.972-2.393,1.709-1.2,7.179-1.2,9.742v13.5c0,2.222-.513,6.666-3.418,5.811-3.76-1.026-2.222-8.033-2.222-10.768,0-9.23-2.222-18.117-2.222-27.518,0-3.931.342-7.862,0-11.793-.171-3.418-1.2-6.495-1.2-9.913a44.7,44.7,0,0,0,0-4.786c-.342-2.735-.342-1.367-2.222-2.735A18.173,18.173,0,0,1,69.9,859.8a37.144,37.144,0,0,1-3.931-5.128c-1.88-2.735-2.393-3.589-2.564-7.179-.171-2.222-.855-4.786-2.735-6.324-.855-.684-2.393-.855-2.906-1.709-.513-.684,0-3.077,0-3.931,0-2.735.171-5.64,3.418-6.666,5.982-1.88,14.186.342,20.169.855,8.033.855,15.725.855,23.929,1.026,5.3.171,8.717,3.077,14.186,1.709,3.589-.855,6.495-2.735,10.255-2.906,2.393,0,5.811.684,8.033,0,2.051-.684,3.247-3.077,4.615-4.615,2.222-2.393,4.957-4.957,7.862-5.982,3.247-1.2,5.469-1.709,8.546-3.589a26.408,26.408,0,0,0,3.76-2.051c1.026-1.026.684-2.735,1.538-3.76,1.709-2.393,5.3-1.88,7.862-1.88,1.88.171,2.906.855,4.615,1.2a24.076,24.076,0,0,0,3.418-.171c4.957.513,8.546,3.418,12.819,5.469,2.051,1.026,4.615,1.367,6.837,2.051a23.52,23.52,0,0,0,9.059,1.538h9.572c4.273,0,7.52,1.026,11.452,2.393a10.527,10.527,0,0,0,4.444,1.026h2.222c1.367-2.564,4.444-8.375,4.615-9.742,1.2-11.793-11.623,4.615-15.725,5.982-2.222.855-10.255-.513-11.281-1.538,4.273-8.546,6.153-3.931,10.255-5.811s14.357-9.913,16.066-15.725c-3.931-2.051-8.2,5.64-11.11,1.2,2.051-2.906,4.786-5.811,6.495-9.059-2.051.171-3.589-1.367-5.469-1.367-2.051.171-3.247,1.709-5.128,2.051-3.931.513-8.888,1.367-11.623-.855,4.1-9.23,12.135-6.837,17.263-8.033-1.538-1.709-8.2-4.444-2.222-9.23,4.615-3.76,7.52,3.418,10.768,4.444,1.709-2.735,3.247-3.589,5.469-5.469,1.026,3.247,4.1,3.247,6.666-.171a13.677,13.677,0,0,0,3.247-8.375c-10.255-1.709,4.615-15.554-9.23-10.084-2.906,1.2-7.691,12.477-9.572,5.64-2.051-7.179,11.281-14.87,14.7-17.947-4.786-1.538-14.528,7.179-16.579,1.2-3.247-9.4,20.34-7.521,22.561-16.237-4.786-.684-9.23-2.735-11.964-6.837,7.691-13.845,14.015-.171,20.852-2.735,2.906-10.255-10.426-7.691-10.426-16.75,5.982-5.469,12.306,9.059,15.9,0,3.589-8.888-9.4-7.862-1.88-18.288,5.128.684,4.273,8.888,9.572,9.913,5.3-7.862,8.546-18.118,12.306-27.347a31.475,31.475,0,0,1-5.64-.513c-2.393-.513-2.222-1.2-3.931-2.564-2.222-1.88-6.324-2.393-8.888-3.418-.684,1.88-3.418,2.735-4.786,4.1a22.46,22.46,0,0,1-6.837,5.128c-2.906,1.367-5.982.171-9.059,0-2.906-.171-4.615-1.026-6.153-3.418a23.669,23.669,0,0,1-3.418-11.793,21.341,21.341,0,0,1-6.666-.171,17.334,17.334,0,0,1-9.572-5.982c-3.077-3.589-3.589-8.2-6.153-11.964-1.026-1.538-3.589-2.564-4.1-4.1a7.883,7.883,0,0,1,1.026-4.786c2.564-2.393,3.589,2.735,4.273,4.273s1.2,3.418,2.393,4.615c1.367,1.026,2.906,1.367,4.273,2.735,1.538,1.538,3.589,2.735,4.957,4.273,1.709,1.88.684,3.76,3.589,4.444a13.546,13.546,0,0,0,5.811-.342,45.72,45.72,0,0,1,.171-8.375c.171-2.051.855-4.273,3.418-3.418,1.367.513,1.538,1.367,1.709,2.564a29.972,29.972,0,0,1-.513,7.862,11.319,11.319,0,0,1,2.564-.171c2.222,0,4.615.342,6.666-.171,1.88-.342,3.077-1.538,4.957-1.538,2.222-.171,2.393,0,4.273-1.026,1.2-.684,2.564-1.367,3.589-2.051,1.538-1.026,2.735-2.051,4.273-2.906,1.367-.855,2.735-1.538,4.1-2.393-1.88.684-4.273-.684-5.982-.855a17.9,17.9,0,0,1-5.128-.855,31.807,31.807,0,0,1-4.273-1.709c-3.76-1.88-6.837-5.3-9.913-8.546-2.564,1.2-5.3,2.222-7.691,3.418a14.019,14.019,0,0,1-6.324,1.709c-1.026,0-3.931.342-4.957-.171A21.837,21.837,0,0,1,228,617.945a9.928,9.928,0,0,1-2.735-7.179c0-2.222-.855-6.837.855-8.717,2.906-.513,3.589,6.153,3.931,7.691.684,3.077,3.76,4.273,5.982,6.495,1.367,1.367,1.88,1.538,3.76,1.2a40.124,40.124,0,0,0,7.691-2.393,7.59,7.59,0,0,0,1.88-1.367l-.342-.342c-2.051-2.051-1.026-3.418-1.367-6.153-.171-1.367-1.367-1.88-1.709-3.077-.342-1.026,0-2.393,0-3.418,0-3.589,1.2-4.957,4.273-2.393,2.051,1.709,2.906,3.931,4.1,6.324a20.733,20.733,0,0,1,.855,2.393,8.334,8.334,0,0,0,.513-1.2c1.367-2.393,2.735-2.906,1.367-5.128a19.648,19.648,0,0,0-3.589-3.931,28.974,28.974,0,0,0-3.76-4.1c-2.393-1.88-5.982-2.906-8.546-4.444a69.488,69.488,0,0,0-9.4-4.786c-3.247-1.2-6.666-1.2-9.913-1.88-3.76-.855-10.426-1.88-9.059-7.008,1.367-.513,2.564,0,3.76.513,2.051.855,4.273,1.709,6.324,2.564,1.709.684,2.735,1.88,4.273,2.735,1.88,1.2,3.247.855,5.3,1.2,2.564.342,4.957,1.709,7.52,2.222,1.88.342,4.273.342,6.153,1.2,2.393,1.026,4.1,3.247,5.811,5.128s3.76,3.589,5.3,5.469c1.538,2.051,2.735,3.931,5.64,4.1a12.081,12.081,0,0,0,6.324-2.051c1.709-1.2,3.077-2.906,5.128-3.76,1.709-.855,3.418-.855,4.957-2.051,2.906-1.88,3.418-4.1.171-5.982-1.88-1.026-3.931-.684-5.469-2.222-.684-.684-1.026-1.88-1.709-2.564a20.8,20.8,0,0,0-2.906-2.564,44.106,44.106,0,0,1-7.35-8.546c-2.393-3.077-3.077-5.982-4.1-9.572-.684-2.735-1.367-3.418-3.077-5.3a46.936,46.936,0,0,1-3.76-4.444c-.855-1.538-.513-2.393-1.026-3.931a13.492,13.492,0,0,0-2.393-3.931c-1.709-2.222-3.76-3.931-4.273-6.837a26.315,26.315,0,0,1,.171-8.2c2.735-.855,2.564,1.367,3.077,3.247a36.407,36.407,0,0,0,2.393,5.982c.513,1.2.342,2.393.684,3.589.684,4.1,3.931,7.862,7.52,9.742,2.906,1.538,3.589,3.418,4.444,6.666.684,2.906,1.2,5.982,2.735,8.717a34.667,34.667,0,0,0,3.077,3.931c2.393,3.418,3.76,9.4,8.888,9.23,1.88,0,3.76-1.2,5.64-1.026,1.709,0,2.906,1.2,4.444,1.88,1.88.855,5.811,2.051,6.837-.513.855-2.051-1.2-2.906-2.393-3.931a13,13,0,0,1-2.051-3.247c-1.538-3.247-3.76-5.982-4.957-9.4A59.816,59.816,0,0,1,281.5,554.7v-.171c-2.906-.684-3.931-2.735-5.64-4.957a40.2,40.2,0,0,0-5.128-5.64c-2.222-1.709-5.128-2.906-7.179-4.786a11.462,11.462,0,0,1-1.538-2.393c-.855-1.2-2.222-1.538-2.564-3.077-.342-1.2.171-2.564-.171-3.76a27.891,27.891,0,0,0-1.538-3.247c-.855-1.538-2.906-4.444-1.538-6.324,1.2-1.88,3.76-.855,4.615.513,1.538,1.88,1.709,3.931,2.051,6.153a10.949,10.949,0,0,0,3.418,6.495,28.75,28.75,0,0,1,6.837,7.521,14.988,14.988,0,0,0,7.691,5.3,4.289,4.289,0,0,0-.342-1.709c-.684-1.2-2.393-1.026-3.418-1.538a8.992,8.992,0,0,1-4.957-7.52c-.342-6.153,0-12.306,0-18.459,0-2.564-1.367-5.128-.684-7.52a36.4,36.4,0,0,1,2.393-5.982c1.026-2.051,2.393-2.735,2.564,0,.171,2.564,0,5.3,0,8.033,0,3.247-.171,6.495,0,9.742.171,4.1,1.026,8.033.855,12.135,0,1.538-.342,1.88.855,2.735.855.684,2.906,1.026,3.931,1.538,1.88.855,3.077,1.538,3.76-.855.513-1.88-.342-4.1.171-6.153a31.9,31.9,0,0,0,.684-4.273,22.082,22.082,0,0,1,1.709-5.982c.342-.684.684-3.418,1.709-.855.513,1.2,0,4.1,0,5.3a39.1,39.1,0,0,1-.171,6.324c-.171,1.026-.684,1.538-.684,2.735v2.906c0,1.88.342,4.1,0,5.982-.342,1.709-.684,3.418-.855,5.128.342.171.855.171,1.2.342,2.393.684,4.444.342,6.837.513,2.735.171,5.469.513,8.2.684.171-2.564-1.026-7.008,1.88-8.375,2.564-1.2,2.735,6.666,2.393,8.546,2.906.513,5.811,1.2,8.546.513.513-1.709-1.88-3.76-2.564-5.128-1.026-2.222-1.538-4.615-2.393-6.837-1.538-4.1-3.76-8.033-5.64-11.964-1.367-3.077-3.589-5.811-4.786-9.23-1.026-3.077-2.735-5.3-4.444-8.033a37.126,37.126,0,0,0-5.469-6.153c-.513-.513-1.367-.855-2.051-1.538-.171-.171-.171-1.026-.342-1.367-.855-1.026-2.222-1.709-2.735-3.247-1.2-2.735-.342-6.495-.513-9.4a4.2,4.2,0,0,0-.855-2.906,29.219,29.219,0,0,0-2.393-1.88,14.76,14.76,0,0,1-2.222-2.393c-.855-1.2-2.735-3.76-3.077-4.957-.342-1.709,0-1.709,1.538-1.88a11.955,11.955,0,0,1,4.273,0c1.367.342,2.906,2.051,4.1,3.077,1.026.855,3.247,2.735,3.76,3.76.342,1.026-.171,2.906-.171,3.931a15.7,15.7,0,0,0,.855,4.786c2.393,7.008,9.572,10.084,12.648,16.408A37.632,37.632,0,0,1,307.823,513c.684,2.393,1.88,3.931,3.247,5.982,1.2,2.051,1.709,4.273,2.906,6.153,1.367,2.393,2.906,3.931,3.931,6.666.684,1.88,1.2,3.76,1.88,5.64.513,1.367,1.2,3.247,2.393,4.273s2.564.684,3.931,1.026a10.863,10.863,0,0,1,3.76,2.393,9.4,9.4,0,0,0,1.538,1.2c1.538-5.64,3.077-9.4,4.444-10.084,2.051-7.691,1.026-12.648,0-18.459-.342-2.051-3.931-1.88-4.615-4.1-.684-2.393,2.906-6.324,2.051-9.23a5.1,5.1,0,0,0-2.735-2.906c-.855,1.026-1.538,1.88-2.393,2.906a46.909,46.909,0,0,1-5.469,6.153c-.342.342-.684.342-.855,0l-.171-.171c-.342-.342.171-1.2.684-1.367.171,0,1.367-2.051,1.709-2.393,1.026-1.2,2.051-2.222,2.906-3.418a29.756,29.756,0,0,1,2.051-2.393,6.959,6.959,0,0,1-2.906-2.051c-2.222,2.906-4.273,5.982-6.495,8.888a30.483,30.483,0,0,1-3.76,4.444c-1.709,1.538-3.589,1.88-5.3,3.418-.855.855-1.367,0-1.026-1.026.684-1.709,1.026-1.88,2.393-3.077.855-.684,2.222-1.367,3.247-2.051a26.652,26.652,0,0,0,4.957-5.64,72.451,72.451,0,0,1,5.3-6.837c0-.342-.171-.684-.171-1.026-.684.684-1.538,1.2-2.222,1.88-4.444,3.931-8.2,7.691-12.99,10.426-.855.513-.855-1.026,0-1.538,3.931-2.564,6.666-5.469,10.255-9.23,1.88-2.051,3.76-3.589,5.469-5.469,0-.171.171-.342.171-.513a19.63,19.63,0,0,0-1.709,1.367c-.855.684-1.88,1.2-2.906,2.051-1.2,1.026-2.393,2.564-3.589,3.76-2.051,2.051-6.495,6.666-8.2,4.786-.342-.342,0-1.026.342-1.538,1.538-1.709,3.247-2.222,4.957-3.589,2.222-1.88,4.273-4.615,6.666-6.153a50.937,50.937,0,0,1,5.982-4.1c.513-.855.855-1.88,1.367-2.906a55.855,55.855,0,0,0-12.819,6.324,35.407,35.407,0,0,1-11.452,5.128c-.513.171-.684-.513-.342-1.2,1.367-1.88,2.393-1.88,3.931-2.564,3.077-1.2,6.495-3.589,9.572-5.469a40.849,40.849,0,0,1,12.135-4.786,20.4,20.4,0,0,0,1.367-2.735,23.27,23.27,0,0,0-9.572,1.367c-3.418,1.2-7.52,3.247-10.426,2.393-.513-.171-.342-1.2.342-1.709a11.085,11.085,0,0,1,4.1-1.538c2.906-.513,5.811-2.051,8.717-2.564a16.924,16.924,0,0,1,5.128-.342c-2.906-.684-5.64-1.88-8.546-2.564a14.094,14.094,0,0,0-5.982,0,2.659,2.659,0,0,1-2.735-.684c-.513-.513.342-1.88,1.026-2.051,4.1-.684,6.666-1.538,10.084-.171,3.247,1.2,6.324,2.564,9.572,3.76-.342-.513-.684-.855-1.026-1.367a16.127,16.127,0,0,1-3.077-1.88c-1.538-1.538-2.051-3.76-3.418-5.64-1.709-2.222-7.179-2.906-5.982-8.033a2.18,2.18,0,0,1,.855-1.2c3.931-2.222,6.153,3.931,7.862,6.324,1.88,2.564,3.418,5.3,5.128,8.033a.6.6,0,0,0,.171.342l.171.171c.342.342.855.513,1.2.855a5.32,5.32,0,0,1,.684-1.026c3.76-6.153,8.375-10.6,8.546-16.066.171-11.281-5.469,0-9.23-2.393-4.273-2.564-.684-8.375-3.589-11.964-2.393-3.077-8.033.342-11.11-.684-2.051,1.709-4.1,3.589-5.982,4.1a1.858,1.858,0,0,1-.855.171h0a6.032,6.032,0,0,1-.513,2.393,29.728,29.728,0,0,1-2.393,4.615,11.212,11.212,0,0,1,.171,3.418c-.513,3.077-4.273,8.375-6.324,6.837a1.455,1.455,0,0,1,.513-1.88,6.072,6.072,0,0,0,3.077-2.564,5.453,5.453,0,0,0,.684-3.589,6.5,6.5,0,0,1-2.906,1.709c-.855.171-2.051.171-2.564-.513v.513c.171.171.171.342,0,.684v1.538c-.342,2.051-1.88,5.811-3.76,5.3-.513-.171-.513-.855,0-1.538a6.032,6.032,0,0,0,1.367-2.222.628.628,0,0,1,.171-.513c-.342.171-.684.513-1.026.684-1.2.684-2.393.684-2.393-.684a.94.94,0,0,1,.513-.855c.684-.342,1.2-.171,1.709-.342a11.768,11.768,0,0,1,1.367-.513v-3.931c-1.2.342-3.247,1.2-3.589-.171,0-.342.171-.684.513-.684a5.7,5.7,0,0,1,1.709,0c.513-.171,1.026-.171,1.367-.342a7.438,7.438,0,0,1,2.222-4.273,8.129,8.129,0,0,1-3.589-1.2,45.1,45.1,0,0,1-2.564,4.957c-.171.171-.171.342-.342.342.513.513.684,1.026.513,2.222-.342,1.538-1.538,3.931-2.906,4.615-1.538.855-1.2-1.026-.342-2.222a9.956,9.956,0,0,0,1.709-3.247c-.342.342-.513.684-.855,1.026-1.538,1.88-2.906,2.222-4.1,1.2a.824.824,0,0,1,.171-1.026,6.928,6.928,0,0,1,1.538-.855,1.73,1.73,0,0,0,1.2-.684,1.706,1.706,0,0,1,.684-.855,14.87,14.87,0,0,0,2.051-2.393c.855-1.2,1.538-2.393,2.393-3.589a2.89,2.89,0,0,0-2.393-.171c-1.2.342-2.735,1.88-4.1,2.222-1.2.342-2.222,0-3.418.342-.342.171-.684-.513-.342-1.026,1.538-2.564,3.76-2.564,5.811-3.077a11.35,11.35,0,0,0-2.564-.513,2.246,2.246,0,0,0-1.709.513c-.684.513-1.026,1.538-1.709,2.051-.513.342-.855.171-.855-.342,0-2.222,2.735-4.1,4.1-4.273a4.49,4.49,0,0,1,4.1,1.538.32.32,0,0,1,0,.513.167.167,0,0,0,.171-.171c2.393-1.538,3.418-1.88,4.957-.684a9.013,9.013,0,0,1,2.051-.513,2.206,2.206,0,0,1,2.222,1.538,6.2,6.2,0,0,0,1.2-.513,4.023,4.023,0,0,0-.342-1.367,6.9,6.9,0,0,0-2.735-3.077c-.342-.342.171-1.2.684-1.026,1.88.855,3.76,2.051,4.273,4.273,1.538-1.2,3.247-2.735,5.128-4.273.171,0,.171-.171.342-.171,0-.171.171-.342.171-.513.171-1.2-1.026-2.222-1.538-2.735a4.387,4.387,0,0,0-2.051-.855c-.513,0-1.026-.513-1.538-.171s-.513-.684,0-1.026a4.622,4.622,0,0,1,2.564-.513,4.154,4.154,0,0,1,3.077,1.538,5.1,5.1,0,0,1,1.026,2.735,14.128,14.128,0,0,1,2.222-1.2c-1.026-8.375-4.273-12.135-3.931-21.194a18.376,18.376,0,0,1-2.222,2.564,7.5,7.5,0,0,1-3.247,1.709,21.014,21.014,0,0,1-2.393,4.273c-1.2,1.367-2.906,1.88-2.906,0a1.136,1.136,0,0,1,.684-.855c.684,0,1.2-.342,2.051-1.367a6.139,6.139,0,0,0,1.2-1.709,22.253,22.253,0,0,0-2.906,1.367,9.834,9.834,0,0,1-1.88,3.418l-2.051,2.564c.342,1.367-.342,3.931-.855,5.3a6.028,6.028,0,0,1-2.222,3.418c-1.2.684-2.051.342-2.222-.855,0-.342.342-.855.513-.855a5.432,5.432,0,0,0,1.538-.513,3.9,3.9,0,0,0,1.026-2.051c.171-.684.855-2.393,1.026-3.418a13.479,13.479,0,0,1-2.564,2.051,1.136,1.136,0,0,1-1.367.684c-.855.513-1.88.855-2.735,1.367a10.233,10.233,0,0,1-2.051.342c-.342.171-.513-.171-.513-.684v-.342c.171-.513.684-1.367,1.2-1.367,1.026-.171,2.051-1.2,3.247-1.538.171-.171.342-.171.684-.342-.342-.855-1.88-1.026-2.735-.855-.342,0-.342-.855.171-.855,1.2-.171,2.393-.684,3.418-.513.513.171.684.513.855,1.026.513-.342,1.026-.855,1.709-1.367a20.483,20.483,0,0,0,2.906-3.589,10.558,10.558,0,0,1-5.3-.684c-.513-.171.171-1.367.513-1.2a8.863,8.863,0,0,0,5.469-.513v-.684c-.171-1.2-1.88-2.564-2.564-2.906a2.534,2.534,0,0,1-1.2-.171,1.306,1.306,0,0,1-.855-.342v.171a40.887,40.887,0,0,0-2.222,3.589c-1.2,1.88-2.735,3.077-4.273,3.247a3.575,3.575,0,0,1-2.393-.513c-.342.684-.684,1.2-1.2,2.051-.855,1.709-.513,2.051-1.2,3.247a14.116,14.116,0,0,1-2.393,3.76,8.734,8.734,0,0,1-3.76,2.222.9.9,0,0,1-1.2.342l-3.077.513c-1.026,2.222-2.051,4.1-4.1,5.3a4.4,4.4,0,0,1-4.273.513.763.763,0,0,1,0-.855c.855-1.538,1.88-1.2,2.906-1.2a4.5,4.5,0,0,0,2.564-1.026,8.983,8.983,0,0,0,1.88-2.393,8.463,8.463,0,0,0-2.222.684c-3.589,1.709-3.589-.171-5.469-2.906-.171-.171,0-.513.171-.855.171-.171.171-.342.342-.513.342-.855,1.367-.513,1.026.342-1.2,2.393,4.1,1.2,5.811.684,1.026-.342,1.367-.513,2.393-.855a9.029,9.029,0,0,1,2.222-.171,10.6,10.6,0,0,0-4.444-2.222c-.342,0,0-.855.342-.855,1.88.171,4.786.513,5.64,2.735.171,0,.342-.171.513-.171,2.564-1.367,2.393-3.418,3.418-5.469l.513-1.026a2.8,2.8,0,0,0-.171-3.247,4.848,4.848,0,0,1-2.222-.684c-.342.171-.342,0-.513-.342l-.513-.513c-.171-.171.171-.684.342-.684h1.026a2.371,2.371,0,0,1,1.538,0,21.787,21.787,0,0,1,3.418.171,9.01,9.01,0,0,0,.855-2.564,1.028,1.028,0,0,1,.171-.684c-1.026-.342-2.393,0-3.589-.171a15.971,15.971,0,0,0-3.931.342c-1.88.513-3.418,2.735-4.786,1.709-.171-.171,0-.684.342-.855,1.026-.513,1.88-1.2,2.906-1.709a11.035,11.035,0,0,1,3.247-.684,20.6,20.6,0,0,1,3.247,0,8.092,8.092,0,0,1,2.906.171V413.7c.171-.342.171-.513.342-.855a3.169,3.169,0,0,1,.342-1.2v-.855a11.355,11.355,0,0,0-5.64.684c-.684.171-.342-1.2.342-1.367a16.783,16.783,0,0,1,5.128-1.2,3.908,3.908,0,0,0-1.2-1.709c-.171.171-.342.342-.513.342s-.171,0-.342-.171v-.684a7.552,7.552,0,0,0-2.735-1.026c-.171,0-.171,0-.342-.171-.171.342-.342.684-.513.684A6.877,6.877,0,0,1,281.5,408.4c-1.538,1.026-2.393.342-3.418-.342-.342-.171.171-1.026.513-.855,1.2.513,2.393.855,3.76-1.367.171-.342.342-.513.513-.855a5.7,5.7,0,0,1-2.393-2.222c-.171-.342.171-1.2.684-1.026a13.815,13.815,0,0,0,2.735.171,4.481,4.481,0,0,0,.342-2.564c-.171-2.051-2.735-1.709-4.273-1.026-.684.171-.513-1.026.171-1.2,2.051-1.2,4.786-1.709,5.811.171a7.3,7.3,0,0,1,.342,3.418c0,.171,0,.342-.171.342.342,0,.513.342.513.855a8.58,8.58,0,0,1,2.051.342,3.964,3.964,0,0,0-1.367-3.418c-.171-.171.171-.855.513-.684,1.367.513,2.222,1.709,2.222,3.76a1.858,1.858,0,0,1-.171.855,4.627,4.627,0,0,1,1.709,1.88,7.662,7.662,0,0,1,.171,4.444,13.4,13.4,0,0,1,2.393.855A6.065,6.065,0,0,1,296.2,411.3c1.026.171,1.538.855,2.564,1.2a5.814,5.814,0,0,0,1.709.171c.171-1.367-.342-2.222-.171-3.589,0-.342.171-.684.171-1.026a1.281,1.281,0,0,1-.855.171,8.775,8.775,0,0,1-4.1-1.709c-.342-.171.171-1.2.684-1.026,1.026.513,1.88,1.2,3.077,1.026,1.026,0,1.367.171,2.222-1.367.171-.342.342-.513.684-.513.171-.171.171-.342.342-.513a7.06,7.06,0,0,0,1.026-4.957c-1.709.342-3.247-.684-4.273-1.367-.342-.342.171-1.2.513-1.026a5.6,5.6,0,0,0,3.418.513,3.17,3.17,0,0,0-1.2-2.051c-.513-.342-1.026-.342-1.538-.855-.171-.171,0-.684.342-.855,1.709-1.367,3.589-.855,4.273.513a4.008,4.008,0,0,1,.342,2.051c.513,0,.684.684.171,1.538l-.171.171c0,.513.171.855.171,1.367a18.1,18.1,0,0,0,1.709-2.051c.684-1.026,1.2-2.735.684-3.247-.342-.342.171-1.026.513-.855.855.513.855,2.051.342,3.589a12.817,12.817,0,0,1-3.077,4.786c-.513,3.077-3.247,5.128-3.247,8.2a9.336,9.336,0,0,1-.171,3.077c1.367-.513,2.564-1.367,4.273-2.222l1.026-.513v-.342c0-.171.171-.342.171-.513l.171-.171a24.452,24.452,0,0,1,1.88-2.564,5.276,5.276,0,0,0,.855-1.709,4.023,4.023,0,0,0-1.367.342,3.417,3.417,0,0,1-2.222.342c-.513-.171,0-1.367.513-1.367.855.171,1.538-.513,2.564-.855a8.48,8.48,0,0,1,2.222-.513c1.367-.171,2.735-.513,3.589.342.171.171.171.342.342.513,1.026-2.735,1.88-5.469,1.538-7.691-.513-4.444-5.64-3.931-5.811-7.52-.342-7.52,3.418-7.179,4.615-12.99.684-3.418,0-7.691.684-10.6,5.128-21.023,8.888-14.528,22.732-18.8-1.026-9.059,6.666-19.485,6.837-28.2a11.009,11.009,0,0,0-1.709-5.64,17.9,17.9,0,0,0-1.367,1.88c-1.367,1.709-2.393,3.931-3.589,5.469a8.3,8.3,0,0,1-5.469,2.906,1.846,1.846,0,0,1-1.2.513,24.206,24.206,0,0,1-1.2,3.76,1.306,1.306,0,0,0-.342.855h.171c.171,0,.171.171.171.342a2.631,2.631,0,0,1,.855,1.709,7.341,7.341,0,0,1,0,2.735c-.171,1.367-.855,3.589-2.222,3.931-.684.171-1.2-.513-.855-1.367a3.48,3.48,0,0,1,1.2-1.026c0-.171.171-.171.171-.342a10.888,10.888,0,0,0,.342-1.2c.171-.684.513-2.564,0-3.077h-.342l-.171-.171h0c-1.88,2.393-4.615,4.615-5.469,3.247-.171-.171,0-.684.342-1.026,2.051-1.709,3.931-2.222,5.3-5.128,1.026-2.393,2.393-5.811,1.709-7.691-1.88,3.077-3.589,5.811-6.837,7.008-1.026.342-2.051.684-3.247,1.2a4.735,4.735,0,0,1,0,3.077c-.513,2.051-2.393,5.3-3.931,6.153-.171.171-.513,0-.513-.342.171-1.538,1.367-3.077,2.051-4.444V330.8c-1.2.684-2.564,1.026-3.76,2.393-.855.855-1.538.171-.855-.855,1.2-2.393,3.589-2.564,5.128-3.247h.171a2.9,2.9,0,0,0,0-1.709c-.684.342-1.367.513-2.051.855-3.76,2.051-4.273,5.469-6.324,8.888a.167.167,0,0,1,.171.171c.684,2.051,1.709,3.931.513,7.179a10.9,10.9,0,0,1-1.367,2.393v.171c0,.171-.171.342-.342.513l-.171.171a20.538,20.538,0,0,1-3.077,3.418c-1.2.855-1.709-.684-.513-1.88a19.5,19.5,0,0,0,1.88-1.88.888.888,0,0,0-.684-.342,2.036,2.036,0,0,0-2.222-.171c-.513.171-.342-.855.171-1.2a4.956,4.956,0,0,1,4.1-.171c.342-.513.513-1.026.855-1.538.855-2.222.342-4.273.342-5.982a3,3,0,0,1-.684.855,12.348,12.348,0,0,1-6.495,4.1,1.1,1.1,0,0,1-.855.342c-.855.342-1.538.513-2.393.855a.763.763,0,0,1,0,.855,30.276,30.276,0,0,0-1.026,2.906c-.513,1.2-1.367,2.564-1.88,3.76-.855,1.538-1.709,2.906-2.735,4.444l-.171.171c0,.855.342,1.709.342,2.564a6.935,6.935,0,0,1-.855,2.906c-1.026,1.88-2.735,3.418-3.931,2.564-.342-.171-.342-.684-.171-1.2a1.914,1.914,0,0,1,1.367-1.2,1.832,1.832,0,0,0,1.367-1.026,6.5,6.5,0,0,0,.513-3.077c-1.709,1.538-3.931,2.906-3.931.342a1.7,1.7,0,0,1,1.026-1.367c1.2-.342,1.538.171,2.735-1.367a24.428,24.428,0,0,0,2.393-3.418c.855-1.367,1.88-2.906,2.564-4.273.684-1.2.684-1.88,1.709-3.077a14,14,0,0,0-4.786,2.393l-.513.513a15.793,15.793,0,0,0-2.393,2.393c-.684.855-1.367.171-.855-.855a9.956,9.956,0,0,1,1.88-2.564,2.073,2.073,0,0,0-2.222-.513,4.533,4.533,0,0,0-1.026.855,9.162,9.162,0,0,1-1.88.855c-.342.171-.513-.171-.342-.513.513-1.026,1.367-1.367,2.051-2.051a2.7,2.7,0,0,1,3.76-.684c.342.171.513.513.855.855a16.025,16.025,0,0,1,5.811-3.077,20.669,20.669,0,0,0,3.077-.855c.855-3.76-4.273-3.418-4.957-6.153a.653.653,0,0,1,.513-.855,5.2,5.2,0,0,1,4.273,1.026,8.334,8.334,0,0,0,.513-1.2,5.432,5.432,0,0,0,.513-1.538V332c0-.171.171-.855.171-.513,0-.684.855-1.709,1.367-1.367s.684.684.513,1.538a4.859,4.859,0,0,1-.684,2.051,18.68,18.68,0,0,1-1.367,2.564,4.645,4.645,0,0,1,1.2,4.273c2.222-1.2,4.273-3.077,6.153-6.837,1.026-2.051,2.222-4.615,3.931-6.324,2.735-2.564,6.153-2.735,9.059-4.273a10.311,10.311,0,0,0-2.222-2.393,3.083,3.083,0,0,0-2.051.342l-1.2,1.2a6.693,6.693,0,0,1-2.393,2.051c-.684.171-.684-1.026,0-1.538.513-.342,1.026-1.026,1.709-1.538-.684-.171-1.367-.513-2.051-.684-.513-.171-1.2-.342-1.88-.513a15.9,15.9,0,0,1-3.589,3.931c.513,2.051-.171,5.64-2.222,5.64-.855,0-.513-1.88.513-2.222-.342.171-.171.171,0-.342a2.168,2.168,0,0,0,.171-1.026c0-.342.171-.684.171-1.2a56.224,56.224,0,0,1-7.862,3.931c-1.709.684-2.735,1.2-3.589-.171-.342-.513.171-2.051,1.026-2.051,1.709-.171,3.418-1.2,5.3-2.051a.6.6,0,0,0,.342-.171c0-.171-.171-.171-.342-.342l-1.026-.513c-.684-.513.171-2.564,1.026-2.222a2.471,2.471,0,0,1,1.709,1.2,3.332,3.332,0,0,1,.171,1.367,12.443,12.443,0,0,0,4.786-2.906c1.88-2.051,2.735-4.957,4.444-7.35a3,3,0,0,1,.684-.855c-.171,0-.171.171-.342.171-2.222,1.367-4.444,2.564-6.837,3.931-2.735,1.538-5.3,1.88-7.862,2.393,0,.342-.171.855-.171,1.2a4.616,4.616,0,0,1-.855,1.88,14.874,14.874,0,0,1-2.906,3.589.32.32,0,0,1-.513,0,5.96,5.96,0,0,1-2.735,4.615c-.513.171-.855,0-.855-.513V329.6a1.405,1.405,0,0,1,.684-1.026,4.69,4.69,0,0,0,1.367-3.931,23.476,23.476,0,0,1-2.222,3.418c0,.855-1.2,2.051-1.709,1.367,0-.171-.171-.171-.171-.342-.342-.513,0-1.367.513-1.88a19.365,19.365,0,0,0,2.906-4.1c-.171-.342.171-.855.513-1.2.855-1.88,1.026-3.76.171-4.615-.171.171-.171.342-.342.342a8.265,8.265,0,0,1-2.735,2.222,14.788,14.788,0,0,1-3.247,3.931c-1.367,1.367-2.735,2.051-3.931,1.709-.342-.171,0-.855.342-.684,1.538.342,2.735-1.2,3.931-3.077-1.538,1.367-3.247,2.735-4.615,2.735-1.538.171-2.735-1.2-2.393-3.247a.735.735,0,0,1,.684-.684c1.538.171,2.051,1.88,4.273.513a15.421,15.421,0,0,0,1.709-1.538c0-.171.171-.171.171-.342.855-.855-1.538-2.051-1.709-2.051-.684-.342-1.709-.342-2.393-.855-.342-.171.171-1.026.513-.855,1.2.513,2.564.342,3.76.855a1.744,1.744,0,0,1,1.026,2.051c.171-.171.513-.342.684-.513,1.367-.855,2.393-.684,3.589-2.564,1.026-1.538,1.367-3.247,2.393-4.786a5.879,5.879,0,0,1,.171-2.906,21.641,21.641,0,0,1,1.026-3.077,11.075,11.075,0,0,1-3.077,2.735c-1.538.684-2.393.513-3.077-.513-.171-.171.171-.513.342-.513a4.58,4.58,0,0,0,3.589-1.367,20.792,20.792,0,0,1,2.564-2.906c-.513-.513-1.538-.855-3.589-.684h-.171c0,.171-.171.171-.171.342-.342.171-.513.171-.684,0a.167.167,0,0,0-.171-.171h0a26.971,26.971,0,0,0-4.444,1.538c-.513.342-.855-.513-.342-1.026a10.913,10.913,0,0,1,5.128-2.906,1.439,1.439,0,0,0-.684-1.2c-.342-.342.171-1.2.513-1.026a2.175,2.175,0,0,1,1.2,2.051c2.051-.171,4.1.342,4.615,1.709.855,1.709-.342,3.077-.342,5.3-.171,4.1,3.247,4.786,6.666,4.1a2.605,2.605,0,0,0,0-2.735c-.684-1.026,1.2-3.077,1.88-2.222a4.548,4.548,0,0,1,.342,4.273c.855-.342,1.538-.513,2.222-.855,1.026-.513,1.709-.855,2.564-1.2a6.073,6.073,0,0,0-.684-1.538c-.171-.342-.513-.684-.684-1.026-.342-.342-.513,0-1.026.342-.171.171-.342,0-.342-.171a2.255,2.255,0,0,1,1.538-2.051c.855-.342,1.538.342,2.051,1.026a5.958,5.958,0,0,1,1.026,2.906,15.517,15.517,0,0,1,3.931-.513c0-.171.171-.342.171-.513.342-2.393-1.538-3.077-2.564-3.76-.342-.171.171-1.2.513-1.026,1.2.513,2.564,1.026,3.247,2.393.171-.171.342-.342.342-.171.684.513,1.026,1.2,1.709,1.709.171.171.513.171.855.513a41.078,41.078,0,0,0,3.931-1.88c.171-1.2-.684-1.88-1.026-2.564a2.948,2.948,0,0,0-2.564-1.538c-.342-.171,0-1.026.342-1.026,1.2.171,2.222,0,3.077.855v-.171c.513-1.026.684-4.1-.342-3.76-.342.171-.513-.342-.342-.855,1.026-2.393,2.393-1.026,2.564,0a6.31,6.31,0,0,1-1.2,5.3.167.167,0,0,0-.171.171,5.279,5.279,0,0,1,1.2,2.393c1.2-.855,2.222-1.709,3.589-2.735.171-.171.342-.171.513-.342l-.513-1.026a2.286,2.286,0,0,0-1.367-1.2c-.684.342-1.2-.342-.684-1.2,0-.171.171-.171.171-.342a1.236,1.236,0,0,1,1.026-.684,2.36,2.36,0,0,1,2.222,1.709c.171.513.171,1.367.342,1.88h0a24,24,0,0,1,7.35-3.418,11.81,11.81,0,0,0-5.64-.513c-2.051.342-2.564.855-3.76-.342a26.749,26.749,0,0,0-6.324-5.3c-.342.171-.513.513-.855.684-1.538,1.367-3.247,3.077-4.786,3.247a2.429,2.429,0,0,1-1.026-.342c-1.2-.342-2.393-1.026-3.589-1.367-.342,0,0-.855.342-.855,1.367,0,4.957.342,6.495-.684,1.88-1.367,2.906-4.1,4.957-5.3a9.154,9.154,0,0,1,4.444-1.2,20.361,20.361,0,0,0-5.64-.171,7.112,7.112,0,0,1-4.273-.684,2.044,2.044,0,0,1-1.2-1.2c-.684.342-1.538,1.026-2.735,1.709a54.129,54.129,0,0,1-6.495,2.906,4.542,4.542,0,0,1-2.564.171,4.405,4.405,0,0,1-2.222,1.367c-.513.171-1.2.513-1.88.684s-1.2-.684-2.051-.171c-.513.171-.342-.513,0-.684a1.843,1.843,0,0,1,1.2-.342,2.476,2.476,0,0,0,1.88-.171,11.5,11.5,0,0,0,1.88-1.2c-1.88-1.367-2.906-4.786-4.615-6.324-.342-.342.342-1.538.684-1.2,1.709,1.2,2.906,2.906,4.615,4.1,2.222,1.709,4.1-.171,7.008-1.2,1.538-.684,2.906-1.2,3.931-1.538-2.393-2.393-6.324-.342-8.546-2.564a1.445,1.445,0,0,1,0-1.2c.684-1.367,1.538-2.906,2.051-4.273l-.171.171a2.54,2.54,0,0,1-1.538.342,6.445,6.445,0,0,1-3.589-1.2c-.342-.171.171-.855.513-.684,1.2.513,3.247,1.367,4.957-.171.171-.171.342-.171.342-.342.684-3.589,0-7.179-3.077-6.666-.171,0-.171-.342,0-.342,3.077-1.026,5.469,1.88,4.957,5.811a2.43,2.43,0,0,1-.342,1.026h0c.342.513-.171,1.367-.684,1.538a12.98,12.98,0,0,0-.684,1.88c-.684,2.735-.513.684.684,1.538a.167.167,0,0,1,.171.171,18.805,18.805,0,0,0,2.735-4.786,19.332,19.332,0,0,1,.684-2.564c.171-.342.513-.342.513,0-.513,1.538-.171,2.735-.855,4.273a14.88,14.88,0,0,1-1.709,3.247l-.171.171c1.538.171,3.76-.513,4.786.513s.342,1.538.855,2.735c.171.171.171.513.342.684a5.655,5.655,0,0,1,3.247.513,5.458,5.458,0,0,0-2.222-4.1c-.171-.171.171-.513.342-.513,1.367.513,2.906.855,3.418,2.735a6.91,6.91,0,0,1,0,3.247h1.2a12.056,12.056,0,0,1,7.35,1.709c.513.342,1.2.684,1.709,1.026a3.763,3.763,0,0,0,1.367-.171h.513c-.171-.171-.171-.342-.342-.513a.368.368,0,0,1-.342-.342c-.684-.855-1.367-1.538-2.051-2.393-1.367-1.538-3.247-2.393-4.444-3.931a3.752,3.752,0,0,1-.855-2.051,10.437,10.437,0,0,1-2.222.513,6.858,6.858,0,0,1-2.564-.513c-.513-.342.171-1.367.684-1.367a8.234,8.234,0,0,0,2.906,0c.342-.171.513-.171.855-.342-.171-.513-.171-1.2-.342-1.709a6.929,6.929,0,0,0-.855-1.538c-.171,0-.171,0-.171-.171v-.171a13.165,13.165,0,0,0-6.324-3.931c-.342,0,0-.684.171-.684a14.147,14.147,0,0,1,7.008,2.222c.171-.342.342-.513.513-.855.855-1.367.513-3.077.513-4.273,0-.342.513-.684.513-.342.342,1.367.855,2.393.342,4.1a11.872,11.872,0,0,1-.855,2.222c.513.342.684.855,1.026,1.709,1.2,2.393,1.026,2.564,3.247,4.444.342.342.684.513,1.026.855l.513-1.026a18.99,18.99,0,0,0,1.2-2.735c-.342-.171-.342-.513-.171-.855-.855-.855-1.88-1.367-2.051-2.735-.171-.342.513-1.026.684-.684a7.168,7.168,0,0,0,2.393,1.538,28.5,28.5,0,0,0-.342-5.469c0-.342.342-.684.513-.342.342,1.88,1.2,3.931,1.026,6.324a21.718,21.718,0,0,1-1.2,4.1,20.154,20.154,0,0,1-1.367,2.735c1.026,1.026,2.051,2.051,3.077,3.247a8.056,8.056,0,0,0,1.026-4.1c0-.342.342-.684.513-.513.855.855.171,2.906-.171,4.615-.171.513-.171.855-.342,1.367,1.2,2.051.684,4.444.684,7.691.342.171.684.513,1.026.684.513.342,3.247,2.222,5.64,3.76a15.072,15.072,0,0,0,1.538-3.418c.513-1.709.342-7.52.171-9.059-.684-5.469-3.077-5.3-4.957-8.888-2.564-4.786-1.367-9.23-2.906-14.357-2.393-7.691-7.862-7.35-14.357-9.23-8.888-2.735-8.033-4.786-17.092,6.153a210.49,210.49,0,0,0-17.434,25.3c-5.64,9.23-8.546,20.681-17.263,24.783-9.913,4.786-9.913-7.52-13.5-13.161-2.222-3.418-8.375-3.76-8.546-10.426-.171-8.717,5.982-12.819,8.033-20.681,1.367-5.469.171-6.324.513-10.6.513-9.742-3.077-16.75.342-28.886,4.1-14.357,10.939-30.082,22.561-30.082,6.837,0,10.255,7.52,16.066,7.862,1.538-9.23-2.222-17.776,2.564-27.86,3.589-7.52,25.125-20.852,32.988-24.271,7.008-3.077,14.186-2.393,21.365-5.128,14.528-5.3,8.888-6.837,17.434-17.263,2.222-2.564,3.589-4.615,7.008-6.153,2.393-1.026,5.811-.342,8.033-1.709,2.906-1.709,7.35-9.742,5.3-12.819-4.1-6.666-32.646-.855-29.74-10.939,4.444-1.367,8.546-2.564,12.99-3.589-3.76-1.709-8.546-1.026-12.477-2.735-2.735-9.059,36.748-17.6,43.585-20.51-8.717.171-17.434.513-25.98.684-5.3.171-12.648,1.2-9.572-6.324,3.589,0,7.179-2.222,10.6-3.418,4.786-1.538,9.4-1.88,13.845-3.589,8.717-3.418,16.75-6.495,25.638-9.059-3.931.171-35.039,4.1-35.893.342-1.026-4.444,8.2-4.444,10.6-5.3,6.324-2.393,12.135-6.495,18.972-8.546,9.913-3.077,20.681-2.735,29.911-7.52C458.4,16.648,458.575,9.469,464.557,4c5.469-6.325,17.418-35.634,33.659-44.209,29.98-25.567,108.717-7.517,111.794-7.517V-10.7L614.8,275.933l37.09,21.707-28.544,47.687,20,710H287.484l-1.026,4.786c-2.564-.684-7.179,1.538-9.059,2.051a68.639,68.639,0,0,1-14.528,1.367c-10.426.171-20.852-.171-31.449.171-15.725.342-31.278,2.222-46.832,3.76a382.724,382.724,0,0,1-54.182,1.709c-14.7-.684-29.4-2.393-44.1-3.589-14.016-1.026-28.031-2.051-42.046-3.76-10.255-1.367-20.169-2.051-30.424-.342-12.135,2.051-23.929,5.64-36.406,4.273-.684,0-10.768-1.025-11.793-3.077C-34.872,1060.628-30.428,1056.355-29.573,1055.5ZM266.119,644.1c-3.247,1.026-6.324,2.222-9.742,2.564s-6.837,1.026-10.255,1.026c.171,3.247,1.026,6.666,3.76,7.691,1.367.513,4.1,0,5.64,0a4.617,4.617,0,0,0,3.589-1.2c3.247-2.222,9.23-4.1,10.6-8.375C271.075,642.386,268,643.411,266.119,644.1Zm40.508-193.14a7.01,7.01,0,0,1-.171-1.88c-.513.171-.855.171-1.026-.171-.171.342-.342.684-.684.684-2.393.513-2.735,3.76-2.735,6.666.171-.171.342-.342.513-.342,1.2-.513,2.393-.513,3.589-1.026a5.453,5.453,0,0,0,1.2-1.026A17.883,17.883,0,0,1,306.627,450.955Zm2.393-4.786c-.342.342-.855.684-1.2,1.026.513,1.367.684,3.077,1.026,4.273.513-.855.855-1.709,1.2-2.393a17.273,17.273,0,0,0,.513-2.906ZM295,416.942c0-.171-.171-.513-.171-.684a4.109,4.109,0,0,0-2.564-.342,11.057,11.057,0,0,0-2.222.684,10.537,10.537,0,0,1-.855,4.273c1.88.855,3.077,0,5.3-2.906.171-.342.513-.513.684-.855C295,417.113,295,417.113,295,416.942Zm7.008,0c-.171,0-.342.171-.513.171a4.2,4.2,0,0,1,1.88,2.906,10.007,10.007,0,0,1,2.906-1.709c2.222-1.026,3.589-1.367,5.469-4.273a10.85,10.85,0,0,0,1.2-2.051c-.684.171-1.538.513-2.222.684C307.823,413.524,305.089,415.575,302.012,416.942Zm9.742-11.11a3.821,3.821,0,0,1-.513,1.709,15.489,15.489,0,0,1-1.88,2.735c1.367-.513,2.735-1.026,4.273-1.538.171-.342.171-.684.342-.855C314.147,405.832,312.78,405.832,311.754,405.832Zm5.469,34.013a22.993,22.993,0,0,0-3.76,2.393v.513a2.429,2.429,0,0,0-.342,1.026c1.538.171,3.077-1.026,4.786-2.222A5.118,5.118,0,0,1,317.224,439.846ZM297.568,325.329a9.463,9.463,0,0,1,2.051-3.247,9.21,9.21,0,0,0,1.2-2.222c0-.171.171-.171.171-.342a14.19,14.19,0,0,0-3.589,1.026c-.171.513-.342,1.026-.513,1.709A4.37,4.37,0,0,1,297.568,325.329Zm3.247-11.452c-.513-.342-1.2-.342-1.709-.684q-.513-.256,0-1.026c-.171-.171-.513-.171-.684-.342l-.513-.513c-.513,1.88-.684,3.589-1.709,5.3a2.371,2.371,0,0,1,1.2,2.051,10.5,10.5,0,0,1,6.153-2.735c-.342-.513-1.2-.684-1.709-1.026A5.8,5.8,0,0,0,300.816,313.877Zm10.084-1.709c-.171-.171-.171-.513-.342-.684h0a.167.167,0,0,0-.171.171,11.432,11.432,0,0,1-4.957,1.367c-.342.171-.513.171-.684,0a3.763,3.763,0,0,1-1.367-.171c.342.342.684.513,1.026.855a2.2,2.2,0,0,1,.684,2.051,11.974,11.974,0,0,0,2.393-.513,40.114,40.114,0,0,0,4.1-1.88A9.806,9.806,0,0,1,310.9,312.168Zm8.375-3.077a9.746,9.746,0,0,0-2.222.171,6.965,6.965,0,0,0-3.077.855c-.171.171-.342.342-.513.171-.342.171-.513.171-.855.342a3.4,3.4,0,0,1,.171,1.88,7.983,7.983,0,0,1,1.709-.855,41.959,41.959,0,0,0,4.957-2.393Zm14.528-1.538c-1.367-1.2-3.247.171-4.957,0-.342,0-.342-.684.171-1.2h0a14.241,14.241,0,0,0-2.564.684,28.494,28.494,0,0,1-3.418,1.367,2.272,2.272,0,0,1-.513,1.2c-1.026,1.367-1.88,1.88-2.906,3.077-2.906,3.077-2.564,3.589-4.1,6.666,2.393-.513,4.273-.171,6.666-.513h1.026c-.684-1.026-.684-2.906-2.393-1.88-.684.513-1.026-.684-.342-1.367,1.026-1.2,2.051-1.367,2.906-.855a2.18,2.18,0,0,1,.855,1.2c.171.513,0,1.538.513,1.88.342.342,0,1.2-.513,1.538.171.171.342.171.342.342.684.855,1.709,1.709,1.88,3.077a54.327,54.327,0,0,0,4.444-5.982,5.453,5.453,0,0,1,1.026-1.2c-.342-.855-.513-2.051-1.367-2.393s-2.051.684-2.735-.171c-.342-.342.342-1.367.684-1.026s.855-.171,1.367-.342a1.887,1.887,0,0,1,1.367,0,2.174,2.174,0,0,1,1.538,1.2,3.727,3.727,0,0,1,.684.855c.684-.855,1.538-1.88,2.393-2.906a11.648,11.648,0,0,0-.855-1.2A3.17,3.17,0,0,0,333.8,307.553Zm1.367-1.88a9.594,9.594,0,0,1,2.051,3.418,6.271,6.271,0,0,0,1.367-3.418A11.46,11.46,0,0,0,335.171,305.673Zm6.153-.171h-.855c-.171,2.735-3.247,6.495-5.128,8.717-1.026,1.367-1.88,2.735-2.735,3.931a1.93,1.93,0,0,1,.684,2.051,6.074,6.074,0,0,1-.342,1.709,62.5,62.5,0,0,0,4.444-7.179c.684-1.367.855-2.906,1.709-4.273a21.766,21.766,0,0,1,2.222-3.247Zm-1.88-16.066a13.2,13.2,0,0,1-2.906-3.247,41.7,41.7,0,0,1-4.444-.171,6.64,6.64,0,0,0-4.786,1.709c1.709.171,3.247,0,4.615,1.2.684.684,1.026,2.222,1.88,2.735,1.2.684,2.735-.171,4.1-.513a6.568,6.568,0,0,1,4.1.342A13.479,13.479,0,0,0,339.444,289.436Zm2.222,19.314c-1.026,1.88-1.367,3.76-2.222,5.811a36.716,36.716,0,0,1-2.393,4.444c-.342.513-.855,1.367-1.367,2.222,2.051-1.026,2.735-2.564,4.444-5.128A42.7,42.7,0,0,1,343.2,312C342.691,310.972,342.178,309.946,341.665,308.75ZM286.971,605.125c-3.76.855-6.837,3.077-10.768,2.222-2.906-.684-10.6-1.88-13.332-.171-1.2.684-2.564,3.418-3.418,4.273a20.481,20.481,0,0,1-2.051,1.88c1.026.684,2.393,1.2,3.247,1.88,2.735,2.051,4.957,4.957,7.691,6.837,1.88,1.367,4.786.855,6.837.342,2.222-.513,4.786-1.367,7.35-2.051,1.88-.513,3.589-1.2,5.469-1.709a29.143,29.143,0,0,0,5.982-2.393c2.735-1.538,4.1-.855,6.837,0a17.643,17.643,0,0,0,5.128.684,6.441,6.441,0,0,0,2.735-.684,15.327,15.327,0,0,1,3.077-.342,20.669,20.669,0,0,0-2.735-2.735c-2.735-2.051-3.589-1.026-6.495-1.367C297.226,610.937,292.782,603.758,286.971,605.125Zm7.179-49.738c-2.222,0-4.615.171-7.008.171.171.855.342,1.538.513,2.222.855,2.735,2.222,4.957,3.077,7.691.513,1.88.342,3.418,2.393,4.1,1.538.513,2.735.171,4.273.684a7.438,7.438,0,0,1,2.564,1.367c.513.342,2.222,2.564,3.077,2.393-.855-2.393-1.538-4.786-2.222-7.179-.513-1.709-1.2-3.247-.855-5.128.171-1.026.684-1.88.855-2.906a18.49,18.49,0,0,1,0-3.077.6.6,0,0,1,.171-.342Zm24.954,3.077c-2.222-.684-4.444-2.222-6.837-2.906a22.439,22.439,0,0,0-4.786-.171h-1.538c-.513,1.367-1.88,3.418-1.88,4.615a28.526,28.526,0,0,0,.855,3.077,7.055,7.055,0,0,0,1.2,2.564c.684,1.709,1.026,3.418,1.709,5.128.684,1.88,2.051,3.077,2.906,4.615a10.367,10.367,0,0,1,.513,5.128c-.171,1.88-.855,3.418-.855,5.64a6.787,6.787,0,0,0,1.709,4.957c2.393,2.906,4.786,5.982,8.2,7.691,2.222-12.819,4.615-26.151,7.008-37.261A67.408,67.408,0,0,0,319.1,558.464Z" transform="translate(1084.256 3137.765)" fill="#15435a" opacity="0.275"/>
    <g id="Сгруппировать_2406" data-name="Сгруппировать 2406">
      <g id="XMLID_38_" transform="translate(472.286 3902.204)" opacity="0.502">
        <path id="XMLID_281_" d="M649.852,503.635c-1.536-.878-3.292-3.073-4.609-3.95-2.195-1.317,10.754-10.754,13.168-10.754a26.685,26.685,0,0,0-10.974,2.414c-3.292,1.756-9,4.17-10.754,7.462a72.85,72.85,0,0,0-11.852-5.487,74.512,74.512,0,0,0-11.193-3.512,20.826,20.826,0,0,1,5.487-10.1c-4.609-.439-9.876,5.267-13.168,10.1A23.118,23.118,0,0,0,588.4,503.635c4.389,6.145,14.485,8.12,21.728,8.559h1.756c1.756,3.512,4.389,6.584,8.34,5.926-2.195-1.317-3.073-3.95-3.292-6.584a37.355,37.355,0,0,0,12.29-5.048c2.414-1.536,5.706-3.073,7.682-5.267,1.317,2.634,5.487,3.512,7.9,4.17,4.609,1.317,9.876,1.317,14.924.878C657.094,505.172,652.924,505.611,649.852,503.635Z" transform="translate(-588.4 -399.377)" fill="#18ccf5"/>
        <path id="XMLID_277_" d="M598.98,458.907a32.768,32.768,0,0,0-3.073-2.634c-1.536-.878,7.242-7.242,9-7.242a14.954,14.954,0,0,0-7.462,1.756c-2.195,1.1-6.145,2.853-7.243,5.048a54.369,54.369,0,0,0-8.12-3.731,35.321,35.321,0,0,0-7.682-2.195,13.918,13.918,0,0,1,3.731-6.8c-3.073-.22-6.8,3.512-8.779,6.8a15.4,15.4,0,0,0-11.852,9.437c3.073,4.17,9.657,5.487,14.7,5.706h1.1c1.1,2.414,2.853,4.389,5.487,4.17-1.536-.878-1.975-2.634-2.195-4.389a30.034,30.034,0,0,0,8.34-3.292c1.536-.878,3.95-2.195,5.048-3.512.878,1.756,3.731,2.414,5.487,2.853a30.96,30.96,0,0,0,10.1.658C603.809,460,600.956,460.224,598.98,458.907Z" transform="translate(-466.42 -443.096)" fill="#18ccf5"/>
      </g>
      <g id="XMLID_678_" transform="translate(1041.227 3654.643) rotate(1)" opacity="0.336">
        <path id="XMLID_695_" d="M263.165,259.4c-4.786,2.735-10.084,6.153-12.648,11.281a92.834,92.834,0,0,0-16.921-.855,35.854,35.854,0,0,1,2.393-8.033c-3.589,1.538-6.324,5.128-8.2,8.888-5.469,1.709-11.452,5.982-11.281,11.964,0,4.615,6.153,4.273,11.452,2.735,2.735,1.538,5.64,3.247,8.888,2.735-.342-1.026-1.88-2.906-3.247-4.615a19.232,19.232,0,0,0,2.564-1.2c2.906-1.709,5.64-3.76,8.375-5.64,1.538-1.026,4.1-3.931,5.811-4.273,3.418-.855,10.255,1.88,13.845,2.564C262.823,269.655,263.507,264.528,263.165,259.4Z" transform="translate(52.696 -259.4)" fill="#18ccf5"/>
        <path id="XMLID_694_" d="M296.365,290.5c-4.786,2.735-10.084,6.153-12.648,11.281a92.835,92.835,0,0,0-16.921-.855,35.853,35.853,0,0,1,2.393-8.033c-3.589,1.538-6.324,5.128-8.2,8.888-5.469,1.709-11.452,5.982-11.281,11.964,0,4.615,6.153,4.273,11.452,2.735,2.735,1.538,5.64,3.247,8.888,2.735-.342-1.026-1.88-2.906-3.247-4.615a19.217,19.217,0,0,0,2.564-1.2c2.906-1.709,5.64-3.76,8.375-5.64,1.538-1.026,4.1-3.931,5.811-4.273,3.418-.855,10.255,1.88,13.845,2.564C296.023,300.755,296.707,295.628,296.365,290.5Z" transform="translate(-37.25 -237.344)" fill="#18ccf5"/>
        <path id="XMLID_693_" d="M272.66,318.948c-3.589.855-7.52,2.051-9.572,4.615a104.766,104.766,0,0,0-11.964-3.418,14.963,14.963,0,0,1,2.051-4.444,9.475,9.475,0,0,0-6.324,4.1c-3.931,0-8.546,1.709-8.546,5.3-.171,2.735,4.1,3.589,8.033,3.589,1.88,1.367,3.931,2.906,6.324,3.077a21.935,21.935,0,0,0-2.051-3.418,12.76,12.76,0,0,0,1.88-.342c2.222-.513,4.273-1.367,6.324-2.051,1.026-.342,3.077-1.709,4.444-1.709,2.393.171,7.179,2.906,9.742,3.931C271.976,325.271,272.66,322.195,272.66,318.948Z" transform="translate(6.624 -219.472)" fill="#18ccf5"/>
        <path id="XMLID_692_" d="M308.489,323.8c-3.418,1.367-7.008,3.247-8.717,6.153a77.4,77.4,0,0,0-12.477-1.367,15.393,15.393,0,0,1,1.367-4.786,9.255,9.255,0,0,0-5.469,4.957c-3.931.684-8.2,3.077-7.52,6.666.342,2.735,4.615,2.906,8.546,2.222,2.051,1.026,4.273,2.222,6.666,2.051a28.151,28.151,0,0,0-2.564-2.906,11.271,11.271,0,0,0,1.88-.684,62.421,62.421,0,0,0,5.811-3.077c1.026-.513,2.906-2.222,4.1-2.393,2.393-.342,7.691,1.538,10.255,2.222C308.831,330.124,309,327.048,308.489,323.8Z" transform="translate(-94.497 -213.727)" fill="#18ccf5"/>
        <path id="XMLID_691_" d="M313.489,287.9c-3.418,1.367-7.008,3.247-8.717,6.153a77.4,77.4,0,0,0-12.477-1.367,15.394,15.394,0,0,1,1.367-4.786,9.255,9.255,0,0,0-5.469,4.957c-3.931.684-8.2,3.077-7.521,6.666.342,2.735,4.615,2.906,8.546,2.222,2.051,1.026,4.273,2.222,6.666,2.051a28.149,28.149,0,0,0-2.564-2.906,11.283,11.283,0,0,0,1.88-.684,62.436,62.436,0,0,0,5.811-3.077c1.026-.513,2.906-2.222,4.1-2.393,2.393-.342,7.691,1.538,10.255,2.222C313.831,294.224,314,290.977,313.489,287.9Z" transform="translate(-108.043 -239.188)" fill="#18ccf5"/>
        <path id="XMLID_690_" d="M321.617,342.577c-2.735.513-5.811,1.367-7.52,3.418a91.306,91.306,0,0,0-8.888-3.077,13.358,13.358,0,0,1,1.88-3.418c-2.051.171-3.76,1.538-5.128,2.906-3.077,0-6.666,1.026-6.837,3.931-.342,2.222,2.906,2.906,5.982,3.077,1.367,1.2,2.735,2.393,4.615,2.564a13.252,13.252,0,0,0-1.367-2.735c.684,0,1.2-.171,1.538-.171,1.709-.342,3.247-.855,4.957-1.367.855-.171,2.564-1.2,3.418-1.2,1.88.171,5.3,2.393,7.179,3.247C320.763,347.362,321.447,344.969,321.617,342.577Z" transform="translate(-139.075 -202.593)" fill="#18ccf5"/>
        <path id="XMLID_689_" d="M298.917,354.977c-2.735.513-5.811,1.367-7.52,3.418a91.325,91.325,0,0,0-8.888-3.077,13.358,13.358,0,0,1,1.88-3.418c-2.051.171-3.76,1.538-5.128,2.906-3.077,0-6.666,1.026-6.837,3.931-.342,2.222,2.906,2.906,5.982,3.077,1.367,1.2,2.735,2.393,4.615,2.564a13.249,13.249,0,0,0-1.367-2.735c.684,0,1.2-.171,1.538-.171,1.709-.342,3.247-.855,4.957-1.367.855-.171,2.564-1.2,3.418-1.2,1.88.171,5.3,2.393,7.179,3.247C298.063,359.933,298.747,357.54,298.917,354.977Z" transform="translate(-77.576 -193.799)" fill="#18ccf5"/>
        <path id="XMLID_688_" d="M356.717,347.277c-2.735.513-5.811,1.367-7.52,3.418a91.318,91.318,0,0,0-8.888-3.077,13.357,13.357,0,0,1,1.88-3.418c-2.051.171-3.76,1.538-5.128,2.906-3.077,0-6.666,1.026-6.837,3.931-.342,2.222,2.906,2.906,5.982,3.077,1.367,1.2,2.735,2.393,4.615,2.564a13.252,13.252,0,0,0-1.367-2.735c.684,0,1.2-.171,1.538-.171,1.709-.342,3.247-.855,4.957-1.367.855-.171,2.564-1.2,3.418-1.2,1.88.171,5.3,2.393,7.179,3.247C355.692,352.062,356.376,349.669,356.717,347.277Z" transform="translate(-234.168 -199.26)" fill="#18ccf5"/>
        <path id="XMLID_687_" d="M346.58,370.81c-2.906,0-5.982,0-8.2,1.709a55.293,55.293,0,0,0-8.033-4.786,13.613,13.613,0,0,1,2.564-2.906c-2.051-.342-3.931.684-5.64,1.88-2.906-.684-6.666-.342-7.52,2.393-.855,2.051,2.222,3.418,5.128,4.273a9.96,9.96,0,0,0,3.931,3.589,9.887,9.887,0,0,0-.855-2.906,5.886,5.886,0,0,0,1.538.171c1.709,0,3.418-.171,5.128-.342.855,0,2.735-.684,3.589-.342,1.709.513,4.615,3.589,6.324,4.786C344.7,375.425,345.9,373.2,346.58,370.81Z" transform="translate(-205.912 -184.678)" fill="#18ccf5"/>
        <path id="XMLID_686_" d="M308.345,377.674c-2.735-.171-5.982-.342-8.2,1.2a47.3,47.3,0,0,0-7.691-5.3,13.809,13.809,0,0,1,2.735-2.735,8.013,8.013,0,0,0-5.64,1.367c-2.906-.855-6.666-.855-7.691,1.88-.855,2.051,2.051,3.589,4.786,4.615,1.026,1.538,1.88,3.077,3.589,3.76a11.533,11.533,0,0,0-.513-2.906,5.5,5.5,0,0,0,1.367.171c1.709.171,3.418,0,5.128,0,.855,0,2.735-.513,3.589-.171,1.709.684,4.444,3.76,5.982,5.128C305.952,381.947,307.319,379.9,308.345,377.674Z" transform="translate(-102.899 -180.432)" fill="#18ccf5"/>
        <path id="XMLID_685_" d="M340.253,310.064c-3.247.855-6.837,1.88-8.546,4.1a93.442,93.442,0,0,0-11.964-2.735,12,12,0,0,1,1.367-3.931,7.876,7.876,0,0,0-5.469,3.589c-3.76.171-7.862,1.538-7.521,4.615.171,2.393,4.444,3.077,8.2,3.077,2.051,1.2,4.1,2.564,6.324,2.564-.342-.513-1.367-1.709-2.393-2.906a9.614,9.614,0,0,0,1.709-.342c2.051-.513,3.76-1.2,5.64-1.709,1.026-.342,2.735-1.538,3.931-1.367,2.393,0,7.35,2.393,9.742,3.247C340.424,315.533,340.6,312.969,340.253,310.064Z" transform="translate(-180.956 -225.287)" fill="#18ccf5"/>
        <path id="XMLID_684_" d="M368.761,324.631c-2.564.342-5.469.684-7.008,2.393-2.906-1.2-5.811-2.393-8.717-3.418a11.968,11.968,0,0,1,1.538-2.906,6.618,6.618,0,0,0-4.615,2.222c-2.906-.342-6.153.342-6.153,2.906-.171,1.88,3.077,2.735,5.982,3.077a10.713,10.713,0,0,0,4.615,2.735,10.748,10.748,0,0,0-1.538-2.393h1.367a43.728,43.728,0,0,0,4.615-.855c.855-.171,2.222-.855,3.247-.684,1.709.342,5.3,2.564,7.179,3.418C368.248,328.733,368.761,326.853,368.761,324.631Z" transform="translate(-269.969 -215.926)" fill="#18ccf5"/>
        <path id="XMLID_683_" d="M386.713,344.445c-1.709,0-3.76,0-5.128,1.026a48.249,48.249,0,0,0-4.957-3.077,17.016,17.016,0,0,1,1.709-1.88,4.834,4.834,0,0,0-3.589,1.2c-1.88-.513-4.273-.171-4.957,1.538-.513,1.367,1.2,2.222,3.077,2.735.684.855,1.2,1.88,2.222,2.222a11.162,11.162,0,0,0-.342-1.88,7.4,7.4,0,0,1,.855.171c1.026,0,2.222-.171,3.247-.171a9.747,9.747,0,0,1,2.222-.171c1.026.342,2.735,2.222,3.76,3.077A19.956,19.956,0,0,1,386.713,344.445Z" transform="translate(-331.677 -201.897)" fill="#18ccf5"/>
        <path id="XMLID_682_" d="M385.2,321.913c-1.709.684-3.418,1.367-4.444,2.906a32.638,32.638,0,0,0-5.64-1.026,7.238,7.238,0,0,1,1.026-2.393,5.692,5.692,0,0,0-2.906,2.393c-1.88.171-3.931,1.367-3.931,3.077,0,1.367,1.88,1.538,3.76,1.367a4,4,0,0,0,2.906,1.2,5.937,5.937,0,0,0-1.026-1.538,1.858,1.858,0,0,1,.855-.171,22.249,22.249,0,0,0,2.906-1.367c.513-.171,1.538-1.026,2.051-1.026,1.2,0,3.418,1.026,4.615,1.367C384.854,325.16,385.2,323.622,385.2,321.913Z" transform="translate(-329.646 -215.429)" fill="#18ccf5"/>
        <path id="XMLID_681_" d="M408.4,325.313c-1.709.684-3.418,1.367-4.444,2.906a32.638,32.638,0,0,0-5.64-1.026,7.238,7.238,0,0,1,1.026-2.393,5.692,5.692,0,0,0-2.906,2.393c-1.88.171-3.931,1.367-3.931,3.077,0,1.367,1.88,1.538,3.76,1.367a4,4,0,0,0,2.906,1.2,5.937,5.937,0,0,0-1.026-1.538,1.858,1.858,0,0,1,.855-.171,22.257,22.257,0,0,0,2.906-1.367c.513-.171,1.538-1.026,2.051-1.026,1.2,0,3.418,1.026,4.615,1.367A22.03,22.03,0,0,1,408.4,325.313Z" transform="translate(-392.5 -213.018)" fill="#18ccf5"/>
        <path id="XMLID_680_" d="M279.014,339.638c-4.957,2.051-10.426,4.444-13.845,9.23a98.769,98.769,0,0,0-15.725-3.247,50.081,50.081,0,0,1,3.589-7.52c-3.589,1.026-6.837,4.1-9.23,7.52-5.469.855-11.964,4.273-12.648,10.084-.684,4.444,4.957,4.957,10.426,4.273,2.393,1.88,4.786,3.931,8.033,3.931a22.384,22.384,0,0,0-2.222-4.957,10.939,10.939,0,0,0,2.564-.855c3.077-1.2,5.982-2.906,8.888-4.273,1.538-.684,4.615-3.247,6.324-3.418,3.247-.342,9.4,3.247,12.477,4.444C276.792,349.723,278.331,344.766,279.014,339.638Z" transform="translate(12.917 -203.586)" fill="#18ccf5"/>
        <path id="XMLID_679_" d="M253.308,285.1c-5.982,3.418-12.648,7.691-15.9,14.186a126.985,126.985,0,0,0-21.365-1.2,49.763,49.763,0,0,1,3.077-10.255c-4.615,1.88-8.033,6.495-10.426,11.281-6.837,2.051-14.528,7.691-14.186,15.041.171,5.811,7.691,5.3,14.528,3.589,3.589,2.051,7.179,4.1,11.281,3.418a26.476,26.476,0,0,0-4.1-5.811,30.5,30.5,0,0,0,3.247-1.538c3.76-2.222,7.179-4.786,10.6-7.179,1.88-1.2,5.3-4.957,7.35-5.469,4.273-1.026,12.99,2.393,17.434,3.247C252.966,298.261,253.649,291.766,253.308,285.1Z" transform="translate(99.643 -241.174)" fill="#18ccf5"/>
      </g>
    </g>
  </g>
</svg>
