<svg xmlns="http://www.w3.org/2000/svg" xmlns:xlink="http://www.w3.org/1999/xlink" width="613.999" height="607.942" viewBox="0 0 613.999 607.942">
  <defs>
    <clipPath id="clip-path">
      <rect id="Прямоугольник_99" data-name="Прямоугольник 99" width="613.999" height="607.942" fill="none"/>
    </clipPath>
  </defs>
  <g id="right-hill" clip-path="url(#clip-path)">
    <path id="Контур_857" data-name="Контур 857" d="M1228.182,539.909l36.713-340.49-9.5-16.731-39.635-37.1L1155.995,134,1050.354,168.5l-74.8,17.018L832.715,391.188,795.377,500.644Z" transform="translate(-562.062 -111.209)" fill="#aaa09f"/>
    <path id="Контур_858" data-name="Контур 858" d="M832.716,374.6,974.7,170.15c-8.8,38.059-25.285,85.783-48.224,136.617-36.91,81.8-80.517,149.476-112.8,178.949l-18.3-1.66Z" transform="translate(-562.062 -94.62)" fill="#a39593"/>
    <path id="Контур_859" data-name="Контур 859" d="M832.716,376.468l31.474-45.32c2.62,8.815,30.325-14.169,37.2-7.934,45.392,41.186,223.337-138.178,223.337-138.178s106.424,15.717,128.648-18.959l2.02,1.891,9.5,16.731-36.713,340.489-432.8-39.265Z" transform="translate(-562.062 -96.489)" fill="#a39593"/>
    <path id="Контур_860" data-name="Контур 860" d="M1295.631,524.245,905.915,488.89l49.307-83.9,58.25-58.68,113.489-142.883,28.61-18.445,99.561,4.825,66.7,16.15L1309.286,257Z" transform="translate(-544.29 -87.814)" fill="#8e7f7b"/>
    <path id="Контур_861" data-name="Контур 861" d="M1095.843,204.16l.583-.732,28.61-18.446,99.561,4.825,66.7,16.152-.382,1.554a677.844,677.844,0,0,1-75.246,5.62c-45.248.912-86.7-2.487-119.824-8.971" transform="translate(-513.755 -87.814)" fill="#938582"/>
    <path id="Контур_862" data-name="Контур 862" d="M955.222,397.061l42.5-42.813a79.407,79.407,0,0,0,22.236,11.515c78.226,26.54,209.97-45.153,290.27-149.134,3.7-4.794,7.193-9.585,10.564-14.367l-11.5,46.809L1295.63,516.316,905.915,480.96Z" transform="translate(-544.29 -79.884)" fill="#877874"/>
    <path id="Контур_863" data-name="Контур 863" d="M1009.253,435.269c53.593-49.5,165.044-94.962,276.621-109.733l-6.858,134.207Z" transform="translate(-527.676 -23.312)" fill="#7f716e"/>
    <path id="Контур_864" data-name="Контур 864" d="M1015.807,318.2s30.153,51.469,30.282,122.633L930.467,430.34c-3.161-70.468,85.34-112.144,85.34-112.144" transform="translate(-540.356 -26.68)" fill="#7f716e"/>
    <path id="Контур_865" data-name="Контур 865" d="M1217.143,229.85s-29.986,49.968-84.244,121.971l-45.793-4.154c54.929-20.749,130.037-117.817,130.037-117.817" transform="translate(-515.16 -67.223)" fill="#877874"/>
    <path id="Контур_866" data-name="Контур 866" d="M1162.469,389.594l8.461-1.758,88.438-16.174,57.979-20.83L1340.8,333.6l11.95,15.181c-1.619,36.255-7.922,76.93-21.58,113.559l-214.488-19.459Z" transform="translate(-510.405 -19.61)" fill="#a39593"/>
    <path id="Контур_867" data-name="Контур 867" d="M1162.469,371.981h0a276.8,276.8,0,0,1-6.173,40.157q-1.9,8.373-4.184,16.347l-35.437-3.214Z" transform="translate(-510.405 -1.998)" fill="#998e8d"/>
    <path id="Контур_868" data-name="Контур 868" d="M1208.267,689.194l-50.058-312.6-16.45-14.427L1082.3,331.711l-77.216-5.611L884.022,366.176l-87.8,21.641L677.128,586.6l-15.511,102.6Z" transform="translate(-583.567 -23.053)" fill="#aaa09f"/>
    <path id="Контур_869" data-name="Контур 869" d="M677.128,566.811,795.513,369.216c-.216,35.329-7.233,80.078-21.365,128.189-22.741,77.411-57.725,142.543-89.414,172H661.617Z" transform="translate(-583.567 -3.266)" fill="#a39593"/>
    <path id="Контур_870" data-name="Контур 870" d="M677.128,575.74l26.243-43.8c5.714,7.8,33.557-15.383,43.811-10.281,67.728,33.7,237.647-144.051,237.647-144.051s136.119,5.51,153.9-27.848l3.029,1.552,16.451,14.427,50.057,312.6H661.617Z" transform="translate(-583.567 -12.195)" fill="#a39593"/>
    <path id="Контур_871" data-name="Контур 871" d="M1293.458,669.577H801.231l37.492-80.348,55.632-58.155L994.736,391.8l30.235-19.131,124.568-3.827,87.078,9.184-1.209,47.442Z" transform="translate(-561.121 -3.436)" fill="#8e7f7b"/>
    <path id="Контур_872" data-name="Контур 872" d="M967.491,392.518l.515-.715,30.235-19.129,124.568-3.827,87.076,9.182-.036,1.446c-28.058,4.755-58.916,8.646-91.549,11.315-55.744,4.562-107.995,4.89-150.81,1.727" transform="translate(-534.391 -3.436)" fill="#938582"/>
    <path id="Контур_873" data-name="Контур 873" d="M838.723,585.1l40.589-42.431a142.926,142.926,0,0,0,30.749,8.635c104.254,17.678,247.195-58.371,317.41-159.533,3.238-4.664,6.216-9.308,9.046-13.936l-1.11,43.509,58.052,244.1H801.231Z" transform="translate(-561.121 0.69)" fill="#877874"/>
    <path id="Контур_874" data-name="Контур 874" d="M931.751,613.54c52.445-49.421,177.626-99.953,311.571-122.585l29.152,122.585Z" transform="translate(-540.137 52.601)" fill="#7f716e"/>
    <path id="Контур_875" data-name="Контур 875" d="M906.9,500.267s51.753,44.309,71.872,109H832.74c-23.676-63.81,74.164-109,74.164-109" transform="translate(-556.649 56.874)" fill="#7f716e"/>
    <path id="Контур_876" data-name="Контур 876" d="M1124.215,407.136s-23.1,47.9-70.052,117.844H996.326c62.159-23.4,127.889-117.844,127.889-117.844" transform="translate(-529.755 14.136)" fill="#877874"/>
    <path id="Контур_877" data-name="Контур 877" d="M582.94,539.821c75.5-25.626,155.194-46.492,238.29-63.512l19.121-2.3c30.52,14.515,61.239,26.752,92.573,31.886l-5.788,20.913,1,15.879,20.409,38.165-1.361,40.46H553.521Z" transform="translate(-600.945 44.826)" fill="#84736d"/>
    <path id="Контур_878" data-name="Контур 878" d="M774.583,524.928c-60.814,4.229-116.355,3.986-156.4.193q92.664-28.552,192.645-48.814l19.123-2.3c29.615,14.084,59.418,26,89.787,31.39-37.281,8.435-88.3,15.574-145.159,19.527" transform="translate(-590.549 44.825)" fill="#8c7d79"/>
    <path id="Контур_879" data-name="Контур 879" d="M580.023,537.322c37.687,31.1,149.129,32.4,253.323,2.331,40.931-11.813,74.779-26.759,99.1-42.594l-5.306,19.176,1,15.877,20.409,38.165-1.36,40.461H553.521Z" transform="translate(-600.945 55.402)" fill="#7a6a64"/>
    <path id="Контур_880" data-name="Контур 880" d="M828.493,548.121c36.894-3.182,71.687-3.792,101.088-2.231l1.261,2.356-1.36,40.461H663.61c20.6-17.1,85.549-33.745,164.883-40.587" transform="translate(-583.246 77.433)" fill="#756661"/>
    <path id="Контур_881" data-name="Контур 881" d="M817.487,554.164l21.3-25.745L822.837,554.8s-11.7,10.844-44.807,25.191l-3.627-4.877c33.106-8.036,43.084-20.948,43.084-20.948" transform="translate(-565.434 69.794)" fill="#6d5e5b"/>
    <path id="Контур_882" data-name="Контур 882" d="M905.837,594.929,862.9,580.007l-8.478-22.031s-25.487-17.224-26.041-40.639c0,0-7.017,15.371,21.181,40.764l7.291,20.377-25.4,15.686Z" transform="translate(-556.88 64.708)" fill="#6d5e5b"/>
    <path id="Контур_883" data-name="Контур 883" d="M1109.16,559.822l9.978-2.295,104.915-22,65.912-23.722,24.188-17.6,19.048,12.818c8.164,33.1,11.77,70.6,5.14,105.026H1067.436Z" transform="translate(-518.322 54.093)" fill="#a39593"/>
    <path id="Контур_884" data-name="Контур 884" d="M1109.16,539.182h.006a185.419,185.419,0,0,1,3.623,37.018c0,5.179-.209,10.256-.594,15.209h-44.758Z" transform="translate(-518.322 74.733)" fill="#998e8d"/>
  </g>
</svg>
