<svg id="seaweed" xmlns="http://www.w3.org/2000/svg" xmlns:xlink="http://www.w3.org/1999/xlink" width="193.526" height="245.154" viewBox="0 0 193.526 245.154">
  <defs>
    <clipPath id="clip-path">
      <rect id="Прямоугольник_12" data-name="Прямоугольник 12" width="193.526" height="245.154" fill="none"/>
    </clipPath>
  </defs>
  <g id="Сгруппировать_14" data-name="Сгруппировать 14" clip-path="url(#clip-path)">
    <path id="Контур_435" data-name="Контур 435" d="M71.676,159.782a40.2,40.2,0,0,1,5.566-9.7c3.683-4.729,8.74-7.355,12.768-11.592a65.408,65.408,0,0,0,9.853-13.449,63.938,63.938,0,0,0,3.647-7.811c.18-.466,3.011-7.219,3.145-3.756.28,7.21.517,14.468-.353,21.65a48.533,48.533,0,0,1-6.769,19.914c-3.556,5.768-7.52,11.184-8.537,18.059a27.816,27.816,0,0,0,3.511,18.145c6.376,10.709,18.327,16.128,27.16,24.428,4.046,3.8,7.668,8.254,9.583,13.526a27.382,27.382,0,0,1,.3,16.506c-1.707,6.374-4.779,12.271-7.378,18.3-2.079,4.825-3.957,9.947-4.367,15.219.03.463.052.926.095,1.389a42.532,42.532,0,0,0,.7,4.716c.194.935-1.438,1.294-1.649.355-.127-.566-.226-1.132-.327-1.7a.815.815,0,0,1-.672-.775,29.3,29.3,0,0,1,.038-4.589c-.606-10.334,1.826-20.707,1.038-31.086a28.754,28.754,0,0,0-6.646-17.043c-4.051-4.66-9.474-7.884-14.771-10.923-5.416-3.107-10.992-6.1-15.741-10.2a38.571,38.571,0,0,1-11.031-16.158c-3.006-8.395-3.019-19.731-.821-28.363a40.418,40.418,0,0,1,1.656-5.069" transform="translate(-30.242 -49.689)" fill="#419464"/>
    <path id="Контур_436" data-name="Контур 436" d="M53.221,244.233a2.579,2.579,0,0,1,1.217.815,6.873,6.873,0,0,1,1.316,2.2C58.617,253.768,62.21,260.2,62.9,267.4c.422,4.415-.894,8.476-1.246,12.822-.337,4.16,1.47,7.6,4.561,10.281,6.9,6,16.555,6.081,24.892,8.662a26.75,26.75,0,0,1,11.534,6.756,31.056,31.056,0,0,1,6.571,10.467c3.663,9.492,4.244,22.369.573,31.951-.71,1.853.179,2.835-1.958.865-1.659-1.529-2.463-5.172-3.077-7.259-1.439-4.89-1.992-10-3.616-14.843a18.9,18.9,0,0,0-7.024-9.952c-3.671-2.52-8.171-3.537-12.5-4.246-8.776-1.436-18.562-1.632-25.813-7.47-3.766-3.031-6.357-7.238-8.313-11.6-1.939-4.328-3.766-9.207-3.829-14.005a15.756,15.756,0,0,1,2.091-8.042c2.583-4.63,5.054-9.44,6.25-14.641a30.422,30.422,0,0,0,.774-8.1c-.05-1.192-.832-5,.448-4.816" transform="translate(-19.283 -107.876)" fill="#419464"/>
    <path id="Контур_437" data-name="Контур 437" d="M178.507,316.292c6.465,5.541,6.709,16.13,4.173,23.463a70.809,70.809,0,0,1-5.994,13.395c-2.557,4.237-6.117,7.283-9.712,10.6a23.1,23.1,0,0,0-5.648,7.5c-.882,2-.564,6.973-3.21,6.816-3.731-.222-3.145-7.842-3.063-10.213a37.335,37.335,0,0,1,2.855-13.058A38.986,38.986,0,0,1,166,342.87c3.554-3.718,7.04-7.527,9.365-12.166a18.207,18.207,0,0,0,1.72-8.349c0-2.1-.381-4.861.683-6.653q.382.285.738.59" transform="translate(-68.452 -139.448)" fill="#419464"/>
    <path id="Контур_438" data-name="Контур 438" d="M166.552,297.016c7.436-14.414,19.788-24.866,28.364-38.485a42.841,42.841,0,0,0,6.037-14.391c1.828-9.235-.84-18.674-5.429-26.7-4.1-7.171-13.708-13.664-14.625-22.154-.623-5.773,3.136-10.77,6.165-15.295q5.762-8.607,11.449-17.265c.655-1,1.955-2.507,3.072-1.419.748.729-.724,4.1-.942,4.959a100.313,100.313,0,0,0-2.416,11.817c-.971,7.493-.554,15.337,3.322,22.01,2.9,4.993,7.243,8.9,11.2,13.026,4.151,4.323,7.8,8.977,9.776,14.709,3.642,10.562,1.233,21.812-5.009,30.842-5.936,8.588-14.316,15.158-22.718,21.2-7.919,5.692-17.478,9.827-23.657,17.635a22.716,22.716,0,0,0-3.419,5.84c-.923,2.375-.509,5.269-1.37,7.476-1.327,3.4-2.569-1.468-2.815-3.668-.427-3.818,1.334-6.883,3.012-10.136" transform="translate(-72.208 -71.084)" fill="#419464"/>
    <path id="Контур_439" data-name="Контур 439" d="M151.841,73.2c-1.372-7.76-5.807-14.383-10.3-20.676-5.669-7.94-10.483-16.864-12.007-26.61a40.927,40.927,0,0,1,.242-14.151,43.831,43.831,0,0,1,2.127-7.32c.589-1.533,2.93-5.911-.735-3.943-1.612.866-3.406,4.906-4.479,6.447-3.42,4.907-6.848,9.593-10.668,14.108-3.386,4-6.092,9.217-6.638,14.47-.889,8.571,4.241,16.013,8.115,23.193a44.816,44.816,0,0,1,5.309,28.008c-1.4,9.327-5.911,17.635-10.7,25.613-4.985,8.3-9.9,16.519-13.7,25.45-3.841,9.03-7.195,18.607-8.381,28.389a43.7,43.7,0,0,0,.553,14.521,70.65,70.65,0,0,0,4.749,13.491c3.653,8.268,7.311,16.948,13.485,23.7,6.291,6.879,17.757,11,18.289,21.628.231,4.6,1.908,7.651,2.809,1.3,1.081-7.623-2.274-15.061-6.319-21.42-2.3-3.613-4.823-7.085-6.942-10.811a37.907,37.907,0,0,1-4.493-12.3c-1.544-8.877-.089-18.036,1.727-26.755a145.814,145.814,0,0,1,7.659-26.089c3.486-8.43,8.418-16.012,13.575-23.495,4.979-7.224,10-14.478,13.357-22.63,3.126-7.588,4.815-15.935,3.37-24.108" transform="translate(-39.606 0)" fill="#64ab62"/>
    <path id="Контур_440" data-name="Контур 440" d="M246.06,119.354a51.7,51.7,0,0,0-4.718-13.594c-3.526-6.861-9.293-11.391-13.373-17.711a84.186,84.186,0,0,1-9.244-19.364,82.121,82.121,0,0,1-2.745-10.75c-.117-.633-2.081-9.849-3.08-5.5-2.079,9.05-4.113,18.172-4.732,27.461a62.48,62.48,0,0,0,3.8,26.8c3.12,8.144,6.836,15.942,6.477,24.879a35.8,35.8,0,0,1-8.779,22.106c-10.623,12.017-27.033,16.012-40.188,24.4-6.025,3.84-11.671,8.6-15.354,14.813-3.73,6.289-4.869,13.583-4.327,20.8.635,8.468,3.109,16.66,4.954,24.91,1.475,6.6,2.625,13.524,1.882,20.29-.148.578-.286,1.158-.452,1.734a54.6,54.6,0,0,1-2.014,5.8c-.47,1.136,1.509,1.981,2,.843.3-.684.556-1.376.819-2.068a1.047,1.047,0,0,0,1.035-.82,37.606,37.606,0,0,0,1.05-5.812c3.238-12.923,2.642-26.621,6.121-39.558,2.1-7.827,6.053-14.887,12.481-19.962,6.238-4.924,13.867-7.7,21.292-10.28,7.591-2.634,15.359-5.084,22.345-9.136a49.639,49.639,0,0,0,17.812-17.8c5.81-9.9,8.537-24.228,7.822-35.671a51.825,51.825,0,0,0-.882-6.806" transform="translate(-66.11 -22.647)" fill="#64ab62"/>
    <path id="Контур_441" data-name="Контур 441" d="M264.732,295.805a2.789,2.789,0,0,0-1.563.258,7.449,7.449,0,0,0-2.28,1.578c-5.732,5.138-12.147,9.867-16.044,16.648-2.39,4.158-2.909,8.744-4.506,13.18-1.529,4.246-4.843,6.82-9.087,8.083-9.473,2.818-19.017-1.415-28.379-2.6a28.932,28.932,0,0,0-14.375,1.494,33.57,33.57,0,0,0-11.15,7.368c-7.85,7.707-14.179,20.124-14.848,31.2-.13,2.141-1.444,2.711,1.54,1.727,2.317-.764,4.737-3.991,6.275-5.772,3.6-4.171,6.432-8.955,10.2-13a20.436,20.436,0,0,1,11.365-6.657c4.741-.84,9.626.171,14.2,1.407,9.282,2.51,19,6.692,28.753,4.187,5.063-1.3,9.495-4.284,13.371-7.706,3.844-3.394,7.825-7.38,10.031-12.076a17.051,17.051,0,0,0,1.537-8.852c-.473-5.713-.755-11.554.393-17.209a32.907,32.907,0,0,1,2.859-8.319c.582-1.152,3.056-4.553,1.712-4.942" transform="translate(-71.601 -130.643)" fill="#64ab62"/>
    <path id="Контур_442" data-name="Контур 442" d="M109.238,419.765c-.93-8.464-9.536-14.638-17.022-16.679a70.851,70.851,0,0,0-14.442-2.605c-4.941-.278-9.464.944-14.228,2.044a23.1,23.1,0,0,1-9.375.436c-2.149-.4-6.075-3.467-7.438-1.193-1.921,3.206,4.7,7.02,6.707,8.289a37.326,37.326,0,0,0,12.392,5.008,38.989,38.989,0,0,0,14.405.037c5.074-.837,10.187-1.568,15.328-.871a18.2,18.2,0,0,1,7.865,3.288c1.738,1.187,3.8,3.055,5.878,3.188q-.018-.476-.07-.942" transform="translate(-20.49 -176.877)" fill="#64ab62"/>
    <path id="Контур_443" data-name="Контур 443" d="M201,416c-2.72-4.536-9.179-5.788-13.934-5a44.011,44.011,0,0,0-8.827,2.276c-2.861,1.125-5.1,2.988-7.5,4.844a14.347,14.347,0,0,1-5.178,2.679c-1.317.332-4.328-.381-4.508,1.256-.253,2.307,4.475,2.742,5.935,2.938a23.194,23.194,0,0,0,8.294-.388,24.224,24.224,0,0,0,8.14-3.715,31.957,31.957,0,0,1,8.425-4.469,11.307,11.307,0,0,1,5.292-.184c1.289.219,2.937.739,4.145.274q-.134-.264-.284-.513" transform="translate(-71.134 -181.446)" fill="#64ab62"/>
    <path id="Контур_444" data-name="Контур 444" d="M83.192,295.191c-12.675-13.521-29.517-21.152-43.2-33.442a48.95,48.95,0,0,1-11.131-13.933c-4.894-9.58-4.91-20.788-2.372-31.043,2.267-9.163,10.8-19.3,9.155-28.919-1.118-6.54-6.811-10.858-11.553-14.886q-9.022-7.661-17.977-15.4c-1.031-.89-2.932-2.144-3.82-.6-.6,1.035,2.076,4.281,2.584,5.157a114.334,114.334,0,0,1,6.347,12.234c3.408,7.932,5.4,16.684,3.224,25.23-1.628,6.394-5.181,12.046-8.246,17.816C2.993,223.453.436,229.71.054,236.626c-.7,12.748,5.458,24.361,15.139,32.337,9.207,7.586,20.47,12.189,31.592,16.2,10.483,3.784,22.282,5.342,31.512,12a25.983,25.983,0,0,1,5.583,5.351c1.756,2.323,2.205,5.633,3.84,7.79,2.522,3.327,2.366-2.416,1.949-4.911-.724-4.33-3.616-7.148-6.477-10.2" transform="translate(0 -69.011)" fill="#64ab62"/>
    <path id="Контур_445" data-name="Контур 445" d="M266.471,104.079c1.794,4.479,1.92,9.413,3.624,13.923,1.6,4.224,4.224,7.95,6.111,12.037,3.967,8.589,5.34,17.869,5.307,27.259,0,1.256,1.755,1.18,1.9,0,1.127-9.186-.8-18.7-4.464-27.125-1.9-4.357-4.757-8.205-6.639-12.553-1.945-4.489-2.234-9.49-4.054-14.033-.438-1.092-2.229-.616-1.785.492" transform="translate(-117.671 -45.482)" fill="#419464"/>
    <path id="Контур_446" data-name="Контур 446" d="M243.312,214.157c-1.672,11.206-9.307,20.557-18.735,26.427A66.056,66.056,0,0,1,208.5,247.6c-4.748,1.418-9.637,2.362-14.277,4.131-4.737,1.805-9.483,4.572-11.871,9.241a1.011,1.011,0,0,0,1.744,1.019c5.426-8.864,16.834-9.838,25.919-12.537,10.843-3.221,21.234-9,28.149-18.137a35.741,35.741,0,0,0,6.982-16.658c.161-1.19-1.651-1.719-1.832-.505" transform="translate(-80.489 -94.29)" fill="#419464"/>
    <path id="Контур_447" data-name="Контур 447" d="M170.639,310.007a32.731,32.731,0,0,0-4.571,10.348.913.913,0,0,0,1.759.485,46.585,46.585,0,0,1,4.4-9.906c.616-1.019-.941-1.91-1.587-.927" transform="translate(-73.34 -136.744)" fill="#419464"/>
    <path id="Контур_448" data-name="Контур 448" d="M315.171,316.269a67.709,67.709,0,0,0-4.695,9.055,82.093,82.093,0,0,0-3.011,9.867c-1.553,5.81-3.895,12.247-9.789,14.905-.977.44-.282,2.1.734,1.74,6.008-2.132,9.006-7.942,10.67-13.723,1-3.485,1.589-7.086,2.786-10.517a65.32,65.32,0,0,1,4.954-10.364.955.955,0,0,0-1.648-.964" transform="translate(-131.278 -139.494)" fill="#419464"/>
    <path id="Контур_449" data-name="Контур 449" d="M247.7,375.573c-3.451,2.6-8.22,1.722-12.161,1.035-4.679-.816-9.3-1.954-14-2.675-7.716-1.184-16.328-1.072-22.8,3.878-.9.692-.059,2.248.916,1.567,7.306-5.1,16.533-4.583,24.87-2.96,4.574.89,9.084,2.054,13.712,2.653,3.685.477,7.58.443,10.51-2.132.73-.642-.26-1.965-1.054-1.366" transform="translate(-87.619 -164.894)" fill="#419464"/>
    <path id="Контур_450" data-name="Контур 450" d="M186.809,391.95c-.677.817-1.342,1.645-2.027,2.456-.332.394-.645.805-.962,1.211-.367.47-.747.932-1.086,1.422a.933.933,0,0,0,1.464,1.129c.74-.8,1.433-1.672,2.094-2.537l.116-.154c.01-.013.116-.154.07-.094s.063-.08.073-.092l.12-.152.479-.607q.494-.627.983-1.258a1.023,1.023,0,0,0,.275-.662.937.937,0,0,0-1.6-.662" transform="translate(-80.657 -173.007)" fill="#419464"/>
    <path id="Контур_451" data-name="Контур 451" d="M91.276,412.535c3.291,1.208,6.8,1.09,10.245.935a29.544,29.544,0,0,1,10.371.89c.965.3,1.636-1.205.7-1.659-6.5-3.141-14.084.235-20.816-1.977-1.16-.381-1.619,1.4-.5,1.811" transform="translate(-40.034 -181.396)" fill="#419464"/>
    <path id="Контур_452" data-name="Контур 452" d="M137.3,417.531l.16.065c-.089-.036-.078-.034,0,0,.106.046.21.092.315.14.223.1.435.217.652.331.422.221.826.465,1.228.719.8.506,1.545,1.094,2.335,1.618a1.025,1.025,0,0,0,1.241-1.607,10.341,10.341,0,0,0-2.537-1.872c-.427-.238-.872-.451-1.318-.65-.08-.036-.159-.07-.239-.1.035.015-.3-.107-.161-.062s-.1-.04-.12-.05l-.316-.133q-.358-.148-.722-.281a.982.982,0,0,0-1.2.682,1.007,1.007,0,0,0,.682,1.2" transform="translate(-60.33 -183.574)" fill="#419464"/>
    <path id="Контур_453" data-name="Контур 453" d="M114.832,383.652a26.952,26.952,0,0,0,3.016,4.312,21.148,21.148,0,0,0,1.75,1.808,15.181,15.181,0,0,0,2.154,1.726c.9.551,1.954-.759,1.143-1.482-.626-.557-1.3-1.05-1.921-1.62-.6-.556-1.186-1.127-1.737-1.732a22.08,22.08,0,0,1-2.877-3.906.886.886,0,0,0-1.529.893" transform="translate(-50.667 -168.877)" fill="#419464"/>
    <path id="Контур_454" data-name="Контур 454" d="M145.485,36.824c-3.37,6.259-5.749,13.474-3.037,20.4,2.355,6.013,6.891,10.9,8.947,17.05a.9.9,0,0,0,1.733-.478c-1.546-5.838-5.645-10.45-8.173-15.833a16.343,16.343,0,0,1-1.6-9.332A40.134,40.134,0,0,1,147,37.709c.464-1.007-.97-1.894-1.514-.885" transform="translate(-62.4 -16.069)" fill="#419464"/>
    <path id="Контур_455" data-name="Контур 455" d="M164.141,122.13A45.891,45.891,0,0,1,166,142.49c-.157,1.1,1.5,1.607,1.707.471a39.892,39.892,0,0,0-1.849-21.305c-.4-1.047-2.072-.641-1.72.475" transform="translate(-72.481 -53.468)" fill="#419464"/>
    <path id="Контур_456" data-name="Контур 456" d="M163.167,169.512a21.534,21.534,0,0,1-2.422,9.293c-.523,1.03.984,1.932,1.559.912a21.69,21.69,0,0,0,2.669-10.205.9.9,0,0,0-1.806,0" transform="translate(-70.954 -74.489)" fill="#419464"/>
    <path id="Контур_457" data-name="Контур 457" d="M130.412,204.9c-14.43,20.769-28.206,44.457-24.455,70.775a48.305,48.305,0,0,0,6.748,19.045.913.913,0,0,0,1.575-.921c-6.022-10.465-7.847-22.508-6.478-34.421,1.442-12.551,6.538-24.417,12.721-35.32,3.543-6.248,7.474-12.276,11.534-18.2.7-1.015-.95-1.961-1.644-.961" transform="translate(-46.526 -90.318)" fill="#419464"/>
    <path id="Контур_458" data-name="Контур 458" d="M25,185.5A24.306,24.306,0,0,1,32.795,196a27.468,27.468,0,0,1,1.425,12.91c-.111,1.084,1.638,1.3,1.888.256,2.239-9.325-2.467-19.606-9.9-25.226-.89-.673-2.093.868-1.2,1.559" transform="translate(-10.905 -81.174)" fill="#419464"/>
    <path id="Контур_459" data-name="Контур 459" d="M30.532,244.347c-1.219,5.621-4.236,10.574-6.658,15.724a32.745,32.745,0,0,0-3.542,15.886c.63,11.257,6.808,21.371,14.932,28.875a85.036,85.036,0,0,0,15.566,11.284.9.9,0,0,0,.9-1.544c-9.245-6-18.416-12.466-24.221-22.092a35.664,35.664,0,0,1-5.178-15.587,30.877,30.877,0,0,1,3.116-15.63c2.52-5.4,5.73-10.5,6.855-16.428.218-1.15-1.52-1.653-1.772-.488" transform="translate(-8.962 -107.637)" fill="#419464"/>
    <path id="Контур_460" data-name="Контур 460" d="M105.854,160.55c-2.517,6.82-7.726,12.178-11.37,18.368a31.061,31.061,0,0,0-3.947,10.357,57.345,57.345,0,0,0-.53,12.2.953.953,0,0,0,1.9,0,81.374,81.374,0,0,1,1.008-12.342,30.925,30.925,0,0,1,4.155-10.249c3.623-5.921,8.235-11.192,10.486-17.864.367-1.089-1.318-1.526-1.707-.471" transform="translate(-39.718 -70.649)" fill="#318964"/>
    <path id="Контур_461" data-name="Контур 461" d="M210.272,200.03a28.645,28.645,0,0,0,3.887,23.193c.674.967,2.223.108,1.606-.939a29.442,29.442,0,0,1-3.609-21.736.978.978,0,0,0-1.884-.519" transform="translate(-92.475 -88.047)" fill="#318964"/>
    <path id="Контур_462" data-name="Контур 462" d="M241.317,302.454c-.169,8.86-5.774,16.623-11.145,23.217-.726.89.487,2.169,1.286,1.287,6.218-6.861,11.443-14.973,11.625-24.5a.884.884,0,0,0-1.766,0" transform="translate(-101.57 -133.219)" fill="#318964"/>
    <path id="Контур_463" data-name="Контур 463" d="M61.495,284.343c1.8,5.363-1.391,11.044.528,16.432.408,1.151,2.2.7,1.852-.511-1.542-5.415,1.447-11.051-.448-16.454-.423-1.2-2.343-.7-1.932.533" transform="translate(-27.114 -125.057)" fill="#318964"/>
  </g>
</svg>
