<svg xmlns="http://www.w3.org/2000/svg" width="399.436" height="370.256" viewBox="0 0 399.436 370.256">
  <g id="sharks-fishes" transform="translate(-2538.63 -172.934)">
    <path id="XMLID_296_" d="M661.459,323.95c-8.12-10.534-19.972-18-33.579-18-2.414-1.536-2.853-5.267-5.487-7.023-4.17-2.853-10.1-2.853-14.924-2.414,3.073,2.853,8.559,6.365,8.12,11.632-3.95-4.828-26.776,8.779-28.312,12.29-.658,1.536,1.317,4.389,1.975,5.926-.439,0-1.975.439-2.195.439-3.073-6.8-10.535-12.729-18-13.827,1.756,3.512,5.267,6.584,7.023,10.315,1.317,2.414,1.536,5.267,3.073,7.681-.658,4.609-5.048,9.876-8.12,13.388,3.731-.878,6.584-3.073,9.657-5.048,1.975-1.317,3.95-3.731,5.706-4.389,7.023,11.851,19.752,17.777,32.921,19.533a14.81,14.81,0,0,1-4.828,2.853,20.159,20.159,0,0,1-6.145,1.1c7.023,2.634,18.216,3.511,23.483-3.512h0c9.218-.658,18.655-3.512,23.483-11.851,1.317-2.414,1.756-5.267,2.853-7.682.878-1.536,2.414-2.634,3.292-4.17C663.434,328.12,663.215,326.144,661.459,323.95Z" transform="translate(2077.985 68.684)" fill="#059fb6"/>
    <path id="XMLID_300_" d="M609.484,242.807a32.757,32.757,0,0,1,3.073-2.634c1.536-.878-7.242-7.243-9-7.243a14.954,14.954,0,0,1,7.462,1.756c2.195,1.1,6.145,2.853,7.243,5.048a54.361,54.361,0,0,1,8.12-3.731,35.313,35.313,0,0,1,7.682-2.195,13.918,13.918,0,0,0-3.731-6.8c3.073-.219,6.8,3.512,8.779,6.8a15.4,15.4,0,0,1,11.852,9.437c-3.073,4.17-9.876,5.487-14.7,5.706h-1.1c-1.1,2.414-2.853,4.389-5.487,4.17,1.536-.878,1.975-2.634,2.195-4.389a25.09,25.09,0,0,1-8.34-3.512c-1.536-.878-3.95-2.195-5.048-3.512-.878,1.756-3.731,2.414-5.487,2.853a30.963,30.963,0,0,1-10.1.658C604.655,243.685,607.509,243.9,609.484,242.807Z" transform="translate(2015.618 -14.118)" fill="#059fb6"/>
    <path id="XMLID_302_" d="M632.984,254.407a32.767,32.767,0,0,1,3.073-2.634c1.536-.878-7.243-7.243-9-7.243a14.954,14.954,0,0,1,7.462,1.756c2.195,1.1,6.145,2.853,7.243,5.048a54.361,54.361,0,0,1,8.12-3.731,35.318,35.318,0,0,1,7.682-2.195,13.919,13.919,0,0,0-3.731-6.8c3.073-.219,6.8,3.512,8.779,6.8a15.4,15.4,0,0,1,11.851,9.437c-3.073,4.17-9.876,5.487-14.7,5.706h-1.1c-1.1,2.414-2.853,4.389-5.487,4.17,1.536-.878,1.975-2.634,2.195-4.389a25.091,25.091,0,0,1-8.34-3.512c-1.536-.878-3.95-2.195-5.048-3.512-.878,1.756-3.731,2.414-5.487,2.853a30.961,30.961,0,0,1-10.1.658C628.155,255.5,631.009,255.724,632.984,254.407Z" transform="translate(1940.541 -0.26)" fill="#059fb6"/>
    <path id="XMLID_303_" d="M645.884,224.607a32.767,32.767,0,0,1,3.073-2.634c1.536-.878-7.242-7.243-9-7.243a14.954,14.954,0,0,1,7.462,1.756c2.195,1.1,6.145,2.853,7.242,5.048a54.384,54.384,0,0,1,8.12-3.731,35.321,35.321,0,0,1,7.681-2.195,13.917,13.917,0,0,0-3.731-6.8c3.073-.219,6.8,3.512,8.779,6.8a15.4,15.4,0,0,1,11.852,9.437c-3.073,4.17-9.876,5.487-14.7,5.706h-1.1c-1.1,2.414-2.853,4.389-5.487,4.17,1.536-.878,1.975-2.634,2.195-4.389a25.088,25.088,0,0,1-8.34-3.512c-1.536-.878-3.951-2.195-5.048-3.512-.878,1.756-3.731,2.414-5.487,2.853a30.962,30.962,0,0,1-10.1.658C640.836,225.7,643.689,225.924,645.884,224.607Z" transform="translate(1899.33 -35.862)" fill="#059fb6"/>
    <path id="XMLID_305_" d="M596.884,263.807a32.751,32.751,0,0,1,3.073-2.634c1.536-.878-7.243-7.243-9-7.243a14.954,14.954,0,0,1,7.462,1.756c2.195,1.1,6.145,2.853,7.243,5.048a54.365,54.365,0,0,1,8.12-3.731,35.318,35.318,0,0,1,7.682-2.195,13.917,13.917,0,0,0-3.731-6.8c3.073-.219,6.8,3.512,8.779,6.8a15.4,15.4,0,0,1,11.851,9.437c-3.073,4.17-9.876,5.487-14.7,5.706h-1.1c-1.1,2.414-2.853,4.389-5.487,4.17,1.536-.878,1.975-2.634,2.195-4.389a25.09,25.09,0,0,1-8.34-3.512c-1.536-.878-3.95-2.195-5.048-3.512-.878,1.756-3.731,2.414-5.487,2.853a30.959,30.959,0,0,1-10.1.658C592.056,264.685,594.909,264.9,596.884,263.807Z" transform="translate(2055.871 10.97)" fill="#059fb6"/>
    <path id="XMLID_202_" d="M600.352,282.835c-1.536-.878-3.292-3.073-4.609-3.95-2.195-1.317,10.754-10.754,13.168-10.754a26.686,26.686,0,0,0-10.974,2.414c-3.292,1.756-9,4.17-10.754,7.462a72.86,72.86,0,0,0-11.852-5.487,74.523,74.523,0,0,0-11.193-3.512,20.825,20.825,0,0,1,5.487-10.1c-4.609-.439-9.876,5.267-13.168,10.1A23.119,23.119,0,0,0,538.9,282.835c4.389,6.145,14.485,8.12,21.728,8.559h1.756c1.756,3.512,4.389,6.584,8.34,5.926-2.195-1.317-3.073-3.95-3.292-6.584a37.354,37.354,0,0,0,12.29-5.048c2.414-1.536,5.706-3.073,7.682-5.267,1.317,2.634,5.487,3.512,7.9,4.17,4.609,1.317,9.876,1.317,14.924.878C607.595,284.372,603.205,284.591,600.352,282.835Z" transform="translate(2196.814 23.985)" fill="#059fb6"/>
    <g id="XMLID_229_" transform="translate(2708.719 443.55)">
      <g id="XMLID_329_">
        <g id="XMLID_331_">
          <path id="XMLID_334_" d="M494.782,376.872a46.882,46.882,0,0,0-3.511-14.266c-3.073-7.023-8.34-11.632-12.071-18,5.487,5.048,12.729,8.12,18.436,13.388,5.267,4.828,9.657,11.413,14.485,16.46,13.388-1.975,26.556-5.706,40.163-8.34a10.805,10.805,0,0,0-1.317-3.731c-3.292-5.926-8.779-8.12-13.388-12.29,8.779,2.634,25.02,2.853,29.19,13.388h.439c8.34-8.12,21.508-9.657,32.482-12.729,9.218-2.634,33.8-5.487,28.751-18.655a54.354,54.354,0,0,1,13.607,13.827c1.317,1.756,2.853,5.706,4.609,9.657,1.1.219,2.195.219,3.292.439,22.825,3.073,41.041,9.876,58.6,25.02a26.106,26.106,0,0,0-12.51,5.048c3.073-.219,8.779.22,10.974,2.414-15.143,14.7-38.846,18.436-58.818,22.386l-3.95.658c-4.828,7.681-8.779,16.46-17.338,20.191a154.448,154.448,0,0,0,3.073-17.558v-1.756c-9.876-.22-19.972-1.536-29.629-2.634a177.845,177.845,0,0,1-29.629-6.145,25.4,25.4,0,0,1-9,4.828c-5.926,1.756-12.29,0-18.216,0,1.756-3.512,8.559-5.267,11.632-8.559.219-.219.439-.658.658-.878-5.267-1.756-10.535-3.731-15.582-5.487-10.315-3.95-20.63-8.12-31.165-11.193.219,7.9-8.12,16.46-12.949,22.167-4.389,5.048-10.1,7.681-14.924,11.632,3.95-4.17,8.559-16.241,9.657-20.191C492.588,390.479,495.441,383.017,494.782,376.872Z" transform="translate(-479.2 -332.1)" fill="#059fb6"/>
        </g>
      </g>
    </g>
  </g>
</svg>
