<svg xmlns="http://www.w3.org/2000/svg" xmlns:xlink="http://www.w3.org/1999/xlink" width="1440" height="296.068" viewBox="0 0 1440 296.068">
  <defs>
    <clipPath id="clip-path">
      <rect id="Прямоугольник_101" data-name="Прямоугольник 101" width="335.906" height="169.382" fill="none"/>
    </clipPath>
    <clipPath id="clip-path-2">
      <rect id="Прямоугольник_102" data-name="Прямоугольник 102" width="383.385" height="193.324" fill="none"/>
    </clipPath>
  </defs>
  <g id="trees2" transform="translate(5789.52 4566.95)">
   
    <path id="Контур_885" data-name="Контур 885" d="M123.335,526.169l1440-46.5V591.691h-1440Z" transform="translate(-5912.853 -4880.253)" fill="#8d8538"/>
    <path id="Контур_886" data-name="Контур 886" d="M901.871,433.111c-.414-12.21-11.035-21.757-23.723-21.322s-22.64,10.687-22.226,22.9,11.034,21.757,23.723,21.321,22.639-10.686,22.226-22.9" transform="translate(-5590.487 -4910.029)" fill="#a49c3a"/>
    <path id="Контур_887" data-name="Контур 887" d="M885.35,438.248c-.413-12.211-11.035-21.757-23.723-21.322s-22.64,10.687-22.226,22.9,11.034,21.758,23.723,21.322,22.639-10.686,22.226-22.9" transform="translate(-5597.757 -4907.777)" fill="#a49c3a"/>
    <path id="Контур_888" data-name="Контур 888" d="M867.7,446.889a19.515,19.515,0,0,0,9.779-10.359l-1.144-.416a18.626,18.626,0,0,1-9.138,9.653Z" transform="translate(-5585.548 -4899.355)" fill="#7d4133"/>
    <path id="Контур_889" data-name="Контур 889" d="M870.311,451.792A19.552,19.552,0,0,1,860.2,441.74l1.131-.452a18.643,18.643,0,0,0,9.443,9.367Z" transform="translate(-5588.625 -4897.086)" fill="#7d4133"/>
    <path id="Контур_890" data-name="Контур 890" d="M879.592,435.867c-.357-10.546-9.53-18.792-20.491-18.417s-19.554,9.23-19.2,19.776,9.531,18.792,20.49,18.416,19.554-9.23,19.2-19.776" transform="translate(-5597.539 -4907.545)" fill="#b7af46"/>
    <path id="Контур_891" data-name="Контур 891" d="M867.5,430.167l-.788,1.289.726,78.151,2.309-.035Z" transform="translate(-5585.765 -4901.963)" fill="#7d4133"/>
    <path id="Контур_892" data-name="Контур 892" d="M892.747,427.142a27.737,27.737,0,0,0-27.31-24.5,22.225,22.225,0,0,0-22.368,24.894,27.736,27.736,0,0,0,27.31,24.5,22.226,22.226,0,0,0,22.368-24.894" transform="translate(-5596.189 -4914.034)" fill="#a49c3a"/>
    <path id="Контур_893" data-name="Контур 893" d="M897.563,423.747c-.492-14.551-13.15-25.927-28.271-25.409s-26.98,12.734-26.487,27.285,13.15,25.927,28.271,25.409,26.98-12.734,26.487-27.285" transform="translate(-5596.253 -4915.929)" fill="#b7af46"/>
    <path id="Контур_894" data-name="Контур 894" d="M847.759,410.841c4.365,8.2,14.328,13.738,25.733,13.347a30.326,30.326,0,0,0,18.022-6.482c-2.341-10.668-12.354-18.49-24.079-18.089a24.053,24.053,0,0,0-19.677,11.224" transform="translate(-5594.075 -4915.367)" fill="#c8bd49"/>
    <path id="Контур_895" data-name="Контур 895" d="M838,483.322c-.03-9.187-5.436-16.6-12.075-16.568s-11.995,7.512-11.964,16.7,5.436,16.6,12.074,16.568,12-7.512,11.966-16.7" transform="translate(-5608.96 -4885.917)" fill="#aaa341"/>
    <path id="Контур_896" data-name="Контур 896" d="M833.085,493.135c-.042-12.879-8.053-23.277-17.893-23.224s-17.781,10.537-17.737,23.418,8.053,23.277,17.891,23.224,17.782-10.539,17.739-23.418" transform="translate(-5616.217 -4884.533)" fill="#bdbb48"/>
    <path id="Контур_897" data-name="Контур 897" d="M826.094,474.936c-2.083,9.8-8.918,17.017-17.073,17.061a15.321,15.321,0,0,1-11.1-5.025c2.083-9.8,8.918-17.017,17.071-17.061a15.325,15.325,0,0,1,11.1,5.025" transform="translate(-5616.018 -4884.533)" fill="#cdc84d"/>
    <path id="Контур_898" data-name="Контур 898" d="M855.687,491.393c-.037-11.536-6.632-20.852-14.729-20.809s-14.629,9.433-14.591,20.969S833,512.4,841.1,512.36s14.629-9.431,14.591-20.967" transform="translate(-5603.5 -4884.238)" fill="#bdbb48"/>
    <path id="Контур_899" data-name="Контур 899" d="M852.966,487.361a11.26,11.26,0,0,1-6.625,2.313c-7.128.039-13.085-7.178-14.437-16.777a11.264,11.264,0,0,1,6.625-2.313c7.128-.039,13.087,7.178,14.438,16.776" transform="translate(-5601.068 -4884.238)" fill="#cdc84d"/>
    <path id="Контур_900" data-name="Контур 900" d="M864.175,513.543c.006-.355.036-.7.035-1.06-.066-20.176-11.94-36.468-26.52-36.388s-26.346,16.5-26.278,36.675c0,.358.033.7.042,1.06Z" transform="translate(-5610.063 -4881.821)" fill="#aaa341"/>
    <path id="Контур_901" data-name="Контур 901" d="M867.188,507.959a23.062,23.062,0,0,0,.171-2.774c-.03-9.187-5.438-16.605-12.077-16.569s-12,7.514-11.966,16.7a22.688,22.688,0,0,0,.19,2.772Z" transform="translate(-5596.044 -4876.33)" fill="#cdc84d"/>
    <path id="Контур_902" data-name="Контур 902" d="M835.4,476.094c9.428-.052,17.7,6.766,22.407,17.03-5.048,4.189-14.666,5.313-25.209,2.254a44.629,44.629,0,0,1-15.961-8.282c4.766-6.75,11.4-10.962,18.763-11" transform="translate(-5607.773 -4881.821)" fill="#b6ac4a"/>
    <path id="Контур_903" data-name="Контур 903" d="M834.668,474.145a10.259,10.259,0,0,1-7.695,3.919c-4.183.023-7.875-2.917-10.043-7.391a10.264,10.264,0,0,1,7.7-3.919c4.183-.023,7.873,2.917,10.041,7.391" transform="translate(-5607.659 -4885.917)" fill="#b6ac4a"/>
    <path id="Контур_904" data-name="Контур 904" d="M846.852,492.123a9.909,9.909,0,0,1,6.884-3.057c4.416-.024,8.277,3.261,10.383,8.161a9.909,9.909,0,0,1-6.883,3.057c-4.416.024-8.278-3.261-10.384-8.161" transform="translate(-5594.494 -4876.132)" fill="#ddd456"/>
    <path id="Контур_905" data-name="Контур 905" d="M881.523,479.484c-.036-11.04-6.534-19.954-14.512-19.911s-14.416,9.028-14.38,20.068,6.534,19.956,14.512,19.911,14.416-9.028,14.38-20.068" transform="translate(-5591.943 -4889.067)" fill="#aaa341"/>
    <path id="Контур_906" data-name="Контур 906" d="M875.612,491.278c-.052-15.479-9.68-27.976-21.5-27.911s-21.368,12.664-21.319,28.144,9.68,27.976,21.505,27.911,21.367-12.665,21.318-28.144" transform="translate(-5600.663 -4887.403)" fill="#bdbb48"/>
    <path id="Контур_907" data-name="Контур 907" d="M867.208,469.406c-2.5,11.778-10.719,20.451-20.518,20.5a18.416,18.416,0,0,1-13.344-6.039c2.5-11.777,10.717-20.451,20.518-20.5a18.42,18.42,0,0,1,13.344,6.039" transform="translate(-5600.425 -4887.403)" fill="#cdc84d"/>
    <path id="Контур_908" data-name="Контур 908" d="M902.774,489.184c-.046-13.865-7.971-25.06-17.7-25.008s-17.582,11.336-17.536,25.2,7.971,25.061,17.7,25.008,17.582-11.336,17.536-25.2" transform="translate(-5585.379 -4887.048)" fill="#bdbb48"/>
    <path id="Контур_909" data-name="Контур 909" d="M899.5,484.339a13.527,13.527,0,0,1-7.962,2.779c-8.565.047-15.726-8.627-17.351-20.161a13.546,13.546,0,0,1,7.963-2.781c8.567-.046,15.726,8.629,17.35,20.163" transform="translate(-5582.458 -4887.048)" fill="#cdc84d"/>
    <path id="Контур_910" data-name="Контур 910" d="M912.975,515.8c.007-.427.043-.844.042-1.275-.079-24.247-14.35-43.827-31.871-43.731s-31.663,19.829-31.584,44.076c0,.43.04.847.05,1.273Z" transform="translate(-5593.266 -4884.144)" fill="#aaa341"/>
    <path id="Контур_911" data-name="Контур 911" d="M916.6,509.094a27.53,27.53,0,0,0,.206-3.333c-.036-11.041-6.534-19.957-14.514-19.914s-14.417,9.03-14.381,20.071a27.747,27.747,0,0,0,.227,3.332Z" transform="translate(-5576.419 -4877.544)" fill="#cdc84d"/>
    <path id="Контур_912" data-name="Контур 912" d="M878.392,470.8c11.331-.062,21.275,8.131,26.928,20.466-6.066,5.034-17.625,6.384-30.3,2.71a53.674,53.674,0,0,1-19.182-9.955c5.727-8.111,13.7-13.174,22.55-13.222" transform="translate(-5590.514 -4884.144)" fill="#b6ac4a"/>
    <path id="Контур_913" data-name="Контур 913" d="M877.515,468.456a12.331,12.331,0,0,1-9.249,4.71c-5.028.027-9.463-3.506-12.068-8.883a12.331,12.331,0,0,1,9.249-4.71c5.028-.027,9.463,3.506,12.068,8.883" transform="translate(-5590.379 -4889.067)" fill="#b6ac4a"/>
    <path id="Контур_914" data-name="Контур 914" d="M892.156,490.063a11.9,11.9,0,0,1,8.273-3.674c5.308-.029,9.948,3.92,12.478,9.808a11.9,11.9,0,0,1-8.273,3.674c-5.308.029-9.948-3.919-12.478-9.808" transform="translate(-5574.557 -4877.306)" fill="#ddd456"/>
    <path id="Контур_915" data-name="Контур 915" d="M797.984,507.971a9.691,9.691,0,0,1-3.42-7.121c-.027-6.154,6.486-11.169,14.548-11.2s14.62,4.931,14.649,11.086a9.68,9.68,0,0,1-3.355,7.148Z" transform="translate(-5617.493 -4875.876)" fill="#aaa341"/>
    <path id="Контур_916" data-name="Контур 916" d="M780.96,511.844a19.444,19.444,0,0,1-4.134-11.988c-.046-10.355,7.788-18.779,17.5-18.818s17.624,8.324,17.67,18.678a19.411,19.411,0,0,1-4.025,12.021Z" transform="translate(-5625.295 -4879.653)" fill="#cdc84d"/>
    <path id="Контур_917" data-name="Контур 917" d="M793.812,497.734c6.476-2.646,11.347-7.276,13.688-12.324a19.65,19.65,0,0,1,.459,24.411l-27.012.108a19.377,19.377,0,0,1-4.091-11.077,25.2,25.2,0,0,0,16.956-1.118" transform="translate(-5625.282 -4877.736)" fill="#bdbb48"/>
    <path id="Контур_918" data-name="Контур 918" d="M899.657,507.565a10.392,10.392,0,0,1-2.94-7.122c-.027-6.154,5.562-11.165,12.485-11.192s12.557,4.939,12.584,11.093a10.369,10.369,0,0,1-2.876,7.145Z" transform="translate(-5572.546 -4876.051)" fill="#aaa341"/>
    <path id="Контур_919" data-name="Контур 919" d="M882.86,511.441a19.444,19.444,0,0,1-4.134-11.987c-.046-10.355,7.788-18.779,17.5-18.818s17.624,8.325,17.67,18.678a19.411,19.411,0,0,1-4.025,12.021Z" transform="translate(-5580.455 -4879.829)" fill="#cdc84d"/>
    <path id="Контур_920" data-name="Контур 920" d="M895.713,497.33c6.475-2.646,11.347-7.276,13.688-12.324a19.65,19.65,0,0,1,.459,24.411l-27.012.108a19.388,19.388,0,0,1-4.093-11.077,25.2,25.2,0,0,0,16.958-1.118" transform="translate(-5580.442 -4877.913)" fill="#bdbb48"/>
    <path id="Контур_921" data-name="Контур 921" d="M953.232,507.351a11.289,11.289,0,0,1-2.545-7.124,10.837,10.837,0,1,1,21.665-.086,11.278,11.278,0,0,1-2.48,7.144Z" transform="translate(-5548.571 -4876.143)" fill="#aaa341"/>
    <path id="Контур_922" data-name="Контур 922" d="M936.242,511.23a19.444,19.444,0,0,1-4.135-11.987c-.046-10.355,7.788-18.779,17.5-18.818s17.624,8.325,17.67,18.678a19.411,19.411,0,0,1-4.025,12.021Z" transform="translate(-5556.719 -4879.922)" fill="#aaa341"/>
    <path id="Контур_923" data-name="Контур 923" d="M949.095,497.119c6.475-2.646,11.347-7.276,13.688-12.324a19.65,19.65,0,0,1,.459,24.411l-27.012.108a19.386,19.386,0,0,1-4.093-11.077,25.2,25.2,0,0,0,16.958-1.118" transform="translate(-5556.707 -4878.005)" fill="#bdbb48"/>
    <path id="Контур_924" data-name="Контур 924" d="M923.052,524.6a96.435,96.435,0,0,1-4.234-29.045c-.114-25.067,7.711-45.42,17.477-45.458s17.775,20.251,17.889,45.318a96.386,96.386,0,0,1-3.97,29.078Z" transform="translate(-5562.813 -4893.221)" fill="#aaa341"/>
    <path id="Контур_925" data-name="Контур 925" d="M922.677,461.739c2.841,12.284,9.93,21.006,18.211,20.973,4.648-.019,8.9-2.794,12.219-7.4a111.081,111.081,0,0,1,1.077,15,96.392,96.392,0,0,1-3.97,29.078l-27.162.106a105.128,105.128,0,0,1-.375-57.761" transform="translate(-5562.813 -4888.117)" fill="#9f9b39"/>
    <path id="Контур_926" data-name="Контур 926" d="M903.727,537.422c-3.006-12.281-4.857-28.089-4.934-45.352-.177-39.135,8.805-70.9,20.064-70.941s20.528,31.644,20.705,70.78c.079,17.263-1.627,33.085-4.523,45.389Z" transform="translate(-5571.622 -4905.927)" fill="#cdc84d"/>
    <path id="Контур_927" data-name="Контур 927" d="M910.31,505.9c13.157-.052,23.684-30.7,23.513-68.465,0-.164-.006-.325-.006-.489,3.412,12.618,5.54,29.483,5.625,48.031.078,17.263-1.628,33.086-4.524,45.39l-31.31.124a183.612,183.612,0,0,1-4.544-32.585c3.365,5.113,7.193,8.011,11.247,8" transform="translate(-5571.501 -4898.992)" fill="#b6ac4a"/>
    <path id="Контур_928" data-name="Контур 928" d="M980.246,507.284a11.377,11.377,0,0,1-2.563-7.174,10.913,10.913,0,1,1,21.817-.086,11.363,11.363,0,0,1-2.5,7.194Z" transform="translate(-5536.732 -4876.229)" fill="#aaa341"/>
    <path id="Контур_929" data-name="Контур 929" d="M963.124,511.189a19.574,19.574,0,0,1-4.163-12.071c-.047-10.427,7.843-18.911,17.624-18.95s17.746,8.383,17.794,18.809a19.559,19.559,0,0,1-4.054,12.1Z" transform="translate(-5544.943 -4880.035)" fill="#aaa341"/>
    <path id="Контур_930" data-name="Контур 930" d="M976.067,496.98c6.521-2.664,11.427-7.327,13.784-12.411a19.792,19.792,0,0,1,.462,24.582l-27.2.108a19.523,19.523,0,0,1-4.12-11.153,25.379,25.379,0,0,0,17.076-1.126" transform="translate(-5544.93 -4878.104)" fill="#bdbb48"/>
    <path id="Контур_931" data-name="Контур 931" d="M1035.492,427.846c-.475-15.06-12.678-26.833-27.258-26.3s-26.011,13.18-25.536,28.24,12.678,26.833,27.256,26.3,26.012-13.179,25.537-28.239" transform="translate(-5534.539 -4914.522)" fill="#a49c3a"/>
    <path id="Контур_932" data-name="Контур 932" d="M1016.51,434.182c-.475-15.06-12.678-26.833-27.258-26.3s-26.011,13.18-25.536,28.24,12.678,26.833,27.256,26.3,26.012-13.179,25.537-28.239" transform="translate(-5542.863 -4911.744)" fill="#a49c3a"/>
    <path id="Контур_933" data-name="Контур 933" d="M996.228,444.839a23.661,23.661,0,0,0,11.237-12.776l-1.315-.514c-.027.081-2.74,8.079-10.5,11.906Z" transform="translate(-5528.852 -4901.356)" fill="#7d4133"/>
    <path id="Контур_934" data-name="Контур 934" d="M999.233,450.887a23.564,23.564,0,0,1-11.614-12.4l1.3-.557c.03.079,2.982,7.983,10.85,11.552Z" transform="translate(-5532.375 -4898.557)" fill="#7d4133"/>
    <path id="Контур_935" data-name="Контур 935" d="M1009.9,431.246c-.41-13.007-10.95-23.177-23.542-22.713s-22.467,11.383-22.057,24.391,10.95,23.177,23.544,22.713,22.466-11.383,22.056-24.391" transform="translate(-5542.608 -4911.458)" fill="#b7af46"/>
    <path id="Контур_936" data-name="Контур 936" d="M996.006,424.215l-.906,1.59.834,96.389,2.654-.045Z" transform="translate(-5529.094 -4904.573)" fill="#7d4133"/>
    <path id="Контур_937" data-name="Контур 937" d="M1025.008,420.484c-1.568-16.823-15.616-30.351-31.378-30.216s-27.268,13.882-25.7,30.7,15.615,30.351,31.378,30.216,27.268-13.882,25.7-30.7" transform="translate(-5541.072 -4919.461)" fill="#a49c3a"/>
    <path id="Контур_938" data-name="Контур 938" d="M1030.542,416.3c-.567-17.946-15.109-31.978-32.483-31.338s-31,15.7-30.431,33.652,15.109,31.978,32.483,31.338,31-15.7,30.431-33.652" transform="translate(-5541.149 -4921.799)" fill="#b7af46"/>
    <path id="Контур_939" data-name="Контур 939" d="M973.32,400.379c5.013,10.112,16.464,16.943,29.565,16.461a33.429,33.429,0,0,0,20.709-7.994c-2.69-13.157-14.2-22.8-27.666-22.309a27.319,27.319,0,0,0-22.608,13.842" transform="translate(-5538.646 -4921.105)" fill="#c8bd49"/>
    <g id="Сгруппировать_2378" data-name="Сгруппировать 2378">
      <g id="Сгруппировать_155" data-name="Сгруппировать 155" transform="translate(-5789.52 -4517.528)">
        <g id="Сгруппировать_154" data-name="Сгруппировать 154" transform="translate(0 0)" clip-path="url(#clip-path)">
          <path id="Контур_940" data-name="Контур 940" d="M187.177,470.328c0-22.283-13.875-40.346-30.991-40.346s-30.992,18.063-30.992,40.346,13.876,40.346,30.992,40.346,30.991-18.063,30.991-40.346" transform="translate(-122.518 -384.516)" fill="#aaa341"/>
          <path id="Контур_941" data-name="Контур 941" d="M175.778,494.044c0-31.243-19.455-56.57-43.453-56.57S88.872,462.8,88.872,494.044s19.455,56.57,43.453,56.57,43.453-25.327,43.453-56.57" transform="translate(-138.448 -381.231)" fill="#bdbb48"/>
          <path id="Контур_942" data-name="Контур 942" d="M158.857,449.81c-5.159,23.742-21.889,41.159-41.779,41.159-10.231,0-19.618-4.632-27.042-12.336,5.16-23.742,21.889-41.159,41.779-41.159,10.231,0,19.618,4.634,27.042,12.336" transform="translate(-137.937 -381.231)" fill="#cdc84d"/>
          <path id="Контур_943" data-name="Контур 943" d="M232.708,490.127c0-27.983-16.923-50.666-37.8-50.666s-37.8,22.683-37.8,50.666,16.922,50.666,37.8,50.666,37.8-22.683,37.8-50.666" transform="translate(-108.52 -380.359)" fill="#bdbb48"/>
          <path id="Контур_944" data-name="Контур 944" d="M225.679,480.344a30.181,30.181,0,0,1-17.1,5.523c-18.378,0-33.677-17.585-37.079-40.882a30.172,30.172,0,0,1,17.1-5.524c18.376,0,33.677,17.586,37.079,40.884" transform="translate(-102.21 -380.36)" fill="#cdc84d"/>
          <path id="Контур_945" data-name="Контур 945" d="M254.446,543.92c.019-.862.1-1.7.1-2.572,0-48.938-30.474-88.613-68.066-88.611s-68.067,39.673-68.067,88.611c0,.869.081,1.71.1,2.572Z" transform="translate(-125.492 -374.537)" fill="#aaa341"/>
          <path id="Контур_946" data-name="Контур 946" d="M262.212,530.474a52.313,52.313,0,0,0,.465-6.725c0-22.285-13.876-40.35-30.994-40.35s-31,18.065-31,40.35a52.289,52.289,0,0,0,.465,6.725Z" transform="translate(-89.41 -361.09)" fill="#cdc84d"/>
          <path id="Контур_947" data-name="Контур 947" d="M180.505,452.736c24.31,0,45.585,16.644,57.624,41.6-13.049,10.093-37.857,12.692-65.013,5.136-16.043-4.464-30.263-11.752-41.081-20.3,12.344-16.309,29.492-26.439,48.469-26.439" transform="translate(-119.518 -374.537)" fill="#b6ac4a"/>
          <path id="Контур_948" data-name="Контур 948" d="M178.622,448.043c-5.382,5.865-12.308,9.4-19.875,9.4-10.785,0-20.275-7.18-25.825-18.061,5.38-5.865,12.307-9.4,19.874-9.4,10.786,0,20.275,7.18,25.826,18.061" transform="translate(-119.129 -384.516)" fill="#b6ac4a"/>
          <path id="Контур_949" data-name="Контур 949" d="M209.878,490.85a26.269,26.269,0,0,1,17.773-7.324c11.388,0,21.314,8.019,26.7,19.933a26.271,26.271,0,0,1-17.773,7.324c-11.388,0-21.314-8.019-26.7-19.933" transform="translate(-85.379 -361.034)" fill="#ddd456"/>
          <path id="Контур_950" data-name="Контур 950" d="M262.293,525.882a19.277,19.277,0,0,1-4.592-12.5,19.8,19.8,0,0,1,39.588,0,19.265,19.265,0,0,1-4.592,12.5Z" transform="translate(-64.406 -356.5)" fill="#aaa341"/>
          <path id="Контур_951" data-name="Контур 951" d="M239.2,532.545a40.8,40.8,0,0,1-5.531-21.029c0-18.137,10.676-32.842,23.843-32.842s23.847,14.7,23.847,32.842a40.8,40.8,0,0,1-5.531,21.029Z" transform="translate(-74.945 -363.162)" fill="#cdc84d"/>
          <path id="Контур_952" data-name="Контур 952" d="M256.7,507.888a39.831,39.831,0,0,0,18.635-21.494,42.533,42.533,0,0,1,.472,42.766H239.185a40.393,40.393,0,0,1-5.481-19.432c6.616,2.771,14.888,2.392,23-1.84" transform="translate(-74.93 -359.776)" fill="#bdbb48"/>
        </g>
      </g>
      <g id="Сгруппировать_2377" data-name="Сгруппировать 2377">
        <g id="Сгруппировать_157" data-name="Сгруппировать 157" transform="translate(-4732.905 -4566.95)">
          <g id="Сгруппировать_156" data-name="Сгруппировать 156" transform="translate(0 0)" clip-path="url(#clip-path-2)">
            <path id="Контур_953" data-name="Контур 953" d="M1072.036,446.144c0-25.432,15.837-46.05,35.373-46.05s35.371,20.617,35.371,46.05-15.839,46.05-35.373,46.05-35.371-20.617-35.371-46.05" transform="translate(-762.447 -348.202)" fill="#aaa341"/>
            <path id="Контур_954" data-name="Контур 954" d="M1093.717,473.211c0-35.659,22.2-64.566,49.6-64.566s49.594,28.906,49.594,64.566-22.2,64.565-49.594,64.565-49.6-28.906-49.6-64.565" transform="translate(-752.939 -344.452)" fill="#bdbb48"/>
            <path id="Контур_955" data-name="Контур 955" d="M1106.738,422.724c5.888,27.1,24.983,46.976,47.684,46.976,11.677,0,22.391-5.288,30.864-14.079-5.89-27.1-24.983-46.976-47.684-46.976-11.677,0-22.391,5.288-30.864,14.079" transform="translate(-747.229 -344.452)" fill="#cdc84d"/>
            <path id="Контур_956" data-name="Контур 956" d="M1024.805,468.74c0-31.937,19.316-57.827,43.141-57.827s43.141,25.89,43.141,57.827-19.314,57.829-43.141,57.829-43.141-25.891-43.141-57.829" transform="translate(-783.161 -343.457)" fill="#bdbb48"/>
            <path id="Контур_957" data-name="Контур 957" d="M1025.375,457.575a34.445,34.445,0,0,0,19.517,6.3c20.976,0,38.437-20.071,42.321-46.663a34.444,34.444,0,0,0-19.517-6.3c-20.974,0-38.438,20.072-42.321,46.663" transform="translate(-782.911 -343.458)" fill="#cdc84d"/>
            <path id="Контур_958" data-name="Контур 958" d="M1021.058,530.137c-.022-.984-.114-1.943-.114-2.935,0-55.857,34.782-101.138,77.688-101.138s77.687,45.282,77.687,101.138c0,.991-.092,1.951-.114,2.935Z" transform="translate(-784.855 -336.813)" fill="#aaa341"/>
            <path id="Контур_959" data-name="Контур 959" d="M986.4,514.789a59.929,59.929,0,0,1-.531-7.676c0-25.434,15.839-46.053,35.376-46.053s35.376,20.619,35.376,46.053a59.643,59.643,0,0,1-.531,7.676Z" transform="translate(-800.239 -321.465)" fill="#aaa341"/>
            <path id="Контур_960" data-name="Контур 960" d="M1095,426.065c-27.747,0-52.028,19-65.77,47.484,14.893,11.519,43.209,14.485,74.2,5.861,18.31-5.094,34.54-13.412,46.889-23.168-14.091-18.615-33.661-30.177-55.321-30.177" transform="translate(-781.221 -336.812)" fill="#b6ac4a"/>
            <path id="Контур_961" data-name="Контур 961" d="M1076.134,420.709c6.143,6.694,14.047,10.733,22.685,10.733,12.31,0,23.141-8.2,29.476-20.613-6.143-6.694-14.047-10.735-22.685-10.735-12.31,0-23.141,8.2-29.476,20.615" transform="translate(-760.65 -348.202)" fill="#b6ac4a"/>
            <path id="Контур_962" data-name="Контур 962" d="M1040.033,469.565c-5.746-5.252-12.733-8.359-20.287-8.359-13,0-24.325,9.154-30.474,22.751,5.746,5.251,12.733,8.358,20.287,8.358,13,0,24.325-9.152,30.474-22.749" transform="translate(-798.745 -321.401)" fill="#bdbb48"/>
            <path id="Контур_963" data-name="Контур 963" d="M978.509,509.549a22,22,0,0,0,5.241-14.265,22.594,22.594,0,0,0-45.184,0,21.993,21.993,0,0,0,5.241,14.263Z" transform="translate(-820.982 -316.225)" fill="#b6ac4a"/>
            <path id="Контур_964" data-name="Контур 964" d="M1007.686,517.154a46.575,46.575,0,0,0,6.314-24c0-20.7-12.185-37.485-27.216-37.485s-27.216,16.782-27.216,37.485a46.575,46.575,0,0,0,6.314,24Z" transform="translate(-811.772 -323.83)" fill="#b6ac4a"/>
            <path id="Контур_965" data-name="Контур 965" d="M987.69,489.011a45.467,45.467,0,0,1-21.269-24.532,48.548,48.548,0,0,0-.539,48.81h41.8a46.122,46.122,0,0,0,6.253-22.178c-7.55,3.162-16.989,2.73-26.249-2.1" transform="translate(-811.772 -319.965)" fill="#aaa341"/>
          </g>
        </g>
        <path id="Контур_966" data-name="Контур 966" d="M123.335,520.831l1440-28.531V603.832l-1440-18.939Z" transform="translate(-5912.853 -4874.714)" fill="#a49c3d"/>
      </g>
    </g>
  </g>
</svg>
