<svg id="tree" xmlns="http://www.w3.org/2000/svg" xmlns:xlink="http://www.w3.org/1999/xlink" width="453.603" height="262.898" viewBox="0 0 453.603 262.898">
  <defs>
    <clipPath id="clip-path">
      <rect id="Прямоугольник_117" data-name="Прямоугольник 117" width="453.603" height="262.898" fill="none"/>
    </clipPath>
  </defs>
  <g id="Сгруппировать_187" data-name="Сгруппировать 187" clip-path="url(#clip-path)">
    <path id="Контур_1715" data-name="Контур 1715" d="M171.5,165.415c2.356,16.374,22.859,33.935,31.256,34.148s49.049.5,70.413-14.248c0,0,153.118-32.873,153.407-67.825C426.671,106.152,372.2,93,372.2,93s7.575-18.027-4.743-22.289S288.379,58.62,288.379,58.62,273.191-3.124,159.089,22.586C141.278,26.6,94.8,69.471,72.388,79.075s-133.449,73.234-26.9,53.53c0,0-7.3,24.108,16.516,34.438s74.023,14.231,109.491-1.628" transform="translate(0 0.369)" fill="#8a8f3a"/>
    <path id="Контур_1716" data-name="Контур 1716" d="M208.147,98.753c-71.6,33.324-114.064,131.518-151.664,143.079L46.362,260.667c33.555-2.636,96.684-128.868,161-156.862Z" transform="translate(1.048 2.232)" fill="#4e322f"/>
    <path id="Контур_1717" data-name="Контур 1717" d="M140.371,154.085l-10.347,13.948s45.446-40.37,95.8-45.9c54.988-6.042,73.6,9.839,73.6,9.839l2.753-3.8s-76.922-42.951-161.805,25.917" transform="translate(2.939 2.598)" fill="#4e322f"/>
    <path id="Контур_1718" data-name="Контур 1718" d="M117.735,183.492l-7.061,6.778s21.168-30.782,26.167-66.808c5.459-39.33-1.133-53.514-1.133-53.514l1.924-1.8s16.561,57.532-19.9,115.346" transform="translate(2.501 1.54)" fill="#4e322f"/>
    <path id="Контур_1719" data-name="Контур 1719" d="M372.2,93s7.576-18.026-4.743-22.289-79.082-12.091-79.082-12.091S273.191-3.125,159.09,22.585C141.278,26.6,94.8,69.471,72.389,79.074s-133.45,73.235-26.9,53.53c0,0,71.508-18.792,86.22-26.058a120.894,120.894,0,0,0,21.882-2.431c20.071,14.235,57.376,11.046,83.17,4.323a202.642,202.642,0,0,0,21.631,3.691c22.409,29.978,69.755,28.36,69.755,28.36,8.889,9.544,22.977,15.248,38.072,18.313,32.12-11.785,60.234-26.355,60.354-41.311C426.672,106.151,372.2,93,372.2,93" transform="translate(0 0.369)" fill="#d0d64f"/>
    <path id="Контур_1720" data-name="Контур 1720" d="M312.721,80.789s-45.227,11.763-80.229-9.855c-11.235-6.938-3.6-24.523-3.6-24.523S174.427,33.259,174.52,21.922a12.752,12.752,0,0,1,.293-2.512q-7.538,1.27-15.723,3.106c-17.812,4.016-80.2,39.131-86.7,56.488-22.405,9.605-133.449,73.234-26.9,53.53,0,0,71.507-18.792,86.219-26.059a120.866,120.866,0,0,0,21.883-2.43c20.071,14.234,57.376,11.045,83.17,4.323a202.642,202.642,0,0,0,21.632,3.691c22.407,29.978,69.755,28.359,69.755,28.359,8.888,9.545,22.976,15.249,38.07,18.314,30.323-11.124,57.054-24.733,60.063-38.8-99.8,16.827-113.563-39.142-113.563-39.142" transform="translate(0 0.439)" fill="#c4c445"/>
    <path id="Контур_1721" data-name="Контур 1721" d="M286.384,50.141l.993,2.378c5.459,8.332,11.269-12.936,11.269-12.936-9.333,1.937-16.679,7.718-12.262,10.558" transform="translate(6.443 0.895)" fill="#d0d64f"/>
    <path id="Контур_1722" data-name="Контур 1722" d="M279.406,43.39l1.953,1.178c8.58,3.043,4.056-15.476,4.056-15.476-7.338,6.471-11.181,14.649-6.009,14.3" transform="translate(6.261 0.658)" fill="#d0d64f"/>
    <path id="Контур_1723" data-name="Контур 1723" d="M266.462,127.379l-1.361-1.873c-6.63-6.039-8.548,14.573-8.548,14.573,8.583-4.192,14.608-11.312,9.909-12.7" transform="translate(5.798 2.812)" fill="#c4c445"/>
    <path id="Контур_1724" data-name="Контур 1724" d="M45.215,134.181l-1.607-1.535c-7.453-4.486-6.727,15.764-6.727,15.764,8.091-5.765,13.239-13.84,8.333-14.229" transform="translate(0.833 2.983)" fill="#c4c445"/>
    <path id="Контур_1725" data-name="Контур 1725" d="M54.284,132.246l-1.608-.166c-6.673.9-.16,13.466-.16,13.466,4.1-7.771,5.4-15.528,1.767-13.3" transform="translate(1.123 2.98)" fill="#c4c445"/>
    <path id="Контур_1726" data-name="Контур 1726" d="M70.8,73.248l1.3-1.5c4.374-7-8.467-6.959-8.467-6.959,1.91,7.95,5.887,13.146,7.164,8.454" transform="translate(1.438 1.464)" fill="#c4c445"/>
    <path id="Контур_1727" data-name="Контур 1727" d="M77.012,63.663l1.618-.731c6.16-4.361-4.587-11.346-4.587-11.346-1.247,8.716.228,15.908,2.97,12.077" transform="translate(1.663 1.166)" fill="#c4c445"/>
    <path id="Контур_1728" data-name="Контур 1728" d="M169.965,12.989l1.651-.3C178.2,9.962,169.287,0,169.287,0c-2.709,8.458-2.585,16.112.678,12.989" transform="translate(3.783)" fill="#c4c445"/>
    <path id="Контур_1729" data-name="Контур 1729" d="M273.789,133.393l-1.6-.423c-6.778-.386-.989,11.562-.989,11.562,4.6-5.973,6.391-12.423,2.593-11.138" transform="translate(6.077 3.005)" fill="#c4c445"/>
    <path id="Контур_1730" data-name="Контур 1730" d="M429.61,123.343l14.414,5.226L428.7,134.442l-4.829-5.744Z" transform="translate(9.58 2.788)" fill="#d0d64f"/>
    <path id="Контур_1731" data-name="Контур 1731" d="M422.95,117.774l9.373-1.894-3.363,6.006-6.163,5.079-3.8-4.11Z" transform="translate(9.47 2.619)" fill="#d0d64f"/>
    <path id="Контур_1732" data-name="Контур 1732" d="M366.164,165.952l-5.509,9.649-6.638-10.67,5.562-4.887Z" transform="translate(8.001 3.617)" fill="#aaaa3b"/>
    <path id="Контур_1733" data-name="Контур 1733" d="M371.035,166.521,363.87,160.3l8.605-2.327,11.743,7.068Z" transform="translate(8.224 3.57)" fill="#aaaa3b"/>
    <path id="Контур_1734" data-name="Контур 1734" d="M316.962,151.049l-.2-7.55,7.385-.763,5.7,13.519Z" transform="translate(7.159 3.226)" fill="#d0d64f"/>
  </g>
</svg>
