<svg xmlns="http://www.w3.org/2000/svg" xmlns:xlink="http://www.w3.org/1999/xlink" width="419.467" height="533.495" viewBox="0 0 419.467 533.495">
  <defs>
    <clipPath id="clip-path">
      <rect id="Прямоугольник_116" data-name="Прямоугольник 116" width="419.467" height="533.495" fill="none"/>
    </clipPath>
    <clipPath id="clip-path-3">
      <rect id="Прямоугольник_114" data-name="Прямоугольник 114" width="69.227" height="17.148" fill="none"/>
    </clipPath>
  </defs>
  <g id="big-fisherman" transform="translate(-709.267 -625.169)">
    <path id="Контур_1786" data-name="Контур 1786" d="M-7601.435-6019v531.761" transform="translate(8312.436 6645.903)" fill="none" stroke="#2a2c36" stroke-width="2"/>
    <g id="Сгруппировать_184" data-name="Сгруппировать 184" transform="translate(709.267 625.169)">
      <g id="Сгруппировать_183" data-name="Сгруппировать 183" transform="translate(0 0)" clip-path="url(#clip-path)">
        <g id="Сгруппировать_182" data-name="Сгруппировать 182" transform="translate(0)">
          <g id="Сгруппировать_181" data-name="Сгруппировать 181" clip-path="url(#clip-path)">
            <path id="Контур_1640" data-name="Контур 1640" d="M58.208,101.554l41.135-2.6,55.585,103.022c-21.091,12.931-71.15,19.637-71.15,19.637l-4.449-11.485-6.667,14.081C49.946,220.9,27.626,204.557,8.179,193.087Z" transform="translate(233.413 277.642)" fill="#e07728"/>
            <path id="Контур_1641" data-name="Контур 1641" d="M95.467,77.5C93.305,70.228,84.754,32.582,80.18,29.7,78.558,28.67,69.36,28.4,57.114,26.36c-9.392-1.56-17.042-2.664-22.236,0-4.5,2.306-19.98,47.361-19.98,47.361Z" transform="translate(267.304 69.439)" fill="#c19f63"/>
            <path id="Контур_1642" data-name="Контур 1642" d="M50.8,26.361c7.71,1.282,14.206,1.865,18.37,2.379a34.884,34.884,0,0,1-5.663,15.991c-8.78,13.426-24.383,18.762-34.852,11.915-4.734-3.094-7.585-8.152-8.506-14,3.421-8.384,6.709-15.413,8.418-16.288,5.195-2.664,12.84-1.564,22.232,0" transform="translate(273.614 69.438)" fill="#d3b372"/>
            <g id="Сгруппировать_180" data-name="Сгруппировать 180" transform="translate(289.539 114.439)" opacity="0.6" style="mix-blend-mode: overlay;isolation: isolate">
              <g id="Сгруппировать_179" data-name="Сгруппировать 179">
                <g id="Сгруппировать_178" data-name="Сгруппировать 178" clip-path="url(#clip-path-3)">
                  <path id="Контур_1643" data-name="Контур 1643" d="M83.237,39.912c.674,2.477,1.328,4.947,1.941,7.3C54.223,33.876,30.29,35.2,15.95,38.512c.936-2.477,1.91-5,2.888-7.467a127.02,127.02,0,0,1,64.4,8.867" transform="translate(-15.949 -30.071)" fill="#efe0c7"/>
                </g>
              </g>
            </g>
            <path id="Контур_1644" data-name="Контур 1644" d="M95.693,75.381C166.858,86.09,189.555,59.9,142.959,47.147c-59.908-16.4-114.393-17-134.837-3.749C-10.861,55.7,53.945,69.1,95.693,75.381" transform="translate(234.182 95.651)" fill="#a8915d"/>
            <path id="Контур_1645" data-name="Контур 1645" d="M144.328,50.76c-59.912-16.4-114.393-17-134.837-3.752C7.4,48.362,6.378,49.732,6.176,51.1c-2.3-2.565-2.006-5.16,1.926-7.706C28.546,30.145,83.027,30.75,142.939,47.148c16.022,4.384,23.85,10.359,24.333,15.873-2.9-4.407-10.378-8.821-22.944-12.262" transform="translate(234.202 95.654)" fill="#d3b379"/>
            <path id="Контур_1646" data-name="Контур 1646" d="M88.64,54.9c-8.338,3.889-34.833,64.3-37.8,68.372s-12.6,27.792-13.343,38.167,37.428,25.57,37.428,25.57l26.681-29.273-1.111-85.6Z" transform="translate(175.189 154.02)" fill="#edb73e"/>
            <path id="Контур_1647" data-name="Контур 1647" d="M72.907,60.448A569.922,569.922,0,0,1,51.6,118.815L39,120.668s17.787,2.223,20.939,9.263a16.3,16.3,0,0,0,10.374,8.7l7.782-15.379Z" transform="translate(192.958 169.594)" fill="#dd872a"/>
            <path id="Контур_1648" data-name="Контур 1648" d="M54.329,234.9,66.663,113.227,18.107,98.716l-4.989,21.768L32.1,234.9Z" transform="translate(302.882 276.96)" fill="#2f2e41"/>
            <path id="Контур_1649" data-name="Контур 1649" d="M61.34,240.959,74.675,112.827l-40.13-15.28-4.7,22.921L42.8,240.959Z" transform="translate(231.23 273.682)" fill="#2f2e41"/>
            <path id="Контур_1650" data-name="Контур 1650" d="M63.263,130.881l-3.889,41.135h-42.8l-4.449-43.357Z" transform="translate(310.068 360.968)" fill="#63474d"/>
            <path id="Контур_1651" data-name="Контур 1651" d="M55.667,167.568C54.232,151.2,42.039,137.922,28.43,137.922a20.185,20.185,0,0,0-14.7,6.393l-1.606-15.656,51.14,2.223-3.889,41.131H55.751a35.586,35.586,0,0,0-.084-4.445" transform="translate(310.069 360.969)" fill="#493037"/>
            <path id="Контур_1652" data-name="Контур 1652" d="M77.049,127.841l-2.9,46.528-38.73.453-5.5-41.306Z" transform="translate(228.522 358.673)" fill="#63474d"/>
            <path id="Контур_1653" data-name="Контур 1653" d="M44.912,136.137a36.829,36.829,0,0,0-14.7-.476l-.285-2.146,47.121-5.674-2.9,46.528-6.165.072c.7-1.458,2.477-32.371-23.077-38.3" transform="translate(228.518 358.674)" fill="#493037"/>
            <path id="Контур_1654" data-name="Контур 1654" d="M154.762,345.449c-42.246.556-80.6-7.783-80.6-7.783L63.6,259.845l-5.564,71.706-50.029,5L24.13,160.9l6.119-86.159s32.8-21.121,48.362-26.122,66.7,15.006,72.261,18.343,4.445,92.271,4.445,92.271L143.642,174.8l5.56,3.334-7.223,5.56,6.112,6.671c2.991,42.76,8.319,96.172,6.671,155.083" transform="translate(233.579 134.174)" fill="#edb73e"/>
            <path id="Контур_1655" data-name="Контур 1655" d="M15.008,152.422l.925-25.2s4.076-43.776,4.076-34.555c0,60.327,24.017,109.229,53.644,109.229s35.293-35.286,35.293-95.609c0-14.819,4.076-52.065,14.263-55.44,9.358,3.387,16.627,6.492,18.533,7.634,5.56,3.338,4.449,92.275,4.449,92.275L134.516,166.32l5.56,3.334-7.227,5.56,6.116,6.667c2.987,42.764,8.319,96.176,6.667,155.087a367.524,367.524,0,0,1-40.172-1.823c-.734-3.509-1.6-7.071-2.626-10.686C87.79,271.5,52.619,220.976,8.009,228.694Z" transform="translate(242.705 142.655)" fill="#e8a231"/>
            <path id="Контур_1656" data-name="Контур 1656" d="M31.638,217.859c.019-1.355,2.515-138.121,6.508-152.274l-2.1-.59C31.98,79.418,30.294,213.8,30.2,219.343l.685-6.009Z" transform="translate(266.381 182.352)" fill="#dd872a"/>
            <path id="Контур_1657" data-name="Контур 1657" d="M8.52,85.013C11.709,53.373,22.456,54.07,34.646,54.07c3.425,0,6.7,1.85,9.708,5.183,2.7,23.846,1.964,82.456,1.964,82.456L34.646,157.275l5.556,3.338-7.223,5.556,6.112,6.671c.666,9.5,1.446,19.542,2.238,30.034a11.267,11.267,0,0,1-6.683,2.39c-14.229,0-25.855-31.564-26.636-71.333.548-7.68.377-39.91.51-48.917" transform="translate(342.575 151.696)" fill="#dd872a"/>
            <path id="Контур_1658" data-name="Контур 1658" d="M26.269,215.21c1.111-.742,47.342-37.893,46.969-41.6a9.226,9.226,0,0,0-3.334-5.929s5.556-.373,5.556-2.6-3.334-4.818-3.334-4.818a23.036,23.036,0,0,0,3.334-9.632c.746-5.933-27.515-90.513-37.8-98.018C34.911,50.613,12.926,84.86,10.7,103.759s8.772,47.456,8.772,47.456L.143,184.362Z" transform="translate(343.447 147.401)" fill="#edb73e"/>
            <path id="Контур_1659" data-name="Контур 1659" d="M12.839,127.2l8.692-14.9s-10.4-27.02-8.92-45.888l.011.137C15.179,89.735,22.265,109,30.63,118.265c-5.6.578-11.889,3.749-17.791,8.936" transform="translate(341.396 186.321)" fill="#e8a231"/>
            <path id="Контур_1660" data-name="Контур 1660" d="M10.24,171.5c9.5-14.777,32.671-46.885,22.541-105.694-.137-.792-.186-1.583-.289-2.367,9.636,25.3,18.423,53.317,18,56.635a22.964,22.964,0,0,1-3.372,9.632S50.5,132.3,50.5,134.523s-5.621,2.592-5.621,2.592a9.21,9.21,0,0,1,3.372,5.925c.377,3.707-46.356,40.838-47.479,41.58l-.769-.9A61.864,61.864,0,0,0,10.24,171.5" transform="translate(368.96 177.994)" fill="#e8a231"/>
            <path id="Контур_1661" data-name="Контур 1661" d="M10.937,83.89c6.393-3.612,17.133-5.473,17.133-5.473L10,77.025Z" transform="translate(353.322 216.103)" fill="#e8a231"/>
            <path id="Контур_1662" data-name="Контур 1662" d="M68.6,133.182c-23.127-.065-28.946-5.606-28.946-5.606S35.578,105.713,46.7,90.521,75.229,78.293,75.229,78.293l10.6,9.868a20.538,20.538,0,0,1,4.647,23.652l-4.894,10.58A18.642,18.642,0,0,1,68.6,133.182" transform="translate(178.96 219.006)" fill="#f7d18d"/>
            <path id="Контур_1663" data-name="Контур 1663" d="M50.7,90.521C61.816,75.329,79.235,78.293,79.235,78.293l.681.632A38.439,38.439,0,0,1,79.6,97.4c-4.083,15.987-16.528,26.613-27.792,23.736a16.351,16.351,0,0,1-8.81-5.956c.323-7.432,2.036-16.912,7.706-24.66" transform="translate(174.958 219.006)" fill="#ffe4b8"/>
            <path id="Контур_1664" data-name="Контур 1664" d="M35.751,107.246c-1-12.551,8.456-25.087,21.121-28.006s23.739,4.886,24.74,17.434-8.46,25.09-21.125,28.009S36.748,119.8,35.751,107.246" transform="translate(202.001 220.598)" fill="#ea7754"/>
            <path id="Контур_1665" data-name="Контур 1665" d="M58.241,79.236a20.451,20.451,0,0,1,17.62,3.612,28.138,28.138,0,0,1-20.672,21.266,20.46,20.46,0,0,1-17.62-3.608,28.137,28.137,0,0,1,20.672-21.27" transform="translate(200.633 220.598)" fill="#ffa77b"/>
            <path id="Контур_1666" data-name="Контур 1666" d="M26.006,96.934c3.334-2.363,9.172-2.641,18.065-4.864L38.1,112.221l-12.787,1.667s-2.637-14.591.7-16.954" transform="translate(282.847 258.314)" fill="#ea7754"/>
            <path id="Контур_1667" data-name="Контур 1667" d="M51.395,101.581c-3.1,1.686-6.051-1.244-6.591-6.542s1.541-10.956,4.643-12.646,6.051,1.244,6.591,6.542S54.5,99.9,51.395,101.581" transform="translate(193.162 229.832)" fill="#ffa77b"/>
            <path id="Контур_1668" data-name="Контур 1668" d="M46.9,101.908c-3.1,1.686-6.051-1.241-6.591-6.542s1.541-10.956,4.643-12.642,6.051,1.241,6.591,6.538-1.541,10.96-4.643,12.646" transform="translate(214.744 230.753)" fill="#ffa77b"/>
            <path id="Контур_1669" data-name="Контур 1669" d="M48.985,101.581c-3.1,1.686-6.051-1.244-6.591-6.542s1.541-10.956,4.643-12.646,6.051,1.244,6.591,6.542-1.541,10.96-4.643,12.646" transform="translate(204.744 229.832)" fill="#ffa77b"/>
            <path id="Контур_1670" data-name="Контур 1670" d="M51.539,88.616c-1.05,3.372-5.054,4.582-8.947,2.71s-6.2-6.131-5.149-9.5,5.058-4.582,8.947-2.706,6.2,6.127,5.149,9.5" transform="translate(226.142 219.498)" fill="#ea7754"/>
            <path id="Контур_1671" data-name="Контур 1671" d="M51.526,85.646a6.392,6.392,0,1,1-6.393-6.393,6.393,6.393,0,0,1,6.393,6.393" transform="translate(220.5 222.354)" fill="#ffe4b8"/>
            <path id="Контур_1672" data-name="Контур 1672" d="M65.065,94.925a15.147,15.147,0,1,1-15.79-14.477,15.146,15.146,0,0,1,15.79,14.477" transform="translate(222.012 225.668)" fill="#493238"/>
            <path id="Контур_1673" data-name="Контур 1673" d="M58.857,82.035a15.132,15.132,0,0,1-21.871,12.5,15.132,15.132,0,0,1,21.871-12.5" transform="translate(219.855 225.668)" fill="#63474d"/>
            <path id="Контур_1674" data-name="Контур 1674" d="M398.934,461.649l3.425-2.691C400.251,456.275,189.945,189.178,9.847.67a2.176,2.176,0,0,0-3.151,3c179.945,188.356,390.13,455.3,392.238,457.976" transform="translate(-6.095 0)" fill="#63474d"/>
            <path id="Контур_1675" data-name="Контур 1675" d="M6.231,95.725h0a4.256,4.256,0,0,1,5.963.186l80.12,94.737a5.45,5.45,0,0,1-.381,7.364A4.692,4.692,0,0,1,85,197.6L5.337,101.624a4.233,4.233,0,0,1,.894-5.9" transform="translate(308.767 265.421)" fill="#493238"/>
            <path id="Контур_1676" data-name="Контур 1676" d="M41.122,8.657c19.843,51.216,76.919,83.807,82.171,86.715,23.142,68.376,77.227,91.076,83.351,93.451,1.964,7.817,24.874,92.2,102.265,120.825l.757-2.04c-79.648-29.459-100.834-118.941-101.039-119.843l-.133-.586-.567-.2c-.586-.205-58.713-21.27-82.708-92.7l-.137-.411-.384-.2c-.662-.354-66.515-36.039-83.963-92.747l-2.127.369" transform="translate(-37.123 2.57)" fill="#63474d"/>
            <path id="Контур_1677" data-name="Контур 1677" d="M43.733,82.916l24.558,29.368a7.543,7.543,0,0,1-.951,10.625l-1.062.887a7.543,7.543,0,0,1-10.625-.951L31.095,93.477a7.548,7.548,0,0,1,.951-10.629l1.058-.883a7.548,7.548,0,0,1,10.629.951" transform="translate(237.765 225.039)" fill="#63474d"/>
            <path id="Контур_1678" data-name="Контур 1678" d="M39.3,82.143a8.07,8.07,0,0,1,10.857.48,8.08,8.08,0,0,1-2.47,8.78l-.209.179A8.071,8.071,0,0,1,36.616,91.1a8.08,8.08,0,0,1,2.47-8.78Z" transform="translate(231.147 225.214)" fill="#7c535e"/>
            <path id="Контур_1679" data-name="Контур 1679" d="M46.016,90.014l25.46,20.436c-4.643,8.977-17.259,30.8-24.695,35.8S16.366,122.834,15.868,119.8s27.381-25.688,30.148-29.79" transform="translate(287.631 252.545)" fill="#ea7754"/>
            <path id="Контур_1680" data-name="Контур 1680" d="M74.612,127.87c-15.146-29.775-45.995-45.2-45.995-45.2L6.526,116.955l31.4,30.182Z" transform="translate(320.019 231.952)" fill="#f7d18d"/>
            <path id="Контур_1681" data-name="Контур 1681" d="M28.7,56.577l54.2,10.561c-36.964,30.019-70.039,40.024-70.039,40.024Z" transform="translate(287.662 158.734)" fill="#dd872a"/>
            <path id="Контур_1682" data-name="Контур 1682" d="M5.008,62.964C14.933,57.222,26.476,51.037,34,48.621c15.565-5,66.7,15.009,72.261,18.343.811.487,1.48,2.8,2.028,6.382,4.095,7.455,9.1,19.317,13.932,32.036-14.728,4.042-34.627,3.992-55.554-1.1C34.855,96.549,10.48,79.549,5.008,62.964" transform="translate(278.191 134.171)" fill="#dd872a"/>
            <path id="Контур_1683" data-name="Контур 1683" d="M41.395,141.427C18.607,109.742,14.512,84.644,14.512,84.644l3.528-4.129-5.766-6.009S28.615,45.594,61.009,43.444c33.375-2.215,51.6,17.536,52.628,33.124l-12.011,6.177,6.481,7.375c-17.658,29.9-35.86,38.524-66.713,51.307" transform="translate(259.12 121.408)" fill="#f2c56b"/>
            <path id="Контур_1684" data-name="Контур 1684" d="M58.651,43.444C77.085,42.219,90.888,47.7,99.733,55.478a43.127,43.127,0,0,1-4.479,13.754c-12.189,23.245-28.717,40.994-54.546,27.45C34.333,93.34,12.542,70.278,15.6,66.632,22.92,57.91,37.3,44.86,58.651,43.444" transform="translate(261.474 121.408)" fill="#edb73e"/>
            <path id="Контур_1685" data-name="Контур 1685" d="M12.861,63.743A28.394,28.394,0,0,1,22.984,47.935a55.69,55.69,0,0,1,18.522-4.491c33.375-2.215,51.6,17.536,52.628,33.124L82.123,82.745,88.6,90.116C81.632,101.921,74.573,110.4,66.687,117.14c-34.563-8.357-58.519-31.918-53.827-53.4" transform="translate(278.623 121.408)" fill="#edb73e"/>
            <path id="Контур_1686" data-name="Контур 1686" d="M32.593,131.133c37.8-33.722,47.8-83.1,47.8-83.1l-60.03.369c-5.294,22.377,2.877,60.152,12.227,82.73" transform="translate(267.922 134.763)" fill="#2f2e40"/>
            <path id="Контур_1687" data-name="Контур 1687" d="M31.6,121.257c32.74-29.212,41.409-71.983,41.409-71.983l-52,.32C16.422,68.98,23.5,101.7,31.6,121.257" transform="translate(272.018 138.244)" fill="#575664"/>
            <path id="Контур_1688" data-name="Контур 1688" d="M80.286,48.032A173.756,173.756,0,0,1,60.314,96.927C38.462,89.867,20.858,75.448,18.7,60.9a72.544,72.544,0,0,1,1-9.583A17.52,17.52,0,0,1,21.166,48.4Z" transform="translate(268.031 134.76)" fill="#2f2e40"/>
            <path id="Контур_1689" data-name="Контур 1689" d="M99.654,45.191l3.688,4.521L99.4,56.559l3.68,3.577L96.7,68.063l4.658,16.452s-15.1,14.617-54.283,22.609c-8.547,1.743-32.515-28.443-32.515-28.443L22.731,61.19l-3.992-4.5,3.646-4.62-2.477-7.432s16.452-6.9,34.776-8.243,44.971,8.8,44.971,8.8" transform="translate(260.701 101.759)" fill="#a54434"/>
            <path id="Контур_1690" data-name="Контур 1690" d="M97.743,60.136l-6.378,7.927,4.354,15.375C85.253,72.428,69.148,63.032,49.933,57.9A109.579,109.579,0,0,0,15.378,54.18l1.667-2.112L14.564,44.64s16.452-6.9,34.78-8.247,44.971,8.8,44.971,8.8L98,49.716,94.06,56.559Z" transform="translate(266.04 101.759)" fill="#772c22"/>
            <path id="Контур_1691" data-name="Контур 1691" d="M64.431,39.469A98.329,98.329,0,0,1,24.3,38.312l-3.623,7.84.274,6.869s11.581-6.713,19.116-5.157S62.022,55,62.022,55l5.7-4.963Z" transform="translate(273.055 107.489)" fill="#ffa77b"/>
            <path id="Контур_1692" data-name="Контур 1692" d="M40.065,47.864a17.039,17.039,0,0,0-6.976.331c-2.759-.263-5.617-.407-8.547-.407-1.282,0-2.546.034-3.794.088l-.069-1.724,3.619-7.84a98.338,98.338,0,0,0,40.13,1.157l3.288,10.564L62.023,55S47.6,49.421,40.065,47.864" transform="translate(273.054 107.489)" fill="#ea875c"/>
            <path id="Контур_1693" data-name="Контур 1693" d="M26.86,48.072s11.413,4.559,13.757,4.814c2.245.247,2.9-9.5,2.158-9.712S28.6,42.5,27.5,42.485c-1.115-.011-.643,5.587-.643,5.587" transform="translate(274.556 119.197)" fill="#3f2d2b"/>
            <path id="Контур_1694" data-name="Контур 1694" d="M27.126,47.314S36.618,51.169,38.6,51.4c1.918.225,2.5-8.045,1.869-8.224s-11.934-.5-12.833-.51c-.917,0-.51,4.647-.51,4.647" transform="translate(275.862 119.708)" fill="#fff1e1"/>
            <path id="Контур_1695" data-name="Контур 1695" d="M29.742,48.043l.852-1.26,7.516-.731-8.338-2.314-.464-1.111s-1.176,1.241-.974,2.314a14.03,14.03,0,0,0,1.408,3.1" transform="translate(273.615 119.598)" fill="#3f2d2b"/>
            <path id="Контур_1696" data-name="Контур 1696" d="M68.366,44.407s.061,2.306-.761,2.325l-35.016.8a2.443,2.443,0,1,1,.061-4.883Z" transform="translate(236.605 119.649)" fill="#3f2d2b"/>
            <path id="Контур_1697" data-name="Контур 1697" d="M58.963,42.448a3.859,3.859,0,0,1,3.775,3.01,14.726,14.726,0,0,1,.358,3.254c0,7.71-5.724,13.959-12.8,13.959S37.5,56.422,37.5,48.712a15.2,15.2,0,0,1,.354-3.254,3.866,3.866,0,0,1,3.779-3.01Z" transform="translate(213.649 119.093)" fill="#63474d"/>
            <path id="Контур_1698" data-name="Контур 1698" d="M47.488,47.686c7.729,0,14.043-2.124,14.583-4.814a3.681,3.681,0,0,1,.666,1.4,14.957,14.957,0,0,1,.358,3.254c0,7.71-5.731,13.959-12.8,13.959S37.5,55.233,37.5,47.522c0-.411.034-.814.065-1.218a32.875,32.875,0,0,0,9.921,1.381" transform="translate(213.654 120.283)" fill="#4f373e"/>
            <path id="Контур_1699" data-name="Контур 1699" d="M38.706,44.056c0-.613,4.011-1.111,8.962-1.111s8.966.5,8.966,1.111-4.015,1.111-8.966,1.111-8.962-.5-8.962-1.111" transform="translate(215.532 120.488)" fill="#473439"/>
            <path id="Контур_1700" data-name="Контур 1700" d="M85.715,112.109c-20.01-5.187-8.152-25.939-15.192-28.535s-19.272-13.339-15.2-23.717,11.858-16.3,4.449-21.121S43.1,26.878,42.358,16.873c7.413,10,23.347,8.521,28.9,20.01S51.252,56.151,57.923,66.16s13.868,5.552,20.01,11.116c3.573,3.235-4.616,20.364,7.783,34.833" transform="translate(172.553 47.339)" fill="#efe0c7"/>
            <path id="Контур_1701" data-name="Контур 1701" d="M47.352,135.6c-9.7-5.13-24.071-23.29-24.463-25.68-.274-1.659,7.977-9.213,15.949-16.383,7.668,4.7,12.935,14.321,12.935,25.456A32.586,32.586,0,0,1,47.352,135.6" transform="translate(280.609 262.427)" fill="#ffa77b"/>
            <path id="Контур_1702" data-name="Контур 1702" d="M30.646,39.145c-4.833,2.2-4.262,10.191-3.984,11.489s8.989-2.5,10.1-3.615S33.7,43.5,33.7,43.5s-2.036-4.818-3.056-4.354" transform="translate(281.727 109.738)" fill="#dd704a"/>
            <path id="Контур_1703" data-name="Контур 1703" d="M30.062,39.18c-4.2,1.91-3.7,8.856-3.463,9.982s7.809-2.173,8.776-3.14-2.656-3.06-2.656-3.06-1.77-4.186-2.656-3.783" transform="translate(283.285 109.848)" fill="#ea875c"/>
            <path id="Контур_1704" data-name="Контур 1704" d="M31.894,44.954c6.165.7,6.439,5.347,6.439,5.347s-1.732-3.178-6.774-3.95c-3.1-.476-3.539-1.838.335-1.4" transform="translate(270.345 125.88)" fill="#772c22"/>
            <path id="Контур_1705" data-name="Контур 1705" d="M32.622,50.126a68.874,68.874,0,0,0,1.994,17.468c-1.008.225-2.025.441-3.064.655a5.725,5.725,0,0,1-3.01-.392Z" transform="translate(276.231 140.635)" fill="#772c22"/>
            <path id="Контур_1706" data-name="Контур 1706" d="M21.032,64l-.373-16.307,5.377,14.454S40.528,56.01,47.892,49.716l.78,2.755S39,61.821,15.084,69.653C18.718,66.308,21.032,64,21.032,64" transform="translate(313.391 133.803)" fill="#772c22"/>
            <path id="Контур_1707" data-name="Контур 1707" d="M23.425,42.947c2.641-3.513,7.124-1.069,7.92.278a4.3,4.3,0,0,0-4.167-3.752,3.434,3.434,0,0,0-3.752,3.475" transform="translate(298.976 110.735)" fill="#473439"/>
            <path id="Контур_1708" data-name="Контур 1708" d="M29.742,42.673c2.641-3.513,7.124-1.069,7.919.278A4.3,4.3,0,0,0,33.494,39.2a3.432,3.432,0,0,0-3.752,3.475" transform="translate(268.619 109.966)" fill="#473439"/>
            <path id="Контур_1709" data-name="Контур 1709" d="M34.282,82.674a115.591,115.591,0,0,1,19.5,13.2c-1.4,17.723-11.1,31.453-22.879,31.453-6.957,0-13.183-4.81-17.415-12.387Z" transform="translate(314.355 231.952)" fill="#ffe4b8"/>
            <path id="Контур_1710" data-name="Контур 1710" d="M36.8,26.339c7.333,1.222,13.544,1.808,17.719,2.3a46.689,46.689,0,0,1-5.868,2.519c-13.042,4.548-25.562,2.656-27.964-4.228a7.11,7.11,0,0,1-.365-2.07c4.548-.4,10.1.415,16.478,1.477" transform="translate(287.615 69.46)" fill="#c19f63"/>
            <path id="Контур_1711" data-name="Контур 1711" d="M41.426,49.785c-1.279-2.892-.388-5.233,1.99-5.233s5.347,2.34,6.626,5.233.388,5.237-1.99,5.237-5.347-2.344-6.626-5.237" transform="translate(213.414 124.996)" fill="#63474d"/>
            <path id="Контур_1712" data-name="Контур 1712" d="M40.085,46.849c-.346-1.534.312-2.588,1.473-2.359a4.242,4.242,0,0,1,2.725,3.189c.346,1.53-.312,2.588-1.473,2.359a4.249,4.249,0,0,1-2.725-3.189" transform="translate(222.895 124.735)" fill="#63474d"/>
            <path id="Контур_1713" data-name="Контур 1713" d="M16.676,49.227c4.73.948,7.84-6.759,5.541-8.517s-3.973-2.687-5.054,1.366a17.587,17.587,0,0,0-.487,7.151" transform="translate(333.631 110.015)" fill="#ea875c"/>
            <path id="Контур_1714" data-name="Контур 1714" d="M37.326,46.118c-2.215.674-3.669-4.81-2.6-6.062s1.861-1.91,2.367.974a18.877,18.877,0,0,1,.228,5.088" transform="translate(251.265 109.395)" fill="#ea875c"/>
          </g>
        </g>
      </g>
    </g>
    <g id="Сгруппировать_2171" data-name="Сгруппировать 2171" transform="translate(16150.229 15795.138) rotate(9)">
      <path id="Path_34" data-name="Path 34" d="M235.121,244.528A12.779,12.779,0,1,1,247.9,231.749,12.795,12.795,0,0,1,235.121,244.528Zm0-24.781a12,12,0,1,0,12,12A12.017,12.017,0,0,0,235.121,219.747Z" transform="translate(-17491.395 -12563.199)" fill="#2a2c36"/>
      <path id="Path_35" data-name="Path 35" d="M100.454,120.044a19.129,19.129,0,1,1,16.457-9.364A19.157,19.157,0,0,1,100.454,120.044Zm0-37.5a18.365,18.365,0,1,0,18.36,18.36A18.38,18.38,0,0,0,100.454,82.547Z" transform="translate(-17356.82 -12432.269)" fill="#2a2c36"/>
      <path id="Контур_36" data-name="Контур 36" d="M319.1,394.529c0-2.281,1.577-2.539,3.08-2.539h1.7c1.9,0,3.265.481,3.265,2.724v.7h-6.985v.394c0,1.43.69,1.8,2.538,1.8h4.159c-.466.644-1.475.863-2.879.863h-1.92c-1.38,0-2.957-.259-2.957-2.576Zm6.988-.394c0-.64-.48-1.282-2.206-1.282h-1.554c-1.675,0-2.07.271-2.169,1.7h5.928Z" transform="translate(-17583.732 -12728.312)" fill="#2a2c36"/>
      <path id="Контур_37" data-name="Контур 37" d="M563.075,452.852a.483.483,0,1,1-.482-.482.483.483,0,0,1,.482.482" transform="translate(-17815.637 -12785.932)" fill="#2a2c36"/>
      <path id="Контур_38" data-name="Контур 38" d="M607.845,452.852a.483.483,0,1,1-.483-.482.483.483,0,0,1,.483.482" transform="translate(-17858.361 -12785.932)" fill="#2a2c36"/>
      <path id="Контур_39" data-name="Контур 39" d="M510.543,391.57H508.68c-1.5,0-3.08.259-3.08,2.539v1.771a2.265,2.265,0,0,0,1.057,2.211c0-.627,0-.868,0-2.3v-1.66c.1-1.43.493-1.7,2.169-1.7H510.4c1.675,0,2.069.271,2.169,1.7v1.66c0,1.428,0,1.67,0,2.3a2.265,2.265,0,0,0,1.057-2.211v-1.771c0-2.28-1.577-2.539-3.08-2.539" transform="translate(-17761.709 -12727.911)" fill="#2a2c36"/>
      <path id="Контур_40" data-name="Контур 40" d="M325.4,561.66h.284v.871h1.087v-.871h.284v2.1h-.284v-.96h-1.087v.96H325.4Z" transform="translate(-17589.744 -12890.228)" fill="#2a2c36"/>
      <path id="Контур_41" data-name="Контур 41" d="M373.4,561.66h.737c.536,0,.672.323.672.586a.562.562,0,0,1-.513.553l.594.956h-.355l-.533-.924h-.317v.924H373.4Zm.284.924h.373c.225,0,.45-.053.45-.337s-.225-.338-.45-.338h-.373Z" transform="translate(-17635.551 -12890.228)" fill="#2a2c36"/>
      <path id="Контур_42" data-name="Контур 42" d="M427.765,576.476a.355.355,0,0,0-.287-.137c-.125,0-.234.056-.234.157,0,.169.24.192.358.219.231.056.409.145.409.409,0,.317-.29.441-.569.441a.6.6,0,0,1-.542-.249l.2-.166a.466.466,0,0,0,.34.166c.137,0,.284-.056.284-.178,0-.16-.222-.189-.338-.216-.229-.056-.429-.13-.429-.4,0-.293.269-.432.533-.432a.541.541,0,0,1,.479.231Z" transform="translate(-17686.605 -12903.998)" fill="#2a2c36"/>
      <path id="Контур_43" data-name="Контур 43" d="M457.516,576a.737.737,0,1,1-.527.213A.737.737,0,0,1,457.516,576Zm0,1.226a.489.489,0,1,0-.461-.487.45.45,0,0,0,.461.487Z" transform="translate(-17715.113 -12903.911)" fill="#2a2c36"/>
      <path id="Контур_44" data-name="Контур 44" d="M497.171,558.55h.266v2.239h-.266Z" transform="translate(-17753.664 -12887.26)" fill="#2a2c36"/>
      <path id="Контур_45" data-name="Контур 45" d="M513.524,578.223h-.266v-.216h-.006a.5.5,0,0,1-.462.251.483.483,0,0,1-.509-.536v-.9h.266v.831c0,.263.151.361.32.361.222,0,.391-.142.391-.468v-.724h.266Z" transform="translate(-17768.084 -12904.694)" fill="#2a2c36"/>
      <path id="Контур_46" data-name="Контур 46" d="M544.786,568.825H544.4v.637c0,.157,0,.323.2.323a.373.373,0,0,0,.189-.042v.243a.61.61,0,0,1-.24.046c-.411,0-.418-.251-.418-.477v-.731h-.308v-.229h.308V568.2h.266v.394h.382Z" transform="translate(-17798.191 -12896.469)" fill="#2a2c36"/>
      <path id="Контур_47" data-name="Контур 47" d="M571.555,561.53a.2.2,0,1,1-.2.2A.2.2,0,0,1,571.555,561.53Zm-.133.7h.266v1.4h-.266Z" transform="translate(-17824.463 -12890.103)" fill="#2a2c36"/>
      <path id="Контур_48" data-name="Контур 48" d="M587.066,576a.737.737,0,1,1-.527.213A.737.737,0,0,1,587.066,576Zm0,1.226a.489.489,0,1,0-.462-.489.45.45,0,0,0,.462.489Z" transform="translate(-17838.74 -12903.911)" fill="#2a2c36"/>
      <path id="Контур_49" data-name="Контур 49" d="M626.29,576.076h.266v.216h.006a.494.494,0,0,1,.462-.252.484.484,0,0,1,.51.536v.9h-.266v-.828c0-.264-.151-.362-.32-.362-.222,0-.391.142-.391.468v.722h-.266Z" transform="translate(-17876.883 -12903.95)" fill="#2a2c36"/>
      <path id="Контур_50" data-name="Контур 50" d="M660.575,576.476a.355.355,0,0,0-.287-.137c-.124,0-.234.056-.234.157,0,.169.24.192.358.219.229.056.409.145.409.409,0,.317-.29.441-.569.441a.6.6,0,0,1-.542-.249l.2-.166a.466.466,0,0,0,.34.166c.137,0,.284-.056.284-.178,0-.16-.222-.189-.338-.216-.229-.056-.429-.13-.429-.4,0-.293.27-.432.533-.432a.541.541,0,0,1,.479.231Z" transform="translate(-17908.777 -12903.998)" fill="#2a2c36"/>
    </g>
  </g>
</svg>
