<svg xmlns="http://www.w3.org/2000/svg" width="596.63" height="476.723" viewBox="0 0 596.63 476.723">
  <g id="circles" transform="translate(-497.995 -1215.231)">
    <path id="Контур_677" data-name="Контур 677" d="M288.65,772.481c-5.369,13.562,7.28,29.554,21.75,26.655a21.656,21.656,0,0,0,15.732-14.263,18.53,18.53,0,0,0-5.152-19.246c-5.734-5.418-13.965-7.512-21.319-4.363-1.938.829-.556,4.018,1.431,3.394,10.063-3.161,23.209,5.407,21.1,16.687a17.077,17.077,0,0,1-11.022,12.621,13.964,13.964,0,0,1-14.73-3.842c-4.213-4.351-6.186-10.825-4.159-16.641.809-2.324-2.761-3.213-3.636-1" transform="matrix(-0.951, 0.309, -0.309, -0.951, 1602.736, 1895.905)" fill="#a6e5f2"/>
    <path id="Контур_678" data-name="Контур 678" d="M314.672,739.59a11.563,11.563,0,0,0,5.838,11.8A10.613,10.613,0,0,0,333.2,750.1a12.745,12.745,0,0,0,3.67-11.642,10.631,10.631,0,0,0-8.563-8.14c-4.559-.828-10.03.916-12.176,5.3a1.84,1.84,0,0,0,.469,2.35,1.8,1.8,0,0,0,2.391-.143,10.377,10.377,0,0,1,1.656-1.683c-.255.206.072-.051.14-.1.135-.09.27-.182.409-.267q.252-.155.513-.292c.07-.037.779-.348.392-.2a12.525,12.525,0,0,1,2.109-.56c.069-.013.721-.091.2-.038.2-.02.4-.039.6-.05a10.243,10.243,0,0,1,1.2,0c.2.013.4.036.6.057-.555-.058.1.017.182.03a10.008,10.008,0,0,1,1.161.267,8.945,8.945,0,0,1,.933.324c-.488-.2.106.066.169.1.233.12.46.249.682.389.166.1.327.216.486.331-.077-.056-.312-.28,0,.008.293.27.567.547.844.834.431.447-.2-.353.137.17.109.168.223.331.325.5.067.114.132.229.194.346s.119.235.175.355c-.1-.246-.1-.246,0,0a10.362,10.362,0,0,1,.338,1.128c.043.192.078.385.111.579-.078-.461-.015-.123-.009-.02.022.4.048.787.036,1.185-.007.2-.027.4-.036.595q-.045.4.01-.012c-.019.132-.041.263-.066.394a10.4,10.4,0,0,1-.622,2.109c.2-.472-.074.133-.1.187q-.134.269-.282.529a11.728,11.728,0,0,1-.65,1c.289-.4-.1.115-.139.161-.129.15-.263.3-.4.437-.23.235-.474.453-.724.665.377-.32-.116.081-.171.118q-.243.166-.5.315c-.171.1-.348.183-.52.278-.237.108-.238.112-.005.013-.123.049-.247.1-.373.138-.336.114-.678.191-1.023.272-.652.154.366.015-.3.041-.225.009-.447.025-.672.023a5.72,5.72,0,0,1-2.261-.409,8.12,8.12,0,0,1-5.466-8c.169-2.038-3.248-2.529-3.6-.488" transform="matrix(-0.951, 0.309, -0.309, -0.951, 1602.736, 1895.905)" fill="#a6e5f2"/>
    <path id="Контур_679" data-name="Контур 679" d="M329.989,811.386a12.107,12.107,0,0,0,6.693,10.289,11,11,0,0,0,12.044-1.2,12.6,12.6,0,0,0,4.416-10.674,11,11,0,0,0-7.089-9.157c-4.018-1.621-9.211-.914-12.244,2.328a1.775,1.775,0,0,0-.138,2.318,1.747,1.747,0,0,0,2.278.454,7.678,7.678,0,0,1,3.747-1.666c.4-.063-.473.037.212-.022.143-.012.288-.024.432-.034.363-.024.726-.035,1.089-.025.22.006.438.02.656.039.05,0,.415.048.091,0a10.588,10.588,0,0,1,1.279.285c.353.1.7.2,1.043.328.044.016.382.154.089.028.167.072.33.152.491.235a9.568,9.568,0,0,1,.847.484c.181.116.362.237.534.368-.278-.212.2.18.229.207a6.031,6.031,0,0,1,1.927,3.1,8.254,8.254,0,0,1-1.876,7.216,6.416,6.416,0,0,1-7.063,1.963c-2.932-.912-5.593-3.682-5.693-6.868-.08-2.563-4.062-2.577-3.994,0" transform="matrix(-0.951, 0.309, -0.309, -0.951, 1602.736, 1895.905)" fill="#a6e5f2"/>
    <path id="Контур_680" data-name="Контур 680" d="M905.965,525.654c-18.662,2.814-28.268,27.976-14.709,41.723a27.743,27.743,0,0,0,24.165,7.53,23.317,23.317,0,0,0,18.293-16.994c2.769-9.87-.035-20.868-8.3-27.192-1.671-1.28-3.81,1.52-2.25,2.917,11.075,9.913,8.971,31.623-6.34,36.115a23.156,23.156,0,0,1-20.15-3.942,18.735,18.735,0,0,1-6.626-19.573c2.007-8.243,8.406-15.386,16.916-16.948,2.409-.443,1.353-3.991-1-3.636" transform="matrix(-0.951, 0.309, -0.309, -0.951, 1602.736, 1895.905)" fill="#a6e5f2"/>
    <path id="Контур_681" data-name="Контур 681" d="M960.034,533.6c-5.223,1.964-8.27,6.825-8.882,12.229a13.282,13.282,0,0,0,6.727,13.336,15.751,15.751,0,0,0,15.3-.778,13.206,13.206,0,0,0,5.812-14.466c-1.459-6.071-7.162-11.534-13.651-11.248a1.822,1.822,0,0,0,0,3.642c4.117.472,7.4,3.728,8.726,7.219,1.48,3.9.8,7.679-2.384,10.352-.2.164-.053.051-.009.017-.094.074-.2.144-.293.213-.2.137-.4.272-.6.4a12.728,12.728,0,0,1-1.5.8c-.237.107-.067.031-.016.01-.112.047-.227.09-.341.131-.231.084-.461.164-.7.237a14.073,14.073,0,0,1-1.542.386,12.869,12.869,0,0,1-2.8.15,5.383,5.383,0,0,1-1.084-.121,12.25,12.25,0,0,1-1.632-.421,8.352,8.352,0,0,1-4.08-3.025,9.916,9.916,0,0,1-1.655-5.127c-.172-4.227,1.829-8.678,6.016-10.584,1.87-.852.534-4.083-1.414-3.351" transform="matrix(-0.951, 0.309, -0.309, -0.951, 1602.736, 1895.905)" fill="#a6e5f2"/>
    <path id="Контур_682" data-name="Контур 682" d="M889.127,597.622c-8.964,5.46-9.489,20.56.478,25.324a15.951,15.951,0,0,0,14.8-.684,13.472,13.472,0,0,0,6.485-13.019c-.615-5.728-4.394-11.331-10.2-12.8-2.254-.569-3.006,2.584-.938,3.405a11.451,11.451,0,0,1,6.644,8.455,9.443,9.443,0,0,1-3.159,9.492,11.444,11.444,0,0,1-10.311,1.754,9.279,9.279,0,0,1-6.327-7.593c-.589-4.092.854-8.624,4.539-10.888,2.186-1.343.188-4.791-2.016-3.449" transform="matrix(-0.951, 0.309, -0.309, -0.951, 1602.736, 1895.905)" fill="#a6e5f2"/>
  </g>
</svg>
