<svg xmlns="http://www.w3.org/2000/svg" xmlns:xlink="http://www.w3.org/1999/xlink" width="406.707" height="204.321" viewBox="0 0 406.707 204.321">
  <defs>
    <clipPath id="clip-path">
      <rect id="Прямоугольник_109" data-name="Прямоугольник 109" width="137.554" height="116.571" fill="none"/>
    </clipPath>
  </defs>
  <g id="Сгруппировать_2381" data-name="Сгруппировать 2381" transform="translate(23.223 -706.076)">
    <g id="Сгруппировать_2380" data-name="Сгруппировать 2380" transform="translate(5789.52 5209.621)">
      <path id="Контур_976" data-name="Контур 976" d="M235.135,568.185c-5.7-20.761-4.132-93.791-4.132-93.791L230,473.384s-.817,55.211-1.582,94.437Z" transform="translate(-5866.77 -4883.01)" fill="#9e5632"/>
      <path id="Контур_977" data-name="Контур 977" d="M231.075,528.065c-.867-26.084-.276-53.67-.276-53.67l-1.01-1.01s-.4,27.373-.909,57.266a9.018,9.018,0,0,1,2.2-2.587" transform="translate(-5866.565 -4883.009)" fill="#824125"/>
      <path id="Контур_978" data-name="Контур 978" d="M219.818,490.975a47.236,47.236,0,0,1,13.735,18.76l.817.211a43.25,43.25,0,0,0-14.708-19.5Z" transform="translate(-5870.607 -4875.527)" fill="#824125"/>
      <path id="Контур_979" data-name="Контур 979" d="M241.553,482.813a64.386,64.386,0,0,0-2.608,28.14l-.64.846c-2.6-15.308,3.1-29.607,3.1-29.607Z" transform="translate(-5862.729 -4879.147)" fill="#824125"/>
      <path id="Контур_980" data-name="Контур 980" d="M229.709,504.088A54.2,54.2,0,0,0,243.2,483.542l.432-.325A51.135,51.135,0,0,1,229.7,505.046Z" transform="translate(-5866.206 -4878.697)" fill="#824125"/>
      <path id="Контур_981" data-name="Контур 981" d="M223.216,510.236c-2.817-9.792-3.454-17.575-1.818-25.592l-.217-.4s-3.589,10.962,1.411,26.92Z" transform="translate(-5870.489 -4878.247)" fill="#824125"/>
      <path id="Контур_982" data-name="Контур 982" d="M205.628,493c7.273,6.383,13.361,8.99,19.252,9.743l.318.757c-11.024-.662-20.19-10.542-20.19-10.542Z" transform="translate(-5877.035 -4874.424)" fill="#824125"/>
      <path id="Контур_983" data-name="Контур 983" d="M238.554,516.043c-14.472-9.159-23.214-17.8-28.383-28.469l-.715-.256s4.972,16.01,29.125,30.525Z" transform="translate(-5875.083 -4876.899)" fill="#824125"/>
      <path id="Контур_984" data-name="Контур 984" d="M201.462,528.735s-33.691-131.423,60.6-117.259c27.156,4.08,32,49.976,18.685,112.77-20.915,11.3-72.948,8.148-79.281,4.488" transform="translate(-5881.156 -4910.628)" fill="#d1c042"/>
      <path id="Контур_985" data-name="Контур 985" d="M268.467,523.7c-30.381,0-55.009-32.467-55.009-72.518a90.568,90.568,0,0,1,7.168-35.813c-41.108,25.579-19.165,111.191-19.165,111.191,6.331,3.658,58.365,6.81,79.279-4.49.014-.065.027-.131.042-.2a42.537,42.537,0,0,1-12.316,1.826" transform="translate(-5881.156 -4908.453)" fill="#c1ac30"/>
      <path id="Контур_986" data-name="Контур 986" d="M256.42,493.637l-.144-.246a.234.234,0,0,1,.144.246" transform="translate(-5854.55 -4874.235)" fill="#c1ac30"/>
      <path id="Контур_987" data-name="Контур 987" d="M256.158,491.979a4.861,4.861,0,0,1,.688.98l.775,1.321a.673.673,0,0,0-.289-.073l-2.287-.056a1.317,1.317,0,0,1-.686-.144,1.515,1.515,0,0,1-.48-.629,11.583,11.583,0,0,1-.669-1.628l.447-.076a2,2,0,0,1,2.5.306" transform="translate(-5855.896 -4875.124)" fill="#c1ac30"/>
      <path id="Контур_988" data-name="Контур 988" d="M250.19,408.1c-.069.062-.138.122-.209.183.037-.108.1-.19.209-.183" transform="translate(-5857.311 -4911.642)" fill="#c1ac30"/>
      <path id="Контур_989" data-name="Контур 989" d="M248.761,410.06a4.679,4.679,0,0,1,.817-.852l1.118-.984a.868.868,0,0,0-.036.321q.1,1.245.194,2.487a1.674,1.674,0,0,1-.058.761,1.489,1.489,0,0,1-.519.59,9.837,9.837,0,0,1-1.41.9l-.117-.478a2.518,2.518,0,0,1,.01-2.748" transform="translate(-5858.027 -4911.586)" fill="#c1ac30"/>
      <path id="Контур_990" data-name="Контур 990" d="M193.381,436.723l.262.06a.2.2,0,0,1-.262-.06" transform="translate(-5882.134 -4899.088)" fill="#c1ac30"/>
      <path id="Контур_991" data-name="Контур 991" d="M196.088,437.972a4.149,4.149,0,0,1-1.121-.155l-1.4-.328a.686.686,0,0,0,.252-.173l1.644-1.736a1.421,1.421,0,0,1,.577-.432,1.293,1.293,0,0,1,.748.069,9.489,9.489,0,0,1,1.528.626l-.265.4a2.2,2.2,0,0,1-1.959,1.728" transform="translate(-5882.054 -4899.793)" fill="#c1ac30"/>
      <path id="Контур_992" data-name="Контур 992" d="M218.226,411.418c-.082.037-.163.075-.245.111.062-.092.145-.151.245-.111" transform="translate(-5871.345 -4910.191)" fill="#d1c042"/>
      <path id="Контур_993" data-name="Контур 993" d="M216.624,412.653a4.237,4.237,0,0,1,.993-.565l1.313-.6a.822.822,0,0,0-.112.3l-.406,2.45a1.6,1.6,0,0,1-.237.714,1.347,1.347,0,0,1-.643.406,9.19,9.19,0,0,1-1.574.427v-.495a2.448,2.448,0,0,1,.666-2.637" transform="translate(-5872.294 -4910.154)" fill="#d1c042"/>
      <path id="Контур_994" data-name="Контур 994" d="M212.694,411.818c.014.095.029.19.043.286a.244.244,0,0,1-.043-.286" transform="translate(-5873.677 -4910.01)" fill="#d1c042"/>
      <path id="Контур_995" data-name="Контур 995" d="M213.22,414.736a5.082,5.082,0,0,1-.275-1.185q-.117-.766-.23-1.534a.711.711,0,0,0,.239.187l2.087.99a1.4,1.4,0,0,1,.581.416,1.607,1.607,0,0,1,.213.777,11.774,11.774,0,0,1,.019,1.774l-.44-.115a2.075,2.075,0,0,1-2.194-1.309" transform="translate(-5873.654 -4909.923)" fill="#d1c042"/>
      <path id="Контур_996" data-name="Контур 996" d="M220.083,471.972l-.091-.272a.235.235,0,0,1,.091.272" transform="translate(-5870.463 -4883.748)" fill="#c1ac30"/>
      <path id="Контур_997" data-name="Контур 997" d="M220.192,470.206a4.933,4.933,0,0,1,.469,1.109q.244.732.485,1.463a.668.668,0,0,0-.266-.135l-2.221-.558a1.326,1.326,0,0,1-.64-.292,1.527,1.527,0,0,1-.34-.721,11.594,11.594,0,0,1-.318-1.741l.453.024a2.015,2.015,0,0,1,2.378.85" transform="translate(-5871.617 -4884.828)" fill="#c1ac30"/>
      <path id="Контур_998" data-name="Контур 998" d="M220.02,465.913l-.263.033a.2.2,0,0,1,.263-.033" transform="translate(-5870.566 -4886.303)" fill="#c1ac30"/>
      <path id="Контур_999" data-name="Контур 999" d="M218.448,466.348a4.053,4.053,0,0,1,1.1-.245l1.413-.18a.747.747,0,0,0-.183.253q-.5,1.116-1,2.233a1.518,1.518,0,0,1-.406.614,1.279,1.279,0,0,1-.721.2,9,9,0,0,1-1.621-.062l.125-.475a2.332,2.332,0,0,1,1.3-2.335" transform="translate(-5871.765 -4886.281)" fill="#c1ac30"/>
      <path id="Контур_1000" data-name="Контур 1000" d="M196.366,429.634l.194.2a.216.216,0,0,1-.194-.2" transform="translate(-5880.825 -4902.197)" fill="#c1ac30"/>
      <path id="Контур_1001" data-name="Контур 1001" d="M198.426,431.8a4.437,4.437,0,0,1-.882-.752q-.522-.529-1.043-1.059a.657.657,0,0,0,.295-.013l2.205-.614a1.271,1.271,0,0,1,.692-.06,1.369,1.369,0,0,1,.6.472,10.59,10.59,0,0,1,1.01,1.39l-.411.2a1.979,1.979,0,0,1-2.47.433" transform="translate(-5880.765 -4902.355)" fill="#c1ac30"/>
      <path id="Контур_1002" data-name="Контур 1002" d="M217.173,459.663c-.073.053-.147.108-.222.161.045-.105.117-.178.222-.161" transform="translate(-5871.797 -4889.028)" fill="#c1ac30"/>
      <path id="Контур_1003" data-name="Контур 1003" d="M215.675,461.4a4.472,4.472,0,0,1,.875-.764l1.185-.863a.819.819,0,0,0-.056.315q.015,1.245.032,2.49a1.647,1.647,0,0,1-.106.751,1.408,1.408,0,0,1-.561.532,9.33,9.33,0,0,1-1.472.752l-.086-.486a2.478,2.478,0,0,1,.19-2.727" transform="translate(-5872.581 -4888.979)" fill="#c1ac30"/>
      <path id="Контур_1004" data-name="Контур 1004" d="M242.466,436.93l-.091-.272a.237.237,0,0,1,.091.272" transform="translate(-5860.646 -4899.116)" fill="#e5cc51"/>
      <path id="Контур_1005" data-name="Контур 1005" d="M242.575,435.165a4.933,4.933,0,0,1,.469,1.109q.244.732.485,1.463a.678.678,0,0,0-.266-.135l-2.221-.558a1.332,1.332,0,0,1-.64-.292,1.54,1.54,0,0,1-.34-.721,11.588,11.588,0,0,1-.318-1.741l.453.024a2.015,2.015,0,0,1,2.378.85" transform="translate(-5861.801 -4900.196)" fill="#e5cc51"/>
      <path id="Контур_1006" data-name="Контур 1006" d="M242.4,430.871l-.263.033a.2.2,0,0,1,.263-.033" transform="translate(-5860.75 -4901.671)" fill="#e5cc51"/>
      <path id="Контур_1007" data-name="Контур 1007" d="M240.832,431.307a4.053,4.053,0,0,1,1.095-.245c.472-.06.942-.121,1.414-.18a.747.747,0,0,0-.183.253q-.5,1.116-1,2.233a1.517,1.517,0,0,1-.406.614,1.28,1.28,0,0,1-.721.2,8.993,8.993,0,0,1-1.621-.062l.125-.475a2.332,2.332,0,0,1,1.3-2.335" transform="translate(-5861.948 -4901.649)" fill="#e5cc51"/>
      <path id="Контур_1008" data-name="Контур 1008" d="M239.557,424.622c-.073.053-.147.108-.222.161.045-.1.116-.18.222-.161" transform="translate(-5861.98 -4904.396)" fill="#e5cc51"/>
      <path id="Контур_1009" data-name="Контур 1009" d="M238.059,426.36a4.424,4.424,0,0,1,.875-.764l1.185-.863a.819.819,0,0,0-.056.315q.015,1.245.032,2.49a1.647,1.647,0,0,1-.106.751,1.408,1.408,0,0,1-.561.532,9.463,9.463,0,0,1-1.472.752l-.086-.486a2.478,2.478,0,0,1,.19-2.728" transform="translate(-5862.764 -4904.346)" fill="#e5cc51"/>
      <path id="Контур_1010" data-name="Контур 1010" d="M211.851,444.618l.022-.289a.245.245,0,0,1-.022.289" transform="translate(-5874.033 -4895.752)" fill="#c1ac30"/>
      <path id="Контур_1011" data-name="Контур 1011" d="M212.754,443.038a5.266,5.266,0,0,1,0,1.223c-.04.516-.078,1.033-.118,1.549a.765.765,0,0,0-.191-.245l-1.8-1.521a1.489,1.489,0,0,1-.47-.558,1.635,1.635,0,0,1-.033-.81,11.229,11.229,0,0,1,.378-1.726l.4.229a2.2,2.2,0,0,1,1.836,1.859" transform="translate(-5874.798 -4897.233)" fill="#c1ac30"/>
      <path id="Контур_1012" data-name="Контур 1012" d="M214.113,439.069l-.252-.089a.2.2,0,0,1,.252.089" transform="translate(-5873.152 -4898.104)" fill="#c1ac30"/>
      <path id="Контур_1013" data-name="Контур 1013" d="M212.886,438.449a4.071,4.071,0,0,1,1.089.278l1.352.482a.7.7,0,0,0-.262.147l-1.765,1.571a1.344,1.344,0,0,1-.6.373,1.256,1.256,0,0,1-.728-.151,9.506,9.506,0,0,1-1.45-.8l.295-.374a2.117,2.117,0,0,1,2.073-1.528" transform="translate(-5874.618 -4898.333)" fill="#c1ac30"/>
      <path id="Контур_1014" data-name="Контур 1014" d="M213.924,432.085c-.088.014-.174.03-.262.046.081-.075.174-.111.262-.046" transform="translate(-5873.239 -4901.137)" fill="#c1ac30"/>
      <path id="Контур_1015" data-name="Контур 1015" d="M212.331,432.645a4.046,4.046,0,0,1,1.088-.293l1.407-.245a.748.748,0,0,0-.173.262q-.462,1.137-.921,2.277a1.539,1.539,0,0,1-.385.632,1.282,1.282,0,0,1-.712.229,9.027,9.027,0,0,1-1.626.012l.109-.48a2.354,2.354,0,0,1,1.213-2.392" transform="translate(-5874.403 -4901.112)" fill="#c1ac30"/>
      <path id="Контур_1016" data-name="Контур 1016" d="M255.285,411.109c-.066.06-.132.121-.2.18a.206.206,0,0,0,.2-.18" transform="translate(-5855.073 -4910.321)" fill="#c1ac30"/>
      <path id="Контур_1017" data-name="Контур 1017" d="M254.586,413.143a4.2,4.2,0,0,0,.9-.68l1.07-.968a.655.655,0,0,1-.293-.027q-1.09-.358-2.181-.714a1,1,0,0,0-1.3.327,10.078,10.078,0,0,0-1.046,1.289l.4.22a2.038,2.038,0,0,0,2.448.554" transform="translate(-5856.542 -4910.527)" fill="#c1ac30"/>
      <path id="Контур_1018" data-name="Контур 1018" d="M261.916,433.975l-.25.069a.19.19,0,0,0,.25-.069" transform="translate(-5852.187 -4900.293)" fill="#d1c042"/>
      <path id="Контур_1019" data-name="Контур 1019" d="M260.671,435.277a3.887,3.887,0,0,0,1.08-.191l1.347-.371a.71.71,0,0,1-.253-.164l-1.689-1.669a1.419,1.419,0,0,0-.584-.409,1.227,1.227,0,0,0-.722.094,9.01,9.01,0,0,0-1.452.672l.279.39a2.2,2.2,0,0,0,1.994,1.649" transform="translate(-5853.62 -4900.962)" fill="#d1c042"/>
      <path id="Контур_1020" data-name="Контур 1020" d="M261.916,461.918l-.25.069a.19.19,0,0,0,.25-.069" transform="translate(-5852.187 -4888.039)" fill="#d1c042"/>
      <path id="Контур_1021" data-name="Контур 1021" d="M260.671,463.22a3.887,3.887,0,0,0,1.08-.191l1.347-.373a.708.708,0,0,1-.253-.163l-1.689-1.669a1.419,1.419,0,0,0-.584-.409,1.216,1.216,0,0,0-.722.094,9,9,0,0,0-1.452.672l.279.39a2.2,2.2,0,0,0,1.994,1.649" transform="translate(-5853.62 -4888.708)" fill="#d1c042"/>
      <path id="Контур_1022" data-name="Контур 1022" d="M200.7,478.42l.311.006c-.106-.073-.22-.1-.311-.006" transform="translate(-5878.925 -4880.827)" fill="#d1c042"/>
      <path id="Контур_1023" data-name="Контур 1023" d="M203.9,478.583a4.721,4.721,0,0,0-1.311-.148l-1.67-.029a.891.891,0,0,1,.246.276q.742,1.258,1.482,2.515a1.837,1.837,0,0,0,.56.676,1.486,1.486,0,0,0,.866.138,10.309,10.309,0,0,0,1.88-.283l-.213-.548a2.811,2.811,0,0,0-1.84-2.6" transform="translate(-5878.83 -4880.807)" fill="#d1c042"/>
      <path id="Контур_1024" data-name="Контур 1024" d="M205,474.9l.167.258c-.009-.128-.055-.233-.167-.258" transform="translate(-5877.037 -4882.345)" fill="#d1c042"/>
      <path id="Контур_1025" data-name="Контур 1025" d="M206.973,477.612a5.329,5.329,0,0,0-.616-1.151q-.449-.69-.9-1.382a.949.949,0,0,1-.053.354l-.909,2.588a1.878,1.878,0,0,0-.155.827,1.668,1.668,0,0,0,.38.783,11,11,0,0,0,1.223,1.381l.259-.473a2.789,2.789,0,0,0,.768-2.926" transform="translate(-5877.329 -4882.267)" fill="#d1c042"/>
      <path id="Контур_1026" data-name="Контур 1026" d="M203.557,442.842l.245.092c-.066-.088-.151-.14-.245-.092" transform="translate(-5877.671 -4896.412)" fill="#d1c042"/>
      <path id="Контур_1027" data-name="Контур 1027" d="M206.037,443.89a4.047,4.047,0,0,0-1-.489l-1.312-.5a.834.834,0,0,1,.129.289q.285,1.2.57,2.407a1.631,1.631,0,0,0,.281.692,1.29,1.29,0,0,0,.65.355,8.673,8.673,0,0,0,1.552.311l-.037-.492a2.483,2.483,0,0,0-.834-2.574" transform="translate(-5877.596 -4896.378)" fill="#d1c042"/>
      <path id="Контур_1028" data-name="Контур 1028" d="M192.748,459.691l.127-.247a.224.224,0,0,0-.127.247" transform="translate(-5882.414 -4889.124)" fill="#c1ac30"/>
      <path id="Контур_1029" data-name="Контур 1029" d="M194.123,458.045a4.66,4.66,0,0,0-.614.99q-.337.662-.676,1.325a.689.689,0,0,1,.282-.089l2.267-.2a1.33,1.33,0,0,0,.672-.183,1.447,1.447,0,0,0,.434-.637,11.007,11.007,0,0,0,.548-1.615l-.45-.046a2.028,2.028,0,0,0-2.463.452" transform="translate(-5882.374 -4890.039)" fill="#c1ac30"/>
      <path id="Контур_1030" data-name="Контур 1030" d="M191.974,452.722l.253-.06a.19.19,0,0,0-.253.06" transform="translate(-5882.75 -4892.107)" fill="#c1ac30"/>
      <path id="Контур_1031" data-name="Контур 1031" d="M194.593,452.324a3.841,3.841,0,0,0-1.086.154l-1.357.324a.739.739,0,0,1,.249.173q.818.863,1.637,1.726a1.425,1.425,0,0,0,.57.429,1.225,1.225,0,0,0,.725-.068,8.882,8.882,0,0,0,1.47-.623l-.266-.4a2.215,2.215,0,0,0-1.942-1.716" transform="translate(-5882.673 -4892.247)" fill="#c1ac30"/>
      <path id="Контур_1032" data-name="Контур 1032" d="M259.2,487.131c-.037.085-.073.171-.111.256a.227.227,0,0,0,.111-.256" transform="translate(-5853.316 -4876.981)" fill="#d1c042"/>
      <path id="Контур_1033" data-name="Контур 1033" d="M259.173,489.715a4.716,4.716,0,0,0,.551-1.034q.3-.686.593-1.372a.687.687,0,0,1-.276.111l-2.251.365a1.353,1.353,0,0,0-.66.233,1.469,1.469,0,0,0-.393.669,10.771,10.771,0,0,0-.446,1.653l.452.011a2.045,2.045,0,0,0,2.431-.636" transform="translate(-5854.544 -4876.903)" fill="#d1c042"/>
      <path id="Контур_1034" data-name="Контур 1034" d="M261,429.6c-.042.082-.083.165-.127.247A.223.223,0,0,0,261,429.6" transform="translate(-5852.532 -4902.212)" fill="#d1c042"/>
      <path id="Контур_1035" data-name="Контур 1035" d="M260.87,432.088a4.674,4.674,0,0,0,.614-.991q.337-.662.676-1.326a.676.676,0,0,1-.283.091l-2.269.2a1.338,1.338,0,0,0-.673.183,1.47,1.47,0,0,0-.433.639,11.022,11.022,0,0,0-.548,1.617l.45.045a2.032,2.032,0,0,0,2.466-.455" transform="translate(-5853.814 -4902.137)" fill="#d1c042"/>
      <path id="Контур_1036" data-name="Контур 1036" d="M203.086,497.313c.032-.088.065-.174.1-.262a.228.228,0,0,0-.1.262" transform="translate(-5877.883 -4872.63)" fill="#c1ac30"/>
      <path id="Контур_1037" data-name="Контур 1037" d="M204.166,495.613a4.752,4.752,0,0,0-.5,1.063q-.261.7-.521,1.4a.694.694,0,0,1,.27-.125l2.228-.5a1.349,1.349,0,0,0,.647-.27,1.48,1.48,0,0,0,.357-.689,11.016,11.016,0,0,0,.361-1.674l-.453.016a2.055,2.055,0,0,0-2.394.777" transform="translate(-5877.85 -4873.658)" fill="#c1ac30"/>
      <path id="Контур_1038" data-name="Контур 1038" d="M201.144,427.669a3.033,3.033,0,0,1-1.076-1.828,5.289,5.289,0,0,1-.017-1.069c.045-.87.094-1.836.15-2.91a3.272,3.272,0,0,0,.695,1.906,7.871,7.871,0,0,0,1.345,1.318c.229.188.48.417.459.679a.683.683,0,0,1-.134.309,11.125,11.125,0,0,1-1.441,1.8Z" transform="translate(-5879.217 -4905.605)" fill="#c1ac30"/>
      <path id="Контур_1039" data-name="Контур 1039" d="M199.218,491.349a2.529,2.529,0,0,1-1.984-.147,4.5,4.5,0,0,1-.793-.623c-.613-.56-1.292-1.178-2.049-1.866a2.671,2.671,0,0,0,1.813.526,7.018,7.018,0,0,0,1.768-.394c.275-.088.593-.171.771,0a.678.678,0,0,1,.148.3,12.3,12.3,0,0,1,.466,2.341Z" transform="translate(-5881.69 -4876.287)" fill="#c1ac30"/>
      <path id="Контур_1040" data-name="Контур 1040" d="M201.036,493.893a2.63,2.63,0,0,1-1.821.876,4.076,4.076,0,0,1-.967-.15L195.643,494a2.657,2.657,0,0,0,1.83-.453,7.7,7.7,0,0,0,1.4-1.246c.207-.219.453-.453.686-.39a.6.6,0,0,1,.257.193,11.217,11.217,0,0,1,1.405,1.84Z" transform="translate(-5881.142 -4874.887)" fill="#c1ac30"/>
      <path id="Контур_1041" data-name="Контур 1041" d="M123.335,533.758v20l383.483-11.343Z" transform="translate(-5912.853 -4856.532)" fill="#c9ba2f"/>
    </g>
    <g id="Сгруппировать_2379" data-name="Сгруппировать 2379">
      <g id="Сгруппировать_2378" data-name="Сгруппировать 2378">
        <g id="Сгруппировать_194" data-name="Сгруппировать 194" transform="translate(-364 2)">
          <g id="Сгруппировать_170" data-name="Сгруппировать 170" transform="translate(340.777 791)">
            <g id="Сгруппировать_169" data-name="Сгруппировать 169" clip-path="url(#clip-path)">
              <path id="Контур_1112" data-name="Контур 1112" d="M85.049,74.709a.827.827,0,1,0-.809.652.743.743,0,0,0,.809-.652" transform="translate(-12.645 -11.224)" fill="#ea875c"/>
              <path id="Контур_1113" data-name="Контур 1113" d="M85.971,74a.827.827,0,1,0-.809.652A.743.743,0,0,0,85.971,74" transform="translate(-12.785 -11.117)" fill="#ea875c"/>
              <path id="Контур_1114" data-name="Контур 1114" d="M86.724,70.5c0-.36-.5-.652-1.108-.652s-1.108.292-1.108.652.5.652,1.108.652,1.108-.292,1.108-.652" transform="translate(-12.808 -10.586)" fill="#ea875c"/>
              <path id="Контур_1115" data-name="Контур 1115" d="M86.37,71.451a.827.827,0,1,0-.808.652.742.742,0,0,0,.808-.652" transform="translate(-12.845 -10.73)" fill="#63474d"/>
              <path id="Контур_1116" data-name="Контур 1116" d="M86.524,72.65a.827.827,0,1,0-.809.652.743.743,0,0,0,.809-.652" transform="translate(-12.869 -10.912)" fill="#ea875c"/>
              <path id="Контур_1117" data-name="Контур 1117" d="M158.092.577,158.5.544" transform="translate(-20.96 -0.082)" fill="#63474d"/>
              <path id="Контур_1123" data-name="Контур 1123" d="M30.5,103.484s-4.412,9.575-1.307,26.265h2.779C29.2,124.414,30.5,103.484,30.5,103.484" transform="translate(-4.257 -15.684)" fill="#9b9245"/>
              <path id="Контур_1124" data-name="Контур 1124" d="M39.076,103.484s-4.413,9.575-1.307,26.265h2.778c-2.778-5.335-1.47-26.265-1.47-26.265" transform="translate(-5.556 -15.684)" fill="#9b9245"/>
              <path id="Контур_1125" data-name="Контур 1125" d="M38.445,97.2s-6.5,11.521-7.027,31.6H34.2c-1.616-6.418,4.249-31.6,4.249-31.6" transform="translate(-4.762 -14.731)" fill="#9b9245"/>
              <path id="Контур_1126" data-name="Контур 1126" d="M51.636,113.8a25.817,25.817,0,0,0-8.661,17.51H46.4c-1.992-3.557,5.237-17.51,5.237-17.51" transform="translate(-6.513 -17.248)" fill="#9b9245"/>
              <path id="Контур_1127" data-name="Контур 1127" d="M21.787,108.321a42.1,42.1,0,0,1,7.667,22.161H25.007c2.588-4.366-3.22-22.161-3.22-22.161" transform="translate(-3.302 -16.417)" fill="#9b9245"/>
              <path id="Контур_1128" data-name="Контур 1128" d="M46.92,97.2s-6.5,11.521-7.027,31.6h2.778c-1.616-6.418,4.249-31.6,4.249-31.6" transform="translate(-6.046 -14.731)" fill="#9b9245"/>
              <path id="Контур_1129" data-name="Контур 1129" d="M33.379,132.046c.622-3.781-.38-8.438-1.962-13.406A47.823,47.823,0,0,1,37.3,132.046Z" transform="translate(-4.762 -17.981)" fill="#877d39"/>
              <path id="Контур_1130" data-name="Контур 1130" d="M22.936,131.8c.18-3.989-1.219-9.142-3.268-14.774,3.508,4.9,6.165,9.819,7.191,14.774Z" transform="translate(-2.981 -17.737)" fill="#877d39"/>
              <path id="Контур_1131" data-name="Контур 1131" d="M62.777,48.079c-1.216,5.753,4.156,18.5,5.315,20.325S71.876,70.338,73,70.531s2.607-4.067,2.607-4.067a17.169,17.169,0,0,1-3-1.966c-4.429-10.671-8.652-17.974-9.83-16.419" transform="translate(-9.488 -7.255)" fill="#726a25"/>
              <path id="Контур_1132" data-name="Контур 1132" d="M80.66,70.83c-2.022-1.268-4.211-1.927-5.84-1.024a2.507,2.507,0,0,0,.283,4.5,8.614,8.614,0,0,0,7.066.11c1.629-.9.387-2.4-1.509-3.587" transform="translate(-11.147 -10.516)" fill="#ea875c"/>
              <path id="Контур_1133" data-name="Контур 1133" d="M81.327,70.9a8.14,8.14,0,0,0-2.17-1.07,1.871,1.871,0,0,0-1.2,1.816c.087.816.792.947,2.166.8a3.122,3.122,0,0,0,2.057-.949c-.263-.2-.55-.4-.856-.6" transform="translate(-11.815 -10.583)" fill="#ffa77b"/>
              <path id="Контур_1134" data-name="Контур 1134" d="M74.874,74.068c.626-4.276,2.976-4.7,2.976-4.7s-2.138-1.929-3.441-1.981-3.338,2.4-2.764,4.588,3.229,2.091,3.229,2.091" transform="translate(-10.843 -10.213)" fill="#e0c09d"/>
              <path id="Контур_1135" data-name="Контур 1135" d="M78.223,69.37s-2.138-1.929-3.441-1.981a1.532,1.532,0,0,0-.766.206c-.01.12-.016.243-.016.367a3.193,3.193,0,0,0,2.124,3.29,3.448,3.448,0,0,1,2.1-1.883" transform="translate(-11.215 -10.213)" fill="#f2dcc0"/>
              <path id="Контур_1136" data-name="Контур 1136" d="M43.784,19.88c-1.456.361-5.549,5.795-5.471,7.521S44.3,34.687,44.3,34.687l9.648-12.45s-8.708-2.718-10.163-2.357" transform="translate(-5.807 -3.008)" fill="#eab86e"/>
              <path id="Контур_1137" data-name="Контур 1137" d="M52.416,22.118c-1.519,1.593-4.7,2.69-8.386,2.69a16.872,16.872,0,0,1-4.145-.5,7.83,7.83,0,0,0-1.571,3.437c.077,1.727,5.987,7.286,5.987,7.286l9.648-12.45s-.612-.191-1.532-.463" transform="translate(-5.807 -3.352)" fill="#dba258"/>
              <path id="Контур_1138" data-name="Контур 1138" d="M45.389,42.812c-10.169,4.222-8.349-6.346-2.073-16.656S56.325,9.491,59.746,9.631s5.4,12.536,1.118,20.625S48.769,41.409,45.389,42.812" transform="translate(-5.787 -1.459)" fill="#c99a4f"/>
              <path id="Контур_1139" data-name="Контур 1139" d="M61.814,9.631c-2.251-.092-5.935,2.629-9.979,7.437C52.355,25.6,55.742,32.2,59.846,32.2a4.3,4.3,0,0,0,2.444-.813c.221-.366.437-.739.643-1.128,4.284-8.089,2.3-20.486-1.118-20.625" transform="translate(-7.856 -1.459)" fill="#e0ac61"/>
              <path id="Контур_1140" data-name="Контур 1140" d="M62.981,30.437c0-3.276-1.988-6-4.441-6.086s-4.44,2.5-4.44,5.775,1.988,6,4.44,6.086,4.441-2.5,4.441-5.775" transform="translate(-8.199 -3.69)" fill="#5b3324"/>
              <path id="Контур_1141" data-name="Контур 1141" d="M62.151,27.2a6.9,6.9,0,0,0,1.9,4.929,7.714,7.714,0,0,0,.148-1.49,6.9,6.9,0,0,0-1.9-4.929,7.714,7.714,0,0,0-.148,1.49" transform="translate(-9.42 -3.897)" fill="#7c452d"/>
              <path id="Контур_1142" data-name="Контур 1142" d="M56.741,39.957c-2.546,2.733-4.554,1.511-4.554,1.511s-.6,2.811-5.256.389-1.244-9.414-1.244-9.414,3.105-9.129,11.4-8.1c5.058.624-.342,15.619-.342,15.619" transform="translate(-6.741 -3.676)" fill="#7c452d"/>
              <path id="Контур_1143" data-name="Контур 1143" d="M56.741,39.957c-2.546,2.733-4.554,1.511-4.554,1.511s-.6,2.811-5.256.389-1.244-9.414-1.244-9.414,3.105-9.129,11.4-8.1c5.058.624-.342,15.619-.342,15.619" transform="translate(-6.741 -3.676)" fill="#5b3324"/>
              <path id="Контур_1144" data-name="Контур 1144" d="M51.425,43.84c.461-.782-.349-2.19-1.809-3.143S46.6,39.6,46.138,40.386s.349,2.189,1.809,3.143,3.017,1.094,3.478.311" transform="translate(-6.973 -6.044)" fill="#7c452d"/>
              <path id="Контур_1145" data-name="Контур 1145" d="M79.763,82.893c-.521-1.043-7.37-10.638-7.37-10.638S69.23,62.8,69.23,62.487s1.843-4,1.634-4.833-5.8-8.781-7.213-10.394A14.367,14.367,0,0,0,56.3,44.341l4.589,13.87L68.4,87.2a15.009,15.009,0,0,0,11.367-4.311" transform="translate(-8.533 -6.72)" fill="#898331"/>
              <path id="Контур_1146" data-name="Контур 1146" d="M71.455,72.255l-3.268-9.143,1.932-4.9-7.4-10.533-6.132-3.294L56.3,44.34l4.588,13.871L68.4,87.2A15.151,15.151,0,0,0,79.177,83.46Z" transform="translate(-8.533 -6.72)" fill="#726b2a"/>
              <path id="Контур_1147" data-name="Контур 1147" d="M70.271,75.685,55.983,79.648a40.387,40.387,0,0,0-2.294,24.195l19.711-2.19c3.024-16.061-3.129-25.968-3.129-25.968" transform="translate(-8.009 -11.471)" fill="#c99a4f"/>
              <path id="Контур_1148" data-name="Контур 1148" d="M66.672,81.63a8.916,8.916,0,0,1,6.531,2,28.634,28.634,0,0,0-2.933-7.945L55.983,79.648a40.391,40.391,0,0,0-2.294,24.2l3.936-.438c-.25-1.726,1.521-20.907,9.048-21.776" transform="translate(-8.009 -11.471)" fill="#b5843c"/>
              <path id="Контур_1149" data-name="Контур 1149" d="M67.512,93.72a12.423,12.423,0,0,1-1.608-.179,40.829,40.829,0,0,1,.134,6.726,44.056,44.056,0,0,1-.58,5.063l1.6-.182a33.483,33.483,0,0,1-.205-6.326,35.628,35.628,0,0,1,.66-5.1" transform="translate(-9.921 -14.177)" fill="#b5843c"/>
              <path id="Контур_1150" data-name="Контур 1150" d="M63.272,91.437c1.614,4.436,4.364,3.418,6.911-.509a6.3,6.3,0,0,1-6.911.509" transform="translate(-9.59 -13.781)" fill="#b5843c"/>
              <path id="Контур_1151" data-name="Контур 1151" d="M74.127,107.522c-1.018,6.209-4.89,22.839-4.89,22.839H64l.331-22.422Z" transform="translate(-9.7 -16.296)" fill="#4c363c"/>
              <path id="Контур_1152" data-name="Контур 1152" d="M66.226,127.076c.461-5.558,2.656-10.064,4.9-10.064a1.768,1.768,0,0,1,1.029.346c.82-3.793,1.592-7.532,1.969-9.837l-9.792.417L64,130.361h2.175a23.591,23.591,0,0,1,.049-3.285" transform="translate(-9.7 -16.296)" fill="#3d2c31"/>
              <path id="Контур_1153" data-name="Контур 1153" d="M76.473,102.98c.425,2.836-1.1,11.034-1.777,11.314s-10.727.361-11.312.014-.7-8.225-.468-8.825c.837-2.152,13.3-4.249,13.557-2.5" transform="translate(-9.518 -15.509)" fill="#63474d"/>
              <path id="Контур_1154" data-name="Контур 1154" d="M69.382,105.263a22.831,22.831,0,0,1,.117-2.324c-3.115.59-6.182,1.606-6.583,2.637-.234.6-.117,8.478.468,8.825.419.249,5.677.277,8.887.171-1.669-1.177-2.889-4.9-2.889-9.309" transform="translate(-9.518 -15.601)" fill="#4c353b"/>
              <path id="Контур_1155" data-name="Контур 1155" d="M53.1,107.522c.6,6.209,3.546,22.839,3.546,22.839H62.8l1.772-22.422Z" transform="translate(-8.048 -16.296)" fill="#4c363c"/>
              <path id="Контур_1156" data-name="Контур 1156" d="M58.525,128.014c0-5.847,1.658-10.585,3.7-10.585a2.016,2.016,0,0,1,1.522.937l.824-10.427L53.1,107.521c.6,6.209,3.546,22.84,3.546,22.84h1.97c-.06-.755-.092-1.54-.092-2.347" transform="translate(-8.048 -16.296)" fill="#3d2c31"/>
              <path id="Контур_1157" data-name="Контур 1157" d="M51.25,104.707c-.938,2.92-.938,10.846-.209,11.054s12.307-.834,13.036-1.251.279-8.909.1-9.491c-.625-2.086-12.354-2.111-12.932-.313" transform="translate(-7.656 -15.672)" fill="#63474d"/>
              <path id="Контур_1158" data-name="Контур 1158" d="M55.526,108.776a13.056,13.056,0,0,1,1.092-5.361c-2.685.063-5.113.5-5.368,1.294-.938,2.92-.938,10.846-.209,11.055a53.606,53.606,0,0,0,6.267-.368,12.22,12.22,0,0,1-1.782-6.62" transform="translate(-7.656 -15.674)" fill="#4c353b"/>
              <path id="Контур_1159" data-name="Контур 1159" d="M73.88,136.882c12.3,0,57-2.872,57-2.872" transform="translate(0 -20.311)" fill="#69cbe2"/>
              <path id="Контур_1160" data-name="Контур 1160" d="M66.224,60.656,52.979,59.091A48.358,48.358,0,0,1,56,77.133c4.275,1.669,10.742.835,10.742.835l.938-1.46,1.356,1.251,2.5-2.5Z" transform="translate(-8.029 -8.956)" fill="#f2dcc0"/>
              <path id="Контур_1161" data-name="Контур 1161" d="M65.083,75.015c-1.267-5.362-1.615-10.114-.006-9.822,1.594.288,4.523,5.433,5.8,10.732l.669-.668-5.319-14.6L52.979,59.091A48.372,48.372,0,0,1,56,77.133c3.359,1.311,8.068,1.078,9.934.916-.316-.964-.606-1.984-.854-3.035" transform="translate(-8.029 -8.956)" fill="#e0c3a4"/>
              <path id="Контур_1162" data-name="Контур 1162" d="M58.343,50.521a14.464,14.464,0,0,0,5.327-3.238l-.019-.022A14.375,14.375,0,0,0,56.3,44.341Z" transform="translate(-8.533 -6.72)" fill="#726b2a"/>
              <path id="Контур_1163" data-name="Контур 1163" d="M47.939,48.929A60.324,60.324,0,0,0,54.2,62.07L66.5,60.923S68.8,58.629,68.8,58s-5.84-9.073-6.362-9.907-6.257-3.754-7.405-3.754-7.091,4.588-7.091,4.588" transform="translate(-7.266 -6.72)" fill="#f9e4cf"/>
              <path id="Контур_1164" data-name="Контур 1164" d="M61.961,47.654c-1.685-1.163-5.983-3.313-6.93-3.313-1.147,0-7.092,4.588-7.092,4.588.445,1.3.914,2.529,1.384,3.674.805-.1,1.631-.233,2.47-.409,4.487-.937,8.322-2.7,10.169-4.54" transform="translate(-7.266 -6.72)" fill="#e0c3a4"/>
              <path id="Контур_1165" data-name="Контур 1165" d="M62.435,48.747a.789.789,0,0,0-.087-.109l5.146,9.911c-2.2,1.722-6.586,1.845-10.9,1.408,0,0-5.17-6.821-7.7-11.1-.582.435-.96.726-.96.726A60.324,60.324,0,0,0,54.2,62.721l12.284-.849S68.8,59.28,68.8,58.654s-5.84-9.073-6.362-9.907" transform="translate(-7.266 -7.372)" fill="#e0c3a4"/>
              <path id="Контур_1166" data-name="Контур 1166" d="M45.522,84.767c5.319,8.448,8.682,8.526,8.682,8.526S62.86,75.459,62.86,75.147s.208-1.982.208-1.982L60.287,61.554,56.95,58.773,49.3,48.045s-3.312,2.437-3.625,3.166S51.91,63.258,51.91,63.258L52.952,64.3l-.625,1.147.938,1.251.521,3.65s-1.043.313-1.043.731.939,1.251.939,1.251l-8.448,8.813Z" transform="translate(-6.856 -7.282)" fill="#898331"/>
              <path id="Контур_1167" data-name="Контур 1167" d="M61.149,64.824l-.783-3.27-3.338-2.781L49.382,48.045s-3.312,2.436-3.625,3.166,6.23,12.046,6.23,12.046l.688.687a18.817,18.817,0,0,0,6.161,1.016,19.692,19.692,0,0,0,2.313-.137" transform="translate(-6.933 -7.282)" fill="#a0963a"/>
              <path id="Контур_1168" data-name="Контур 1168" d="M45.757,51.211a7.081,7.081,0,0,0,.926,2.363,33.868,33.868,0,0,0,4.683-.733c.412-.094.818-.2,1.218-.3l-3.2-4.493s-3.312,2.437-3.625,3.166" transform="translate(-6.933 -7.282)" fill="#726b2a"/>
              <path id="Контур_1169" data-name="Контур 1169" d="M62.831,79.5l-.656.105-8.4,17.729A17.172,17.172,0,0,1,45.7,88.516a4.377,4.377,0,0,0-.852-1.621l.216,2.827c5.319,8.448,9.136,9.119,9.136,9.119s8.6-18.616,8.6-18.93c0-.075.013-.228.031-.417" transform="translate(-6.797 -12.048)" fill="#726b2a"/>
              <path id="Контур_1170" data-name="Контур 1170" d="M60.214,62.216l-.049-.041-6.558-.262s-4.309-8.04-6.882-9.5a121.119,121.119,0,0,1,4.1,11.4l2.052,1.147-.626,1.147.938,1.251.522,3.65s-1.043.313-1.043.731.938,1.251.938,1.251l-8.865,8.656.3,3.971c.372.591.736,1.137,1.092,1.647a16.8,16.8,0,0,1,15.918-9.859l1.668-2.919Z" transform="translate(-6.781 -7.944)" fill="#726b2a"/>
              <path id="Контур_1171" data-name="Контур 1171" d="M60.72,66.331l-5.562.07-2.433-3.58-.278,2.468,3.373,7.4L55.749,68Z" transform="translate(-7.949 -9.521)" fill="#5e5722"/>
              <path id="Контур_1172" data-name="Контур 1172" d="M51.891,46.469c6.144,5.494,9.839,7.415,9.839,7.415a47.114,47.114,0,0,0-.619-7.147c-1.939-1.11-4.72-2.4-5.482-2.4-.546,0-2.177,1.038-3.738,2.128" transform="translate(-7.865 -6.72)" fill="#ffa77b"/>
              <path id="Контур_1173" data-name="Контур 1173" d="M51.891,46.428c2.047,1.831,3.815,3.256,5.273,4.355a20.889,20.889,0,0,0,4.24-2.166c-.078-.657-.174-1.312-.293-1.922-1.939-1.11-4.842-2.622-5.6-2.622-.546,0-2.056,1.265-3.617,2.354" transform="translate(-7.865 -6.68)" fill="#ea875c"/>
              <path id="Контур_1174" data-name="Контур 1174" d="M57.485,36.228l-3.992,3.857c-.076,1.409.036,4.21.036,4.21,1.324,1.275,3.028,2.569,4.894,2.049.769-.214.954-1.087.909-1.9Z" transform="translate(-8.103 -5.491)" fill="#dd704a"/>
              <path id="Контур_1175" data-name="Контур 1175" d="M53.524,40.4c-4.73-.15-4.772-2.044-4.317-3.225s1.537-.869,2.548.042A9.4,9.4,0,0,1,53.524,40.4" transform="translate(-7.43 -5.518)" fill="#ea875c"/>
              <path id="Контур_1176" data-name="Контур 1176" d="M51.634,38.86a.415.415,0,0,1,.612-.256,2.674,2.674,0,0,0-.467-.6c-.615-.553-1.273-.743-1.548-.025-.246.635-.25,1.609,1.74,1.889a.747.747,0,0,1-.336-1" transform="translate(-7.596 -5.685)" fill="#cc4f46"/>
              <path id="Контур_1177" data-name="Контур 1177" d="M53.366,28.88c-.434.868,1.055,6.894-.828,8.205A4.88,4.88,0,0,0,53.553,39a12.994,12.994,0,0,0,7.842,2.4s.915-6.666.417-8.736a27.7,27.7,0,0,0-2.857-5.775s-3.85-1.491-5.59,1.987" transform="translate(-7.963 -4.028)" fill="#ffa77b"/>
              <path id="Контур_1178" data-name="Контур 1178" d="M45.642,51.731c-2.008,6,1.224,18.616,2.06,20.389a5.541,5.541,0,0,0,3.719,3.025c1.044.1,3.678-5.425,3.678-5.425a20.237,20.237,0,0,1-1.453-2.362C51,56.789,47,50.039,45.642,51.731" transform="translate(-6.82 -7.801)" fill="#a0963a"/>
              <path id="Контур_1179" data-name="Контур 1179" d="M45.15,54.206a19.716,19.716,0,0,0,4.246-.477c-1.268-2.095-3.138-2.743-3.729-2a12.234,12.234,0,0,0-.517,2.482" transform="translate(-6.843 -7.795)" fill="#726b2a"/>
              <path id="Контур_1180" data-name="Контур 1180" d="M53.994,67.823a60.917,60.917,0,0,0-2.645-7.188c1.427,5.777-.13,9.381-1.449,9.736-1.4.376-2.2-3.182-3.877-9.412-.433-1.609-.767-3.159-1-4.581A51.647,51.647,0,0,0,47.7,72.863a5.544,5.544,0,0,0,3.72,3.025c1.043.1,3.678-5.425,3.678-5.425s-1-2.236-1.106-2.64" transform="translate(-6.82 -8.545)" fill="#898331"/>
              <path id="Контур_1181" data-name="Контур 1181" d="M84.887,72.82a2.329,2.329,0,1,0-2.294,1.929,2.136,2.136,0,0,0,2.294-1.929" transform="translate(-12.17 -10.744)" fill="#ea875c"/>
              <path id="Контур_1182" data-name="Контур 1182" d="M148.827,2.492c-6.686,12.031-25.342,20.21-27.174,20.99-4.82,13.235-20.849,18.973-22.537,19.543-.718,1.589-3.5,12.931-15.666,16.154l-.16-.49c12.414-3.3,15.216-15.761,15.292-15.94l.053-.124.147-.046c.17-.053,17.386-5.62,22.282-19.335l.046-.128.147-.06c.211-.087,21.782-9.078,27.718-22.314,0,0,1.07,0-.148,1.749" transform="translate(-12.623 -0.113)" fill="#63474d"/>
              <path id="Контур_1183" data-name="Контур 1183" d="M84.991,70.885a2.208,2.208,0,0,0-2.477-2.059,2.448,2.448,0,0,0-2.1,2.612A2.209,2.209,0,0,0,82.878,73.5a2.446,2.446,0,0,0,2.113-2.611" transform="translate(-12.186 -10.429)" fill="#e0c09d"/>
              <path id="Контур_1184" data-name="Контур 1184" d="M84.826,70.946a2.014,2.014,0,0,0-2.26-1.878,2.232,2.232,0,0,0-1.917,2.383A2.015,2.015,0,0,0,82.9,73.328a2.233,2.233,0,0,0,1.928-2.382" transform="translate(-12.222 -10.465)" fill="#63474d"/>
              <path id="Контур_1185" data-name="Контур 1185" d="M84.154,71.091a1.261,1.261,0,0,0-1.415-1.177,1.4,1.4,0,0,0-1.2,1.493,1.261,1.261,0,0,0,1.408,1.175,1.4,1.4,0,0,0,1.207-1.492" transform="translate(-12.357 -10.595)" fill="#443237"/>
              <path id="Контур_1186" data-name="Контур 1186" d="M73.518,79.282a1.517,1.517,0,0,0-1.93.4c-.256.539.191,1.235,1,1.555a2.074,2.074,0,0,0,2.284-.568c.256-.539-.546-1.063-1.356-1.383" transform="translate(-10.839 -11.992)" fill="#ea875c"/>
              <path id="Контур_1187" data-name="Контур 1187" d="M60.01,82.523a.467.467,0,0,1-.168-.072.511.511,0,0,1-.079-.734c3.574-4.826,7.37-9.559,11.31-14.17C100.807,32.742,139.066,4.48,146.043.053c.322-.2.655.221.333.425-7.917,5.016-55.368,40.776-85.787,81.807a.584.584,0,0,1-.578.238" transform="translate(-9.04 0)" fill="#63474d"/>
              <path id="Контур_1188" data-name="Контур 1188" d="M59.681,95.26l-.32-.255a1.159,1.159,0,0,1-.16-1.631l9.2-11.307a1.136,1.136,0,0,1,1.4-.311,1.159,1.159,0,0,1,.347,1.741L61.23,95.057a1.09,1.09,0,0,1-1.548.2" transform="translate(-8.933 -12.372)" fill="#63474d"/>
              <path id="Контур_1189" data-name="Контур 1189" d="M54.18,79.211c5.041.82,15.708-.664,16.3-.759s.93-1.179.93-1.179S57.719,73.19,55.86,72.966c-6.69-.809-8.143,5.194-1.681,6.245" transform="translate(-7.581 -11.047)" fill="#ffa77b"/>
              <path id="Контур_1190" data-name="Контур 1190" d="M67.027,78.7c-5.587,0-10.116-1.471-10.116-3.285,0-.67.619-1.293,1.681-1.813-1.31-.346-2.316-.59-2.731-.64-6.691-.808-8.143,5.194-1.681,6.246,4.1.667,11.925-.192,15.019-.585-.7.049-1.426.076-2.172.076" transform="translate(-7.581 -11.047)" fill="#ea875c"/>
              <path id="Контур_1191" data-name="Контур 1191" d="M56.844,72.994a22.391,22.391,0,0,0-2.578,5.933.581.581,0,0,1-.621.408c-1.091-.117-3.679-.6-4.375-2.536-1.045-2.91,5.237-5.487,5.632-5.215Z" transform="translate(-7.45 -10.846)" fill="#e0c09d"/>
              <path id="Контур_1192" data-name="Контур 1192" d="M55.242,71.584c-.22-.152-2.26.579-3.849,1.758a3.376,3.376,0,0,0,3.275,3.283,3.1,3.1,0,0,0,.747-.094,14.765,14.765,0,0,1,1.769-3.537Z" transform="translate(-7.789 -10.846)" fill="#f2dcc0"/>
              <path id="Контур_1195" data-name="Контур 1195" d="M63.11,69.587a.685.685,0,0,0-.643-.539.431.431,0,0,0-.434.539.685.685,0,0,0,.643.539.431.431,0,0,0,.434-.539" transform="translate(-9.4 -10.465)" fill="#5e5722"/>
              <path id="Контур_1196" data-name="Контур 1196" d="M64.217,72.947a.685.685,0,0,0-.643-.539.431.431,0,0,0-.434.539.685.685,0,0,0,.643.539.431.431,0,0,0,.434-.539" transform="translate(-9.568 -10.974)" fill="#5e5722"/>
              <path id="Контур_1197" data-name="Контур 1197" d="M73.2,77.393c1.493-.068,1.946-.209,2.294.244a2.974,2.974,0,0,1,.487,1.773c-.084.446-1.746,2.19-3.2.66-.288-.3-.4-.772-.834-.973s-.278-1.634,1.251-1.7" transform="translate(-10.873 -11.718)" fill="#ffa77b"/>
              <path id="Контур_1198" data-name="Контур 1198" d="M61.442,31.564a35.364,35.364,0,0,0-2.487-4.671s-3.85-1.491-5.59,1.988c-.434.867,1.056,6.894-.828,8.2a5.015,5.015,0,0,0,.994,1.9,11.194,11.194,0,0,1,7.911-7.419" transform="translate(-7.963 -4.028)" fill="#ea875c"/>
              <path id="Контур_1199" data-name="Контур 1199" d="M43.629,26.574C49.906,16.265,56.637,9.908,60.058,10.048a2.013,2.013,0,0,1,1.417.83,2.333,2.333,0,0,0-1.73-1.247c-3.421-.139-10.152,6.217-16.429,16.526-4.292,7.05-6.5,14.218-4.212,16.7-1.74-2.795.451-9.59,4.525-16.28" transform="translate(-5.788 -1.459)" fill="#af823f"/>
              <path id="Контур_1200" data-name="Контур 1200" d="M56.218,33.378c.443-.132.953.266,1.138.886a1.044,1.044,0,0,1-.467,1.36c-.443.131-.952-.266-1.138-.886a1.045,1.045,0,0,1,.467-1.36" transform="translate(-8.439 -5.055)" fill="#3f3132"/>
              <path id="Контур_1201" data-name="Контур 1201" d="M60.875,31.756c.4-.118.867.281,1.038.892s-.017,1.2-.419,1.32-.867-.281-1.038-.892.017-1.2.419-1.32" transform="translate(-9.153 -4.81)" fill="#3f3132"/>
              <path id="Контур_1202" data-name="Контур 1202" d="M53.781,31.655l1.689-1.033a.409.409,0,0,1,.572.1l.216.364a.423.423,0,0,1-.179.562l-1.689,1.032a.409.409,0,0,1-.573-.1l-.216-.364a.423.423,0,0,1,.179-.562" transform="translate(-8.117 -4.63)" fill="#7c452d"/>
              <path id="Контур_1203" data-name="Контур 1203" d="M61.473,29.287l-1.878.057a.417.417,0,0,0-.413.409l0,.434a.4.4,0,0,0,.423.383l1.878-.058A.416.416,0,0,0,61.9,30.1l-.005-.434a.4.4,0,0,0-.422-.383" transform="translate(-8.97 -4.439)" fill="#7c452d"/>
              <path id="Контур_1204" data-name="Контур 1204" d="M60.162,35.353c.015-.148.031-.245.031-.245.374.163,2.186,1.351.277,2.123a.975.975,0,0,1-.05-.087c1.062-.629.258-1.435-.257-1.79" transform="translate(-9.118 -5.321)" fill="#d27558"/>
              <path id="Контур_1205" data-name="Контур 1205" d="M58.573,38.764c0,.063,0,.124.013.188.155,1.091.931,1.9,1.731,1.807s1.324-1.054,1.167-2.146c-.007-.047-.02-.09-.03-.136Z" transform="translate(-8.877 -5.832)" fill="#3f3132"/>
              <path id="Контур_1206" data-name="Контур 1206" d="M61.3,39.57a2.137,2.137,0,0,0,.035-.786c-.005-.039-.017-.076-.025-.114l-2.421.241c0,.053,0,.1.011.157a2.194,2.194,0,0,0,.26.762Z" transform="translate(-8.925 -5.861)" fill="#fbf3d6"/>
              <path id="Контур_1207" data-name="Контур 1207" d="M60.5,32.15a1.326,1.326,0,0,0-.509.313,1.162,1.162,0,0,1,.709-1.056c.607-.178,1.309.423,1.567,1.345.01.039.014.077.024.116A1.716,1.716,0,0,0,60.5,32.15" transform="translate(-9.093 -4.755)" fill="#3f3132"/>
              <path id="Контур_1208" data-name="Контур 1208" d="M56.665,33.234a1.787,1.787,0,0,1,.7-.026,1.345,1.345,0,0,0-1.332-.484,1.562,1.562,0,0,0-.848,2.023c.011.039.029.074.042.111a2.03,2.03,0,0,1,1.436-1.623" transform="translate(-8.352 -4.954)" fill="#3f3132"/>
              <path id="Контур_1122" data-name="Контур 1122" d="M68.089,131.495c.764-4.453.209-10.205-.888-16.492,2.584,5.471,4.362,10.961,4.593,16.492Z" transform="translate(-10.185 -17.43)" fill="#877d39"/>
              <path id="Контур_1121" data-name="Контур 1121" d="M93.342,97.416s-10.158,11.453-16.264,31.413h2.984c.034-6.381,13.28-31.413,13.28-31.413" transform="translate(-11.682 -14.764)" fill="#9b9245"/>
              <path id="Контур_1120" data-name="Контур 1120" d="M70.452,105.285s5.175,9.492,3.944,24.737H70.2c3.093-4.873.256-24.737.256-24.737" transform="translate(-10.639 -15.957)" fill="#9b9245"/>
              <path id="Контур_1119" data-name="Контур 1119" d="M94.521,113.925s-10.364,6.346-14.133,17.407h3.678c-1.159-3.536,10.455-17.407,10.455-17.407" transform="translate(-12.184 -17.266)" fill="#9b9245"/>
              <path id="Контур_1118" data-name="Контур 1118" d="M83.657,103.667s-7.381,9.519-8.648,26.11h2.984c-1.513-5.3,5.664-26.11,5.664-26.11" transform="translate(-11.368 -15.712)" fill="#9b9245"/>
            </g>
          </g>
          <path id="Контур_1780" data-name="Контур 1780" d="M-7588.668-6531s7.494,32.123,10.958,117.387" transform="translate(8067 7322)" fill="none" stroke="#63474d" stroke-width="0.5"/>
        </g>
      </g>
    </g>
  </g>
</svg>
