<svg xmlns="http://www.w3.org/2000/svg" width="502.02" height="373.206" viewBox="0 0 502.02 373.206">
  <g id="left-fisherman" transform="translate(-78.148 0.003)">
    <g id="Сгруппировать_175" data-name="Сгруппировать 175" transform="translate(78.148 -0.003)">
      <path id="Контур_1406" data-name="Контур 1406" d="M345.048,373.205,334.211,3.6c-16.81,28.784-64.866,40.41-69.747,41.521C248.46,83.6,207.087,88.9,202.219,89.4c-2.207,4.932-23.788,50.995-59.557,52.861l-.079-1.532c36.658-1.909,58.2-51.849,58.412-52.351l.184-.433.469-.031c.449-.031,45.11-3.589,61.55-43.738l.155-.375.4-.087c.535-.112,53.45-11.633,69.91-42.257L334.438,0l.607,1.537,11.431,371.109Z" transform="translate(155.544 0.001)" fill="#5a4949"/>
      <path id="Контур_1418" data-name="Контур 1418" d="M113.946,39.676c.076-2.386,1-11.534,1.547-13.259s12.082-9.943,15.268-10.606,13.343,2.518,15.991,3.581,5.434,16.968,5.434,16.968Z" transform="translate(111.19 24.352)" fill="#eadfb0"/>
      <path id="Контур_1419" data-name="Контур 1419" d="M139.149,19.389c-2.646-1.06-12.8-4.241-15.989-3.579a17.711,17.711,0,0,0-4.305,2.082c2.4,2.289,6.849,4.621,12.209,6.163a36.042,36.042,0,0,0,11.077,1.552c-.9-3.117-1.958-5.8-2.992-6.219" transform="translate(118.793 24.352)" fill="#f4eac1"/>
      <path id="Контур_1420" data-name="Контур 1420" d="M142.12,49.906c-22.81,2.48-45.76-8.832-29.388-18.3s50.383-16.035,64.088-8.062c17.957,10.445-2.6,22.868-34.7,26.358" transform="translate(100.73 30.948)" fill="#e0cc99"/>
      <path id="Контур_1421" data-name="Контур 1421" d="M161.7,26.68c-13.106-8.314-46.935-.688-48.971.489-16.371,9.461,6.579,20.776,29.388,18.3,8.042-.874,21.441-15.459,19.583-18.785" transform="translate(100.73 35.39)" fill="#d3ba84"/>
      <path id="Контур_1422" data-name="Контур 1422" d="M117.686,52.785c3.127-6.456-3.586-21.91-3.586-21.91s6.194-8.934,28.3-7.562-24.711,29.472-24.711,29.472" transform="translate(111.428 35.889)" fill="#7c3828"/>
      <path id="Контур_1423" data-name="Контур 1423" d="M121.643,64.8c8.215-9.586,14.867-23.082,14.867-23.082L125.359,30.568l-11.541,13.3Z" transform="translate(110.991 47.348)" fill="#dd704a"/>
      <path id="Контур_1424" data-name="Контур 1424" d="M129.633,38.371s-22.692,19.822-24.517,31.82,17.735,36.255,17.735,36.255l22.955-9.387s-8.87-35.475-16.173-58.687" transform="translate(97.327 59.434)" fill="#e0cc99"/>
      <path id="Контур_1425" data-name="Контур 1425" d="M113.33,76.513c7.257,7.687,38.89,9.41,38.89,9.41l3.622-11.077s-22.889-13.065-26.212-15.52-21.329,11.86-16.3,17.187" transform="translate(108.872 91.456)" fill="#ea875c"/>
      <path id="Контур_1426" data-name="Контур 1426" d="M158.79,60.588a8.607,8.607,0,1,0-8.607,8.607,8.608,8.608,0,0,0,8.607-8.607" transform="translate(153.983 80.514)" fill="#63474d"/>
      <path id="Контур_1427" data-name="Контур 1427" d="M117.2,206.155a1.687,1.687,0,0,1-.533-.311,1.709,1.709,0,0,1-.184-2.406C215.35,88.232,354.276,9.97,375.724.363c.862-.382,1.621,1.142.76,1.527-21.342,9.561-158.949,89.037-257.409,203.771a1.708,1.708,0,0,1-1.873.494" transform="translate(114.487 0.47)" fill="#63474d"/>
      <path id="Контур_1428" data-name="Контур 1428" d="M137.259,71.745c-4.3-.979-9.78-3.716-8.607-5.674s3.912-2.541,6.456-1.369,5.281,2.151,5.281,3.52-2.748,3.609-3.13,3.523" transform="translate(133.717 99.286)" fill="#ffa77b"/>
      <path id="Контур_1429" data-name="Контур 1429" d="M135.647,73.434c-4.3-.979-9.78-3.716-8.607-5.674s3.913-2.541,6.456-1.369,5.281,2.151,5.281,3.52-2.748,3.609-3.13,3.523" transform="translate(131.221 101.902)" fill="#ffa77b"/>
      <path id="Контур_1430" data-name="Контур 1430" d="M133.268,74.892c-4.305-.979-9.78-3.716-8.607-5.674s3.912-2.541,6.456-1.369S136.4,70,136.4,71.369s-2.748,3.609-3.13,3.523" transform="translate(127.536 104.16)" fill="#ffa77b"/>
      <path id="Контур_1431" data-name="Контур 1431" d="M132.375,83.155c11.195,0,37.244-20.019,37.244-20.019l-5.085-9.39s-27.311,7.045-31.675,7.715-8.243,21.693-.484,21.693" transform="translate(132.851 83.247)" fill="#ffa77b"/>
      <path id="Контур_1432" data-name="Контур 1432" d="M160.395,62.605c-11.108,4.376-21.892,3.4-24.092-2.177a6.293,6.293,0,0,1-.133-3.923c-1.5.339-2.661.581-3.311.681-4.364.67-8.243,21.693-.484,21.693,11.195,0,37.244-20.019,37.244-20.019l-.525-.966a39.757,39.757,0,0,1-8.7,4.71" transform="translate(132.851 87.522)" fill="#ea875c"/>
      <path id="Контур_1433" data-name="Контур 1433" d="M98.359,71.177C96.6,92.3,127.8,130.121,127.8,130.121l.586,4.3,20.735,5.674s-1.468-22.364-5.577-33.9-10.955-35.409-10.955-35.409Z" transform="translate(86.936 109.637)" fill="#64919b"/>
      <path id="Контур_1434" data-name="Контур 1434" d="M136.446,124.584c-2.452-13.843-.523-25.764,4.3-26.771-3.836-11.982-8.154-27.028-8.154-27.028l-34.234.39C96.6,92.3,127.8,130.12,127.8,130.12l.586,4.305,11.75,3.214a64.017,64.017,0,0,1-3.693-13.055" transform="translate(86.936 109.638)" fill="#426e72"/>
      <path id="Контур_1435" data-name="Контур 1435" d="M125.757,97.134c-23.926,24.775-23.5,51.981-23.5,51.981l1.185,1.517s39.135-45.02,39.747-47.386-17.434-6.112-17.434-6.112" transform="translate(93.088 150.449)" fill="#ffa77b"/>
      <path id="Контур_1436" data-name="Контур 1436" d="M125.757,97.134c-23.926,24.775-23.5,51.981-23.5,51.981l1.185,1.517,2.651-9.545,18.974-27.974,11.075-.765c4.06-4.909,6.887-8.483,7.048-9.1.612-2.365-17.434-6.112-17.434-6.112" transform="translate(93.088 150.449)" fill="#ea875c"/>
      <path id="Контур_1437" data-name="Контур 1437" d="M122.567,99.409c16.432,42.515,44.6,62.86,44.6,62.86l1.825-.523s-25.822-69.12-27.907-71.2-18.52,8.867-18.52,8.867" transform="translate(124.542 139.829)" fill="#ffa77b"/>
      <path id="Контур_1438" data-name="Контур 1438" d="M137.434,106.125l5.75-11.228a26.524,26.524,0,0,0-2.1-4.356c-2.087-2.088-18.52,8.867-18.52,8.867,14.987,38.773,39.724,59.1,43.963,62.376-10.583-15.561-29.1-55.659-29.1-55.659" transform="translate(124.542 139.829)" fill="#ea875c"/>
      <path id="Контур_1439" data-name="Контур 1439" d="M123.22,133.352H100.331s-.255-5.332.622-7.486c.974-2.4,9.492-12.247,9.492-12.247l1.863,5.062s-6.818,5.121-2.088,7.629c5.164,2.74,8.014,4.695,10.754,4.695s2.246,2.347,2.246,2.347" transform="translate(90.048 175.982)" fill="#ffa77b"/>
      <path id="Контур_1440" data-name="Контур 1440" d="M165.731,130.219H142.842s-1.369-3.523-.586-5.674c.872-2.4-4.109-7.432-4.109-7.432l4.891-.586a20.942,20.942,0,0,0,7.239,6.064c5.281,2.737,10.369,5.281,13.106,5.281s2.347,2.348,2.347,2.348" transform="translate(148.673 180.486)" fill="#ffa77b"/>
      <path id="Контур_1450" data-name="Контур 1450" d="M41.109,124.124H28.589l-.064,40.69h6.78Z" transform="translate(-21.115 192.253)" fill="#421f17"/>
      <path id="Контур_1451" data-name="Контур 1451" d="M111.257,123.05H98.737l-.064,43.427h6.78Z" transform="translate(87.535 190.589)" fill="#421f17"/>
      <path id="Контур_1452" data-name="Контур 1452" d="M107.627,133.712l-8.934,3.043-.02,13.208h6.782Z" transform="translate(87.533 207.103)" fill="#602c1e"/>
      <path id="Контур_1453" data-name="Контур 1453" d="M162.986,113.3h-12.52l-.064,68.271h6.78Z" transform="translate(167.655 175.492)" fill="#602c1e"/>
      <path id="Контур_1454" data-name="Контур 1454" d="M159.349,142.37l1.728-20.317-10.649,3.3-.018,19.2Z" transform="translate(167.668 189.045)" fill="#421f17"/>
      <path id="Контур_1455" data-name="Контур 1455" d="M100.7,113.3H88.184l3.653,68.271h6.78Z" transform="translate(71.288 175.492)" fill="#602c1e"/>
      <path id="Контур_1456" data-name="Контур 1456" d="M99.46,120.315A84.658,84.658,0,0,0,88.635,123.9l1.3,24.313c.1-.051.2-.094.3-.145,3.031-1.54,5.878-3.163,8.526-4.825Z" transform="translate(71.986 186.353)" fill="#421f17"/>
      <path id="Контур_1457" data-name="Контур 1457" d="M89.229,132.867A17.544,17.544,0,0,0,100,136.456L100.7,113.3H88.184Z" transform="translate(71.288 175.491)" fill="#894029"/>
      <path id="Контур_1463" data-name="Контур 1463" d="M277.829,135.7H91.207l-1.565-15.257,110.982,3.913,70.945-3.523,4.3,2.347Z" transform="translate(73.547 186.548)" fill="#af5b3a"/>
      <path id="Контур_1482" data-name="Контур 1482" d="M25.618,135.7H193.111l-3.586-15.257L112.5,124.353,25.855,126.7Z" transform="translate(-25.618 186.548)" fill="#894029"/>
      <path id="Контур_1483" data-name="Контур 1483" d="M65.58,124.184l-7.009.189a59.235,59.235,0,0,0-2.661,11.156h72.079a91.561,91.561,0,0,0,8.291-13.239c.3-.584.573-1.162.854-1.741Z" transform="translate(21.3 186.715)" fill="#773826"/>
      <path id="Контур_1484" data-name="Контур 1484" d="M36.828,132.924H75.367l-1.83-10.692-38.36,1.04Z" transform="translate(-10.813 189.322)" fill="#682f1f"/>
      <path id="Контур_1491" data-name="Контур 1491" d="M141.772,74.164c18.194,20.345,37.56,49.3,37.56,49.3l-10.565,10.366-12.91,1.761S109.69,100.769,104.409,95.1s-7.629-17.8-7.629-18.387.39-5.281.39-5.281l42.255-5.478Z" transform="translate(84.602 102.148)" fill="#64919b"/>
      <path id="Контур_1492" data-name="Контур 1492" d="M128.47,85.315l12.772-13-1.817-6.362L97.17,71.426s-.39,4.695-.39,5.281,2.347,12.716,7.629,18.387,51.449,40.494,51.449,40.494l10.471-1.427c-13.583-11.85-37.858-48.846-37.858-48.846" transform="translate(84.602 102.148)" fill="#4a7a82"/>
      <path id="Контур_1493" data-name="Контур 1493" d="M139.425,65.949,97.17,71.426s-.39,4.695-.39,5.281a50.829,50.829,0,0,0,4.779,14.286c14.964-6.752,28.736-13.82,38.771-21.879Z" transform="translate(84.602 102.148)" fill="#426e72"/>
      <path id="Контур_1494" data-name="Контур 1494" d="M129.406,117.226c-10.759-3.064-19.751-12.438-19.751-12.438l.24-3.082-1.443-4.244,1.71-3.737s21.377,3.428,23.7,4.514-1,8.309-1,8.309a2.651,2.651,0,0,1,.811,3.25,82.709,82.709,0,0,1-4.269,7.427" transform="translate(102.68 145.171)" fill="#ede2b4"/>
      <path id="Контур_1495" data-name="Контур 1495" d="M131.436,117.054c11.541-7.239,18.78-19.562,18.78-19.562l-1.369-2.737.194-4.5-3.324-2.737S121.85,99.449,119.5,101.4s4.109,7.239,4.109,7.239a2.308,2.308,0,0,0,.2,3.326,83.231,83.231,0,0,0,7.629,5.085" transform="translate(118.999 135.551)" fill="#ede2b4"/>
      <path id="Контур_1496" data-name="Контур 1496" d="M96.019,125.606c19.534.76,47.694-13.193,47.694-13.193l-2.284-6.849L153.1,63.7l-8.373-27.145S111.5,58.377,102.868,77.4s-7.611,34.249-7.611,34.249Z" transform="translate(82.187 56.627)" fill="#ede2b4"/>
      <path id="Контур_1497" data-name="Контур 1497" d="M113.769,61.145,96.294,92.834A133.625,133.625,0,0,0,134.636,79.4l8.085-25.17Z" transform="translate(83.849 84)" fill="#e0d09d"/>
      <path id="Контур_1498" data-name="Контур 1498" d="M127.364,113.035c0-24.607,10.84-45.194,25.376-50.5l-8.011-25.978S111.495,58.377,102.869,77.4s-7.611,34.249-7.611,34.249l.76,13.952c9.91.387,22.032-3.013,31.58-6.459-.148-2.006-.235-4.042-.235-6.112" transform="translate(82.188 56.627)" fill="#e0d09d"/>
      <path id="Контур_1499" data-name="Контур 1499" d="M90.568,115.337C110.289,123.679,142.83,109,142.83,109S164.037,65.206,165.3,63.432s-7.369-16.106-7.369-16.106-6.734-14.946-9.777-14.946-5.834,8.878-5.834,8.878S130.4,38.466,119.235,53.435s-30.951,50.485-28.667,61.9" transform="translate(74.7 50.153)" fill="#ae5bea"/>
      <path id="Контур_1500" data-name="Контур 1500" d="M126.9,47.325s-6.734-14.946-9.777-14.946-5.837,8.88-5.837,8.88a7.938,7.938,0,0,0-.869-.13c.915.956,1.884,1.927,2.9,2.9,8.067,7.718,15.958,12.561,17.625,10.815.041-.041.056-.127.089-.184-1.993-3.785-4.132-7.333-4.132-7.333" transform="translate(105.73 50.153)" fill="#7b21bd"/>
      <path id="Контур_1501" data-name="Контур 1501" d="M145.807,38.686a21.194,21.194,0,0,0-3.841-2.763c-2.049-.319-12.693-1.216-22.731,12.242-11.161,14.967-30.951,50.485-28.667,61.9,4.947,2.093,10.705,2.735,16.55,2.523a79.4,79.4,0,0,0,24.808-16.183c20.885-19.835,27.1-45.678,13.881-57.721" transform="translate(74.7 55.423)" fill="#7b21bd"/>
      <path id="Контур_1502" data-name="Контур 1502" d="M127.27,64.963c4.114-13.185,2.557-25.06-3.482-26.523s-14.266,8.037-18.38,21.222-2.557,25.058,3.479,26.523,14.268-8.037,18.382-21.222" transform="translate(94.404 59.309)" fill="#390460"/>
      <path id="Контур_1503" data-name="Контур 1503" d="M126.75,63.667c3.918-12.556,2.434-23.865-3.316-25.259s-13.585,7.654-17.5,20.21-2.437,23.865,3.314,25.259,13.585-7.654,17.506-20.21" transform="translate(95.383 59.272)" fill="#d1b984"/>
      <path id="Контур_1504" data-name="Контур 1504" d="M128.4,42.2a195.079,195.079,0,0,1,28.17,34.037,52.385,52.385,0,0,0,6.189,7.29l-10.884,19.708s-25.652-12.6-37.756-24.454C94.95,60,112.162,26.742,128.4,42.2" transform="translate(98.366 59.195)" fill="#ede2b4"/>
      <path id="Контур_1505" data-name="Контур 1505" d="M156.756,76.48c.619,4.955-.224,8.715-2.735,10.277-5.641,3.512-17.511-5.363-26.516-19.822-7.014-11.266-10.2-22.575-8.6-28.692-12.143,1.127-20.149,25.445-4.787,40.5,12.1,11.855,37.756,24.451,37.756,24.451l10.886-19.708a54.332,54.332,0,0,1-6.005-7" transform="translate(98.367 59.234)" fill="#e0d09d"/>
      <path id="Контур_1506" data-name="Контур 1506" d="M137.264,55.542a12.471,12.471,0,0,0,3.247.956,2.861,2.861,0,0,1,2.523,2.921l-.584,19.272a4.414,4.414,0,0,1-4.109,4.267,11.36,11.36,0,0,1-7.448-1.947,8.608,8.608,0,0,1-7.2-3.158,3.643,3.643,0,0,1-.387-4.394l10.519-16.789a2.824,2.824,0,0,1,3.436-1.127" transform="translate(124.822 85.718)" fill="#f9f0cd"/>
      <path id="Контур_1507" data-name="Контур 1507" d="M121.977,27.238c-.329,1.718-5.217,23.475-4.955,25.3s13.562,9.13,15.91,9.65,11.737-7.825,11.737-7.825l1.825-28.43s-7.106-6.65-24.517,1.305" transform="translate(115.938 36.137)" fill="#ffa77b"/>
      <path id="Контур_1508" data-name="Контур 1508" d="M136.807,35.7a50.061,50.061,0,0,1,8.465-1.277l.545-8.493s-7.109-6.65-24.517,1.305c-.219,1.142-2.452,11.136-3.849,18.247A44.6,44.6,0,0,1,136.807,35.7" transform="translate(116.618 36.137)" fill="#ea875c"/>
      <path id="Контур_1509" data-name="Контур 1509" d="M125.182,23.686c3.13,3-.528,17.082-.528,17.082l-6.255-.26s-2.478-9.78-.26-12.65,7.042-4.172,7.042-4.172" transform="translate(116.256 36.689)" fill="#7c3828"/>
      <path id="Контур_1510" data-name="Контур 1510" d="M122.876,31.741c-.52-2.944-2.294-5.09-3.961-4.794s-2.595,2.918-2.075,5.862,2.294,5.09,3.961,4.794,2.595-2.918,2.075-5.862" transform="translate(115.449 41.697)" fill="#ea875c"/>
      <path id="Контур_1511" data-name="Контур 1511" d="M118.413,33.63c-.176-.992.191-1.886.818-2,.581-.1,1.165.517,1.389,1.4a4.488,4.488,0,0,0,.12-2.212c-.3-1.669-1.3-2.888-2.248-2.72s-1.471,1.657-1.178,3.326a4.157,4.157,0,0,0,1.129,2.3c-.008-.036-.023-.061-.031-.1" transform="translate(116.281 43.5)" fill="#cc4f46"/>
      <path id="Контур_1526" data-name="Контур 1526" d="M148.982,122.367,110.336,121c-3.91,4.664-6.576,9.349-7.756,13.822h43.58a41.318,41.318,0,0,0,2.822-12.459" transform="translate(93.585 187.419)" fill="#a04b30"/>
      <path id="Контур_1527" data-name="Контур 1527" d="M138.757,123.366l-9.171-.324c.6,3.3,1.438,7.229,2.587,11.669h37.945A78.587,78.587,0,0,0,184.9,121.077Z" transform="translate(135.414 187.533)" fill="#a04b30"/>
      <path id="Контур_1528" data-name="Контур 1528" d="M112.458,32.916c16.374-9.461,50.383-16.035,64.088-8.062,4.889,2.845,6.9,5.834,6.627,8.753,1.1-3.324-.744-6.788-6.367-10.058-13.705-7.973-47.715-1.4-64.088,8.062-3.721,2.154-5.393,4.4-5.516,6.558.614-1.751,2.276-3.533,5.256-5.253" transform="translate(100.744 30.948)" fill="#f4eac1"/>
      <path id="Контур_1529" data-name="Контур 1529" d="M108.885,37.721l11.075,6.041-5.11-9.125c-.729,1.7-1.178,3.122-1.178,3.122a14.627,14.627,0,0,0-4.787-.038" transform="translate(103.351 53.65)" fill="#390460"/>
      <path id="Контур_1530" data-name="Контур 1530" d="M106.73,46.851c.469.092.935.184,1.41.273a156.308,156.308,0,0,0,26.266,2.845c-2.393-2.582-4.945-5.195-7.654-7.774-7.863-7.486-15.943-3.53-20.021,4.657" transform="translate(100.013 59.197)" fill="#e0d09d"/>
      <path id="Контур_1531" data-name="Контур 1531" d="M140.91,57.685c7.262-4.31,13.5-7.336,17.215-5.088s6.161,9.489,5.477,11.544-8.248,4.522-9.913,4.522-4.172-2.567-4.172-2.567l-6.846-2.837Z" transform="translate(152.953 80.287)" fill="#ffa77b"/>
      <path id="Контур_1532" data-name="Контур 1532" d="M152.145,57.332a3.277,3.277,0,1,0-3.275,3.275,3.28,3.28,0,0,0,3.275-3.275" transform="translate(160.205 83.721)" fill="#63474d"/>
      <path id="Контур_1533" data-name="Контур 1533" d="M127.595,25.266l-5.365.691a.959.959,0,0,0-.747,1.081l.191,2.029a.867.867,0,0,0,.928.854l5.35-.77a.942.942,0,0,0,.709-1.063l-.181-1.975a.851.851,0,0,0-.884-.846" transform="translate(122.856 39.128)" fill="#7c3828"/>
      <path id="Контур_1534" data-name="Контур 1534" d="M131.911,26.345l-4.624-1.211c-.4-.1-.775.227-.844.742l-.257,1.942a.983.983,0,0,0,.6,1.111l4.641,1.142c.382.094.744-.237.811-.739l.245-1.9a.97.97,0,0,0-.571-1.091" transform="translate(130.132 38.903)" fill="#7c3828"/>
      <path id="Контур_1535" data-name="Контур 1535" d="M126.383,28.64c1.415,4.41,1.894,7.239.693,8.444a2.848,2.848,0,0,1-2.76.484l-.02.092s2.732,1.371,4.042.222c1.282-1.124.263-4.234-1.955-9.242" transform="translate(127.219 44.362)" fill="#dd704a"/>
      <path id="Контур_1536" data-name="Контур 1536" d="M132.557,34.657l-10.4-1.626a6.474,6.474,0,0,0,4.17,6.581c4.568,1.868,6.232-4.955,6.232-4.955" transform="translate(123.871 51.163)" fill="#3e2d34"/>
      <path id="Контур_1537" data-name="Контур 1537" d="M129.821,37.159a9.161,9.161,0,0,0,1.129-2.564l-8.4-1.295a5.448,5.448,0,0,0,.523,2.727Z" transform="translate(124.499 51.579)" fill="#f9eddb"/>
      <path id="Контур_1538" data-name="Контур 1538" d="M124.817,29.511a1.966,1.966,0,0,1,1.081.833c-.036-1.41-.586-2.531-1.407-2.661-1-.155-2.008,1.211-2.251,3.059-.008.059-.005.117-.013.176a2.461,2.461,0,0,1,2.59-1.407" transform="translate(124.016 42.861)" fill="#3f3132"/>
      <path id="Контур_1539" data-name="Контур 1539" d="M128.924,30.11a3.065,3.065,0,0,1,.571,1.048,3.217,3.217,0,0,0-.551-2.76c-.783-.765-1.993-.181-2.7,1.313-.031.064-.054.133-.079.2a1.885,1.885,0,0,1,2.763.2" transform="translate(130.109 43.465)" fill="#3f3132"/>
    </g>
  </g>
</svg>
