<svg xmlns="http://www.w3.org/2000/svg" xmlns:xlink="http://www.w3.org/1999/xlink" width="1613.769" height="1244.619" viewBox="0 0 1613.769 1244.619">
  <defs>
    <linearGradient id="linear-gradient" x1="0.547" y1="0.278" x2="0.373" y2="0.671" gradientUnits="objectBoundingBox">
      <stop offset="0" stop-color="#009ab3"/>
      <stop offset="1" stop-color="#57f7ed"/>
    </linearGradient>
    <linearGradient id="linear-gradient-2" x1="0.523" y1="0.311" x2="0.497" y2="0.75" xlink:href="#linear-gradient"/>
  </defs>
  <g id="rif" transform="translate(-1713.858 -102.932)">
    <path id="XMLID_379_" d="M448.5,272.589l118.734-82.521c3.292-2.195,8.34-2.414,10.534-5.487,10.1,4.17,24.581-5.706,35.554-4.17,10.535,1.317,16.021,9,27.653,7.462,10.535-1.317,19.533-6.8,28.97-10.974a100.881,100.881,0,0,1,18.216,12.071c-3.292,1.756-5.706,3.292-6.8,3.731,2.853-.878,5.487-1.756,8.34-2.634,8.34,6.8,16.241,14.7,24.581,21.947,13.168,15.363,21.947,37.31,39.5,39.5,59.257,8.779,98.762,43.894,140.461,81.2,8.779,8.779,20.191,13.168,32.262,13.607-1.756,2.853-2.195,6.145-.878,10.974,1.975,6.584,6.584,10.535,7.462,17.338.658,5.048-1.975,6.8,1.317,12.949.878,1.756,5.048,8.12,6.8,9.437a26.834,26.834,0,0,0,4.17,2.634c1.317-3.292,2.853-7.462,3.073-8.12.219-.439.439-1.1.658-1.536-2.414-3.292-4.609-5.487-4.828-8.559-.439-.439-.878-.658-1.317-1.1-1.536-1.317-3.731-3.073-3.512-4.609,0-.22.659-.22.878.219a8.51,8.51,0,0,0,4.17,3.512,25.7,25.7,0,0,1,.878-5.706c-1.317-.658-2.853-1.536-3.511-1.975a22.053,22.053,0,0,1-4.17-3.512c-1.975-2.414-2.414-5.048-3.511-7.243-.219-.219.439-.219.658,0a29.4,29.4,0,0,0,3.731,5.926c.439-1.1,1.317-1.975,1.317-3.292,0-.439.878-.219,1.1.219.658,1.756,0,3.073-.219,4.389.439.219.658.878.439,1.1a16.367,16.367,0,0,0,3.292,1.975l1.317.658c.219-.439.219-1.1.439-1.536.878-3.512.659-3.731.219-7.023a5.329,5.329,0,0,1,0-2.634,11.027,11.027,0,0,1-2.634-1.756,8.363,8.363,0,0,1-2.634-4.609c-.219-.439.658-.439.878,0,.878,1.317,1.756,3.292,3.731,4.17a3.707,3.707,0,0,0,1.1.439,18.919,18.919,0,0,1,5.706-7.462c.219-.219.878.219.658.439a14.567,14.567,0,0,0-3.731,8.559l.219.219c0,.219,0,.219-.219.439a6.766,6.766,0,0,0,.219,2.195,7.791,7.791,0,0,0,.878,1.975c.439,0,.658-.219,1.1-.219,1.317-.219,1.975-1.317,3.073-1.975.658-.439,1.975.439,1.756,1.1a7.591,7.591,0,0,1-2.195,2.414c-.658.439-1.756.658-2.634,1.1a5.843,5.843,0,0,1,.658,2.634c-.219,2.634-1.536,4.828-1.975,7.462a24.2,24.2,0,0,0-.439,3.95c.219.22.219.439,0,.439v.878c0-.219.219-.219.439-.439.439-.219,1.1-.658,1.536-.878.219-.878.658-1.536.878-2.414a15.574,15.574,0,0,1,6.584-7.023c.439-.219.878-.658,1.317-.878a8.44,8.44,0,0,1-2.414-3.512c-.878-2.195.658-3.731,1.756-5.487.219-.219.878,0,.658.219a7.192,7.192,0,0,0,.658,5.926,12.161,12.161,0,0,1,3.073-2.853v-.878c-.219-1.756-1.536-1.975-1.1-3.731.439-1.975,3.073-2.853,4.609-4.17-.219,0-.219,0-.439-.219a25.027,25.027,0,0,1-4.17-2.195c-1.756-1.1-2.195-2.634-3.95-3.95-.439-.219,0-.658.439-.439a12.732,12.732,0,0,1,2.634,2.195,11.508,11.508,0,0,0,3.95,2.195c.878.439,1.756.658,2.634,1.1l.219-.219c.658-1.975,2.195.219-.439-2.195a7.886,7.886,0,0,0-2.195-1.536c-.658.219-1.975-.439-1.975-1.1h0c-.439-.219-.658-.658-1.1-.878-3.511-3.731-3.073-8.34.878-9.657.219,0,.439.219.219.219-3.511,1.756-1.756,5.926,1.756,9.218h.658c2.853.439,4.389-1.975,5.267-3.292.219-.439,1.1,0,1.1.439-.658,1.536-1.317,3.073-2.853,3.95a4.189,4.189,0,0,1-1.756.658h-.219a40.248,40.248,0,0,0,5.267,2.853,1.8,1.8,0,0,1,.878,1.317c-.878,3.95-6.584,4.828-7.243,9,1.536-.439,3.073-.658,5.267-1.317,3.95-.878,7.242-.439,8.34-3.731.658-2.414.878-5.267,1.756-7.681.219-.658,1.975.22,1.756.878-.658,2.853.658,7.023-.219,9.876a13.5,13.5,0,0,0,2.853-.219,4.094,4.094,0,0,0,2.195-1.1,1.992,1.992,0,0,1,1.536-.658c.659,0,1.1.658.659.878-1.317.22-1.1,1.317-1.975,1.756-.658.219-1.536.439-2.414.658a8.313,8.313,0,0,1-3.292,0,5.106,5.106,0,0,1-2.853,1.536,59.338,59.338,0,0,1-9,1.756c-1.756.219-3.073,0-4.17.219a4.342,4.342,0,0,1-.439,2.195c-.878,1.756-2.195,2.634-3.95,3.731a20.833,20.833,0,0,0-5.926,4.389,11.807,11.807,0,0,1,5.706-1.975c2.853-.219,6.145,1.975,9,1.975,2.414,0,5.926-2.853,7.243-3.95.439-.219,1.317.219.878.658-1.317,1.317-1.756,2.853-2.853,3.95a2.192,2.192,0,0,1-.878,1.1c-1.756.878-4.828.439-7.462,0a2.783,2.783,0,0,1-1.317-.219,32.457,32.457,0,0,0-2.634,10.315c-.219,2.195-1.317,1.975-3.731,3.073a11.68,11.68,0,0,0-5.487,4.609,39.019,39.019,0,0,1,10.315-1.756h0c-.219-.658-.878-1.536-1.1-2.195a3.124,3.124,0,0,1,1.1-3.512,1.8,1.8,0,0,1,1.536,0c.219,0,.219,0,.439.219,1.317.658,1.317,1.756.219,1.756a2.906,2.906,0,0,0-.658,2.414,4.289,4.289,0,0,1,.219,1.536h.878a51.534,51.534,0,0,0,5.706.219,9.665,9.665,0,0,1-.439-3.512h-.219a7.9,7.9,0,0,1-5.048-4.828c-.659-1.317,0-3.731,2.634-1.975.658.439.658,1.1.219,1.1-1.317.439,1.1,3.512,2.414,4.17h.219c.219-1.317,1.317-1.975,2.634-3.073.439-.439,1.536.439,1.1.658-.878,1.1-1.756,1.975-1.536,3.512.219,1.1,0,2.414.878,3.512a22.065,22.065,0,0,0,5.487-.878c0-.439.219-.658.439-1.1.439-.878.219-1.975.658-3.073,0-.219.219-.219.439-.219-.439-1.975.878-3.512,1.756-4.828.219-.439,1.536,0,1.317.658-.658,1.536-2.195,3.731,0,5.926.219.219.439.439.658.439a46.458,46.458,0,0,1,4.609-2.414,6.131,6.131,0,0,1-1.1-3.731c0-.878.219-2.195,1.317-2.414a2.94,2.94,0,0,1,3.073,1.1c.219.219,0,.439-.219.439-.878,0-1.1-.219-1.317.439a1.876,1.876,0,0,0,0,1.536,6.408,6.408,0,0,0,.439,1.975c1.1-.219,2.195-.439,3.511-.658.878-.219,1.975-.439,2.853-.658a6.064,6.064,0,0,1-2.853-4.828c0-1.536,3.511-.439,3.511,1.1a3.1,3.1,0,0,0,1.975,2.853c4.17-1.756,7.243-5.048,3.95-9.218-1.536-2.195-3.731-2.853-4.17-5.267-.439-1.975,1.317-3.95,3.731-5.267a3.12,3.12,0,0,1-.219-3.073c.219-.439,1.536,0,1.317.658a1.719,1.719,0,0,0,.219,1.756,12.508,12.508,0,0,1,7.462-.658c1.1.219,1.317,1.317.439,1.317a31.749,31.749,0,0,0-5.706,1.536h0v.219c0,.219-.219.439-.658.439-.219,0-.219,0-.439-.219a.215.215,0,0,0-.219.219c-2.195,1.536-3.073,2.414-3.073,3.292,1.536,0,3.073.878,4.828,1.317a5.571,5.571,0,0,0,4.828-1.1.42.42,0,0,1,.658.219c-.219,1.536-.878,2.414-2.853,2.853a11.588,11.588,0,0,1-5.267-.658,15.724,15.724,0,0,1,3.292,2.414,5.834,5.834,0,0,1,2.195,2.853c2.195.878,3.95,2.414,6.145,3.292,2.853,1.1,3.731.219,5.706,0h1.1a2.374,2.374,0,0,1-.439-2.853c.658-1.317,2.414-2.195,3.292-3.731.219-.439,1.317,0,1.1.439a20.608,20.608,0,0,1-1.975,2.634c-.219.219-1.975,3.073-.219,3.512.219,0,.219,0,.439.219a13.5,13.5,0,0,0,2.853.219c3.292,0,2.634-2.195,4.17-3.512.219-.219.878,0,1.317.219,1.975,1.975,1.536,4.17,0,5.048-1.756,1.1-4.389.658-7.023.439,2.634,1.1,5.048,1.756,6.365.439.219-.219,1.1.219.878.658-1.1,1.317-3.073,1.536-5.487,1.1a39.848,39.848,0,0,1-6.365-1.756,11.2,11.2,0,0,1-4.609-.219c-.219,0-.439-.219-.658-.219-.219,1.536,1.317,3.292,3.512,4.828.658,0,1.317.439,1.317.878a18.932,18.932,0,0,0,6.145,2.195c.878.219,1.975.878,1.975,1.536v.439c0,1.1-2.195.658-2.853-.219a22.389,22.389,0,0,1-4.828-1.975,6.786,6.786,0,0,0,4.17,3.292,4.65,4.65,0,0,1,1.536.658l.219.219c.439.658,0,1.1-.659,1.317-2.195.439-4.609-1.1-6.145-2.853,0,.219,0,.439-.439.439a27.537,27.537,0,0,1-5.706-1.536,19.3,19.3,0,0,1-2.195-1.317l-1.1-1.1c-3.073,1.317-5.926,2.853-9.876,3.292-3.292.219-6.584.658-10.1.878h-.439c.439.219.878.219,1.317.439,3.292,1.317,6.365,3.731,9.876,4.389,2.414.658,5.048,0,7.243-.439a2.222,2.222,0,0,1-.878-1.536c-.219-1.1.439-1.756,1.1-2.414.658-.878,3.073.658,2.853,1.536l-.658,1.317v.439h.439c2.634-.439,5.048-.658,7.023-1.756.878-.439,2.634.658,2.634,1.536.219,1.975-1.317,2.414-3.512,2.853a59.867,59.867,0,0,1-11.193,1.536l1.1,1.1c.439.219.658.658,1.1.878.658.439.658.219.219.439,1.317-.219,3.073,1.536,2.195,1.975-2.195,1.317-5.487-1.756-6.584-4.389a23.876,23.876,0,0,1-6.584-1.536,12.059,12.059,0,0,0-1.536,1.975,13.325,13.325,0,0,1-1.536,2.195,18.255,18.255,0,0,0,2.853.439c1.1.219,1.975,1.317,1.1,1.756-1.1.439-2.634,0-3.951-.439a7.8,7.8,0,0,0-2.195-.439,4.334,4.334,0,0,0-2.414,1.317,16.5,16.5,0,0,0-.658,4.17c4.17-.439,7.9-2.853,12.729-2.195,3.073.439,5.926,2.195,8.559,3.731,4.828,2.634,8.34,3.292,11.632,2.634a5.162,5.162,0,0,1-1.756-5.267,24,24,0,0,1-3.292-1.756,8.594,8.594,0,0,1-2.195-1.756,1.806,1.806,0,0,1-.439-1.975c.219-.658,1.975-.219,2.414.439-.219-.439.439.219.439.439.219.219.219.439.439.658a4.777,4.777,0,0,0,1.756,1.1,4.592,4.592,0,0,1,1.317.878,7.844,7.844,0,0,1,3.731-4.17c.439-.219,1.1.219,1.317.658,1.1,3.292-4.389,6.584-.878,10.1,1.317-.439,2.414-.878,3.731-1.317a19.256,19.256,0,0,1,8.34-1.1,3.735,3.735,0,0,1,.219-1.536,4.758,4.758,0,0,1,2.414-2.195,3.72,3.72,0,0,1,2.195,0c1.317.219,2.414,0,3.731.658.439.22.658.658.219.878a9.432,9.432,0,0,1-2.634.439,4.722,4.722,0,0,0-1.756,0,3.237,3.237,0,0,0-1.975,2.195,13.949,13.949,0,0,1,3.95,1.317c1.317.658,1.1,1.756-.219,1.317a14.912,14.912,0,0,0-4.17-.658h-.878a21.04,21.04,0,0,0-6.8,1.1,24.322,24.322,0,0,1,4.17,1.975,48.436,48.436,0,0,0,5.926,2.634,34.127,34.127,0,0,0,5.048,1.756c2.414.658,2.414,0,3.95-.658a2.213,2.213,0,0,1,1.975.658c1.975,2.634-1.317,3.073-4.39,2.634a8.861,8.861,0,0,0,2.853,2.853,2.057,2.057,0,0,0,2.195.219,2.019,2.019,0,0,1,2.195.219c.658.439.878.878.658,1.536-.658,1.536-3.731,1.317-5.926,0a11.542,11.542,0,0,1-3.073-2.414c-.658-.878-.878-1.975-1.536-2.853h-.219a36.989,36.989,0,0,1-6.145-2.634,20.653,20.653,0,0,1-4.828-2.634,37.491,37.491,0,0,0-3.073-2.414,1.176,1.176,0,0,1-.658-.878c-1.1.219-1.975.658-3.073.878a1.676,1.676,0,0,1-1.1.439c-2.853.658-6.145,1.317-9.876.219-.439-.219-.878-.219-1.317-.439,1.317,1.975,2.195,4.609,4.828,6.145a7.789,7.789,0,0,0,1.975.878,6.51,6.51,0,0,1,4.389-2.853c.659-.219,1.756.878.878,1.1a2.4,2.4,0,0,0-2.195,1.756,1.663,1.663,0,0,1-.439.878l3.292.658c1.975.439,2.853,2.414.878,2.195a19.371,19.371,0,0,1-5.706-1.317h-.219c-.219,0-.439-.219-.658-.439h0c-1.1-.439-2.195-1.1-3.292-1.536-3.731-2.414-3.95-5.267-4.828-7.9v-.219c-4.609-1.975-7.681-5.487-13.168-4.828a12.843,12.843,0,0,0-2.853.439,5.181,5.181,0,0,0,1.317,1.975h.219c2.195-.439,4.828-1.756,7.9-.219,1.317.658,1.1,1.975-.439,1.536a16.188,16.188,0,0,0-5.706.219h.219c1.975,1.1,4.39,1.536,5.487,3.292a.421.421,0,0,1-.219.658c-2.414.219-6.8-1.756-8.779-3.512a7.909,7.909,0,0,1-2.195-3.292,39.563,39.563,0,0,1-4.17,1.1c-4.17,1.1-7.9-.439-12.29-2.414.658,2.195,4.609,5.048,7.462,6.8,3.512,2.195,6.145,1.317,9.437,1.536.439,0,1.1.439,1.1.878,0,2.195-4.609,1.756-8.12.658h0v.219c0,.219-.219.219-.439.219-.219.878,1.317,2.634,2.195,3.292a3.851,3.851,0,0,0,1.1.878l.219.22a3.1,3.1,0,0,1,1.975.219,1.255,1.255,0,0,1,.219,2.195c-1.536.878-4.17-1.1-5.267-2.414a11.155,11.155,0,0,1-1.975-2.853,2.436,2.436,0,0,1-.219-2.414V423.8c-.439-.219-.658-.439-1.1-.439a27.159,27.159,0,0,1-3.95-3.073,1.852,1.852,0,0,1-1.536.439c-2.195.878-4.609,1.756-7.9.878-2.634-.878-5.267-2.195-7.9-3.073-.878-.219-1.975-.658-2.853-.878a13.782,13.782,0,0,0,2.195,7.243c6.584,9.218,22.167,14.485,27.873,24.8,17.558-5.487,17.119-15.363,37.749,3.073,2.853,2.634,5.267,7.682,8.34,10.754,5.487,5.267,9.218,1.975,14.266,10.315,2.414,3.731-3.292,7.023-.658,12.071,1.536,2.634,4.389,4.828,7.242,7.023v-.878c.219-1.536,1.975-2.195,3.512-3.073a9.5,9.5,0,0,1,2.634-1.1c1.317-.219,2.634-.219,3.292-.878.439-.439,1.975.439,1.536,1.1a4.818,4.818,0,0,1-2.634,1.1c-.658.219-1.1.439-1.756.658.439.658,1.1.878,2.195,1.317a18.676,18.676,0,0,1,3.731,1.317h.219c.219,0,.439.219.658.439s.219.219.219.439c.439,0,1.1-.22,1.536-.22a41.2,41.2,0,0,0,6.145-.878,10.676,10.676,0,0,1-2.414-3.073c-2.195-3.292-6.8-3.512-9.437-6.145a15.233,15.233,0,0,1-6.8-2.634c-1.536-1.317-2.853-2.853-2.414-4.17.219-.439,1.317,0,1.317.658-.219,1.1,1.756,2.414,3.073,3.073a18.278,18.278,0,0,0,3.292.878c-.219-.439-.439-1.1-.658-1.536h-.219c-1.317-.439-1.317-1.317-.878-1.756a4,4,0,0,1-1.1-2.414c-.219-1.975,1.317-3.95,4.17-3.731.439,0,1.1.439,1.1.878,0,.878-.658,1.317-.878,1.975a3.282,3.282,0,0,0,.219,2.853c1.536-.439,2.634-1.975,3.292-3.073.219-.439,1.536,0,1.317.658-.439,1.317-1.317,3.731-3.511,4.609a9.887,9.887,0,0,0,4.828,4.609c.219.219.439.219.658.439a2.387,2.387,0,0,1,1.1.219c1.975.878,2.195.439,3.292-.219,1.317-.878,1.756-2.195,2.414-3.512.219-.439,1.536.219,1.317.658-.878,1.756-1.536,3.512-3.073,4.828a1.663,1.663,0,0,1-.878.439c.439.219.658.658,1.1,1.1,1.1,1.317,1.1,2.634,2.414,3.95a9.551,9.551,0,0,0,1.536-1.317c.878-.878.878-2.195,1.756-3.073a5.751,5.751,0,0,1,1.317-2.853l1.975-2.634a11.9,11.9,0,0,1-3.073-4.828,5.518,5.518,0,0,1,.439-3.292c-.219-.219-.658-.658-.658-.878-1.536-1.975-1.536-4.17-.439-5.487.219-.22,1.1,0,1.1.439a5.559,5.559,0,0,0,1.1,4.609,6.682,6.682,0,0,1,1.756-1.756,1.034,1.034,0,0,1-.219-1.317l-.439-.439a7.94,7.94,0,0,1-2.195-3.95c-.439-2.634,2.853-4.17,5.926-4.389.878,0,1.975,1.1,1.1,1.317-2.195.439-5.048,1.756-3.731,4.17a6.347,6.347,0,0,0,2.414,2.414,14.088,14.088,0,0,0,2.853-2.195c.439-.439,1.536.219,1.536.658a7.039,7.039,0,0,1-.878,3.95c.439.22.658.22,1.1.439,3.073,1.317,4.17,0,5.048-1.317.219-.439,1.317,0,1.317.658-.659,1.536-1.1,2.853-3.512,2.853a13.507,13.507,0,0,1-3.95-.658,3.708,3.708,0,0,1-1.1-.439c0,.22-.219.22-.219.439a9.205,9.205,0,0,0-1.975,3.073l.658.658c0,.219,0,.219-.219.439h-.878a5.349,5.349,0,0,0,0,2.634,17.926,17.926,0,0,1,6.145-2.414c.878-.219,2.195,1.1,1.317,1.317a17.217,17.217,0,0,0-6.365,3.292c.219.219.439.658.658.878.439.439.878.658,1.1,1.1.219.219.658.439.878.658l.219.22a37.22,37.22,0,0,1,3.073-2.195,18.163,18.163,0,0,1,3.292-2.414,10.843,10.843,0,0,1,3.95-1.756c1.317-.219,2.853,0,4.389-.219.439,0,1.1.439.878.658-.658,2.195-3.95,1.1-6.365,1.756a20.757,20.757,0,0,0-4.39,2.414c-1.1.878-2.853,1.536-3.731,2.853l.658.658a8.352,8.352,0,0,0,2.853,1.975,22.151,22.151,0,0,1,3.511-2.853,3.464,3.464,0,0,1,1.756-1.1,2.19,2.19,0,0,0,1.1-.878.6.6,0,0,1,.878.439,1.32,1.32,0,0,1-.219.878c.219.22.219.439-.219.658a8.589,8.589,0,0,1-1.756,2.195,3.99,3.99,0,0,0,2.195,3.512l1.317.658c2.634,1.317,3.95,3.731,7.681,3.292.219,0,.439-.219.658-.219-.658-2.853,2.195-5.487,3.95-7.023.439-.219,1.317.22.878.658s-2.853,3.512-3.073,5.706a13.115,13.115,0,0,1,2.414-1.317c1.317-.658,1.756-.439,3.073-1.1,1.975-.658,8.559-3.292,5.487-5.048-1.1-.658-.219-1.536.878-1.1.219.219.439.219.658.439a1.714,1.714,0,0,1,.878.878c.219,4.389,1.536,6.145-3.511,7.023-1.1.219-1.975.658-2.853.878a14.046,14.046,0,0,0,3.731,1.1,5.618,5.618,0,0,0,3.511-.658c.878-.658,1.756-1.756,3.95-.878.439.219.878.658.658.878-.658,1.536-2.414,2.634-4.828,2.634a16.165,16.165,0,0,1-8.12-2.634,28.555,28.555,0,0,1-3.731,1.756,1.259,1.259,0,0,1-1.536.439,12.232,12.232,0,0,1-10.974-1.756c-1.536-.878-1.536-1.536-3.511-2.634a30.592,30.592,0,0,0-2.853-1.317,5.686,5.686,0,0,1-2.195,2.414c-1.756.878-4.17.658-6.8-.219-1.756-.658-3.292-1.536-5.048-2.195h-.219a3.026,3.026,0,0,1-.658.878c-.439.439-.878.658-1.317,1.1-.439.878-1.317,3.512-.439,4.828.219.22.219.439.439.658a12,12,0,0,0,6.145-3.512c.439-.439,1.975.439,1.536.878a12.911,12.911,0,0,1-5.048,4.609,28.4,28.4,0,0,0,5.706,1.756,13.5,13.5,0,0,0,2.853.219,1.657,1.657,0,0,1,.219-1.756c.878-1.1,2.634-1.536,3.95-1.975.439-.219,1.317.439.878.878-.878.439-2.414,1.536-2.195,2.853a1.32,1.32,0,0,0,.878-.219c1.536-.219,3.292,0,4.609-.658a2.227,2.227,0,0,1,2.195.658l.439.439c.439.439.439.878,0,.878-.878.219-1.1.878-2.414,1.1s-2.414.439-3.731.658c-.219.439-1.1.658-1.975.22a27.976,27.976,0,0,1-4.17-.22c.878,1.1,2.853,2.195,3.511,2.853.658.439,1.756,1.317,2.414,1.317s1.317-.658,1.975-.658a1.564,1.564,0,0,1,1.317.658c.658,1.317,0,2.414-1.756,2.414a7.9,7.9,0,0,1-4.828-1.975c-1.536-1.1-4.17-3.292-4.828-5.048a20.769,20.769,0,0,1-3.95-1.1,13.593,13.593,0,0,1-4.389-2.195c-1.317.219-2.853.439-4.17.658.878.219,1.756.658,2.634.878,1.756.439,2.414.439,3.073-.22.439-.219.878,0,1.317.439,1.536,1.975-.878,2.634-3.073,1.975-1.975-.658-3.731-1.756-5.706-2.634a10.225,10.225,0,0,1-4.609.658,25.3,25.3,0,0,1-4.389-1.1c7.023,9.218,6.365,15.582,11.412,25.239a16.935,16.935,0,0,1,3.292-.439,5.358,5.358,0,0,1-.878-3.731,5.562,5.562,0,0,1,2.195-3.95,4.929,4.929,0,0,1,3.073-1.317c.878,0,1.536.878.658,1.1-.658,0-1.1.878-1.536,1.317a3.6,3.6,0,0,0-1.536,2.414c-.219.878-.658,2.853.439,3.95.219.22.439.22.659.439h.439c3.292.22,6.145.658,8.56.658-1.1-2.853,0-5.487,1.317-7.682.219-.439,1.756,0,1.536.658a8.582,8.582,0,0,0-.439,5.267c.219.658.439,1.1.659,1.756a4.07,4.07,0,0,0,1.536-.439,2.493,2.493,0,0,1,1.1-3.292,7.323,7.323,0,0,1,2.634-1.1c.878-2.414,1.975-2.853,5.706-2.853h.219l-.439-.439c.439-1.756,1.1-3.731,3.073-4.609,1.536-.878,5.926-.878,7.462,1.536.439.658,0,.878-.658.878-1.1,0-2.195-.878-3.292-.878a5.2,5.2,0,0,0-2.195.658,11.51,11.51,0,0,0-2.195,2.414c2.634-.878,4.829-2.414,8.34-.878.878.219.878,1.1.439,1.317-1.536.658-2.195,1.756-3.95,2.195-1.536.439-4.609,0-5.926.658a4.416,4.416,0,0,0-2.414,1.975c1.756.658,3.292,1.317,5.048,1.975a36.6,36.6,0,0,0,3.95,1.1,3.118,3.118,0,0,1,1.317.439,2.4,2.4,0,0,0,1.756,0,8.225,8.225,0,0,1,2.414-.22,1.2,1.2,0,0,1,1.1.878c-.439,1.756-2.195,2.634-5.267,1.536-.659-.219-1.1-.219-1.756-.439a14.79,14.79,0,0,0,4.17,2.195c1.975.658,3.511,2.414,1.317,2.634-1.975.22-5.048-1.536-6.365-2.853-1.1-1.1-1.317-1.975-1.1-2.634-.219,0-.439-.22-.658-.22a54.565,54.565,0,0,1-6.145-3.292c-.658,1.536-1.317,3.073-2.853,3.95a10.546,10.546,0,0,1,5.487,3.073,15.16,15.16,0,0,0,1.756-.658c.658-.439,1.1-1.1,1.975-1.317.439,0,.878.219.878.439.658,1.536-2.195,2.195-3.731,2.634.878,1.317,1.756,2.634,2.634,3.731a.766.766,0,0,1,.219.439,3.4,3.4,0,0,0,1.756-.439c.878-.219,1.1-.878,2.195-.878a1.677,1.677,0,0,1,1.1.439c1.1,1.536-.219,2.414-1.975,2.634h-1.536l.439.439a7.7,7.7,0,0,0,3.073,1.317c1.1.439,1.536,1.1,1.1,1.756-1.756,1.975-6.145-.878-7.9-2.853-.219-.439-.658-.878-1.1-1.536h-.219c-.439-.219-.439-.439-.439-.658-.219-.22-.219-.439-.439-.658,0,1.1-1.317,1.975-2.195,2.414a9.049,9.049,0,0,1-4.39.439,7.916,7.916,0,0,0,3.292,3.292,8.261,8.261,0,0,0,5.048.439c1.1-.22,2.195.878,1.975,1.536-.878,3.292-9,.219-11.632-2.634a13.587,13.587,0,0,1-2.414-3.731,29.839,29.839,0,0,1-5.926-3.073,10.4,10.4,0,0,1-2.195-2.195h0a1.676,1.676,0,0,1-1.1.439c-2.414.658-5.926.219-9.437,0-2.414,3.292-10.974,3.731-11.193,8.779-.439,5.926,7.682,9.657,5.048,15.363-2.414,5.267-16.68-2.634-8.12,9.218,4.17,5.706,12.29,7.023,20.85,10.754a10.7,10.7,0,0,0,1.536.658c.219-.658.439-1.1.658-1.756v-.878a115.038,115.038,0,0,1-.439-12.29c0-3.731-2.195-11.851,3.731-12.29a2.492,2.492,0,0,1,1.756.658c5.048,4.609-.219,9.218-.439,12.949-.219,2.853,1.1,5.706.439,8.34a15.147,15.147,0,0,1-1.975,4.389v2.195c2.414-3.512,4.828-7.242,7.243-10.974,2.634-3.95,5.926-4.828,10.754-7.242.878-.439,2.634.658,2.414,1.317-.219,1.317-.878,1.975-2.414,2.634-2.634,1.317-4.609,2.195-6.365,4.17-2.634,2.853-4.609,6.145-7.242,9a21.4,21.4,0,0,1,5.706-3.292c3.292-1.536,7.681-2.195,10.974-3.731a10.69,10.69,0,0,1,5.487-1.317c1.1,0,1.975.878,1.536,1.536-2.414,3.073-8.12,3.95-12.729,5.048a34.324,34.324,0,0,0-10.974,5.487c1.1.658,2.414,1.1,3.511,1.756a44.175,44.175,0,0,1,16.241-3.95c4.609-.219,9.876-.219,14.046-1.317,1.975-.439,3.292-1.317,6.145-.22.878.439,1.1,1.1.439,1.317a49.45,49.45,0,0,1-15.8,2.853c-6.145.219-12.729.878-18.216,2.634,1.317.658,2.414,1.317,3.731,1.975,3.073-.219,7.023,0,9.218,0,3.731,0,7.9,1.317,11.632,1.536,2.634.219,5.048-.439,7.682.219.658.22,1.536.878,1.536,1.317-.439,3.073-8.34,1.536-12.071.878-2.195-.439-4.389-1.1-6.584-1.317a29.3,29.3,0,0,0-4.389,0c-.658,0-1.756-.219-2.853-.219.219.219.439.219.439.439,3.292.658,6.365,1.1,9.876,1.756,6.365,1.317,11.632,2.414,17.558,2.195,1.317,0,2.414,1.536,1.1,1.536-6.8.439-13.827-.658-21.289-1.536-1.317-.219-2.414-.219-3.731-.439l.659,1.317a72.168,72.168,0,0,1,10.534,3.292c3.511,1.317,5.926,2.195,9.437,2.414,1.536,0,3.292-.22,4.828-.22,2.195.22,2.634,0,4.609,1.536,1.1.878,1.1,1.975-.439,1.756-2.853-.439-5.048.658-8.12.22a28.107,28.107,0,0,1-7.023-1.975c-4.609-1.536-8.779-3.292-13.388-4.609,0,1.536-.878,2.853-1.536,4.17a26.534,26.534,0,0,1,3.95,1.1c1.975.658,3.731.878,5.487,1.536a36.422,36.422,0,0,0,3.511,1.317c.658-.22,1.756.439,1.756.878v.439c0,.439-.439.658-.878.658a84.209,84.209,0,0,1-10.1-2.414l-4.609-1.317a6.627,6.627,0,0,0-.878,5.048c1.1,3.731,7.9,5.267,8.779,8.34.878,2.853-2.853,5.267-1.756,7.681,3.073,7.023,5.706,12.729,13.388,19.533,1.975-.219,6.145,2.634,12.071,7.462.219-.658.439-1.536.658-2.414a14.12,14.12,0,0,1,2.195-5.267c1.1-1.317,2.853-2.195,3.292-3.95.439-1.975-.219-4.389-.658-6.145-.658-2.414-1.536-4.828-1.975-7.242-.878-3.512-.658-6.365-.658-9.876-.219-3.073-1.317-5.706-1.536-8.779s.219-5.706-.878-8.779a54.266,54.266,0,0,1-2.414-10.315c-1.536-8.779,3.951-17.558,1.317-26.556a26.933,26.933,0,0,0-2.634-5.706c-.658-1.1-2.634-2.853-2.853-3.951-.439-1.536.658-5.048,1.1-6.8s.878-4.828,1.975-6.145a33.664,33.664,0,0,1,4.609-3.073c1.756-.878,2.195-1.317,3.073.878.658,1.536.439,5.706.439,7.462a12.426,12.426,0,0,1-.658,3.95c-.439,1.536-1.1,2.414-1.1,3.731-.219,1.536.439,2.414,1.317,3.731,1.975,3.292,5.706,6.584,6.365,10.315.439,1.975-.439,3.731-.658,5.487,0,.439.658,1.1.658,1.536-.219,1.1-.878,1.975-1.1,3.073-.878,3.95-1.536,6.584-1.317,10.535.219,4.17,0,7.682,1.1,11.632,1.317,4.389,1.1,9,1.756,13.168.878,5.267,1.536,11.193,2.853,16.68.878,3.073,2.195,5.706,2.634,9,.219,1.975-.658,5.926,1.1,7.243,3.511-1.317,5.926-4.17,8.779-6.8-1.756-1.756-7.462-10.1-3.95-10.754,3.95-.658,5.926,4.828,7.9,7.462,2.853-2.195,5.267-4.389,8.12-6.8,2.414-1.975,4.828-3.292,6.8-5.706.439-.439.658-.878,1.1-1.317-1.536-1.756-3.073-3.292-4.609-4.828-1.756-1.756-3.073-4.389-4.389-6.365-.658-1.1-1.317-1.975-1.975-3.073-.878-1.317-1.756-1.536-2.634-2.414a44.193,44.193,0,0,1-4.828-6.365c-.878-1.317-3.731-3.95-3.95-5.706-.658-3.512,1.536-.878,2.414-.439a35.789,35.789,0,0,1,6.365,5.048,31.762,31.762,0,0,0,3.731,3.95c1.975,1.756,2.634,4.828,4.609,6.365,2.414,1.975,3.292.219,4.609-1.975.878-1.317,2.414-3.292,3.073-4.609.658-1.756.219-1.756-1.1-3.512-3.073-4.17-5.048-9-7.9-13.388-2.195-3.512-4.828-6.8-7.242-10.315-1.975-2.853-4.17-5.487-5.926-8.34-1.975-3.073.219-3.292,2.634-1.975a48.325,48.325,0,0,1,7.023,4.609c2.414,1.975,2.853,5.926,4.828,8.34,4.609,6.365,9.437,12.729,13.607,19.313,1.975,3.292,2.414,8.12.219,11.413-.878,1.317-2.634,2.414-2.634,4.17a3.943,3.943,0,0,0,.878,1.975,16.976,16.976,0,0,0,4.389-11.193c0-4.828.219-8.559,1.756-12.949.878-3.073.219-6.365-1.1-9.437-1.1-2.634-2.414-5.048-2.195-7.9.219-1.975,1.975-4.828,4.609-3.95,2.634,1.1,2.634,5.487,2.853,7.681a33.277,33.277,0,0,0,.659,4.609c.658,1.536,1.975,2.634,2.634,4.17.658,1.756-.439,3.292-.439,5.048a21.2,21.2,0,0,1,0,3.731c-.658,3.511-3.073,7.023-3.95,10.315a36.558,36.558,0,0,0-1.317,9.657c-.219,3.512,0,6.584-2.414,9.437a.215.215,0,0,0,.219.22,77.545,77.545,0,0,1,3.292,10.1c1.1,4.389.658,9,1.536,13.607.219,1.756.658,3.073.219,5.048s-2.195,4.17.219,5.926c2.853,1.756,6.145-2.414,7.462-4.609,1.1-1.756,1.536-3.95,3.292-5.267,1.975-1.536,4.609-1.756,6.8-3.073,5.487-3.731,2.414-10.974,2.634-16.46,0-2.195.659-4.17.439-6.365-.439-3.731-2.195-7.682-3.512-11.193-1.536-4.17-2.195-6.584-.219-10.315,2.414-4.609,3.073-10.754.659-15.8-.659-1.536-1.536-2.634-1.975-4.389-.658-2.634-.878-5.267-1.975-7.9-.878-2.414-2.634-4.609.878-5.706,1.975,1.536,5.267,6.145,6.365,8.559,1.536,3.292.658,6.8.439,10.315a27.28,27.28,0,0,0,.219,5.926c.658,1.975,1.756,2.634,1.756,4.828.219,2.414-.439,5.267-.658,7.462-.219,3.292-.658,4.389.658,7.681,1.756,4.609,3.073,8.12,2.853,13.168-.219,4.828-.219,9.657-1.536,14.485a30.987,30.987,0,0,0-1.317,4.828c-.219,1.317.219,2.634,0,3.95-.439,2.853-2.853,3.951-4.17,6.365-2.195,4.389,0,6.145,4.389,6.145,2.414,0,4.389-1.1,6.8-1.536,2.634-.439,5.487.22,8.12.22a15.274,15.274,0,0,0,8.12-2.414c2.853-2.195,2.853-5.048,2.853-8.34a68.2,68.2,0,0,1,1.536-9.657c.658-3.073.658-6.8,2.414-9.437,1.317-2.195,3.95-3.95,5.706-5.706,2.414-2.414,3.95-5.706,6.365-7.9,1.756-1.756,3.731-2.414,4.828-5.048.878-2.195,1.1-4.17,2.414-6.145,1.536-2.414,3.292-4.828,4.828-7.242.878-1.317,1.756-2.853,3.511-3.292,5.048,4.389-1.1,10.315-4.389,14.046-3.073,3.292-6.584,5.706-9.218,9.218a89.939,89.939,0,0,0-6.584,11.852c-1.756,3.731-4.609,7.242-5.926,10.973a38.484,38.484,0,0,0-.878,7.243c-.219,2.195-.878,4.609-.878,6.8.219,3.292,1.975,2.853,5.267,4.389.439.22,1.1.439,1.317.878a14.425,14.425,0,0,1-.878-3.292c-.439-3.292-1.317-6.365-.439-9.657,1.317-4.828,3.731-4.389,6.365-.439.658,1.1,1.975,2.414,2.414,3.512.439,1.317-.219,2.853.439,4.389,1.536,3.292,3.731,3.731,3.073,7.462v.439a14.337,14.337,0,0,0,3.073,0,51.53,51.53,0,0,0,9.876-3.073c2.414-1.1,2.634-1.536,3.073-3.95.658-3.731,2.853-7.462,1.536-11.193-.658-1.756-5.048-9.437-1.536-10.974,3.073.658,5.487,6.145,7.243,8.559,1.975,3.073,2.853,5.926,2.195,9.437a23.68,23.68,0,0,1-2.414,7.9c-.878,1.317-4.17,3.073-5.267,3.731a18.052,18.052,0,0,1-8.12,2.853c-3.512.439-7.023,1.536-10.535,1.975-.878,5.487-1.756,11.412-4.17,16.241a37.381,37.381,0,0,1-3.292,4.828c-1.536,2.195-3.073,3.073-4.828,4.609-1.536,1.317-3.073,4.609-5.706,5.267,1.975-.219,4.17-.439,6.145-.658,2.195-.219,4.389,0,6.584,0a50.149,50.149,0,0,0,5.487-.439c2.634-.219,2.853-.439,5.267-1.975,1.975-1.317,4.17-1.1,6.365-1.975,2.634-1.1,4.828-3.073,7.243-4.609,1.1-.658,1.975-1.317,2.634-1.756-2.195-2.414-4.609-4.828-6.145-7.9-.878-1.536-1.317-2.414-.219-3.95,2.195-2.853,4.389-.878,6.145,1.1a88.751,88.751,0,0,1,6.145,8.779c2.414-.878,5.048-2.195,6.365-3.95,2.414-2.853,0-3.95.439-7.242.439-2.634,1.536-5.487,2.195-8.12.439-2.195,1.975-3.95,2.634-5.926s-.439-4.609-.878-6.584c-.439-2.195-2.853-8.34,1.536-7.682,1.1.219,4.17,3.073,4.609,4.389.439,1.975-1.536,5.048-1.317,7.462.219,5.926,3.073,11.193,2.414,17.338-.658,5.048-2.195,9.437-5.706,13.388-1.756,1.975-4.39,3.512-7.023,5.048a30.323,30.323,0,0,1,5.048,14.924c.219,3.731-1.1,5.926-3.95,8.12-3.073,2.414-5.487,6.145-9.437,6.584a36.872,36.872,0,0,1-10.974-.439c-2.414-.439-5.926.439-8.12-.878-1.756,3.073-5.706,6.584-6.8,10.1-.658,2.634,0,3.292-2.195,5.706-1.756,1.756-3.731,3.073-5.487,4.609,10.754,7.023,21.728,15.363,33.14,19.752,5.048-4.828-1.975-12.949,3.073-17.338,15.582,5.706,1.1,13.827,11.412,20.63s6.365-13.168,16.68-11.851c6.584,9.657-9.218,16.9,1.317,25.459,9-2.195,5.706-21.289,23.922-12.29,0,6.365-3.073,11.851-7.682,16.021,8.779,7.462,32.262-11.632,35.774.439,2.195,7.9-14.485,5.926-18.436,10.974,5.926.658,25.458-.878,28.531,8.12,2.853,8.559-10.315,0-14.266,1.1-18.655,4.389,7.242,8.12-2.195,17.558,1.975,2.853,5.267,5.048,9.657,6.365,5.267,1.756,8.34-.439,7.243-4.828,3.731.439,5.926.22,9.876,1.756,2.853-3.292.658-12.949,8.12-12.51,9.876.658,5.048,8.559,4.609,11.412,6.365-2.414,12.949-10.754,24.142-3.95-1.317,4.389-7.462,7.023-11.851,9.437-2.195,1.1-4.609.219-6.8,1.536-1.975,1.1-2.634,3.95-4.828,5.267,4.17,2.195,9.218,3.292,13.607,4.828.219,6.8-9.876,1.756-12.51,7.023,6.145,4.828,22.825,5.926,28.531,4.828,5.487-1.1,4.17-7.242,14.924-1.317-.439,1.975-7.682,9.218-10.754,10.1-5.267,1.536-30.726-6.365-20.85,5.267,1.317,1.536,10.974,6.145,13.168,7.462,3.731,2.414,2.195,4.17,7.023,6.145,3.073,1.317,6.584-1.975,9.657-1.317,13.827,2.195,14.924,10.1,22.386,18.216,10.535,11.851,12.071,11.851,6.365,20.63-7.462,11.851,8.779,6.8,21.947,15.8,3.951,2.634,6.145,6.145,8.34,9.437a65.52,65.52,0,0,0,18.874-.658c27.653-5.926,42.138-29.629,68.914-11.851,11.851,7.9,13.388,11.193,27.434,17.119,9.876,4.17,23.7,9.876,31.165,17.338,13.168,13.388,19.313,33.14,32.482,47.406,9,9.876,20.63,17.777,28.751,28.751l-546.262,379.9L694.966,657.98,630,628.571l23.264-50.039Zm645.244,220.349v.439c.439.22.878.22,1.317.439,4.39,1.536,6.145,1.536,7.682-.878a14.5,14.5,0,0,1-4.17-3.95c-.878.219-1.975.658-2.853.878a7.828,7.828,0,0,0-2.414,2.195C1093.525,492.5,1093.525,492.718,1093.745,492.938Zm12.729,44.553c.439,1.1,1.1,2.195,1.536,3.292a6.769,6.769,0,0,0,1.975.22c1.536-.22,2.853-1.1,4.609-1.536h.658c-2.195-3.073-4.828-6.365-7.9-5.048a.965.965,0,0,1-1.1-.219c.219.658-.219.878-.878,1.1A10.253,10.253,0,0,0,1106.474,537.49Zm-4.828.439a30.042,30.042,0,0,0,3.073,1.756c-.439-1.536-1.536-3.512-1.975-5.267a6.078,6.078,0,0,1-1.975-.219,3.937,3.937,0,0,0-1.536,1.1A13.157,13.157,0,0,0,1101.646,537.929Zm-14.046-2.414c2.634,0,5.267,0,6.8-1.1-.439-.219-.658-.439-1.1-.658-.219-.219-.439-.219-.439-.439a47.731,47.731,0,0,0-5.706.219A3.261,3.261,0,0,1,1087.6,535.515ZM1287.976,716.14c4.609,3.292,12.29,1.1,17.338.878a6.732,6.732,0,0,0,4.609-1.317c1.756-1.1,4.828-2.414,5.926-3.95,2.195-3.073.439-7.462-1.536-10.974a98.476,98.476,0,0,1-11.632,6.365,79.392,79.392,0,0,1-12.071,4.389C1287.976,712.189,1284.026,713.286,1287.976,716.14Zm-62.769-2.853c1.317-.439,1.975-.219,3.292-1.317a24.2,24.2,0,0,0,5.048-4.389c2.414-2.853,3.292-4.609,7.243-5.048a23.244,23.244,0,0,0,7.9-1.975c2.414-.878,4.828-1.317,7.243-2.195,3.073-1.1,6.365-2.195,9.218-3.073,2.634-.878,5.926-2.414,7.023-5.487,1.536-4.17,1.756-8.779,3.073-12.949.439-1.317,1.317-2.853,1.975-4.389-1.1-.219-2.414-.439-3.511-.658-1.536-.219-5.048-1.975-6.8-1.975-4.17.219-11.193,7.243-13.827,9.876-3.731,3.731-8.559,3.731-12.949,5.706-7.023,2.853-6.584,13.607-11.632,18.435-2.634,2.634-4.389,1.975-5.706,6.145a37.214,37.214,0,0,0-.878,4.828C1223.013,714.384,1224.11,713.725,1225.208,713.286Zm-17.558-60.574c1.756-2.195.219-3.731-.658-5.926-1.1-3.292-1.317-7.023-2.414-10.315a15.221,15.221,0,0,0-1.1-2.853c-2.634,1.756-5.267,3.292-7.462,4.828-2.414,1.756-4.828,3.292-7.243,5.048l.439.439a26.626,26.626,0,0,1,2.195,3.073c.878,1.317,1.975,1.536,3.073,2.634,1.756,1.536,2.195,3.95,2.853,5.926,1.1,3.073,2.195,5.926,3.073,9.218,1.1-.439,1.317-3.95,1.536-4.828a15.683,15.683,0,0,1,1.756-3.292C1204.8,654.907,1206.333,654.249,1207.65,652.713Zm-7.243,50.478c2.195-4.389,2.414-9.437,2.853-14.046a8.37,8.37,0,0,0-1.756-6.365c-1.536-2.195-3.292-3.292-5.048-5.267-1.317-1.536-3.073-3.731-3.292-5.706-.439-2.414.219-4.609-.439-7.023-.658-2.195-1.536-4.389-1.975-6.584a16.634,16.634,0,0,0-.658-3.512c-.439-.878-.878-3.073-1.317-3.731-.878-1.317-3.95-2.414-5.487-3.512-.439.439-1.1.658-1.536,1.1a38.808,38.808,0,0,0-4.828,3.512c-1.975,2.414-3.292,5.487-5.048,8.12a108.422,108.422,0,0,0-5.926,9.218C1176.485,679.049,1188.775,691.339,1200.407,703.191ZM1073.773,501.936c4.17,1.756,5.926,1.317,9,.439a27.97,27.97,0,0,1,4.389-.22,6.126,6.126,0,0,1-.219-4.389c-.219,0-.439.22-.658.22-4.17.878-8.559.658-12.51,1.975-.878.219-1.975.658-2.853.878A24.6,24.6,0,0,0,1073.773,501.936Zm-6.584-4.828.878.878a51.269,51.269,0,0,1,5.487-1.536,13.952,13.952,0,0,1-3.95-1.317,4.065,4.065,0,0,1-1.756-1.536C1066.75,494.255,1065.433,495.352,1067.189,497.108ZM969.963,404.93c-1.317.878-2.414,1.536-3.731,2.414.658,1.1,2.195,1.756,3.95,2.634A9.96,9.96,0,0,1,969.963,404.93Zm46.528-10.1a18.141,18.141,0,0,0,2.853,1.536,12.247,12.247,0,0,1,4.609,1.975,5.929,5.929,0,0,1-1.536-3.731c-.658-.439-1.1-.878-1.756-1.317a22.666,22.666,0,0,0-4.609,1.536Zm2.634-3.731a3.1,3.1,0,0,1-.219-3.073c-2.414-1.1-3.731-2.853-5.706-4.389a1.319,1.319,0,0,1-.219.878,1.663,1.663,0,0,1-.439.878c.439.219.878.658.659,1.1-.439.658-1.1,1.1-1.317,1.975-.219.658-.219,1.317-.439,1.756-.219.878-1.1,1.536-.878,2.414C1012.979,391.542,1015.613,390.445,1019.125,391.1Zm-18.655,3.073a5.583,5.583,0,0,0,.439,1.536,39.123,39.123,0,0,0,5.706-.878,8.317,8.317,0,0,0,2.853-1.317,3.035,3.035,0,0,1-.658-2.634c.219-.439.219-1.1.439-1.536a6.669,6.669,0,0,1-1.536,1.1.7.7,0,0,1-.658.658,14.412,14.412,0,0,1-6.145,2.195h-.219A.543.543,0,0,0,1000.469,394.176Zm-4.389,1.975c.658-.22,1.536-.22,2.414-.439a4.182,4.182,0,0,1-1.1-2.195,9.506,9.506,0,0,0-1.1.219.806.806,0,0,1-.658.219,14.7,14.7,0,0,0-3.95,1.536,23.119,23.119,0,0,0-2.414,1.536.215.215,0,0,1-.219.219A52.714,52.714,0,0,0,996.08,396.151Zm-4.828,20.411c-.878-1.536-.439-3.073-.219-4.609a.806.806,0,0,1,.219-.658c-.658,0-1.756-.658-1.536-1.1.219-.658-.659-1.536-.878-2.414a3.045,3.045,0,0,1,0-1.975c.439-1.1,1.756-1.756,3.731-1.1,1.1.219,1.756,1.756.658,1.756-2.634,0-1.1,2.195-1.1,3.731a4.793,4.793,0,0,1,1.1-.658c2.853-1.317,4.609-3.073,7.462-4.389-3.95-1.975-3.731-2.853-9.218-3.95a44.96,44.96,0,0,1-5.267-1.1,2.015,2.015,0,0,1-1.317-.878,23.715,23.715,0,0,1-4.609,1.1,19.307,19.307,0,0,0-3.292,1.1h0c.658.219,1.317.658.878,1.1-1.536,1.536-4.39,1.536-5.048,3.731a14.338,14.338,0,0,0,0,3.073v1.756l4.609,1.317v-1.536a3.3,3.3,0,0,1,.878-2.414,4.594,4.594,0,0,1,1.317-.878c.658-.219,1.536,0,1.536-.658.219-.439,1.536,0,1.536.658-.219,1.317-1.975,1.1-2.853,1.975-.658,1.1,0,2.414.439,3.512a6.407,6.407,0,0,0,1.975.439C984.887,414.587,988.4,416.123,991.252,416.562Zm-25.458,1.1c1.975.658,3.95,1.317,6.365,2.195,3.511,1.317,5.487,2.634,8.34,2.195a32.187,32.187,0,0,0-3.073-1.317,47.133,47.133,0,0,1-5.706-3.073c-2.414-1.536-4.17-3.292-6.584-4.609A11.2,11.2,0,0,1,965.793,417.659Zm-1.317-6.145a21.4,21.4,0,0,1,4.828,1.756c1.756.878,3.073,2.195,4.828,3.292,3.292,1.756,6.584,2.853,9.876,4.389l-1.536-1.536a2.662,2.662,0,0,1-.658-2.634,43.992,43.992,0,0,0-5.706-2.195c-3.731-1.1-9.657-2.634-11.852-5.487-.219.219-.658.439-.878.658A4.779,4.779,0,0,1,964.476,411.514Zm-8.12-19.972c1.756-.658,3.95-.878,4.609-2.414.439-1.1-.219-2.853,0-4.17.439-2.195,2.195-3.292,3.95-4.609a9.672,9.672,0,0,0-6.145,1.756c-1.756,1.317-2.634,2.414-4.389,3.512a25.674,25.674,0,0,1-.878,5.706l-1.317,3.95A7.7,7.7,0,0,1,956.356,391.542Z" transform="translate(1265.357 -73.968)" fill="url(#linear-gradient)"/>
    <path id="XMLID_177_" d="M553.433,723.369,552.775,470.1c10.754,10.754,23.922,21.728,38.627,25.239,8.779,2.195,16.68-1.1,25.678-1.1,9.657,0,15.143,6.365,24.142,7.243,8.12.658,13.388-4.39,22.167-1.1,9.657,3.512,18.216,11.193,27.873,15.582,3.731,1.756,9.218,3.731,12.071,6.8,3.95,3.951,1.756,4.828,4.17,9.218,4.828,8.779,18.874,22.605,11.632,36.871-2.195,4.609-11.413,6.365-14.7,10.1-3.292,3.95-3.512,9.437-4.828,14.7-.878,4.17-5.706,5.048-2.195,10.754,2.414,3.95,8.12,3.073,12.949,3.511a50.416,50.416,0,0,1,4.609,12.949c15.582,2.634,14.266-9.437,17.119-18.874,5.706-.219,11.193-1.756,16.9-2.195,6.8-.439,11.851,1.536,18.655,1.975-2.414-9-10.754-9.437-16.241-15.363,3.292-8.34,10.535-4.17,16.68-6.584,8.779-3.511,10.1-9.876,20.85-7.9,4.39.878,18.216,5.706,21.508,9.876,3.731,4.609,2.414,9,4.17,14.046-7.681,2.853-19.972,6.365-28.531,7.023,10.315,3.073,22.167,3.511,30.945,10.315,6.584,4.828,5.487,10.535,9.437,16.021,2.853,4.17,10.754,4.828,13.388,9.218,1.756,2.853,2.195,11.632,2.853,15.363,2.853,12.729,7.023,15.8,14.485,26.117-1.756-6.145-6.8-13.607-1.756-19.094,3.073,5.706,4.389,13.168,9.876,16.9-.219-9.218-2.195-14.924,3.95-23.044.658,2.414,2.634,5.926,3.073,8.559,2.853-15.144,12.729-21.728,12.29-38.188,10.754,8.779,7.243,23.483,4.389,34.237,5.267-5.487,7.242-16.9,10.973-24.361a30.08,30.08,0,0,1,2.195,13.827c6.8-10.1,2.634-21.728,4.828-31.6,2.414,4.17,5.267,7.9,7.462,11.413a2.2,2.2,0,0,1,2.195-1.317c.878,3.511,4.609,7.9,6.365,10.974,2.634,4.609,6.8,8.12,10.315,12.29a109.581,109.581,0,0,0,8.559,9h1.756a16.55,16.55,0,0,0,2.195-3.731c3.292-6.8.439-16.021,7.9-20.411.219,4.389,1.756,15.143,1.975,25.678,2.634.439,5.048.658,7.682.878a20.422,20.422,0,0,0,2.634-5.926c3.731-12.729-2.414-22.386-4.609-34.9-1.536-9-5.267-16.241-7.243-25.459-1.317-5.706-5.706-17.119-1.1-21.947,2.853,2.414,1.756,10.315,2.634,14.266s1.1,8.559,2.853,12.29c2.195,4.609,4.17,6.365,5.267,11.413,1.1,5.706,3.073,10.974,4.609,16.46,1.317,5.487,3.511,13.168,3.292,18.874-.219,5.267-3.731,10.1-5.048,15.143,4.389.439,8.779.878,12.949,1.536,2.195-3.511,5.048-6.584,9.218-7.682,4.609-18.655-8.779-33.579-6.8-52.454,7.243,3.951,3.292,13.827,6.365,20.191,2.853,5.706,5.048,8.12,5.487,14.924.439,8.779-.658,16.9-1.1,25.239a16.619,16.619,0,0,0,.219,3.292,3.121,3.121,0,0,0,1.317.439,34.779,34.779,0,0,0,12.51,3.073c2.853-11.851,1.756-25.239.439-36.652-1.317-10.974-3.292-22.386-3.731-33.36-.219-8.34-1.756-18.655-.219-26.995,8.12-4.389,5.267,9.876,5.487,14.046.439,6.584-.439,14.7,2.634,20.85,5.487-4.828,10.535-12.29,11.412-19.533.878-7.682-1.756-15.363,1.975-22.606,5.926.439,3.95,12.29,3.511,16.241-1.1,9.218-.878,13.168-7.023,20.191-2.853,3.292-7.243,6.584-7.9,11.193-1.1,7.462.878,18.216,1.536,25.9.878,10.1.219,20.63.439,30.945,7.023-.439,14.266-1.756,23.044-1.536-7.023-5.926-10.315-13.607-12.29-22.825-1.317-5.487-5.048-25.9,1.536-28.312,1.975,3.95.878,9,1.1,13.168.439,5.267,1.1,11.632,2.634,16.68,2.195,7.023,7.682,16.241,13.827,20.63,16.46-19.752-2.195-36.652-5.048-57.5-1.1-8.559,1.975-10.974,5.268-2.195,1.975,5.487,2.853,11.412,4.389,17.119a56.229,56.229,0,0,1,3.511,5.487c.439.658.658,1.1,1.1,1.756,5.267-8.559,8.559-16.68,12.291-26.336,2.634-6.584-2.634-21.069,3.073-25.459,8.779,5.926,3.511,21.289,1.1,29.19-1.756,5.267-2.414,11.632-4.389,16.68-1.536,3.95-4.828,6.8-6.365,10.754-.219.439-.219.878-.439,1.317,1.317,1.317,2.853,2.853,4.17,4.389,3.95,4.389,8.12,8.559,12.29,12.729,3.073-7.682.219-33.36,10.1-35.554,3.073,7.023-2.195,18-2.414,25.459a60.074,60.074,0,0,1-2.195,15.363c2.414,2.195,4.828,4.389,7.242,6.8,3.292-2.195,1.536-4.828,2.414-7.9.878-3.95,3.731-7.242,5.048-11.193,3.731-12.729-2.414-22.386-4.609-34.9-1.536-9-5.267-16.241-7.242-25.459-1.317-5.706-5.706-17.119-1.1-21.947,2.853,2.414,1.756,10.315,2.634,14.266s1.1,8.559,2.853,12.29c2.195,4.609,4.17,6.365,5.267,11.413,1.1,5.706,3.073,10.973,4.609,16.46,1.317,5.487,3.511,13.168,3.292,18.874-.439,6.145-5.048,11.632-5.487,17.558-.219,3.292,1.1,5.926,3.731,6.145.878-1.1,1.536-2.195,2.414-3.292,3.073-3.95,4.609-22.825,12.949-19.972,1.756.658,2.414,3.511,2.195,7.023a24.171,24.171,0,0,1-3.511,10.1c2.414-1.1,3.511-2.634,4.828-7.462,5.267-19.094-8.559-34.237-6.584-53.331,7.242,3.95,3.292,13.827,6.365,20.191,2.853,5.706,5.048,8.12,5.487,14.924.439,8.779-.658,16.9-1.1,25.239-.219,7.023,5.487,12.729,10.1,17.338,7.681-13.607,6.145-32.043,4.389-46.967-1.317-10.974-3.292-22.386-3.731-33.36-.22-8.34-1.756-18.655-.22-26.995,8.121-4.389,5.267,9.876,5.487,14.046.439,6.584-.439,14.7,2.634,20.85,5.487-4.828,10.534-12.29,11.412-19.533.878-7.682-1.756-15.363,1.975-22.606,5.926.439,3.95,12.29,3.511,16.241-1.1,9.218-.878,13.168-7.023,20.191-2.853,3.292-7.243,6.584-7.9,11.193-1.1,7.462.878,18.216,1.536,25.9,1.317,14.046-.439,28.751,1.1,42.8,5.706-1.1,7.242,7.681,8.559,14.485,7.681-2.195,18.436-18.216,19.313-24.142-10.754-6.365-15.144-15.144-17.777-26.556-1.317-5.487-5.048-25.9,1.536-28.312,1.975,3.95.878,9,1.1,13.168.439,5.267,1.1,11.632,2.634,16.68,2.195,7.023,7.682,16.241,13.827,20.63,16.46-19.752-2.195-36.652-5.048-57.5-1.1-8.559,1.975-10.974,5.267-2.195,3.073,8.34,3.731,18.216,7.682,26.336,6.145-9.437,9.657-18,13.607-28.531,2.634-6.584-2.634-21.069,3.073-25.459,8.779,5.926,3.511,21.289,1.1,29.19-1.756,5.267-2.414,11.632-4.389,16.68-1.536,3.951-4.828,6.8-6.365,10.754-2.853,7.023-1.975,15.363-5.048,22.825l-3.95,9.876c1.536,3.731,1.756,8.779,1.536,14.046,4.17-1.1,8.34-2.853,11.193-5.267a33.793,33.793,0,0,0,2.634-2.853,4.069,4.069,0,0,1-.439-1.536,77.833,77.833,0,0,1-1.536-10.315,37.073,37.073,0,0,1-1.536-10.535c-1.536-8.559-3.073-21.069,5.267-25.239,5.048,5.048-1.756,18.655,0,25.458,1.1,4.389,2.195,8.559,3.511,12.729,1.536-3.95,3.073-7.9,4.389-11.193,3.292-7.462.219-33.36,10.1-35.774,3.073,7.023-2.195,18-2.414,25.459-.219,8.559-2.634,22.605-8.12,29.409a2.644,2.644,0,0,1-1.1,1.1c0,.219.219.439.219.878,1.536,1.975,3.073,3.731,4.389,5.487,4.17-7.242,5.926-16.021,9.657-23.483,4.389-8.34,7.242-5.487,5.048,2.634a81.784,81.784,0,0,1-7.682,17.338,223.406,223.406,0,0,0,16.021-19.094c1.975-2.634,3.292-11.851,6.584-16.9-.22-2.414,0-5.048,0-8.34,0-3.95-.659-16.021,5.267-15.8,2.634,7.023-.219,13.827-.658,20.85a5.454,5.454,0,0,1,1.756.219c1.756.658,2.414,3.511,2.195,7.023a26.787,26.787,0,0,1-1.317,5.706,38.142,38.142,0,0,0,6.365,9.876c3.731-5.487,3.95-13.827,5.048-20.411.658-3.292,0-13.827,4.17-14.266a3.5,3.5,0,0,1,2.195-2.414c8.56-1.975,7.9,16.9,10.315,21.289a204.51,204.51,0,0,0,18.436,27.214c1.975-2.853,4.828-5.048,7.243-7.681-.439-.439-.658-1.1-1.1-1.536-4.609-7.462-5.487-21.728-4.609-30.068.658-7.462-3.073-19.094.658-25.678,9.656,3.511,3.511,28.751,5.926,36.652,1.1,4.17,2.195,9,3.731,13.827,3.073-6.584,3.511-14.924,7.681-20.63.439-1.975,1.1-3.731,2.414-4.389,3.073,4.17.439,11.412-1.756,16.9a41.193,41.193,0,0,1-2.634,6.584,76.669,76.669,0,0,1-3.292,7.462,23.5,23.5,0,0,0,3.292,4.828c4.17,4.389,12.51,7.682,18.216,9-3.073-8.34-4.828-18-7.243-26.556-2.195-7.682-.219-15.8-2.195-23.264-1.1-4.17-3.951-7.242-5.048-11.412-1.317-5.267-1.317-11.632-2.414-17.119-1.536-8.12-4.828-24.142,4.609-28.751,5.048,5.048-1.756,18.655,0,25.459,2.853,10.754,5.048,19.752,10.1,29.848,4.828-7.682,6.584-17.338,10.754-25.239,4.389-8.34,7.242-5.487,5.048,2.634-5.487,20.411-25.9,34.9-11.852,56.4,6.365-3.511,13.168-12.071,16.021-18.874,2.195-4.828,3.511-10.974,4.609-16.241.878-4.17.219-9.437,2.634-12.949,6.145,3.073,0,22.825-1.975,28.312-3.95,10.974-9.437,19.313-20.63,24.361.439,8.559,17.777,39.724,24.361,20.63,5.487-16.021,4.829-33.8,8.34-50.259,1.536-7.462,4.828-18,4.609-25.459-.219-4.609-4.17-8.34-6.584-12.071-5.267-7.9-4.609-11.632-4.609-20.85,0-3.95-.658-16.021,5.267-15.8,2.853,7.681-.658,14.924-.658,22.825,0,7.462,3.951,15.363,9,20.85,3.731-5.487,3.95-13.827,5.048-20.411.658-3.951-.219-18.436,7.242-13.168.439,8.34-2.195,18.436-3.292,26.775-1.756,10.974-5.048,21.947-7.462,32.7-3.511,14.7-7.242,32.7-1.1,47.186,5.048-4.17,11.632-9,12.071-16.021.658-8.34.439-16.68,1.975-25.239,1.1-6.8,3.731-9,7.243-14.266,3.95-5.926,1.1-16.241,8.779-19.313-.219,19.313-16.021,32.7-12.949,52.234,1.1,7.462,2.414,7.681,8.34,10.1,1.317.439,2.414,0,3.731.878,1.1.878,1.1,3.511,2.195,4.17,4.389,2.414,7.023-.658,7.243-4.828.219-5.926-3.731-11.852-3.511-18,.439-5.706,3.292-13.168,5.487-18.436s4.609-10.535,6.584-15.8c1.536-5.048,3.95-6.365,6.584-10.754,2.195-3.511,3.073-7.9,4.389-11.851,1.317-3.731,1.1-11.632,4.17-13.827,4.17,5.487-1.756,16.241-3.731,21.728-3.073,8.779-7.681,15.582-10.1,24.361-3.511,12.071-10.754,20.85-8.559,34.018.658,4.17,3.073,7.681,3.511,11.852.439,3.292-1.536,5.706,1.536,8.12,9.438-7.023,19.094-13.607,27.873-21.508,3.951-3.511,8.56-6.584,11.852-10.974,2.195-3.073,6.365-6.8,7.681-10.315,5.926.658-1.975,12.071-4.389,14.7-6.145,7.242-14.265,11.193-21.728,16.9-10.315,7.681-20.85,14.046-32.262,20.63-3.073,1.756-5.926,2.853-8.559,4.17-.219,1.756-.439,3.292-.658,4.389a57.219,57.219,0,0,1-3.731,16.021,106.477,106.477,0,0,0,8.779,6.145.68.68,0,0,0,.439-.219c4.828-2.634,12.071-7.242,15.582-11.413,2.634-2.853,3.512-8.779,7.9-8.779,4.389,10.535-9.876,18-19.313,22.605.878.219,1.536.658,2.414.878,6.584,2.195,13.168,4.609,19.533,6.8h.219c3.073-.439,4.609-.219,5.926.439h14.485a10.2,10.2,0,0,1,1.756-6.145c4.609-6.365,19.313-5.706,25.9-5.267,10.1.658,23.044,0,30.068,9.437a5.8,5.8,0,0,0-4.17,1.975h20.411v343.691H301.7V723.369Zm634.49-16.241c-.878.439-1.536.658-2.414,1.1.219,1.1.658,1.975.878,3.073C1187.045,709.762,1187.484,708.445,1187.923,707.128ZM918.852,643.043c-.219-.219-.439-.658-.658-.878a21.5,21.5,0,0,1-2.195,8.12c-3.95,8.12-13.607,15.144-9.218,24.142.439,0,1.1-.219,1.536-.219.878,0,1.536-.219,2.195-.219,5.267-9.437,12.949-11.851,18.216-19.752C925.216,650.724,921.7,647.432,918.852,643.043Zm12.29,12.949a48.116,48.116,0,0,1-1.756,10.315,32.152,32.152,0,0,1,2.853-1.975,24.078,24.078,0,0,1,5.048-2.853A73.068,73.068,0,0,0,931.142,655.992Zm54.648,7.682a10.475,10.475,0,0,0,1.756-3.511A7.6,7.6,0,0,0,985.79,663.673Zm77.473-12.51c-1.756-1.536-3.731-3.073-5.487-4.828-.878,5.267-1.1,10.535-3.292,15.582-1.317,3.073-2.634,6.365-3.731,9.657a141.161,141.161,0,0,1,16.68,3.731C1063.7,666.965,1061.288,657.089,1063.263,651.163Zm5.267,4.609-1.317-1.317c1.317,5.048,1.536,10.974,3.073,16.021,1.536-3.292,2.634-6.584,3.95-9.657C1072.262,659.284,1070.506,657.528,1068.531,655.772Zm11.852,10.535c-1.317,3.95-2.853,7.682-5.048,10.315-.219.439-.658.658-.878,1.1,3.512,1.317,7.023,2.634,10.535,4.17,2.195-2.195,4.17-4.609,6.365-6.8C1087.625,672.013,1083.894,669.16,1080.382,666.307Zm25.678,18.874c-2.414-1.536-5.048-3.073-7.9-5.267-.219,0-.219-.219-.439-.219,0,.219-.219.219-.219.439-1.317,1.756-2.853,3.511-4.389,5.267,4.389,1.975,8.779,4.17,12.949,6.145v-1.975A28.933,28.933,0,0,0,1106.06,685.181Zm9.876,8.559a11,11,0,0,0-1.536-1.756v3.292c1.317.658,2.853,1.317,4.389,1.975A40.122,40.122,0,0,1,1115.936,693.741Zm59.916-15.8c-.439.878-.878,1.975-1.317,2.853.439,0,1.1-.219,1.536-.219C1176.071,679.695,1175.852,678.817,1175.852,677.939Zm2.414,33.14c-1.975.658-3.731,1.317-5.487,1.756,1.1.219,1.975.439,3.073.658,1.317.219,2.414.658,3.731.878Zm22.386-30.068a19.212,19.212,0,0,0-2.195-4.828,81.885,81.885,0,0,1-10.534,6.584,34.8,34.8,0,0,0-5.926,4.609c-.219,4.17-.219,7.681.439,9.876a25.666,25.666,0,0,1,1.1,4.389c1.975-.658,4.17-1.756,6.365-2.634,1.1-3.511,2.195-6.584,4.389-9.218a12.435,12.435,0,0,1,1.317,5.926,54.344,54.344,0,0,0,5.706-4.17A24.5,24.5,0,0,0,1200.652,681.011Zm2.414,23.264a28.937,28.937,0,0,1-1.1-5.706c-2.414,1.756-5.048,3.511-7.462,5.048a58.031,58.031,0,0,1-5.706,12.51,157.957,157.957,0,0,0,17.558,1.536C1205.261,713.054,1204.383,708.445,1203.066,704.275Zm40.822-52.673a19.265,19.265,0,0,1-1.317,2.195c-4.17,7.242-9.876,13.168-15.143,19.533a148.321,148.321,0,0,1-20.191,20.63c-.878,5.926,0,12.071,4.389,19.094,6.365-3.511,13.168-12.071,16.021-18.874,2.195-4.828,3.512-10.974,4.609-16.241.878-4.17.22-9.437,2.634-12.949,6.145,3.073,0,22.825-1.975,28.312-3.95,10.974-9.218,19.094-20.191,24.142,9.218.219,18.655.658,28.092.658,1.317-10.1,1.975-20.411,3.95-30.068,1.537-7.462,4.828-18,4.609-25.458C1249.594,658.406,1246.3,654.894,1243.888,651.6Zm32.482,9c-4.389-7.023-9.437-13.607-12.51-21.289-.219-.439-.219-.658-.439-1.1-.658,4.17-1.536,8.34-2.195,12.29-1.756,10.974-5.048,21.947-7.462,32.7-2.634,10.754-5.267,23.264-4.17,34.9q7.243,0,14.485-.658a7.746,7.746,0,0,0,.658-3.073c.658-8.34.439-16.68,1.975-25.239,1.1-6.8,3.731-9,7.242-14.266,2.414-3.511,2.195-8.779,3.512-13.168C1276.808,661.7,1276.589,661.039,1276.369,660.6Zm4.17,6.584c-4.17,13.827-13.388,25.459-10.973,41.041.878,5.487,1.756,7.023,4.609,8.34,2.853-.439,5.926-1.1,8.779-1.756a31.154,31.154,0,0,0,7.242-2.853c-1.1-3.95-2.634-7.9-2.414-11.852.439-5.487,3.073-12.729,5.267-17.777A111.516,111.516,0,0,1,1280.539,667.185Zm13.168,5.706a20.087,20.087,0,0,0,1.536,3.073c.878-1.756,1.536-3.731,2.414-5.487A10,10,0,0,1,1293.708,672.891Zm2.853,13.388c-3.073,7.242-5.926,14.266-4.609,23.264,0,.439.219.658.219,1.1,4.17-2.634,7.462-5.706,12.729-8.559a35.134,35.134,0,0,1,8.12-2.634,54.847,54.847,0,0,1-5.267-3.511A65.358,65.358,0,0,1,1296.561,686.279Zm17.777-11.632a111.79,111.79,0,0,1-10.315-8.559c-1.317,3.073-2.634,6.145-3.731,9.437a34.121,34.121,0,0,1-1.756,5.048c6.584,7.242,16.9,13.827,23.922,15.8C1323.117,686.279,1322.458,680.792,1314.338,674.647Zm70.45,19.313a68.23,68.23,0,0,0-6.365,7.243,22.476,22.476,0,0,1,6.584,1.756,79.246,79.246,0,0,0,1.536-10.754A12.962,12.962,0,0,1,1384.788,693.96Z" transform="translate(1805.011 276.32)" fill="url(#linear-gradient-2)"/>
  </g>
</svg>
