<svg xmlns="http://www.w3.org/2000/svg" width="921.558" height="1113.375" viewBox="0 0 921.558 1113.375">
  <g id="XMLID_1_" transform="translate(0 0)">
    <path id="XMLID_166_" d="M587.2,544.141,914.431,152.606c4.609,3.073,9,12.729,5.487,17.338-1.756,2.414-3.511,2.414-5.706,3.731-3.292,1.975-4.39,6.8-3.512,10.315.878,2.853,1.975,3.073,4.389,3.292s3.511.878,5.487-.878c3.731-3.512,7.023-5.706,11.413-1.975,2.853,2.414,2.853,5.048,4.39,8.34,1.1,2.414,2.195,2.195,4.609.219,1.975-1.756,3.95-4.389,4.389-7.023s-.439-5.048.219-7.681c.659-2.195,1.975-3.95,2.634-6.145,1.1-5.048.878-9.876,2.195-14.924a18.242,18.242,0,0,1,6.365-10.1c2.634-2.195,5.267-4.609,6.584-8.12.878-1.975,2.195-8.12,4.389-9,.878,1.536,0,4.389.439,6.365.658,3.731,1.756,7.023,1.756,10.974.219,5.706-.658,8.12-4.389,12.29-2.195,2.634-4.609,4.17-3.731,7.681.439,1.975,1.536,3.512,1.756,5.487.439,3.292,1.317,9,4.828,10.535,2.414-2.195,2.414-6.584,4.828-9.218a15.785,15.785,0,0,1,9.218-4.828c1.536-.219,1.1.439,2.634-.878,1.756-1.317,2.853-3.292,4.828-4.17,3.073-1.317,6.584-.219,10.1-1.536-1.317,1.317-2.414,2.853-3.511,4.17-2.195,2.634-5.048,3.95-7.682,5.926-1.756,1.317-4.17,3.731-5.048,5.926-.658,2.195.439,4.828.439,7.023-.219,4.17-3.292,7.243-6.8,9.218-1.536.878-3.292,1.1-4.609,2.195a20.96,20.96,0,0,0-5.267,6.365c3.292,3.95,17.119-3.073,20.191-5.487-2.414,2.414-4.17,5.267-7.023,7.462-3.511,2.634-8.34,6.145-12.729,7.462-1.756.658-6.145,0-7.023,1.756s2.414,6.145,3.512,7.681c1.536,1.975,1.975,1.975,4.609,1.317,5.926-1.1,9,.658,12.51,5.267,3.073,3.95,4.389,2.634,9,2.634,1.536,0,4.389-.219,5.706.22-1.536,2.853-8.34,4.389-11.193,4.828-3.073.658-7.023,1.1-10.1.219s-5.267-3.073-8.779-2.853c-3.073.219-6.584,1.1-8.779-1.756,1.756,2.414,3.731,3.95,5.706,6.145,1.975,1.975,2.195,4.389,3.073,7.023.878,2.414,1.536,6.145,3.95,7.681a17.077,17.077,0,0,0,7.462.878,18.6,18.6,0,0,1,8.559,1.536c1.975.878,5.706,2.195,7.023,3.951,1.756,1.975,1.536,3.512,1.975,5.706.658,3.073,3.95,7.462,2.414,10.754-.439,1.317-1.975,2.414-2.853,3.512a41.592,41.592,0,0,0-4.828,7.243c-1.536,2.195-4.828,4.609-3.731,7.462.878,2.195,3.292,4.17,4.17,6.584.878,2.195,1.756,4.609,3.292,6.365.878,1.1,7.682,8.559,8.12,8.34,1.756-.439,1.1-3.731,1.1-4.609a34.808,34.808,0,0,1,4.609-15.582c1.536-.219,2.414,1.536,3.512,2.414a9.19,9.19,0,0,0,4.609,1.756c1.756.439,3.073.219,4.389,1.536s1.756,3.512,2.634,5.048c1.317,2.195,3.292,3.731,4.609,6.145,1.1,2.195,1.1,4.17,1.536,6.584a11.449,11.449,0,0,0,5.048,7.9c3.511,2.195,5.706,3.731,8.34,7.243,4.609,6.365,5.048,14.266,6.584,21.728a48.339,48.339,0,0,0,2.853,7.9c1.756,3.951,1.975,7.9,3.073,12.071,1.536,5.926,3.511,11.412,3.511,17.558-9.876-4.609-12.51-16.9-15.582-26.117-1.317-3.95-4.17-6.8-5.706-10.535-1.756-3.731-2.195-7.9-3.95-11.851-1.756,1.975-1.975,4.389-.878,7.243a95.227,95.227,0,0,0,1.975,11.412c.658,3.073,1.536,6.145,1.975,9,.219,1.536,9,17.338,3.512,17.338-3.073,0-5.926-7.462-6.8-9.218-1.975-3.95-4.609-7.243-6.145-11.412-1.536-3.95-1.975-8.12-5.048-11.193-1.756-1.756-5.048-8.12-7.243-8.12-2.853,5.706-9,7.681-6.145,15.363,1.536,3.95,3.073,7.023,3.951,11.193a101.076,101.076,0,0,0,5.926,17.338c1.317,3.073,2.634,5.926,3.951,9a17.253,17.253,0,0,1,1.756,5.706c-.878,2.414-2.853,2.634-5.267,1.317a34.252,34.252,0,0,1-5.926-11.193,90.764,90.764,0,0,0-6.365-12.071c-.659-1.317-4.609-10.1-7.023-9.876a63.607,63.607,0,0,0,.219,11.193c.439,4.389,1.756,7.462,3.511,11.632,2.195,5.487.439,9.876.878,15.582a131.378,131.378,0,0,1-8.34-10.974c-1.317-2.195-1.756-2.634-3.292-.219-3.512,5.267.878,12.51,2.414,17.558,1.756,5.487,3.073,11.413,6.584,16.021,2.853,3.512,5.926,3.95,10.1,3.512,3.95-.219,3.95.22,5.706,3.512,3.95,7.023,9,13.168,12.071,20.63,3.292,7.681,4.828,15.8,5.926,24.142.878,5.926,2.414,11.851,3.073,18,.878,7.023-1.536,11.193-6.8,15.8-5.706,4.828-11.193,9.437-12.51,17.338-1.317,7.242,1.975,13.827,3.731,20.63,1.317,5.487,1.536,11.413,1.756,17.119.219,7.243-2.414,12.949-4.17,19.972-1.317,5.926.219,11.632,1.756,17.338,1.536,5.048,3.073,10.315,7.243,13.607,4.389,3.512,9.437,5.487,14.046,9,4.389,3.292,10.754,5.048,13.607,10.1,3.95,6.584,5.487,14.7,8.779,21.728,2.634,5.267,5.706,10.535,7.462,16.241,1.536,5.048-.658,10.315-2.634,15.143a46.8,46.8,0,0,0,4.609,4.828,33.861,33.861,0,0,1,7.243,11.193c1.536,4.609-4.389,10.315,1.317,12.729,3.511,1.536,7.243-.439,10.974,1.536,5.267,2.853-2.414,7.682,1.536,10.974,3.292,2.634,6.365-3.731,10.535-1.1,0,2.634-1.317,7.9-3.073,9.876s-3.731,1.536-4.17,4.609c-.658,3.073-.658,2.414,1.975,3.731,1.1.658,4.17,1.756,5.487,1.317,1.756-.439,5.267-3.731,6.584-5.048a16.725,16.725,0,0,0,4.389-5.926c1.536-3.073,1.756-5.706,4.17-8.34a14.421,14.421,0,0,0,3.731-2.634c.658-1.317,1.1-2.414,1.756-3.731,1.756-2.414,4.389-2.414,6.8-3.951,2.195-1.536,2.195-4.828,3.95-6.145,2.414-1.975,7.682-.658,8.779,2.195,1.317,3.292-1.975,4.389-3.95,6.584-2.195,2.414-3.292,5.267-5.267,7.682-1.536,1.975-4.17,2.414-5.706,4.389-1.1,1.317-1.536,3.731-1.756,5.487,4.828,2.634,13.827-5.048,16.021-8.779,1.536-2.853,2.414-5.048,5.267-6.8,3.292-1.975,7.682-2.634,11.193-4.17,7.023-3.292,13.168-8.12,20.191-11.412,4.389-2.195,7.023-3.292,11.632-.878.219,14.485-19.533,19.533-29.19,26.556-5.048,3.731-10.1,6.365-14.7,10.534-2.195,1.975-4.609,3.731-6.8,5.487-.878.658-4.17,1.317-4.828,2.195-3.292,2.853.878,4.17,2.853,5.487,4.609,3.073,5.487,2.853,10.754-.878,4.389-3.073,10.754-11.852,16.68-9.657,2.414.878,3.511,1.975,3.292,4.828-.658,5.048-7.243,7.462-10.754,9.876-3.292,2.195-5.926,4.828-9.437,6.365-5.926,2.414-14.266,1.756-20.191,0-3.292-1.1-5.487-2.634-6.365,1.536-1.1,5.048,2.853,4.828,3.292,8.559.658,3.95-4.17,4.389-7.023,3.731-1.975-.439-3.512-1.756-5.706-1.536h-.219c.439,3.95-1.975,7.9-2.414,12.071a336.18,336.18,0,0,1,23.483,29.409,105.593,105.593,0,0,1,11.413,22.167c9.218-19.533,17.777-39.285,26.776-58.818,1.755-3.95,8.559-20.85,14.046-20.85,6.584,0,4.389,7.9,3.511,11.193-4.17,17.119-16.46,34.018-23.922,49.82-4.828,10.315-10.974,20.63-16.46,30.945,4.828-6.8,9.657-13.607,14.266-20.411,3.951-6.145,32.262-51.8,41.041-39.285-2.853,11.632-9.218,21.069-16.021,30.726-10.535,14.7-22.605,28.312-34.237,42.358,1.536,3.073,2.853,5.267,3.731,9a64.688,64.688,0,0,1,1.536,11.632c6.145-8.559,12.51-17.338,18.216-26.336,10.754-16.46,21.069-33.14,32.7-48.942,1.317-1.756,8.779-12.729,12.51-10.1,2.853,2.195-3.073,13.607-3.951,15.582-6.8,16.68-19.313,32.482-29.848,47.186-9.437,12.949-19.094,25.459-29.189,37.749v2.414c4.609-5.048,9.218-10.1,12.729-14.266,14.924-18,30.068-35.993,46.528-52.453,3.073-3.073,10.535-14.924,16.021-13.607,5.926,1.317,2.414,6.584.439,9.876-8.34,14.7-21.508,25.459-32.92,37.529-13.168,13.827-29.848,26.556-42.358,41.7.219,1.975.219,4.17.439,6.145l9-9c20.411-21.289,46.308-35.993,68.475-55.087,3.073-2.634,12.071-16.241,16.68-13.388,4.828,3.073-3.95,11.632-5.926,13.827-13.607,13.827-28.092,26.995-42.578,39.944-9.876,8.779-19.094,18.216-29.409,26.776-3.95,3.292-8.559,6.365-13.168,9.876v.22c13.388-8.779,26.776-17.558,39.724-26.995,12.071-8.559,24.142-16.9,36.871-24.361,3.731-1.975,23.7-19.094,23.044-7.9-.439,5.048-11.851,12.071-15.363,15.144-10.535,9.437-22.386,16.241-34.457,23.264a222.058,222.058,0,0,0-28.97,20.411c-4.17,3.511-9,7.9-13.827,11.851.219.439.658.658.878,1.1.658.658,1.317,1.1,1.975,1.756,3.95-2.195,7.681-3.95,9.437-5.048,23.264-12.51,44.553-28.97,67.817-41.7,3.292-1.756,11.851-7.023,14.924-3.292,3.951,4.609-2.853,9.218-5.706,11.632-9.876,8.779-21.508,16.68-32.043,25.02-8.34,6.584-17.777,12.51-26.995,18.216-.439.22-.658.439-1.1.658,2.414-.658,4.39-1.317,5.706-1.756,12.29-4.609,23.7-10.973,36.432-14.485,9.437-2.634,19.972-5.048,28.97-9.657,5.048-2.634,11.193-10.315,14.046-2.634,1.975,5.048-2.414,7.681-6.8,10.315-12.949,8.12-27.653,13.607-40.6,21.508a9.066,9.066,0,0,0-2.414,1.536,125.6,125.6,0,0,1,17.777-3.073c8.56-.658,16.9-3.073,25.678-3.292,3.511,0,9.437-.658,12.51,1.756,5.926,4.828,1.536,7.462-1.975,8.779-7.9,2.853-18.655,1.756-27.214,3.95-14.7,3.731-31.384,5.706-46.528,8.34-1.536.219-3.073.658-4.828.878,3.073,3.511,5.267,7.682,7.682,14.485,2.853,8.34,3.511,21.947,6.584,32.7a19.078,19.078,0,0,0,5.048,5.267c5.048,3.511,9.437,3.073,14.924,4.609,7.9,2.195,15.363,9.657,22.386,14.046a58.167,58.167,0,0,0-5.487-11.851c-3.292-4.609-3.292-8.779-.439-12.949,5.487-.658,6.8,1.1,11.193,3.511a10.142,10.142,0,0,0,8.34.658c2.414-.878,4.39-3.292,7.243-2.414,1.975.658,2.634,3.292,5.048,3.731.439-7.462-.439-14.924.658-22.386.439-3.292.658-5.706,4.39-5.706,11.193.439,2.414,19.533,3.073,24.581a137.392,137.392,0,0,0,4.609-13.388,27.489,27.489,0,0,1,6.145-11.412c.219,0,5.926.219,5.487,0,5.267,1.975.439,12.29-.878,14.924-2.195,4.609-7.681,10.754-7.681,16.021,3.95-3.731,6.8-4.828,11.851-5.267,5.926-.439,9.657-4.828,14.924-6.584,3.292-1.1,9.437-1.975,10.534,2.195,1.317,4.828-3.95,11.193-8.12,12.949a34.041,34.041,0,0,0-10.535,2.853c-1.317,1.1-2.414,2.195-3.731,3.292-1.756,1.756-5.048,3.511-5.487,5.926-.439,2.195,6.8,8.34,8.559,10.1,5.048,5.487,9.218,9,7.462,17.119a53.039,53.039,0,0,1-2.853,10.1,20.124,20.124,0,0,1-1.975,5.048c-.219,4.609,4.609,7.682,7.9,10.974.659-.878,1.1-1.756,1.756-2.634a8.36,8.36,0,0,0,2.195-4.389c.439-2.195-.658-3.731-.439-5.926,0-1.536.878-3.292,1.317-4.828.658-2.195.439-3.731.658-5.706a94.162,94.162,0,0,1,3.512-15.582c.439-1.317.658-3.731,1.975-4.17,1.1-.439,4.609,1.317,5.047,2.195,1.1,1.975.659,5.926.659,7.9-.219,3.073-.439,6.365-.878,9.657-.439,3.511-1.317,6.145-.658,9.876.439,2.853.439,3.292-1.1,5.706-1.755,2.414-3.731,5.487-3.95,8.34,0,1.1,0,3.511.658,4.17,1.975-1.756,3.073-4.828,4.609-7.023a32.513,32.513,0,0,1,5.267-5.706c4.828-5.048,3.951-13.827,8.121-19.533a15.09,15.09,0,0,1,7.462-5.926c7.462-2.853,7.9-9.218,11.632-15.143,3.073-4.828,8.56-6.8,10.315.219.439,2.195-.219,3.731-.439,5.706-.219,3.731,0,3.731-3.073,6.584-6.8,6.8-9.437,16.241-16.68,22.825-2.195,2.195-5.926,4.389-7.462,7.243-1.1,1.756-.658,4.828-2.853,5.926,6.365-2.195,12.51-6.145,18.655-9,2.414-1.1,6.365-4.17,9.437-3.511,3.731.658,1.756,3.073-.219,4.609a128.158,128.158,0,0,1-14.924,9c-3.292,1.756-13.827,5.706-11.193,10.754,1.756,3.511,6.365,1.756,9.218,1.756,2.414,0,5.267,1.317,7.681.878,2.195-.439,3.951-2.414,5.487-3.95a43.717,43.717,0,0,0,6.584-8.779c2.634-4.828,5.048-6.8,10.1-8.779,3.073-1.317,5.706-3.95,9.437-3.511,4.609.439,5.267,4.609,2.853,8.12-2.853,3.731-8.559,5.048-10.534,9.218-.878,1.975-1.975,5.926-.878,7.9,1.536,3.292,10.1,4.17,13.168,5.048,5.487,1.536,11.632,2.634,16.9,5.048-1.756,4.389-8.559,9-13.168,7.682-4.389-1.317-8.12-3.95-12.729-5.267-5.706-1.536-10.974-6.365-17.119-4.17-2.634.878-6.584,3.511-7.9,5.926a4.942,4.942,0,0,0-.219,4.609c10.535,3.731,20.85,7.023,30.287,6.584,13.827-.878,21.508-.658,35.554,3.073,12.949,3.292,25.678,3.292,38.846,3.951,5.706,22.386,10.754,44.333,14.7,66.061l-74.84-23.483c5.048,12.729,6.365,28.751,3.073,39.724-1.317.219-10.974.878-12.071,1.1H826.642V739.47Z" transform="translate(-587.2 -130)" fill="#1b2733"/>
  </g>
</svg>
