<svg xmlns="http://www.w3.org/2000/svg" xmlns:xlink="http://www.w3.org/1999/xlink" width="747.6" height="824.765" viewBox="0 0 747.6 824.765">
  <defs>
    <clipPath id="clip-path">
      <rect id="Прямоугольник_15" data-name="Прямоугольник 15" width="579.334" height="691.881" fill="none"/>
    </clipPath>
    <clipPath id="clip-path-3">
      <rect id="Прямоугольник_13" data-name="Прямоугольник 13" width="126.468" height="332.664" fill="none"/>
    </clipPath>
  </defs>
  <g id="seaweeds2" transform="translate(0 159.686) rotate(-16)">
    <g id="Сгруппировать_21" data-name="Сгруппировать 21" clip-path="url(#clip-path)">
      <g id="Сгруппировать_20" data-name="Сгруппировать 20">
        <g id="Сгруппировать_19" data-name="Сгруппировать 19" clip-path="url(#clip-path)">
          <path id="Контур_464" data-name="Контур 464" d="M109.043,284.172c-7.517-21.121-20.182-39.737-28.32-60.532-9.049-23.119-8.367-47.747-7.243-72.123.629-13.687,1.2-27.429,3.084-41.014,1.913-13.761,5.9-26.966,9.276-40.4,5.588-22.255,8.6-48.089-6.192-67.575C75.2-3.331,65.233,1.982,69.493,8.461c12.731,19.365,8.5,42.346,2.942,63.37a341.538,341.538,0,0,0-11.1,71.589c-1.157,23.422-2.715,47.442,3.086,70.418,5.536,21.926,18.415,40.738,27.7,61.094C111.312,317,112.175,364.875,97.5,408.389c-13.941,41.33-39.619,77.387-61.413,114.767-22.731,38.99-49.79,91.215-28.144,136.287,2.262,4.705,10.215,1.4,8.485-3.578C.859,611.1,24.14,567.2,46.351,529.157c21.621-37.028,46.336-72.632,61.277-113.114,15.616-42.311,16.58-89.261,1.414-131.871" transform="translate(411.362 30.17)" fill="#67c6d9"/>
          <path id="Контур_465" data-name="Контур 465" d="M97.145,36.555c-.965-1.8-3.474-3.206-5.519-2.191A58.3,58.3,0,0,1,69.709,40.08c-.715.053-1.434.053-2.151.09.724-.613,1.434-1.228,2.128-1.836,6.382-5.584,12.85-11.658,17.136-19.058,2.3-3.965-3.382-9.014-6.944-5.933-5.537,4.791-10.552,10.444-15.91,15.014q-2.344,2-4.8,3.881.917-2.621,1.7-5.29a57.82,57.82,0,0,0,2.022-9.836,87.278,87.278,0,0,0,.263-11.121c-.1-5.337-8.38-5.686-9.3-.523-.315,1.774-.641,3.384-1.066,4.9-.09.41-.185.817-.285,1.224Q52.28,12.6,52.381,12c-.328,1.08-.639,2.135-.93,3.224-.809,3.042-1.636,6.088-2.57,9.093q-.145.46-.294.918c-.021.063-.078.225-.188.55-.285.787-.567,1.577-.86,2.36-.384,1.027-.8,2.042-1.215,3.056a56.8,56.8,0,0,1-4.279-7.818c-2.69-5.995-5.147-12.711-5.771-18.961-.639-6.38-10.222-5.623-9.925.779.365,7.82,1.33,15.347,4.326,22.652.835,2.038,1.793,4.027,2.822,5.979-1.08-.567-2.19-1.08-3.234-1.712-.4-.243-.794-.493-1.187-.745-.118-.088-.844-.583-.872-.6q-1.406-.991-2.757-2.059a68.673,68.673,0,0,1-5.191-4.51c-.766-.743-1.522-1.506-2.251-2.288-.116-.137-.627-.71-.68-.773-.513-.6-1.052-1.175-1.561-1.774-.062-.092-.631-.81-.668-.858-.351-.454-.694-.914-1.038-1.372-.631-.84-1.251-1.684-1.844-2.549-1.337-1.943-2.426-4.087-3.9-5.933a4.7,4.7,0,0,0-5.29-1.682A4.585,4.585,0,0,0,.038,11.608C.863,16.96,3.919,21.883,6.871,26.314A53.714,53.714,0,0,0,17.606,37.887,66.058,66.058,0,0,0,31,46.357c4.393,2.072,9.731,4.432,14.737,3.83,4.207,1.191,8.672,1.3,13.025,1.393a96.764,96.764,0,0,0,12.62-.483c8.676-.951,17.313-3.479,24.359-8.771a4.54,4.54,0,0,0,1.4-5.771" transform="translate(438.94 72.595)" fill="#278eba"/>
          <path id="Контур_466" data-name="Контур 466" d="M113.536,26.472c-1.591-1.668-4.744-2.445-6.666-.728A65.813,65.813,0,0,1,84.73,38.55c-.763.273-1.545.491-2.315.745.606-.883,1.194-1.767,1.767-2.635,5.269-8,10.487-16.552,12.926-25.895,1.309-5.006-6.389-8.8-9.34-4.372-4.587,6.879-8.348,14.54-12.808,21.123Q73.007,30.4,70.9,33.18q.214-3.129.259-6.268A65.215,65.215,0,0,0,70.407,15.6,98.625,98.625,0,0,0,67.35,3.414C65.638-2.366,56.522-.257,57.073,5.637c.19,2.026.319,3.877.312,5.649q.037.708.055,1.42c.044.782.041.944-.007.484-.033,1.274-.055,2.515-.044,3.789.033,3.555.049,7.118-.067,10.67-.012.363-.026.724-.042,1.087-.005.074-.018.268-.041.655-.074.942-.144,1.885-.227,2.827-.109,1.233-.255,2.463-.4,3.692A63.847,63.847,0,0,1,49.6,28.685c-4.728-5.716-9.419-12.29-11.977-18.9C35.01,3.026,24.807,6.731,27.055,13.608c2.746,8.4,6.056,16.308,11.512,23.358,1.522,1.966,3.164,3.844,4.871,5.66-1.348-.292-2.709-.516-4.036-.893-.507-.143-1.013-.3-1.518-.454-.153-.06-1.092-.379-1.127-.393q-1.831-.653-3.622-1.413c-2.383-1.009-4.731-2.107-7-3.349-1.059-.58-2.109-1.184-3.139-1.814-.167-.116-.895-.587-.972-.639-.735-.493-1.5-.964-2.23-1.46-.1-.083-.93-.694-.985-.735-.518-.388-1.029-.786-1.543-1.182-.937-.724-1.867-1.457-2.774-2.22-2.036-1.716-3.867-3.719-6.023-5.286A5.3,5.3,0,0,0,2.2,22.544a5.174,5.174,0,0,0-1.86,5.945c2.5,5.577,7.309,10.018,11.853,13.955a60.665,60.665,0,0,0,15.162,9.371,74.766,74.766,0,0,0,17.128,5.195c5.4.935,11.924,1.9,17.191-.259,4.938.032,9.829-1.191,14.6-2.4a108.939,108.939,0,0,0,13.59-4.318c9.16-3.639,17.8-8.986,23.881-16.863a5.126,5.126,0,0,0-.208-6.7" transform="translate(421.777 165.718)" fill="#278eba"/>
          <path id="Контур_467" data-name="Контур 467" d="M112.879,20.928c-1.76-1.489-4.978-1.925-6.708-.012A65.789,65.789,0,0,1,85.524,36.011c-.728.352-1.481.654-2.22.988.506-.944,1-1.885,1.474-2.811,4.383-8.512,8.658-17.573,10.09-27.124.766-5.117-7.293-8.064-9.754-3.35-3.828,7.328-6.75,15.347-10.481,22.368Q73,29.151,71.2,32.146q-.124-3.134-.412-6.257a65.433,65.433,0,0,0-1.957-11.172,98.58,98.58,0,0,0-4.34-11.788C62.176-2.634,53.338.434,54.515,6.237c.4,1.992.729,3.821.911,5.584.076.467.144.934.206,1.4q.193,1.163.046.483c.1,1.27.211,2.508.361,3.773.412,3.528.807,7.071,1.073,10.615q.037.542.07,1.085c0,.074.012.268.03.655.03.946.06,1.892.076,2.836.023,1.238.009,2.477-.007,3.713a64.281,64.281,0,0,1-7.74-6.435C44.233,24.77,38.865,18.735,35.615,12.43c-3.317-6.437-13.067-1.665-10.1,4.934,3.627,8.061,7.76,15.567,13.939,21.995,1.723,1.793,3.555,3.486,5.445,5.11-1.372-.148-2.748-.225-4.106-.458-.523-.088-1.041-.187-1.559-.291-.16-.042-1.129-.259-1.166-.27q-1.887-.454-3.749-1.02c-2.48-.749-4.931-1.589-7.323-2.581q-1.673-.695-3.313-1.471c-.18-.1-.953-.486-1.034-.53-.786-.414-1.592-.8-2.375-1.214-.106-.072-1-.592-1.06-.627-.555-.329-1.1-.671-1.656-1.009-1.011-.62-2.013-1.251-3-1.911-2.209-1.487-4.24-3.284-6.549-4.614a5.307,5.307,0,0,0-6.255.426A5.173,5.173,0,0,0,.543,35.012c3.086,5.278,8.337,9.179,13.275,12.609a60.638,60.638,0,0,0,16.076,7.7,74.713,74.713,0,0,0,17.582,3.34c5.475.352,12.06.618,17.068-2.093,4.913-.495,9.645-2.232,14.258-3.939a109.056,109.056,0,0,0,13.053-5.743c8.718-4.6,16.738-10.835,21.945-19.315a5.131,5.131,0,0,0-.921-6.643" transform="translate(446.592 268.905)" fill="#278eba"/>
          <path id="Контур_468" data-name="Контур 468" d="M114.169,45.406c-1.083-2.16-4.009-3.907-6.463-2.773a69.046,69.046,0,0,1-26.129,6.054c-.847.039-1.7.019-2.549.037.879-.7,1.739-1.406,2.581-2.1,7.735-6.4,15.59-13.382,20.9-22C105.356,20,98.8,13.837,94.482,17.371c-6.708,5.491-12.828,12.021-19.319,17.254q-2.84,2.291-5.808,4.439,1.173-3.073,2.181-6.206A68.4,68.4,0,0,0,74.248,21.28,103.644,103.644,0,0,0,74.92,8.123c.053-6.32-9.734-7-10.988-.921-.43,2.091-.868,3.986-1.42,5.762-.12.481-.247.962-.379,1.439q-.3,1.2-.157.484c-.423,1.268-.826,2.507-1.2,3.787-1.057,3.574-2.133,7.152-3.338,10.679-.123.361-.25.719-.377,1.076-.028.074-.1.264-.241.646-.363.923-.722,1.846-1.094,2.766-.488,1.2-1.013,2.39-1.538,3.578a67.15,67.15,0,0,1-4.813-9.394c-2.989-7.182-5.679-15.213-6.217-22.631-.55-7.575-11.917-6.986-11.772.6.18,9.267,1.076,18.209,4.386,26.952.923,2.44,1.994,4.827,3.15,7.17-1.261-.706-2.56-1.349-3.773-2.131q-.7-.449-1.385-.921c-.136-.107-.979-.717-1.011-.74q-1.633-1.218-3.2-2.526c-2.08-1.744-4.1-3.565-6-5.508-.884-.9-1.753-1.832-2.591-2.78-.132-.167-.717-.863-.779-.939-.587-.722-1.207-1.425-1.79-2.149-.071-.113-.72-.981-.763-1.039-.4-.548-.791-1.1-1.184-1.656-.719-1.015-1.425-2.035-2.1-3.079C12.827,14.3,11.606,11.734,9.926,9.5A5.563,5.563,0,0,0,3.718,7.335,5.427,5.427,0,0,0,.031,12.729c.8,6.359,4.258,12.285,7.61,17.628A63.661,63.661,0,0,0,19.973,44.4,78.314,78.314,0,0,0,35.556,54.864c5.133,2.595,11.374,5.561,17.321,5.012C57.819,61.42,63.1,61.693,68.25,61.947A114.767,114.767,0,0,0,83.2,61.783c10.3-.844,20.607-3.557,29.12-9.592a5.376,5.376,0,0,0,1.846-6.785" transform="translate(464.62 382.263)" fill="#278eba"/>
          <path id="Контур_469" data-name="Контур 469" d="M105.079,60.349c-.617-2.336-3.121-4.647-5.757-4.041a69.005,69.005,0,0,1-26.814.562c-.838-.134-1.666-.329-2.5-.486,1-.506,1.991-1.02,2.956-1.529,8.885-4.68,18-9.9,24.973-17.244,3.734-3.937-1.418-11.314-6.368-8.743-7.693,4-15.022,9.132-22.451,12.923q-3.247,1.659-6.593,3.151,1.778-2.767,3.409-5.626a68.421,68.421,0,0,0,5.031-10.775A103.16,103.16,0,0,0,74.318,15.8c1.349-6.176-8.091-8.85-10.566-3.157-.851,1.957-1.668,3.722-2.572,5.348q-.325.668-.666,1.33-.536,1.112-.254.44c-.673,1.156-1.323,2.285-1.957,3.46-1.767,3.28-3.557,6.563-5.459,9.766-.194.328-.391.654-.588.978-.042.065-.152.238-.37.581-.544.83-1.085,1.659-1.638,2.484-.726,1.076-1.481,2.132-2.239,3.185a67.143,67.143,0,0,1-2.781-10.182c-1.452-7.643-2.435-16.055-1.439-23.425C44.807-.914,33.56-2.672,32.145,4.783c-1.728,9.107-2.685,18.043-1.24,27.278.4,2.577.96,5.133,1.608,7.665-1.089-.949-2.225-1.846-3.254-2.861q-.592-.584-1.164-1.186c-.113-.134-.812-.9-.838-.932q-1.35-1.527-2.611-3.13c-1.679-2.133-3.28-4.33-4.739-6.62-.68-1.068-1.341-2.154-1.966-3.255-.1-.19-.527-.99-.571-1.078-.426-.826-.888-1.642-1.311-2.47-.046-.125-.5-1.108-.534-1.175-.28-.618-.548-1.24-.817-1.864-.495-1.14-.978-2.283-1.425-3.444-1-2.605-1.672-5.373-2.859-7.9A5.566,5.566,0,0,0,4.8.416,5.43,5.43,0,0,0,.078,4.936c-.52,6.391,1.647,12.9,3.831,18.817A63.57,63.57,0,0,0,13.1,40.032,78.369,78.369,0,0,0,26.2,53.469c4.492,3.592,9.992,7.777,15.923,8.459,4.52,2.526,9.632,3.879,14.621,5.184a114.832,114.832,0,0,0,14.668,2.91c10.256,1.289,20.9.749,30.468-3.41a5.377,5.377,0,0,0,3.2-6.262" transform="translate(418.684 480.396)" fill="#278eba"/>
          <path id="Контур_470" data-name="Контур 470" d="M100.546,23.46c-1.407-1.476-4.2-2.167-5.9-.646A58.3,58.3,0,0,1,75.032,34.148c-.676.24-1.367.433-2.05.659.539-.784,1.057-1.566,1.566-2.336C79.216,25.391,83.84,17.818,86,9.546c1.161-4.434-5.655-7.793-8.269-3.875-4.066,6.09-7.4,12.872-11.351,18.7q-1.728,2.55-3.6,5.015.19-2.769.233-5.549a57.611,57.611,0,0,0-.666-10.02,87.136,87.136,0,0,0-2.7-10.791c-1.515-5.121-9.59-3.257-9.1,1.964.167,1.793.28,3.433.273,5,.021.419.039.838.049,1.256.037.694.035.837-.009.43-.028,1.129-.049,2.228-.039,3.356.028,3.148.041,6.3-.062,9.449-.012.321-.026.641-.04.962,0,.067-.012.238-.035.581-.065.835-.127,1.67-.2,2.5-.1,1.092-.227,2.181-.358,3.269a56.386,56.386,0,0,1-6.2-6.4c-4.185-5.064-8.337-10.886-10.6-16.745C31.013,2.67,21.976,5.947,23.965,12.04c2.427,7.441,5.357,14.443,10.187,20.688,1.346,1.742,2.8,3.405,4.311,5.015-1.193-.261-2.4-.46-3.574-.793-.447-.127-.9-.262-1.344-.4-.136-.053-.969-.336-1-.347q-1.62-.581-3.206-1.254c-2.11-.895-4.189-1.867-6.2-2.968-.937-.513-1.869-1.048-2.78-1.607-.148-.1-.793-.52-.861-.567-.65-.437-1.325-.853-1.975-1.293-.083-.074-.824-.617-.872-.652-.46-.344-.911-.7-1.365-1.046-.83-.643-1.652-1.293-2.456-1.968-1.8-1.52-3.424-3.294-5.332-4.684a4.7,4.7,0,0,0-5.547-.218A4.586,4.586,0,0,0,.3,25.209C2.518,30.149,6.77,34.082,10.8,37.568A53.656,53.656,0,0,0,24.22,45.874a66.162,66.162,0,0,0,15.163,4.608c4.786.828,10.559,1.688,15.225-.224,4.372.03,8.707-1.052,12.928-2.117a96.577,96.577,0,0,0,12.037-3.819c8.112-3.22,15.766-7.952,21.154-14.926a4.54,4.54,0,0,0-.181-5.936" transform="translate(439.201 0)" fill="#278eba"/>
          <path id="Контур_471" data-name="Контур 471" d="M358.445,199.963c-3.907-5.9-9.965-10.652-16.967-11.4-24.715-2.653-18.287,29.4-14.5,42.781,3.393,12.007,4.4,27.547.447,39.517-2.623,7.948-9.005,15.229-17.293,16.379-24.531,3.4-12.577-32.314-13.779-44.7-.89-9.157-4.168-21.727-13.73-25.252-34.225-12.613-16,68.256-20.11,82.944-2.035,7.272-6.248,14.2-12.731,18.073a23.5,23.5,0,0,1-26.834-2.478c-13.652-12.031-5.972-35.967-1.5-50.579,8.241-26.924,19.759-51.971,31.377-77.529,10.122-22.27,18.253-45.9,14.746-70.679a64.418,64.418,0,0,0-12.294-30.4C248.974,78.432,238.69,73.093,230,81.6c-10.368,10.155-4.118,26.208-3.336,38.645.724,11.515-2,44.787-18.884,44.645-7.132-.06-12.828-6.13-15.7-12.109-6.736-14.031-5.662-32.61-5.256-47.759.428-16.076,2-32.092,2.9-48.143.773-13.789,3.033-30.66-2.191-43.866-4.7-11.875-17.642-16.543-28.854-10.136C147,9.559,144.009,24.235,143.242,36.58c-.939,15.1,12.782,64.3-2.209,73.835-13.8,8.783-22.682-11.677-28.255-20.362-6.826-10.643-18.69-37.125-33.892-18.3C74.07,77.724,73.408,86.217,75.3,93.649c5.975,23.407,24.921,36.244,41.8,51.492,31.329,28.308,48.023,67.636,51.418,109.313,2.618,32.122,8.085,97.972-35.3,107.676-13.793,3.086-24.979-5.545-31.7-16.906-13.8-23.349-8.094-52.358-1.624-77,3.757-14.313,7.964-28.555,9.9-43.264,1.515-11.552,2.419-25.9-8.026-33.755-8.6-6.47-20.09-4.469-25.224,5.165-5.549,10.423-3.169,24.124-3.407,35.4-.27,12.743,4.517,30.216-1.378,41.972-11.721,23.372-23.954-3.432-29.02-13.472-6.315-12.518-14.862-25.151-30.371-16.874C.585,249.681-1.925,263.833,1.276,275.852c5.9,22.178,23.3,28.881,38.729,42.83,29.309,26.5,33.7,68.2,57.9,98.891,11.309,14.344,20.2,22.079,24.4,40.893,4.887,21.919,1.122,44.509-4,66.049-4.744,19.965,3.724,25.488,23.277,30.128,15.509,3.678,39.358,4.7,45.082-14.244,8.966-29.67-7.82-62.808-10.835-92.3-3.319-32.435,15.63-66.946,53.579-57.659,23.705,5.8,44.171,26.578,69.41,28.475,11.595.872,29.039-3.932,34.357-15.606,6.12-13.423-5.08-23.892-17.746-24.32-13.1-.442-37.25-1.163-34.981-20.645,1.71-14.725,30.033-22.918,40.782-30.468,13.615-9.567,25.539-21.4,33.707-36,14.327-25.609,20.112-64.4,4.226-90.79q-.344-.568-.712-1.126" transform="translate(0.001 115.276)" fill="#acd0e8"/>
          <path id="Контур_472" data-name="Контур 472" d="M22.911,4.087A13.676,13.676,0,0,0,19.4,2.227C15.65.846,11.7-.428,7.769.137,1.087,1.1-3.507,7.89,3.508,12.178c4.71,2.878,12.292,2.253,17.26.518,1.92-.671,3.993-1.9,4.383-4.025.343-1.888-.719-3.424-2.239-4.584" transform="translate(154.544 122.649)" fill="#81b9db"/>
          <path id="Контур_473" data-name="Контур 473" d="M13.02.986C3.988-4.166-1.365,12.246.3,18.485A3.119,3.119,0,0,0,3.261,20.74C9.347,20.647,15.4,13.317,15.567,7.463c.1-3.525-.951-5.566-2.547-6.477" transform="translate(79.333 185.551)" fill="#81b9db"/>
          <path id="Контур_474" data-name="Контур 474" d="M.018.048A1.177,1.177,0,0,1,0,.248,1.081,1.081,0,0,0,.028,0L.018.048" transform="translate(85.255 198.408)" fill="#81b9db"/>
          <path id="Контур_475" data-name="Контур 475" d="M23.461,12.815A18.4,18.4,0,0,0,19.8,5.3C16.148,1.061,8.568-1.953,3.483,1.512-9.079,10.074,15.891,22.787,22.335,17.387c1.254-1.052,1.46-2.748,1.126-4.571" transform="translate(229.942 197.903)" fill="#81b9db"/>
          <path id="Контур_476" data-name="Контур 476" d="M13.605,2.9c-.12-.106-.234-.2-.347-.284C10.589.6,3-1.717.721,1.873c-3.912,6.181,9.188,13.238,13.1,15.105a3.373,3.373,0,0,0,3.282.005c4.64-2.7-.581-11.5-3.5-14.08" transform="translate(269.502 334.919)" fill="#81b9db"/>
          <path id="Контур_477" data-name="Контур 477" d="M22.109,7.007c-1.959-2.993-5.982-4.769-9.123-5.945A12.089,12.089,0,0,0,5.457.331,7.406,7.406,0,0,0,.183,5.471a7.749,7.749,0,0,0,2.089,6.983c3.113,3.527,8.616,4.726,13.118,4.841,4.474.113,8.322-1.663,7.871-7a7.038,7.038,0,0,0-1.152-3.287" transform="translate(330.599 308.714)" fill="#81b9db"/>
          <path id="Контур_478" data-name="Контур 478" d="M21.219,5.457C18.814,2.53,14.506.675,11.18.129,4.322-.993-5.091,5.426,3.322,11.7a17.767,17.767,0,0,0,7.42,3.01c4.864.874,10.976,2.558,12.144-2.968a7.238,7.238,0,0,0-1.666-6.283" transform="translate(80.155 308.32)" fill="#81b9db"/>
          <path id="Контур_479" data-name="Контур 479" d="M18.943.4A11.43,11.43,0,0,0,17.495.1C10.44-.912.423,6.059.017,13.322a9.08,9.08,0,0,0,1.149,5.188,5.974,5.974,0,0,0,5.718,2.852A13.988,13.988,0,0,0,12.4,19.147a39.96,39.96,0,0,0,4.208-2.866C21.465,12.511,27,2.645,18.943.4" transform="translate(6.225 362.846)" fill="#81b9db"/>
          <path id="Контур_480" data-name="Контур 480" d="M21.923,3.752c-2.066-4.286-7.06-5.8-13.421.329C4.7,7.748-4.569,21.627,2.712,25.589A5.951,5.951,0,0,0,7.165,26c2.491-.048,5.1-1.441,7.1-2.824a23.587,23.587,0,0,0,5.581-5.426c3.474-4.668,3.842-10.342,2.08-14" transform="translate(305.233 501.079)" fill="#81b9db"/>
          <g id="Сгруппировать_18" data-name="Сгруппировать 18" transform="translate(99.447 279.831)" opacity="0.7">
            <g id="Сгруппировать_17" data-name="Сгруппировать 17" transform="translate(0)">
              <g id="Сгруппировать_16" data-name="Сгруппировать 16" clip-path="url(#clip-path-3)">
                <path id="Контур_481" data-name="Контур 481" d="M8.877,19.939c2.9,1.355,5.7.111,5.494-5.332-.16-4.152-2.183-10.185-5.313-13.041C5.873-1.338-.039-.211,0,5.015c.033,4,3.132,9.042,5.48,12.075a9.619,9.619,0,0,0,3.4,2.848" transform="translate(57.353 0)" fill="#d5e6f4"/>
                <path id="Контур_482" data-name="Контур 482" d="M5.4,18.1c2.3,1.656,4.95,1.036,5.662-3.741.546-3.643-.222-9.234-2.479-12.236C6.289-.927.953-.92.125,3.643-.5,7.13,1.367,12.035,2.913,15.064A8.511,8.511,0,0,0,5.4,18.1" transform="translate(76.986 35.413)" fill="#d5e6f4"/>
                <path id="Контур_483" data-name="Контур 483" d="M5.957,21.958c2.708,2.109,5.942,1.478,7.022-4.27.824-4.383.148-11.182-2.447-14.917-2.639-3.8-9.1-4.034-10.3,1.45-.92,4.191,1.12,10.21,2.854,13.946a10.321,10.321,0,0,0,2.875,3.791" transform="translate(95.588 18.284)" fill="#d5e6f4"/>
                <path id="Контур_484" data-name="Контур 484" d="M3.772,22.008c2.375,2.507,5.685,2.369,7.629-3.185,1.483-4.235,1.837-11.1-.178-15.206C9.173-.559,2.786-1.768.758,3.5c-1.548,4.03-.43,10.324.729,14.3a10.366,10.366,0,0,0,2.285,4.2" transform="translate(78.204 83.363)" fill="#d5e6f4"/>
                <path id="Контур_485" data-name="Контур 485" d="M10.079,18.652c2.907.988,5.454-.491,4.682-5.665C14.174,9.042,11.611,3.5,8.324,1.1,4.983-1.337-.543.358.043,5.343c.451,3.81,3.939,8.3,6.5,10.946a9.23,9.23,0,0,0,3.539,2.362" transform="translate(0 208.685)" fill="#d5e6f4"/>
                <path id="Контур_486" data-name="Контур 486" d="M.05,12.579c-.395,3.005,1.533,5.186,6.393,3.439,3.706-1.334,8.582-4.89,10.265-8.536,1.714-3.71-1-8.732-5.711-7.2C7.392,1.458,3.721,5.7,1.653,8.695a9.079,9.079,0,0,0-1.6,3.884" transform="translate(109.243 177.335)" fill="#d5e6f4"/>
                <path id="Контур_487" data-name="Контур 487" d="M.047,14.865C.4,17.758,2.71,19.329,6.82,16.54c3.134-2.126,6.824-6.6,7.522-10.4C15.052,2.277,11.328-1.752,7.3.8,4.229,2.756,1.824,7.585.612,10.865a8.747,8.747,0,0,0-.565,4" transform="translate(82.865 172.16)" fill="#d5e6f4"/>
                <path id="Контур_488" data-name="Контур 488" d="M.219,18.682c.793,3.329,3.7,4.855,8.13,1.055,3.373-2.9,7.088-8.61,7.4-13.136.315-4.6-4.568-8.813-8.924-5.3C3.494,3.993,1.327,9.95.348,13.937a10.3,10.3,0,0,0-.129,4.746" transform="translate(48.675 205.58)" fill="#d5e6f4"/>
                <path id="Контур_489" data-name="Контур 489" d="M4.346,22.752c2.53,2.507,5.94,2.256,7.763-3.534,1.39-4.413,1.533-11.5-.68-15.671C9.179-.692,2.554-1.73.634,3.77-.832,7.975.527,14.427,1.853,18.489a10.719,10.719,0,0,0,2.493,4.263" transform="translate(24.608 224.153)" fill="#d5e6f4"/>
                <path id="Контур_490" data-name="Контур 490" d="M5.116,18.206c2.271,1.717,4.945,1.159,5.778-3.622.634-3.645-.005-9.276-2.2-12.345C6.464-.884,1.1-1,.165,3.559c-.715,3.486,1.045,8.455,2.524,11.535a8.574,8.574,0,0,0,2.427,3.113" transform="translate(37.523 272.511)" fill="#d5e6f4"/>
                <path id="Контур_491" data-name="Контур 491" d="M2.392,19.943c1.955,2.486,4.987,2.637,7.226-2.265C11.323,13.942,12.223,7.711,10.73,3.8,9.209-.186,3.486-1.822,1.194,2.812c-1.749,3.546-1.258,9.38-.534,13.1a9.5,9.5,0,0,0,1.732,4.027" transform="translate(39.199 311.025)" fill="#d5e6f4"/>
                <path id="Контур_492" data-name="Контур 492" d="M.53,18.6c1.141,2.995,4.029,4.059,7.677-.007,2.78-3.1,5.535-8.859,5.272-13.1C13.211,1.181,8.168-2.132,4.548,1.66,1.784,4.562.5,10.356.072,14.178A9.635,9.635,0,0,0,.53,18.6" transform="translate(49.809 241.306)" fill="#d5e6f4"/>
              </g>
            </g>
          </g>
        </g>
      </g>
    </g>
  </g>
</svg>
