<svg xmlns="http://www.w3.org/2000/svg" width="149.196" height="111.492" viewBox="0 0 149.196 111.492">
  <path id="shark" d="M333.866,400.876c.8-5.692,6.5-10.916,6.161-16.876-8.84,7.7-15.269,16.943-20.76,27.256-3.014.737-6.027,1.339-9.041,1.875a32.073,32.073,0,0,1,.067-5.09,19.086,19.086,0,0,0-5.692,5.893c-2.21.2-4.487.4-6.764.4-9.844.2-20.76-1.138-30.336,1.808,1.875-3.75-.268-6.094-1.205-10.045-.8-3.415,1-7.634-.469-10.648-10.045.938-9.376,18.818-15.269,22.367-5.29,3.214-11.318,5.157-16.675,8.639-4.353,2.813-8.5,5.357-12.992,7.7-2.612,1.406-10.112,5.223-10.38,8.572-.4,5.09,10.246,3.415,13.327,3.884,4.688.67,8.438,2.277,13.327,1.808a83.305,83.305,0,0,0,12.791-2.612c4.487,8.1,12.188,12.322,20.559,16.072-1.741-4.353-3.951-8.438-5.424-12.992-.536-1.674-1.072-4.152-1.808-6.362,9.844-2.545,19.287-5.357,28.729-10.447,8.639-4.621,18.885-11.853,28.127-14.6,2.88-.536,6.965,2.21,9.777,3.081,3.549,1.205,9.777,5.625,13.461,3.951-2.813-4.219-8.036-8.639-12.456-11.519C334.67,409.247,333.263,405.43,333.866,400.876Z" transform="translate(-75.033 -427.146) rotate(16)" fill="#0895b1" opacity="0.504"/>
</svg>
