<svg xmlns="http://www.w3.org/2000/svg" width="984.613" height="873.905" viewBox="0 0 984.613 873.905">
  <g id="Сгруппировать_2418" data-name="Сгруппировать 2418" transform="translate(-448.699 -3335.267)">
    <g id="Сгруппировать_2416" data-name="Сгруппировать 2416" transform="translate(-1667.821 3370.119)">
      <path id="XMLID_294_" d="M423.984,369.607a32.78,32.78,0,0,1,3.073-2.634c1.536-.878-7.243-7.242-9-7.242a14.953,14.953,0,0,1,7.462,1.756c2.195,1.1,6.145,2.853,7.242,5.048a54.373,54.373,0,0,1,8.12-3.731,35.32,35.32,0,0,1,7.681-2.195,13.918,13.918,0,0,0-3.731-6.8c3.073-.219,6.8,3.512,8.779,6.8a15.4,15.4,0,0,1,11.851,9.437c-3.073,4.17-9.876,5.487-14.7,5.706h-1.1c-1.1,2.414-2.853,4.389-5.487,4.17,1.536-.878,1.975-2.634,2.195-4.389a25.085,25.085,0,0,1-8.34-3.512c-1.536-.878-3.95-2.195-5.048-3.511-.878,1.756-3.731,2.414-5.487,2.853a30.964,30.964,0,0,1-10.1.658C418.936,370.7,421.79,370.924,423.984,369.607Z" transform="translate(2608.235 137.371)" fill="#292bb7"/>
      <path id="XMLID_280_" d="M447.484,381.307a32.793,32.793,0,0,1,3.073-2.634c1.536-.878-7.242-7.242-9-7.242a14.954,14.954,0,0,1,7.462,1.756c2.195,1.1,6.145,2.853,7.243,5.048a54.366,54.366,0,0,1,8.12-3.731,35.326,35.326,0,0,1,7.682-2.195,13.917,13.917,0,0,0-3.731-6.8c3.073-.219,6.8,3.512,8.779,6.8a15.4,15.4,0,0,1,11.851,9.437c-3.073,4.17-9.876,5.487-14.7,5.706h-1.1c-1.1,2.414-2.853,4.389-5.487,4.17,1.536-.878,1.975-2.634,2.195-4.389a25.086,25.086,0,0,1-8.34-3.512c-1.536-.878-3.95-2.195-5.048-3.511-.878,1.756-3.731,2.414-5.487,2.853a30.962,30.962,0,0,1-10.1.658C442.656,382.185,445.509,382.4,447.484,381.307Z" transform="translate(2533.159 151.349)" fill="#292bb7"/>
      <path id="XMLID_230_" d="M460.484,351.507a32.777,32.777,0,0,1,3.073-2.634c1.536-.878-7.243-7.243-9-7.243a14.954,14.954,0,0,1,7.462,1.756c2.195,1.1,6.145,2.853,7.242,5.048a54.367,54.367,0,0,1,8.12-3.731,35.32,35.32,0,0,1,7.681-2.195,13.917,13.917,0,0,0-3.731-6.8c3.073-.22,6.8,3.511,8.779,6.8a15.4,15.4,0,0,1,11.851,9.437c-3.073,4.17-9.876,5.487-14.7,5.706h-1.1c-1.1,2.414-2.853,4.389-5.487,4.17,1.536-.878,1.975-2.634,2.195-4.389a25.088,25.088,0,0,1-8.34-3.512c-1.536-.878-3.95-2.195-5.048-3.512-.878,1.756-3.731,2.414-5.487,2.853a30.964,30.964,0,0,1-10.1.658C455.656,352.6,458.509,352.824,460.484,351.507Z" transform="translate(2491.628 115.747)" fill="#292bb7"/>
      <path id="XMLID_215_" d="M411.484,390.607a32.776,32.776,0,0,1,3.073-2.634c1.536-.878-7.242-7.242-9-7.242a14.954,14.954,0,0,1,7.462,1.756c2.195,1.1,6.145,2.853,7.242,5.048a54.363,54.363,0,0,1,8.12-3.731,35.319,35.319,0,0,1,7.682-2.195,13.917,13.917,0,0,0-3.731-6.8c3.073-.219,6.8,3.512,8.779,6.8a15.4,15.4,0,0,1,11.851,9.437c-3.073,4.17-9.876,5.487-14.7,5.706h-1.1c-1.1,2.414-2.853,4.389-5.487,4.17,1.536-.878,1.975-2.634,2.195-4.389a25.087,25.087,0,0,1-8.34-3.512c-1.536-.878-3.95-2.195-5.048-3.512-.878,1.756-3.731,2.414-5.487,2.853a30.961,30.961,0,0,1-10.1.658C406.656,391.7,409.509,391.924,411.484,390.607Z" transform="translate(2648.169 162.459)" fill="#18ccf5" opacity="0.336"/>
    </g>
    <g id="shark">
      <path id="XMLID_216_" d="M550.584,495.207a32.777,32.777,0,0,1,3.073-2.634c1.536-.878-7.243-7.242-9-7.242a14.955,14.955,0,0,1,7.462,1.756c2.195,1.1,6.145,2.853,7.242,5.048a54.363,54.363,0,0,1,8.12-3.731,35.314,35.314,0,0,1,7.682-2.195,13.917,13.917,0,0,0-3.731-6.8c3.073-.22,6.8,3.512,8.779,6.8a15.4,15.4,0,0,1,11.852,9.437c-3.073,4.17-9.876,5.487-14.7,5.706h-1.1c-1.1,2.414-2.853,4.389-5.487,4.17,1.536-.878,1.975-2.634,2.195-4.389a25.091,25.091,0,0,1-8.34-3.512c-1.536-.878-3.95-2.195-5.048-3.512-.878,1.756-3.731,2.414-5.487,2.853a30.957,30.957,0,0,1-10.1.658C545.536,496.3,548.389,496.524,550.584,495.207Z" transform="translate(535.964 3657.544)" fill="#18ccf5" opacity="0.502"/>
      <path id="XMLID_212_" d="M574.084,506.907a32.784,32.784,0,0,1,3.073-2.634c1.536-.878-7.242-7.242-9-7.242a14.955,14.955,0,0,1,7.462,1.756c2.195,1.1,6.145,2.853,7.242,5.048a54.369,54.369,0,0,1,8.12-3.731,35.319,35.319,0,0,1,7.681-2.195,13.917,13.917,0,0,0-3.731-6.8c3.073-.219,6.8,3.512,8.779,6.8a15.4,15.4,0,0,1,11.852,9.437c-3.073,4.17-9.876,5.487-14.7,5.706h-1.1c-1.1,2.414-2.853,4.389-5.487,4.17,1.536-.878,1.975-2.634,2.195-4.389a25.087,25.087,0,0,1-8.34-3.512c-1.536-.878-3.95-2.195-5.048-3.512-.878,1.756-3.731,2.414-5.487,2.853a30.963,30.963,0,0,1-10.1.658C569.256,507.785,572.109,508,574.084,506.907Z" transform="translate(460.888 3671.522)" fill="#18ccf5" opacity="0.502"/>
      <path id="XMLID_144_" d="M587.084,477.107a32.777,32.777,0,0,1,3.073-2.634c1.536-.878-7.243-7.242-9-7.242a14.954,14.954,0,0,1,7.462,1.756c2.195,1.1,6.145,2.853,7.243,5.048a54.375,54.375,0,0,1,8.12-3.731,35.319,35.319,0,0,1,7.682-2.195,13.919,13.919,0,0,0-3.731-6.8c3.073-.219,6.8,3.512,8.779,6.8a15.4,15.4,0,0,1,11.852,9.437c-3.073,4.17-9.876,5.487-14.7,5.706h-1.1c-1.1,2.414-2.853,4.389-5.487,4.17,1.536-.878,1.975-2.634,2.195-4.389a25.086,25.086,0,0,1-8.34-3.512c-1.536-.878-3.95-2.195-5.048-3.511-.878,1.756-3.731,2.414-5.487,2.853a30.964,30.964,0,0,1-10.1.658C582.256,478.2,585.109,478.424,587.084,477.107Z" transform="translate(419.357 3635.92)" fill="#18ccf5" opacity="0.502"/>
      <path id="XMLID_147_" d="M649.184,481.593c1.1-.439,2.634-1.536,3.731-1.975,1.756-.658-5.267-8.779-7.023-9.218a16.371,16.371,0,0,1,6.8,3.292c1.975,1.756,5.267,4.17,5.926,6.584a56.5,56.5,0,0,1,8.779-1.756,46.418,46.418,0,0,1,7.9-.439,13.17,13.17,0,0,0-1.975-7.462c3.073.439,5.706,5.048,7.023,8.559a15.4,15.4,0,0,1,9.437,11.851c-3.95,3.512-10.754,3.073-15.582,2.195-.439,0-.659-.219-1.1-.219-1.756,2.195-3.95,3.731-6.365,2.634,1.536-.439,2.634-2.195,3.292-3.731a33.1,33.1,0,0,1-7.462-5.267,27.33,27.33,0,0,1-4.17-4.609c-1.317,1.536-4.17,1.317-5.926,1.536a25.375,25.375,0,0,1-9.876-1.756C644.136,481.593,646.99,482.471,649.184,481.593Z" transform="translate(221.844 3646.797)" fill="#18ccf5" opacity="0.5"/>
      <path id="XMLID_45_" d="M537.984,516.207a32.777,32.777,0,0,1,3.073-2.634c1.536-.878-7.243-7.243-9-7.243a14.954,14.954,0,0,1,7.462,1.756c2.195,1.1,6.145,2.853,7.243,5.048a54.365,54.365,0,0,1,8.12-3.731,35.321,35.321,0,0,1,7.682-2.195,13.917,13.917,0,0,0-3.731-6.8c3.073-.22,6.8,3.512,8.779,6.8a15.4,15.4,0,0,1,11.851,9.437c-3.073,4.17-9.876,5.487-14.7,5.706h-1.1c-1.1,2.414-2.853,4.389-5.487,4.17,1.536-.878,1.975-2.634,2.195-4.389a25.086,25.086,0,0,1-8.34-3.512c-1.536-.878-3.95-2.195-5.048-3.512-.878,1.756-3.731,2.414-5.487,2.853a30.96,30.96,0,0,1-10.1.659C532.936,517.3,535.789,517.524,537.984,516.207Z" transform="translate(576.218 3682.633)" fill="#18ccf5" opacity="0.502"/>
      <g id="Сгруппировать_2414" data-name="Сгруппировать 2414">
        <g id="XMLID_173_" transform="translate(486.954 3779.212)" opacity="0.492">
          <g id="XMLID_658_">
            <path id="XMLID_675_" d="M780.465,316.4c6.584,4.609,13.827,10.315,16.9,18a134.959,134.959,0,0,1,24.8,1.1,61.879,61.879,0,0,0-2.414-12.071c5.048,2.853,8.559,8.34,10.754,14.046,7.682,3.073,15.8,10.315,14.7,18.875-.658,6.8-9.437,5.267-17.119,2.414-4.389,1.975-8.559,3.95-13.388,2.634.658-1.317,3.073-3.95,5.487-6.145a20.032,20.032,0,0,1-3.511-2.195c-3.951-2.853-7.682-6.365-11.413-9.437-1.975-1.536-5.487-6.145-7.9-7.023-4.828-1.536-15.144,1.317-20.411,1.756C779.588,331.543,779.368,324.081,780.465,316.4Z" transform="translate(-715.502 -316.4)" fill="#18ccf5"/>
            <path id="XMLID_674_" d="M746.266,355.3c6.584,4.609,13.827,10.315,16.9,18a134.955,134.955,0,0,1,24.8,1.1,61.873,61.873,0,0,0-2.414-12.071c5.048,2.853,8.559,8.34,10.754,14.046,7.681,3.073,15.8,10.315,14.7,18.875-.658,6.8-9.437,5.267-17.119,2.414-4.389,1.975-8.559,3.95-13.388,2.634.658-1.317,3.073-3.95,5.487-6.145a20.028,20.028,0,0,1-3.511-2.195c-3.95-2.853-7.682-6.365-11.413-9.437-1.975-1.536-5.487-6.145-7.9-7.023-4.828-1.536-15.144,1.317-20.411,1.756C745.388,370.444,745.168,362.762,746.266,355.3Z" transform="translate(-606.243 -269.926)" fill="#18ccf5"/>
            <path id="XMLID_673_" d="M767.734,385.775c5.048,1.756,10.535,3.95,13.168,8.12a172.383,172.383,0,0,1,18-3.292,25.16,25.16,0,0,0-2.414-6.8c3.731.878,6.584,3.731,8.56,6.8,5.706.658,12.071,3.731,11.851,9-.219,4.17-6.584,4.609-12.29,4.17-3.073,1.756-6.145,3.731-9.657,3.731a31.88,31.88,0,0,1,3.511-4.609,14.944,14.944,0,0,1-2.634-.658c-3.073-1.1-5.926-2.634-8.779-3.731-1.536-.658-4.389-2.853-6.145-3.073-3.511-.219-10.974,3.073-14.7,4.389C767.953,394.993,767.295,390.6,767.734,385.775Z" transform="translate(-663.485 -235.877)" fill="#18ccf5"/>
            <path id="XMLID_672_" d="M728.866,395.9c4.609,2.634,9.876,5.706,11.632,10.315A126.189,126.189,0,0,1,758.714,406a29.758,29.758,0,0,0-1.317-7.243c3.731,1.536,5.926,4.828,7.462,8.12,5.487,1.536,11.412,5.706,10.1,10.754-.878,3.95-7.243,3.512-12.729,1.975-3.292,1.317-6.584,2.634-10.1,1.975a38.721,38.721,0,0,1,4.17-3.95c-1.1-.439-1.975-.878-2.634-1.1-2.853-1.536-5.487-3.511-8.12-5.267-1.536-.878-3.731-3.512-5.487-3.95-3.512-.878-11.413,1.317-15.144,1.756C727.549,404.9,727.768,400.509,728.866,395.9Z" transform="translate(-531.123 -221.421)" fill="#18ccf5"/>
            <path id="XMLID_671_" d="M719.266,355.8c4.609,2.634,9.876,5.706,11.632,10.315a126.2,126.2,0,0,1,18.216-.219,29.767,29.767,0,0,0-1.317-7.243c3.731,1.536,5.926,4.828,7.462,8.12,5.487,1.536,11.412,5.706,10.1,10.754-.878,3.95-7.242,3.512-12.729,1.975-3.292,1.317-6.584,2.634-10.1,1.975a38.749,38.749,0,0,1,4.17-3.95c-1.1-.439-1.975-.878-2.634-1.1-2.853-1.536-5.487-3.512-8.12-5.267-1.536-.878-3.731-3.512-5.487-3.95-3.512-.878-11.413,1.317-15.144,1.756C717.949,364.8,717.949,360.189,719.266,355.8Z" transform="translate(-500.454 -269.329)" fill="#18ccf5"/>
            <path id="XMLID_670_" d="M709.916,419.014c3.95,1.317,8.34,2.853,10.535,5.926a98.109,98.109,0,0,1,13.388-3.073,26.847,26.847,0,0,0-2.195-5.267,12.455,12.455,0,0,1,7.023,5.048c4.389.439,9.437,2.414,9.437,6.584.219,3.292-4.609,3.95-9,3.731-2.195,1.536-4.39,3.073-7.023,3.292a16.908,16.908,0,0,1,2.414-3.731,18.978,18.978,0,0,1-2.195-.439c-2.414-.658-4.609-1.756-7.023-2.634-1.317-.439-3.512-2.195-4.828-2.195-2.634,0-8.12,2.853-10.754,3.731C710.575,426.257,709.916,422.745,709.916,419.014Z" transform="translate(-470.693 -196.69)" fill="#18ccf5"/>
            <path id="XMLID_669_" d="M737.016,430.614c3.95,1.317,8.34,2.853,10.535,5.926a98.116,98.116,0,0,1,13.388-3.073,26.844,26.844,0,0,0-2.195-5.267,12.454,12.454,0,0,1,7.023,5.048c4.389.439,9.437,2.414,9.437,6.584.219,3.292-4.609,3.95-9,3.731-2.195,1.536-4.389,3.073-7.023,3.292a16.905,16.905,0,0,1,2.414-3.731,19,19,0,0,1-2.195-.439c-2.414-.658-4.609-1.756-7.023-2.634-1.317-.439-3.511-2.195-4.828-2.195-2.634,0-8.12,2.853-10.754,3.731C737.675,437.857,737.016,434.345,737.016,430.614Z" transform="translate(-557.27 -182.832)" fill="#18ccf5"/>
            <path id="XMLID_668_" d="M670.617,428.214c3.95,1.317,8.34,2.853,10.535,5.926a98.1,98.1,0,0,1,13.388-3.073,26.853,26.853,0,0,0-2.195-5.267,12.454,12.454,0,0,1,7.023,5.048c4.39.439,9.437,2.414,9.437,6.584.219,3.292-4.609,3.95-9,3.731-2.195,1.536-4.39,3.073-7.023,3.292a16.9,16.9,0,0,1,2.414-3.731,19,19,0,0,1-2.195-.439c-2.414-.658-4.609-1.756-7.023-2.634-1.317-.439-3.512-2.195-4.828-2.195-2.634,0-8.12,2.853-10.754,3.731C671.275,435.237,670.617,431.726,670.617,428.214Z" transform="translate(-345.141 -185.699)" fill="#18ccf5"/>
            <path id="XMLID_667_" d="M684.251,454.823c4.17.439,8.779.878,11.632,3.512a81.715,81.715,0,0,1,12.51-5.926A22.151,22.151,0,0,0,705.1,447.8a11.933,11.933,0,0,1,7.9,3.512c4.389-.658,9.876.439,10.754,4.389.878,3.073-3.731,4.828-8.12,5.487-1.756,1.975-3.511,3.95-6.145,4.609a20.352,20.352,0,0,1,1.536-4.17h-2.195c-2.414-.219-4.828-.878-7.462-1.1-1.317-.219-3.95-1.317-5.267-1.1-2.634.439-7.242,4.389-9.657,6.145C686.445,461.627,684.909,458.335,684.251,454.823Z" transform="translate(-390.599 -159.416)" fill="#18ccf5"/>
            <path id="XMLID_666_" d="M727.922,458.753c4.17,0,8.779.439,11.851,2.853a107.13,107.13,0,0,1,12.071-6.8,17.286,17.286,0,0,0-3.731-4.39,11.863,11.863,0,0,1,8.12,2.853c4.389-.878,9.876-.219,10.974,3.731,1.1,3.073-3.292,5.048-7.681,5.926-1.756,1.975-3.292,4.17-5.926,5.048a14.622,14.622,0,0,1,1.317-4.17c-.878,0-1.756.22-2.195.22-2.414,0-5.048-.439-7.462-.658-1.317-.219-3.95-1.1-5.267-.658-2.634.658-7.023,5.048-9.437,6.8C730.556,465.337,729.02,462.264,727.922,458.753Z" transform="translate(-529.96 -156.322)" fill="#18ccf5"/>
            <path id="XMLID_665_" d="M690.73,383.3c4.609,1.536,9.657,3.512,11.632,7.242a157.448,157.448,0,0,1,17.777-2.414A14.848,14.848,0,0,0,718.6,382.2a12.1,12.1,0,0,1,7.462,5.926c5.487.658,11.193,3.292,10.1,7.9-.658,3.512-6.8,3.731-12.29,3.292-3.073,1.536-6.365,3.073-9.657,2.853a22.347,22.347,0,0,1,3.95-3.731,11.651,11.651,0,0,1-2.414-.658,64.844,64.844,0,0,1-8.12-3.512c-1.317-.658-3.731-2.414-5.487-2.634-3.292-.219-10.974,2.414-14.7,3.292C689.852,390.979,689.852,387.248,690.73,383.3Z" transform="translate(-410.027 -237.788)" fill="#18ccf5"/>
            <path id="XMLID_664_" d="M654.5,404.312c3.731.658,7.681,1.756,9.657,4.389,4.389-1.317,8.779-2.853,13.168-3.512-.219-1.536-1.1-2.853-1.756-4.389,2.853.219,4.828,1.975,6.365,3.731,4.17,0,9,1.536,8.559,5.048-.219,2.853-4.828,3.512-9,3.731-2.195,1.536-4.389,3.073-7.023,3.292a20.892,20.892,0,0,1,2.634-3.292c-.878,0-1.536-.219-1.975-.219-2.195-.439-4.389-1.317-6.584-1.756-1.1-.219-3.292-1.536-4.609-1.536-2.634.219-8.12,3.073-10.754,3.95C654.723,410.457,654.284,407.384,654.5,404.312Z" transform="translate(-289.085 -215.567)" fill="#18ccf5"/>
            <path id="XMLID_663_" d="M631.656,430.109c2.634.22,5.487.658,7.462,2.195a47.368,47.368,0,0,1,7.462-3.731,14.767,14.767,0,0,0-2.414-3.073,7.144,7.144,0,0,1,5.048,2.195c2.634-.439,6.145.22,6.8,2.853.658,1.975-2.195,3.073-4.828,3.512-1.1,1.317-1.975,2.634-3.731,2.853a11.858,11.858,0,0,1,.878-2.634H647.02l-4.609-.658c-.878-.22-2.414-.878-3.292-.658-1.536.439-4.389,2.853-5.926,3.95C633.412,434.5,632.315,432.523,631.656,430.109Z" transform="translate(-207.419 -186.057)" fill="#18ccf5"/>
            <path id="XMLID_662_" d="M631.053,403.7c2.414,1.1,4.828,2.634,6.145,4.828a51.085,51.085,0,0,1,8.34-.878,16.438,16.438,0,0,0-1.1-3.511,7.707,7.707,0,0,1,3.95,3.95c2.634.658,5.706,2.414,5.487,5.048,0,2.195-3.073,1.975-5.706,1.536a6.49,6.49,0,0,1-4.389,1.317,10.581,10.581,0,0,1,1.756-2.195,8.634,8.634,0,0,0-1.317-.439c-1.317-.658-2.634-1.536-4.17-2.414-.659-.439-1.975-1.756-2.853-1.756-1.756-.219-5.048,1.1-6.8,1.536C631.053,408.309,630.834,406.114,631.053,403.7Z" transform="translate(-202.427 -212.102)" fill="#18ccf5"/>
            <path id="XMLID_661_" d="M605.253,410.1c2.414,1.1,4.828,2.634,6.145,4.828a51.089,51.089,0,0,1,8.34-.878,16.44,16.44,0,0,0-1.1-3.512,7.708,7.708,0,0,1,3.95,3.95c2.634.658,5.706,2.414,5.487,5.048,0,2.195-3.073,1.975-5.706,1.536a6.49,6.49,0,0,1-4.389,1.317,10.58,10.58,0,0,1,1.756-2.195,8.622,8.622,0,0,0-1.317-.439c-1.317-.658-2.634-1.536-4.17-2.414-.658-.439-1.975-1.756-2.853-1.756-1.756-.219-5.048,1.1-6.8,1.536C605.253,414.709,605.034,412.295,605.253,410.1Z" transform="translate(-120.004 -204.456)" fill="#18ccf5"/>
            <path id="XMLID_660_" d="M768.593,408.2c7.023,3.731,14.7,8.12,18.875,15.143,7.462-1.317,15.582-2.634,23.264-2.414a59.815,59.815,0,0,0-4.17-11.413c5.267,1.975,9.437,7.023,12.51,12.29,7.681,1.975,16.68,7.9,16.9,16.241.439,6.584-7.9,6.584-15.582,4.828-3.731,2.414-7.462,5.048-12.071,4.389a34.4,34.4,0,0,1,3.95-6.8c-1.536-.658-2.853-1.1-3.731-1.536-4.17-2.195-8.34-5.048-12.29-7.462-2.195-1.317-6.145-5.267-8.56-5.706-4.828-.878-14.046,3.292-18.874,4.609C770.348,423.124,768.812,415.662,768.593,408.2Z" transform="translate(-687.827 -206.726)" fill="#18ccf5"/>
            <path id="XMLID_659_" d="M801.44,343.2c8.34,5.926,17.338,12.949,21.289,22.825,10.1-.219,20.85-.219,31.165,1.317-.219-5.048-1.536-10.1-2.853-15.363,6.365,3.512,10.754,10.754,13.607,18,9.657,3.95,20.191,13.168,18.436,23.922-.878,8.559-11.851,6.584-21.728,3.073-5.487,2.414-10.974,5.048-16.9,3.292.878-1.756,3.731-5.048,6.8-7.9a45.089,45.089,0,0,1-4.389-2.634c-5.048-3.731-9.657-7.9-14.485-11.851-2.634-1.975-6.8-7.9-10.1-9-6.145-1.975-19.313,1.536-25.678,2.414C800.343,362.294,800.123,352.637,801.44,343.2Z" transform="translate(-796.612 -284.382)" fill="#18ccf5"/>
          </g>
        </g>
        <g id="Сгруппировать_2413" data-name="Сгруппировать 2413">
          <g id="XMLID_206_" transform="translate(636.633 3776.14)" opacity="0.559">
            <g id="XMLID_373_">
              <g id="XMLID_374_">
                <path id="XMLID_376_" d="M680.638,348.579a46.194,46.194,0,0,0-1.975-14.485c-2.414-7.243-7.242-12.51-10.1-19.094,5.048,5.487,11.852,9.437,16.9,15.143,4.828,5.487,8.34,12.29,12.729,17.777,13.388-.658,27.215-3.073,40.822-4.17a25.5,25.5,0,0,0-.878-3.95c-2.634-6.145-7.9-8.779-12.071-13.607,8.56,3.512,24.581,5.487,27.653,16.46h.439c9.218-7.023,22.386-7.462,33.579-9.437,9.437-1.756,34.018-1.975,30.506-15.582a57.4,57.4,0,0,1,12.071,15.143c1.1,1.756,2.195,5.926,3.512,10.1l3.292.658c22.386,5.487,39.724,14.046,55.746,30.945a26.849,26.849,0,0,0-12.949,3.731c3.073,0,8.779,1.1,10.534,3.512-16.46,12.949-40.383,14.266-60.793,16.241a25.2,25.2,0,0,1-4.17.219c-5.706,7.242-10.534,15.582-19.313,18.216A140.221,140.221,0,0,0,811,399.277c0-.439.219-1.1.219-1.756-9.876-1.1-19.753-3.512-29.19-5.706a197.792,197.792,0,0,1-28.751-9,27.781,27.781,0,0,1-9.437,3.95c-6.145,1.1-12.071-1.317-18-1.975,2.195-3.292,9.218-4.17,12.51-7.242l.878-.878c-5.048-2.195-10.1-4.609-14.924-7.023-9.876-4.828-19.752-10.1-29.848-14.266-.658,7.9-9.657,15.582-15.143,20.85-4.828,4.609-10.754,6.584-16.021,9.876,4.17-3.731,10.315-15.363,11.852-19.094C677.127,361.747,680.638,354.724,680.638,348.579Z" transform="translate(-663.3 -315)" fill="#292bb7"/>
              </g>
            </g>
          </g>
          <g id="Сгруппировать_2412" data-name="Сгруппировать 2412">
            <path id="XMLID_3_" d="M614.417,379.094c5.487,0,12.729.658,19.752.22a42.63,42.63,0,0,0,5.267-.439,11.017,11.017,0,0,0,2.634-.439c.878-.22,1.536-.439,2.414-.658,1.317-.439,2.634-.878,3.731-1.317-1.756-.878-1.975-1.536-3.731-5.926-2.414-6.365-6.8-11.413-9.437-17.777-6.145-14.266-3.512-28.531-20.411-35.554,10.534,1.975,21.728-2.853,32.043,1.536,10.754,4.389,9,17.119,18,22.825,7.681,5.048,4.609-1.756,10.754-4.609,5.487-2.634,14.266,2.195,16.241,7.462-7.462-1.536-6.365,8.779-3.073,12.29,4.17,4.828,13.168,4.609,11.852-3.731,4.828,5.048,7.681,11.413,5.048,17.777-2.195,5.267-6.584,5.048-1.536,11.413,5.048,6.145,14.046,6.8,17.338,15.143,3.073,7.682,1.536,25.02-2.414,32.262-4.17-15.8-26.556-24.142-39.066-31.823-9.437-5.706-17.338-12.949-26.556-18.436q-3.292.988-7.9,1.975c-.878.219-1.756.219-2.634.439-.878,0-1.756.219-2.634.219a22.92,22.92,0,0,1-5.487,0c-7.462-.219-14.485-1.536-19.752-1.975a54.492,54.492,0,0,0-9-.439A37.892,37.892,0,0,1,614.417,379.094Z" transform="translate(269.34 3463.326)" fill="#f8f8f8"/>
            <g id="Сгруппировать_2411" data-name="Сгруппировать 2411">
              <path id="XMLID_228_" d="M1123.677,353.9c-16.9-5.487-117.2-25.02-142.217-34.457-14.485-5.487-28.531-18.436-43.455-25.9a184.636,184.636,0,0,0-18-7.681c-2.634-3.292-5.487-6.584-6.8-9.876-3.511-9.218-4.828-19.752-8.12-28.97-5.926-16.68-19.094-40.6-35.554-48.5,5.267,25.678,10.1,51.8,1.756,76.376-26.336-3.292-53.331-3.731-79.009-5.048-42.577-2.195-85.813-6.8-128.39-10.315-6.584-12.29-10.315-27.434-17.338-40.383-6.584-12.51-18.216-26.336-30.726-30.945,12.071,13.607,10.315,33.8,14.924,50.259,2.414,9,7.9,12.729,5.267,21.508-2.195,7.243-8.779,16.241-12.51,22.605-5.706,9.876-15.582,18.216-23.7,25.9,21.508-6.145,39.5-20.411,58.16-31.823,19.752,2.634,42.8,14.924,62.549,24.581,8.56,4.17,17.338,8.34,26.117,12.51-3.95,10.535-14.046,21.508-21.508,26.995,10.1,2.853,31.823-7.462,41.041-18l14.485,6.584a210.6,210.6,0,0,0,44.772,14.046c14.924,3.073,30.068,5.048,45.87,7.023C864.7,364,853.069,377.6,840.779,385.065c13.607.878,43.016-14.485,52.892-31.6,11.413,1.536,22.605,2.634,34.018.439,10.1-1.975,20.191-4.17,30.506-6.584,9.657-2.414,17.558-.878,27.434-.219-4.389-3.95-8.12-6.8-12.29-10.754C991.775,335.465,1097.779,351.047,1123.677,353.9Z" transform="translate(-118.114 3309.65)" fill="#18ccf5"/>
              <g id="Сгруппировать_2410" data-name="Сгруппировать 2410">
                <path id="XMLID_256_" d="M643.626,130.924c-3.073-13.607-18.216-25.02-18.874-39.724,23.264,16.68,40.821,37.749,56.623,61.671,7.462,1.1,14.924,1.975,22.386,2.414a77.95,77.95,0,0,0-1.317-12.51,45.742,45.742,0,0,1,15.144,12.949c5.487,0,10.974,0,16.46-.439,23.922-1.756,50.259-7.462,74.181-2.414-5.487-8.559-.658-14.924.658-24.8,1.317-8.559-4.17-18.436-1.317-26.117,24.581,0,26.995,43.675,42.138,50.917,13.607,6.584,28.751,10.1,42.577,17.338a353.951,353.951,0,0,0,33.359,15.8c6.8,2.853,25.678,10.315,26.995,18.655,1.975,12.29-24.142,10.535-31.6,12.51-11.193,2.853-19.972,7.462-32.043,7.462-10.754,0-21.069-1.756-31.6-3.512-9.218,20.85-26.995,32.7-46.308,43.675,3.292-10.974,7.681-21.508,10.315-32.921.878-4.17,1.756-10.315,2.853-15.8-24.581-3.95-48.064-8.779-72.206-19.094-22.167-9.218-48.723-24.581-71.547-29.19-7.023-.658-16.46,6.8-23.044,9.657-8.34,3.731-22.386,15.8-31.823,12.51,5.926-10.974,17.558-22.825,27.653-30.726C643.626,151.335,646.259,141.9,643.626,130.924Z" transform="translate(246.057 3244.067)" fill="#f7bd31"/>
                <path id="XMLID_153_" d="M303.792,233.239c3.239-6.154,6.8-18.138,6.478-24.939,13.927,1.943,22.024,16.194,23,28.5,25.911,13.6,57,12.308,85.182,19.109,17.166,3.887,33.036,10.04,46.64,21.053,3.563,2.915,9.717,6.478,8.421,11.336-1.3,4.534-8.745,6.8-12.956,8.1-14.251,5.506-32.389,3.563-47.287,4.858-20.729,1.943-41.457,5.506-62.51,4.858,0,.648.324.324.972.324-.324,8.1,2.267,16.842,2.915,25.263.324,6.154,2.591,15.223,1.3,21.053-12.308,4.534-23.32-14.9-27.854-23.32-4.211-7.773-7.773-10.04-14.575-14.9-8.1-5.506-4.534-6.8,2.915-9.069-6.478-2.591-16.194-.324-23-.324-11.984.324-24.615.324-35.951-2.591-4.534-1.3-10.364-5.506-14.575-5.83-3.887-.324-7.125,3.239-10.04,5.83-3.239,2.915-3.239,4.211-6.8,1.943-5.83-3.563-4.211-13.6-7.773-18.138-5.506-6.8-16.842,3.239-24.292.648a15.571,15.571,0,0,0,7.773-5.83q-7.773-3.4-14.575,0c-10.364,5.506-19.433,11.012-31.093,12.955,6.8-6.478,16.842-13.279,18.785-23,1.619-8.1-5.182-21.7-10.041-27.854,11.336,3.563,19.433,9.717,27.206,18.461,3.887,4.534,2.915,6.8,8.745,5.182,13.279-3.239,24.291-13.6,36.6-19.757,8.745-4.211,18.138-6.8,27.53-9.717-8.1-4.534-15.547-10.688-23.968-14.9,14.9.972,28.178,7.125,41.134,13.927C288.894,236.8,296.343,232.268,303.792,233.239Z" transform="translate(292.599 3130.338)" fill="#2a2c36"/>
              </g>
            </g>
          </g>
        </g>
      </g>
    </g>
  </g>
</svg>
